<svg xmlns="http://www.w3.org/2000/svg" width="559.654" height="667.17" viewBox="0 0 148.075 176.522" xmlns:v="https://vecta.io/nano"><style><![CDATA[.B{stroke-linecap:round}.C{stroke-width:.8}.D{stroke-width:1.599}.E{stroke-width:.799}]]></style><path d="M57.733 151.911c.752 2.051.479 4.512-2.735 5.879s-9.366 1.641-14.835 2.461-10.254 2.188-13.057 3.828-3.623 3.555-2.526 4.58 4.099 1.162 6.594 2.08 4.341 2.5 6.051 2.842 3.213-.615 5.537-.684 5.469.752 7.837.83 4.058-.625 6.655-2.129 6.153-3.828 8.204-5.948 2.598-4.033 4.854-6.016 6.221-4.033 11.758-4.99 12.647-.82 17.843.41 8.477 3.555 9.844 6.905.82 7.725 1.299 10.459 1.983 3.828 4.444 3.692 5.879-1.504 9.434-2.188 7.246-.684 11.348-.615 8.614.205 10.459-.957 1.025-3.623-3.076-6.084-11.485-4.922-15.928-6.426-5.948-2.051-5.606-5.059 2.529-8.477 2.94-14.971-.957-14.014-3.281-19.415-5.606-8.682-6.664-11.099.238-4.145-1.129-7.29-5.332-7.793-10.049-13.536S93.76 75.891 89.726 70.354s-6.631-9.776-6.768-14.288 2.188-9.297 3.008-13.809.137-8.75-1.299-13.262-3.623-9.297-6.905-12.305-7.657-4.239-8.987-5.447.511-2.483.1-4.808S65.868.692 62.655.418s-7.041 2.598-8.955 4.922-1.914 4.102-1.668 5.114.848 1.313.164 2.953-2.598 4.649-4.307 8.34-3.213 8.067-4.097 12.306-1.167 8.613.064 12.168 3.965 6.426 4.854 9.913-.068 7.588-1.436 11.895-3.145 8.819-4.957 12.196-3.793 5.783-5.078 5.506-1.997-3.415-.835-6.491 4.17-6.221 5.879-9.571 2.119-6.905 1.934-9.919-1.045-5.736-5.147-7.719-11.485-3.35-17.61-2.817-11.102 3.022-14.725 6.508S.786 63.722.445 67.482s1.299 6.768 3.76 8.819 5.742 3.145 8.614 3.486 5.332-.068 7.383 1.367 3.692 4.717 4.512 8.477.82 7.998 1.231 11.006 1.231 4.785 1.575 7.383.202 6.289 1.365 9.502 3.623 6.084 5.674 6.358 3.692-2.051 4.512-5.606.82-8.34 1.436-10.733 1.846-2.393 3.487-1.231 3.692 3.486 5.332 8.067 2.871 11.417 3.486 17.159.615 10.391 1.504 13.536 2.666 4.785 3.418 6.836z" fill="#fff" stroke="#fff" class="C"/><g fill="none"><g stroke="#121212"><g class="B D"><path d="M57.312 54.567l-5.728-4.907c-1.668-1.716-2.973-3.553-3.555-5.269s-.433-3.408-.046-5.075l1.426-5.535 1.056-7.253c.452-2.419 1.191-4.687 2.424-6.306s2.973-2.635 4.882-3.311 3.988-1.015 6.308-1.015 4.882.338 6.949 1.269 3.686 2.501 4.749 3.976 1.595 2.876 1.958 4.181.556 2.514.773 3.48.459 1.692 1.088 2.876 1.644 2.828 2.292 4.496.947 3.456.898 5.051a9.95 9.95 0 0 1-1.16 4.423c-.725 1.378-1.789 2.683-2.973 3.891s-2.489 2.32-3.795 3.432"/><path d="M77.325 50.652c-.435 1.982-.87 3.964-.846 5.946s.508 3.964 1.015 5.366 1.039 2.224 2.199 3.795l5.076 6.429 6.332 7.517 4.157 5.777c1.402 1.861 3.19 3.891 4.979 5.922m-45.68-38.867c.967 1.595 1.934 3.19 2.393 4.907s.411 3.553-.159 5.42-1.702 3.837-3.249 6.955-3.529 7.42-4.713 10.925-1.571 6.212-1.378 9.499.967 7.154 2.369 10.2 3.432 5.269 5.728 6.816 4.858 2.417 7.42 3.287"/></g><path d="M53.252 105.759c1.418 3.764 2.804 7.444 3.71 12.532s1.317 11.541 1.704 16.653.749 8.882 1.559 11.577 2.067 4.314 3.192 5.432 2.162 1.759 3.201 1.904 2.103-.193 4.012-.87 4.665-1.692 8.87-2.296 9.861-.798 14.479-.773 8.192.266 10.621 1.051 3.758 2.164 5.257 3.638 3.19 3.07 4.616 3.553 2.586-.145 3.722-2.514 2.248-6.477 2.731-10.804.338-8.87-.595-12.984-2.692-7.875-5.061-12.443-5.366-9.982-8.363-15.396M88.782 91.982c.242 1.499.483 2.997 1.764 4.471s3.601 2.925 6.495 4.131 6.387 2.177 8.852 2.83l4.858 1.208c.943.218 1.378.314 1.402-.193s-.363-1.619-2.49-3.964-5.994-5.922-8.798-8.532-4.544-4.254-5.632-5.051-1.523-.749-1.958-.701m-46.549 1.016l-7.71 5.752c-2.586 2.272-5.197 5.076-6.623 6.695s-1.668 2.054-1.039 2.151 2.127-.145 4.057-.435l6.457-1.209c2.151-.58 4.085-1.402 6.018-2.224" stroke-width="1.699" class="B"/><path d="M33.239 118.231c.193-2.127.387-4.254.193-7.71s-.773-8.242-1.644-13.221-2.03-10.151-3.215-14.816-2.393-8.822-3.601-12.979" stroke-width="1.4" class="B"/><path d="M63.983 15.412c-.677-1.402-1.354-2.804-1.668-4.447s-.265-3.625.073-4.858.967-1.764 1.565-1.959 1.19-.047 1.594.366.66 1.182.515 1.714-.677.87-1.063.894-.628-.266-.87-.556" class="B"/><path d="M61.373 15.412c.048-1.885.097-3.771-.302-5.254s-1.293-2.625-2.306-3.133-2.177-.411-2.709.097-.435 1.426-.193 1.982.628.749.918.749.483-.193.677-.387" stroke-width="1.1" class="B"/><path d="M54.219 42.047c.677-.967 1.74-1.982 2.562-2.876s1.402-1.668 2.417-2.054 2.465-.387 3.674-.193 2.175.58 2.876 1.184 1.136 1.426 1.909 2.344 1.885 1.934 2.417 2.876.483 1.813.205 2.548-.834 1.392-1.535 1.875-1.571.822-3.408.967-4.641.097-6.768-.097-3.577-.532-4.399-1.184-1.015-1.619-.967-2.562.338-1.861 1.015-2.828z" stroke-width="1.4"/><path d="M70.78 35.362c.582.368 1.605-.292 2.214-.96s.802-1.345.711-2.09a4.03 4.03 0 0 0-.95-2.09c-.483-.532-1.075-.782-1.556-.429s-.889 1.404-1.014 2.604.014 2.597.595 2.965z" stroke-width="1.798"/><path d="M54.313 35.026c.336-.785.717-2.113.547-3.104s-.889-1.645-1.448-1.734-1.031.471-1.309 1.243-.4 1.798-.352 2.482a2.03 2.03 0 0 0 .57 1.365c.303.34.689.678 1.028.727s.628-.193.964-.978z" stroke-width="1.598"/><g class="B"><path d="M63.988 152.628c-.182 1.504-.363 3.008-.966 4.707s-1.626 3.593-2.65 5.487m6.59-8.963l-2.693 4.197-2.391 4.579" stroke-width="1.199"/><path d="M61.424 162.883c-5.879.068-11.758.137-16.134.479s-7.246.957-10.148 1.572l-6.959 1.539c-1.111.308-.393.308.974.427s3.384.359 4.802.94 2.239 1.504 2.735 1.983.667.513.914.384.607-.452 1.478-.76 2.273-.615 3.948-.769 3.623-.154 4.973.068 2.102.667 2.598 1.231.735 1.248.872 1.436.171-.12.812-.948a16.73 16.73 0 0 1 3.518-3.31c1.596-1.096 3.497-1.911 4.894-2.474s2.295-.873 2.475-1.226-.384-.775-.931-1.185" class="D"/><path d="M114.235 158.371c.855.855 1.709 1.709 2.273 2.632s.837 1.914 1.111 2.905m-1.026-6.05l.667 3.179.461 3.179" stroke-width="1.2"/><path d="M117.414 161.55c1.641.786 3.281 1.572 6.149 2.409s6.977 1.727 10.509 2.665 6.517 1.933 8.311 2.685 2.41 1.265 2.341 1.35-.82-.256-2.568-.77-4.474-1.195-6.696-1.349-3.931.222-4.871.82-1.111 1.419-1.401 1.641-.701-.154-2.376-.41-4.614-.393-6.915-.004-3.989 1.32-4.647 1.536-.265-.319.242-1.517 1.167-3.143 1.557-4.442.533-2.05.67-2.768" class="D"/></g><g stroke-width="1.2"><path d="M23.85 64.423c.162.872.487 2.341 1.077 3.769s1.444 2.811 2.401 3.837 2.017 1.692 2.696 1.884.996-.107 1.175-.893.23-2.034-.573-3.581-2.461-3.375-3.76-4.495-2.239-1.53-2.709-1.598-.47.205-.308 1.077z"/><path d="M24.406 63.167c.53-.145 1.521-.385 3.033-.547a41.26 41.26 0 0 1 5.367-.188c1.82.06 3.427.265 4.555.769s1.777 1.307 2.044 1.991.144 1.281-1.275 1.64-4.136.496-6.452-.009-4.23-1.649-5.486-2.324l-2.119-1.008c-.265-.128-.197-.179.333-.325zm-.684 1.265c.308 1.154.701 3.324.555 5.136s-.829 3.264-1.675 4.264-1.854 1.547-2.461 1.333-.812-1.188-.677-2.786.617-3.854 1.258-5.52 1.444-2.76 1.957-3.239.735-.342 1.043.812z"/><path d="M19.133 68.286c-1.564 1.555-3.734 3.213-5.521 4.136s-3.186 1.111-3.716.76-.188-1.239.923-2.589 2.991-3.162 4.731-4.493 3.353-2.189 4.524-2.728 1.906-.761 2.256-.632.316.607-.179 1.572-1.453 2.418-3.017 3.974zm5.264-6.179c1.017-.778 2.846-2.247 4.922-3.35s4.401-1.837 6.127-2.222 2.854-.419 3.504-.051.82 1.137-.145 2.068-3.068 2.025-5.376 2.752-4.818 1.085-6.596 1.316l-3.239.342c-.419.009-.214-.077.803-.855z"/><path d="M15.083 65.491c-2.025.419-4.811.555-6.375.547s-1.906-.162-2.042-.47-.068-.769 1.222-1.478 3.803-1.666 6.306-2.145 4.999-.479 6.534-.369 2.122.334 1.777.703-1.604.879-2.868 1.486-2.529 1.307-4.555 1.726zm8.673-4.178c.273-1.384.615-3.692 1.41-5.29s2.042-2.487 3.008-2.905 1.649-.367 1.983-.026.316.974-.222 2.145-1.598 2.88-2.829 4.367-2.632 2.752-3.23 3.153-.393-.06-.12-1.444z"/><path d="M15.673 60.509c-2.051-.735-3.145-1.658-3.632-2.401s-.367-1.307-.043-1.555.855-.179 2.23.06 3.598.649 5.272 1.376 2.803 1.769 3.419 2.553.717 1.284-.736 1.267-4.461-.564-6.512-1.299zm5.887-1.957c-.658-1.085-1.393-2.418-1.47-3.427a2.12 2.12 0 0 1 .966-1.974c.462-.282.803-.162 1.29.376s1.119 1.495 1.504 2.222.521 1.222.402 2.111-.496 2.171-.974 2.393-1.06-.615-1.718-1.701z"/></g><path d="M109.723 104.022c-.684-.957-1.367-1.914-2.102-2.529s-1.521-.889-2.307-1.162m-74.178 1.005l3.997-2.552.861-.602" class="B C"/><path d="M34.762 101.118l2.393-2.067" class="B E"/><path d="M57.892 42.241l1.305-1.305m4.786 1.305l-.798-1.595M36.865 168.01c2.205-.82 4.409-1.641 7.58-2.23s7.306-.949 11.442-1.307" class="C B"/><path d="M51.272 168.728c.564-.667 1.128-1.333 1.991-2.051s2.025-1.487 3.187-2.256" class="B E"/><path d="M128.191 169.568l-5.299-3.722c-1.48-.943-2.532-1.438-3.583-1.934m-2.031 6.127l1.366-3.112c.302-.961.375-1.807.447-2.653m13.397 3.018l-7.181-1.573c-2.156-.582-3.945-1.247-5.74-1.913" class="C B"/></g><g stroke="#c53a4e" class="B"><path d="M70.5 38.035l1.282 2.205" class="E"/><path d="M72.55 37.266l2 2.974m1.436-3.282l1.487 2.512m-23.432-1.179l-1.846 1.436m-.974-1.794l-1.846 1.846" class="C"/></g></g></svg>