<svg xmlns="http://www.w3.org/2000/svg" width="517.9" height="581"><style>.B{fill-opacity:.32}.C{fill-opacity:.56}</style><defs><clipPath id="A"><path d="M0 0h2150v2415.6H0V0z" fill-rule="evenodd" transform="scale(.24)"/></clipPath></defs><g clip-path="url(#A)" fill="#1f1f1f"><path d="m104 246.4.6.6 1 .9 1.6 1.4 2 1.7 2 2 1.8 1.9 1.7 1.9a1.2 1.2 0 0 0 .9.4 1.2 1.2 0 0 0 .8-.3 1.2 1.2 0 0 0 .4-.9 1.2 1.2 0 0 0-.3-.8l-1.7-2-2-2-2-1.9-2-1.8-1.5-1.4-1.2-1-.7-.5a1.2 1.2 0 0 0-.9-.3 1.2 1.2 0 0 0-.8.5 1.2 1.2 0 0 0-.2.8 1.2 1.2 0 0 0 .4.9"/><path d="m110 254.2.3.2.5.4.7.9 1 1.2 1 1.5 1 1.5 1 1.5.8 1.3a1.2 1.2 0 0 0 1.6.3 1.2 1.2 0 0 0 .4-1.6l-.7-1.3-1-1.5-1.1-1.6-1.1-1.5-1-1.3-.8-1h-.1l-.6-.6a1.2 1.2 0 0 0 0-.1l-.4-.2a1.2 1.2 0 0 0-1.7.2 1.2 1.2 0 0 0 .3 1.7m-10.3-5.3h2.1l1.5.2 1.7.3 2 .4 2.3.6 2.3.7 2.2.8 2 .9 1.7.8a1.2 1.2 0 0 0 1.5-.6 1.2 1.2 0 0 0-.5-1.6l-1.7-.8-2-.9h-.1l-2.3-.8-2.4-.8-2.3-.6h-.1l-2.1-.5-1.9-.3-1.5-.1-1.2-.1H99.7a1.2 1.2 0 0 0-1.2 1.2 1.2 1.2 0 0 0 1.2 1.2"/><path d="m113.5 252.6.3.2.5.5 1 1 1.5 1.7 1.9 2.2 2.2 2.6 2.4 2.7 2.3 2.5 2 2.2 1.7 1.9a1.2 1.2 0 0 0 .9.3 1.2 1.2 0 0 0 .8-.3 1.2 1.2 0 0 0 .4-.8 1.2 1.2 0 0 0-.3-.9l-1.7-1.8-2-2.2-2.4-2.5-2.3-2.7-2.2-2.6-1.9-2.2-1.5-1.7-1-1v-.1l-.7-.6-.3-.3a1.2 1.2 0 0 0-.9-.2 1.2 1.2 0 0 0-.8.4 1.2 1.2 0 0 0-.3.8l.2.5a1.2 1.2 0 0 0 .2.4"/><path d="m125.9 264.9.6.7 1.2 1.2 1.8 1.9 2.5 2.4 3 2.7h.1l3.3 2.8 3.4 2.7 3.1 2.5 2.6 2a1.2 1.2 0 0 0 .9.3 1.2 1.2 0 0 0 .8-.4 1.2 1.2 0 0 0 .3-1 1.2 1.2 0 0 0-.5-.7l-2.6-2.1-3-2.5-3.4-2.7-3.4-2.7-3-2.7-2.4-2.3-1.8-1.8-1.2-1.3-.6-.7a1.2 1.2 0 0 0-.8-.3 1.2 1.2 0 0 0-.9.3 1.2 1.2 0 0 0-.4.8 1.2 1.2 0 0 0 .4.9"/><path d="M138.7 280.4h.3l.6.4 1.2.5 1.7 1 2.3 1.5 3 2 3.2 2 3.2 2a1.2 1.2 0 0 0 1.6-.4 1.2 1.2 0 0 0-.3-1.6l-3.2-2-3.3-2.1-2.9-1.9-2.3-1.5-1.9-1-1.2-.7-.7-.3-.3-.2a1.2 1.2 0 0 0-1.6.7 1.2 1.2 0 0 0 .3 1.3 1.2 1.2 0 0 0 .3.3m-45-32h.9l1.7.1 2 .1 2.5.4 2.7.7 2.6.9 2.4 1 2 1.2 1.7 1a1.2 1.2 0 0 0 1.7-.3 1.2 1.2 0 0 0-.4-1.7l-1.7-1v-.1l-2.2-1.2-2.6-1.1-2.8-1h-.1l-2.8-.7-2.6-.4h-.1l-2.2-.2h-2.8a1.2 1.2 0 0 0-1.2 1.2 1.2 1.2 0 0 0 1.2 1.2m31.7 58.7.1.3v.1l.3.6.4.8.6 1.3.7 1.5 1 2 1 2.2 1 2.2 1 2.2a1.2 1.2 0 0 0 1.5.6 1.2 1.2 0 0 0 .4-.2 1.2 1.2 0 0 0 .3-1.3l-1-2.2-1-2.4-1.1-2.1-1-2-.6-1.5-.6-1.3-.4-.8-.2-.6-.1-.2a1.2 1.2 0 0 0-1.5-.7 1.2 1.2 0 0 0-.8 1.5m-16-19.6.3.2 3.7 2.6a1.2 1.2 0 0 0 1.6-.3 1.2 1.2 0 0 0-.3-1.7l-3.6-2.6-.3-.2a1.2 1.2 0 0 0-1.6.3 1.2 1.2 0 0 0 .3 1.7m10 13.4 2.2 2.4 2.1 2.4a1.2 1.2 0 0 0 1.7.1 1.2 1.2 0 0 0 .1-1.6l-2-2.5h-.1l-2.2-2.4a1.2 1.2 0 0 0-.8-.4 1.2 1.2 0 0 0-1.2 1.2 1.2 1.2 0 0 0 .3.8m-3.2-6.4a1.2 1.2 0 0 0-.1 0l.7.2 1 .5 1.1.6 1.3.8 1.4 1 1.5 1 1.5 1.4 1.4 1.3 1.4 1.3 1 1.2a1.2 1.2 0 0 0 1 .4 1.2 1.2 0 0 0 1.2-1.2 1.2 1.2 0 0 0-.3-.8l-1.2-1.3-1.4-1.4-1.5-1.3-1.6-1.4-1.5-1.2h-.1l-1.5-1-1.4-.8-1.3-.7-1-.6h-.1l-.8-.3a1.2 1.2 0 0 0-.2 0 1.2 1.2 0 0 0-1.4.9 1.2 1.2 0 0 0 1 1.4"/><path d="m107 283.8 1 1 3 3 3.5 3.2 3.5 3.4 3.4 3.4 3 3 2.3 2.3a1.2 1.2 0 0 0 .9.4 1.2 1.2 0 0 0 1.2-1.2 1.2 1.2 0 0 0-.3-.8L126 299l-3-3-3.4-3.4-3.5-3.4-3.5-3.3-3-2.9-1.1-1a1.2 1.2 0 0 0-.9-.4 1.2 1.2 0 0 0-1.1 1.3 1.2 1.2 0 0 0 .3.8m-5.2-35.2.8-.2 1.4-.3 2-.2 2.2-.2h2.5l2.3-.2h5.7l.4.2.3.1.3.2a1.2 1.2 0 0 0 1.7-.3 1.2 1.2 0 0 0-.3-1.7l-.4-.2a1.2 1.2 0 0 0-.1-.1l-.5-.2a1.2 1.2 0 0 0-.3-.1l-.6-.2a1.2 1.2 0 0 0-.2 0l-1-.1h-5l-2.4.1-2.5.1-2.4.2-2 .3-1.5.2h-.1l-.9.2a1.2 1.2 0 0 0-.9 1.5 1.2 1.2 0 0 0 1.5.9"/><path d="m105.8 248.3.4.1.9.4 1.3.4 1.8.6 2 .8 2.3.9 2.2.8 1.9.8a1.2 1.2 0 0 0 1.5-.6 1.2 1.2 0 0 0-.6-1.6l-2-.8-2.1-.9-2.3-.9-2.1-.8-1.8-.6-1.3-.4-.8-.3-.3-.1a1.2 1.2 0 0 0-1.5.6 1.2 1.2 0 0 0 .5 1.6m15.7 5.8.7.5 1.3 1 2.1 1.6 3 2.2 3.5 2.7 3.5 2.8 3.3 2.9 3 2.6 2.3 2.2 1.8 1.7 1.2 1.3a1.2 1.2 0 0 0 .9.4 1.2 1.2 0 0 0 1.2-1.2 1.2 1.2 0 0 0-.3-.9l-1.3-1.2-1.8-1.8-2.5-2.3-2.9-2.6-3.4-2.9-3.5-2.9-3.5-2.7-3-2.2-2.2-1.6-1.3-1-.7-.6a1.2 1.2 0 0 0-1.7.4 1.2 1.2 0 0 0 .3 1.6"/><path d="m116.4 253 .9.8 1.6 1.3 2.6 2 3.6 2.8 4.6 3.7 5.4 4.2 5.8 4.5 5.7 4.4 5.4 4 4.3 3.3a1.2 1.2 0 0 0 1.7-.3 1.2 1.2 0 0 0-.2-1.6l-4.4-3.3-5.3-4-5.8-4.5-5.8-4.4-5.3-4.2-4.6-3.6-3.6-2.9-2.6-2-1.6-1.3-.9-.7a1.2 1.2 0 0 0-1.7.2 1.2 1.2 0 0 0 .2 1.7m3 37.4.8.7 1.3 1.4 2.1 2.4 2.9 3.1 3.4 4 3.8 4.5 3.9 4.7 3.7 4.7a1.2 1.2 0 0 0 1.7.2 1.2 1.2 0 0 0 .2-1.7l-3.7-4.7-4-4.8-3.8-4.5-3.4-4-2.9-3.1-2.1-2.4-1.4-1.5-.8-.8a1.2 1.2 0 0 0-.9-.3 1.2 1.2 0 0 0-1.1 1.2 1.2 1.2 0 0 0 .3.9M108 247h.3l.8.2 1.4.4 2 .4 2.8.6 3.4.6 2.8.6a1.2 1.2 0 0 0 1.4-1 1.2 1.2 0 0 0-1-1.4l-2.8-.5-3.3-.7-2.7-.5-2-.5-1.5-.3-.8-.2h-.3a1.2 1.2 0 0 0-1.4.9 1.2 1.2 0 0 0 .9 1.4"/><path d="m107.8 285.7.7.4 3.5 1.7 3.8 1.8 3.6 1.7 3.1 1.4 2.4 1a1.2 1.2 0 0 0 1 .1 1.2 1.2 0 0 0 .6-.6 1.2 1.2 0 0 0 0-1 1.2 1.2 0 0 0-.6-.6l-2.3-1.1-3.2-1.4-3.6-1.7-3.7-1.8-3.5-1.7-.7-.3a1.2 1.2 0 0 0-1 0 1.2 1.2 0 0 0-.6.5 1.2 1.2 0 0 0 0 1 1.2 1.2 0 0 0 .5.6"/><path d="m107 281.8 3 2 4.1 2.5 3.6 2a1.2 1.2 0 0 0 1.6-.5 1.2 1.2 0 0 0-.4-1.6l-3.6-2-4-2.5-3-2a1.2 1.2 0 0 0-1.7.4 1.2 1.2 0 0 0 .3 1.7M93 251.9l2.9 1a1.2 1.2 0 0 0 1.5-.8 1.2 1.2 0 0 0-.7-1.5l-2.9-1a1.2 1.2 0 0 0-1.5.8 1.2 1.2 0 0 0 .7 1.5"/><path d="M93.4 251h13.8l5.1.1 4.8.1 4.1.1a1.2 1.2 0 0 0 1.3-1.2 1.2 1.2 0 0 0-1.2-1.2h-4.1l-4.9-.2H93.5a1.2 1.2 0 0 0-1.3 1.2 1.2 1.2 0 0 0 1.2 1.2m26.2 38.6.2.6a1.2 1.2 0 0 0 0 .2l.6 1.2 1 2 1.7 2.8 2.3 3.6 2.9 4.3 3.4 5 3.9 5.1 4 5a1.2 1.2 0 0 0 1.6.2 1.2 1.2 0 0 0 .2-1.7l-4-5-3.8-5-3.3-4.9-2.9-4.3-2.2-3.6-1.6-2.7-1-2-.6-1-.1-.5a1.2 1.2 0 0 0-1.5-.7 1.2 1.2 0 0 0-.8 1.4m22.1 31.6.7.4 1.3.7 2 1.4h.1l3 1.9 4 2.2 4.5 2.4 4.7 2.2 4.5 1.9a1.2 1.2 0 0 0 1.6-.6 1.2 1.2 0 0 0-.7-1.6l-4.4-1.9-4.6-2.2-4.5-2.3-3.8-2.2-3-1.8-2.2-1.4-1.3-.8-.8-.4a1.2 1.2 0 0 0-1.5.5 1.2 1.2 0 0 0 .4 1.6m6.5-45.4.4.3 1 .6 1.6 1.1 2.2 1.5 2.8 1.8 3.1 2a1.2 1.2 0 0 0 1.7-.5 1.2 1.2 0 0 0-.4-1.6l-3.1-2-2.8-1.7-2.2-1.4-1.5-1.2-1-.6-.4-.3a1.2 1.2 0 0 0-1.7.3 1.2 1.2 0 0 0 .3 1.7m12.8 10.5 1 .5 1.5.6 2 .8a1.2 1.2 0 0 0 1.6-.7 1.2 1.2 0 0 0-.6-1.5l-2-.8-1.6-.7-1-.4a1.2 1.2 0 0 0-1.6.7 1.2 1.2 0 0 0 .7 1.5"/><path d="m158.9 281.3.3.4a1.2 1.2 0 0 0 .1.1l.7.7a1.2 1.2 0 0 0 .1 0l1.4 1 2 1.3 2.4 1.3 2.8 1.5 1 .4a1.2 1.2 0 0 0 .8 0 1.2 1.2 0 0 0 .6-.7 1.2 1.2 0 0 0 0-.8 1.2 1.2 0 0 0-.5-.7l-.8-.4-2.7-1.4-2.4-1.3-1.8-1.1-1.3-1-.6-.5-.2-.3a1.2 1.2 0 0 0-.8-.4 1.2 1.2 0 0 0-.9.2l-.3.4a1.2 1.2 0 0 0-.1.9 1.2 1.2 0 0 0 .2.4"/><path d="m156 281 .4.3.8.5 1.1.6 1.5.9 1.8 1 2 1.1h.1l2.4 1.3 2.4 1.3 1 .5a1.2 1.2 0 0 0 1.7-.5 1.2 1.2 0 0 0-.6-1.7l-1-.5-2.4-1.2-2.4-1.3-2-1.1-1.8-1-1.5-.8-1-.7-.8-.4-.3-.2a1.2 1.2 0 0 0-1.6.3 1.2 1.2 0 0 0 .3 1.7M125 300.4l.1.8v.1l.5 1.7.8 2.5v.1l1.4 3.2v.1l1.9 3.8 2.3 4.1 2.5 4.3 2.7 4.3 2.6 4a1.2 1.2 0 0 0 1.7.3 1.2 1.2 0 0 0 .3-1.7l-2.5-4-2.7-4.1-2.5-4.2-2.3-4.1-1.8-3.7-1.3-3.2-.8-2.4-.4-1.6-.2-.8a1.2 1.2 0 0 0-1.4-.9 1.2 1.2 0 0 0-1 1.4"/><path d="m132.1 316.4.3.6a1.2 1.2 0 0 0 0 .1l.7 1.3 1.4 2v.1l2 2.7 2.6 3.3 2.9 3.6 3 3.8 2.6 3.5a1.2 1.2 0 0 0 .8.4 1.2 1.2 0 0 0 .9-.3 1.2 1.2 0 0 0 .5-.7 1.2 1.2 0 0 0-.3-1l-2.7-3.4-3-3.7-2.8-3.7-2.5-3.3-2-2.6-1.3-2-.6-1-.2-.6a1.2 1.2 0 0 0-.7-.6 1.2 1.2 0 0 0-1 0 1.2 1.2 0 0 0-.6.6 1.2 1.2 0 0 0 0 .9"/><path d="m147 337.9 1 .6 1.7 1 3 1.4 4.4 2 5.8 2.2 6.8 2.3a1.2 1.2 0 0 0 1.4-.7 1.2 1.2 0 0 0-.7-1.6l-6.7-2.3-5.7-2.1-4.3-2-2.8-1.3-1.6-1-.8-.5a1.2 1.2 0 0 0-1.7.3 1.2 1.2 0 0 0 .3 1.7m35.1 15 2.8.7 4 1 5 1.2 5.5 1.3 5.3 1.3 4.7 1a1.2 1.2 0 0 0 1.4-.8 1.2 1.2 0 0 0-.9-1.5l-4.6-1-5.4-1.3-5.4-1.3-5-1.2-4-1-2.8-.7a1.2 1.2 0 0 0-1.4.9 1.2 1.2 0 0 0 .8 1.4"/><path d="m161.8 352.2 1.6.1 3 .5 5.2.9 7.4 1.2 9 1.5 9.6 1.4a1.2 1.2 0 0 0 1-.2 1.2 1.2 0 0 0 .4-.8 1.2 1.2 0 0 0-.2-.8 1.2 1.2 0 0 0-.8-.5l-9.6-1.5-9-1.5-7.4-1.2-5.2-.9-3.1-.4-1.6-.2a1.2 1.2 0 0 0-.9.3 1.2 1.2 0 0 0-.4.8 1.2 1.2 0 0 0 .2.9 1.2 1.2 0 0 0 .8.4"/><path d="M185.2 357.3h.6l1.9.2 3.5.5 5.3.7 6.8 1 7.4 1a1.2 1.2 0 0 0 1.3-1.1 1.2 1.2 0 0 0-1-1.4l-7.4-1-6.8-.9-5.3-.7-3.6-.5-1.8-.2H185.3a1.2 1.2 0 0 0-1.3 1.1 1.2 1.2 0 0 0 1.2 1.3m-15.6-64.4.5.2 1.3.4 2.6 1.1 4 1.8 5.3 2.5a1.2 1.2 0 0 0 1.5-.6 1.2 1.2 0 0 0-.5-1.6l-5.3-2.5-4-1.8-2.7-1v-.1l-1.4-.5-.6-.2a1.2 1.2 0 0 0-1.5.8 1.2 1.2 0 0 0 .8 1.5m-6.3-10.3.7.3 1.4.7 2.5 1.4 1.8 1a1.2 1.2 0 0 0 1.6-.4 1.2 1.2 0 0 0-.4-1.6l-1.9-1-2.4-1.5-1.5-.8h-.2l-.7-.3a1.2 1.2 0 0 0-1.5.7 1.2 1.2 0 0 0 .6 1.5M219 317l2.8 2 4.3 2.8 5.5 3.5 6.3 3.8 6.4 4 6.1 4a1.2 1.2 0 0 0 1.7-.3 1.2 1.2 0 0 0-.4-1.7l-6-4-6.5-4-6.3-3.9-5.4-3.4-4.3-2.9-2.8-1.9a1.2 1.2 0 0 0-1.7.4 1.2 1.2 0 0 0 .3 1.6m-37.7-24.5 1.8 1 7.4 4 3 1.7a1.2 1.2 0 0 0 1.6-.5 1.2 1.2 0 0 0-.4-1.6l-3-1.6-7.4-4.1-1.8-1a1.2 1.2 0 0 0-1.7.5 1.2 1.2 0 0 0 .5 1.6"/><path d="m184.7 295.7.8.6 1.2 1 1.9 1.5 2.3 1.5a1.2 1.2 0 0 0 1.6-.3 1.2 1.2 0 0 0-.3-1.6l-2.2-1.6-1.8-1.3-1.2-1-.8-.7a1.2 1.2 0 0 0-1.6.2 1.2 1.2 0 0 0 .1 1.7m66.5 41.6.5.7 1.3 1.8 2.4 3.3 4.2 5.6 6.6 8.3 9.6 11.5 12.2 14 13.7 14.8 13.7 14.3a1.2 1.2 0 0 0 .9.3 1.2 1.2 0 0 0 1.2-1.2 1.2 1.2 0 0 0-.4-.8l-13.6-14.2-13.7-14.8-12.2-14-9.5-11.4-6.6-8.3-4.2-5.6-2.4-3.2-1.2-1.7-.4-.6a1.2 1.2 0 0 0-1.7-.4 1.2 1.2 0 0 0-.4 1.6"/><path d="m256.8 346 2 1.5 3.9 2.9 5.9 4.5 9 7 12.1 9.7 15.4 12.2 17.7 14 18 13.8 16.9 12.5 14.1 10.3a1.2 1.2 0 0 0 1.7-.3 1.2 1.2 0 0 0-.3-1.6l-14.1-10.3-16.8-12.5-18-13.9-17.8-14-15.3-12.1-12.1-9.6-9-7-6-4.6-3.8-3-2.1-1.5a1.2 1.2 0 0 0-1.7.3 1.2 1.2 0 0 0 .3 1.7m40 64 .4.9 1 2 1.7 3.4 2.7 4.7 3.7 6 4.7 6.8 5.3 7 6 7.2 3.1 3.7 3.4 3.6 7 7a1.2 1.2 0 0 0 .9.2 1.2 1.2 0 0 0 1.2-1.1 1.2 1.2 0 0 0-.4-.9l-7-6.9-3.3-3.5-3.1-3.6-5.9-7.1-5.3-7-4.6-6.7-3.6-5.9-2.7-4.6-1.7-3.3-1-1.9-.2-.8a1.2 1.2 0 0 0-1.6-.7 1.2 1.2 0 0 0-.7 1.5m-65-45.6.5.1 1.4.2 2.4.4 3.5.8 4.4 1 5.1 1 3.2.7a1.2 1.2 0 0 0 1.3-.9 1.2 1.2 0 0 0-.8-1.4l-3.2-.7-5-1.1-4.5-1-3.5-.7-2.5-.5-1.5-.2h-.6a1.2 1.2 0 0 0-1.3 1 1.2 1.2 0 0 0 1 1.3m42.5 16.3 2.4 2 3 3 3.2 3.4 3.2 3.7 3 4.2 3 4.3 2.6 4.3a1.2 1.2 0 0 0 1.7.3 1.2 1.2 0 0 0 .3-1.6L294 400l-3-4.4-3.1-4.2-3.2-3.9h-.1l-3.2-3.5-3.2-3-2.4-2.1a1.2 1.2 0 0 0-1.6.1 1.2 1.2 0 0 0 0 1.7"/><path d="m274.1 377.4.9 1 3.3 4v.1l3.7 4.4 4.1 4.8 4.3 5 4.5 5.3 4.5 5.4 4.5 5.3 4.1 5.2 3.7 4.8 3.2 4.3 2.6 3.4 1.9 2.6a1.2 1.2 0 0 0 1.6.2 1.2 1.2 0 0 0 .3-1.6l-2-2.6-2.5-3.5-3.2-4.2-3.7-4.9-4.2-5.2-4.4-5.4-4.6-5.3-4.4-5.3-4.4-5-4-4.8-3.8-4.4-3.3-4-.8-1.1a1.2 1.2 0 0 0-1.7-.2 1.2 1.2 0 0 0-.2 1.7m-155.6-84 .4.3.9.4 1.2 1 1.5 1.2 1.5 1.4 1.4 1.5 1.3 1.5 1.1 1.5.9 1.3.6 1.2a1.2 1.2 0 0 0 1.6.4 1.2 1.2 0 0 0 .5-1.6l-.6-1.2h-.1l-1-1.4v-.1l-1-1.5h-.1l-1.4-1.7-1.5-1.6-1.6-1.5-1.6-1.3-1.4-1v-.1l-1-.5a1.2 1.2 0 0 0-.2-.1l-.5-.2a1.2 1.2 0 0 0-1.6.6 1.2 1.2 0 0 0 .7 1.6"/><path d="m126.3 303.6.3.4.7.7 1 1.1 1.1 1.4 1.3 1.6 1.2 1.7 1.2 1.7 1 1.7 1 1.5a1.2 1.2 0 0 0 .7.6 1.2 1.2 0 0 0 1-.1 1.2 1.2 0 0 0 .5-.8 1.2 1.2 0 0 0-.2-.9l-.9-1.5-1.1-1.8-1.2-1.8-1.3-1.8-1.3-1.6-1.2-1.4-1-1.2-.7-.8-.5-.4a1.2 1.2 0 0 0-.8-.3 1.2 1.2 0 0 0-.9.3 1.2 1.2 0 0 0-.3.9 1.2 1.2 0 0 0 .4.8"/><path d="m131.8 313.4.2.5v.1l.4 1 .7 1.3 1 1.8h.1l1.4 2.2 1.7 2.5 1.8 2.7 1.8 2.7 1.8 2.7 1.5 2.4 1.4 2.1 1 1.7.9 1.3.6 1 .4.6a1.2 1.2 0 0 0 .8.6 1.2 1.2 0 0 0 .9-.2 1.2 1.2 0 0 0 .5-.7 1.2 1.2 0 0 0-.2-1l-.4-.6-.6-1-.8-1.3-1.1-1.7-1.3-2.1-1.6-2.4-1.7-2.7-1.9-2.8-1.8-2.7-1.7-2.4-1.4-2.2-1-1.7-.6-1.2-.3-.8-.2-.5a1.2 1.2 0 0 0-.6-.6 1.2 1.2 0 0 0-1 0 1.2 1.2 0 0 0-.6.5 1.2 1.2 0 0 0 0 1"/><path d="M149.9 337.7v.3a1.2 1.2 0 0 0 .1.1l.3.6v.2l.6.9 1 1.4 1.1 1.5 1.4 1.7 1.7 1.7 1.8 1.8 2 1.8 2.2 1.8 2.2 1.6h.1l2.3 1.4 2.4 1.2a1.2 1.2 0 0 0 1.7-.6 1.2 1.2 0 0 0-.6-1.6l-2.3-1-2.2-1.4-2.1-1.5-2-1.7-2-1.8-1.8-1.7-1.6-1.6-1.3-1.6-1.1-1.4-.9-1.2-.5-.9-.2-.5v-.2a1.2 1.2 0 0 0-1.5-.7 1.2 1.2 0 0 0-.4.2 1.2 1.2 0 0 0-.4 1.2m23 15.4.5.2.8.2 1.4.4 2.2.7 3.2 1 4.2 1.1 5.3 1.3 6.2 1.3 6.5 1.3a1.2 1.2 0 0 0 1.4-1 1.2 1.2 0 0 0-1-1.4l-6.4-1.3-6.2-1.3-5.2-1.2-4.1-1.2-3.2-1-2.2-.6-1.4-.4-.7-.2-.4-.1a1.2 1.2 0 0 0-1.6.7 1.2 1.2 0 0 0 .7 1.5m78-12.6h.5l1.1.5 2 1 2.7 1.7 3.6 2.4 4 2.8 4 3.2 4 3.4 3.6 3.1 2.9 2.8a1.2 1.2 0 0 0 .8.4 1.2 1.2 0 0 0 1.2-1.3 1.2 1.2 0 0 0-.4-.8L278 357l-3.5-3.2-4.1-3.4-4.2-3.3-4-2.9-3.6-2.4-3-1.8-2-1-.2-.1-1.2-.5h-.2l-.7-.2a1.2 1.2 0 0 0-1.3 1 1.2 1.2 0 0 0 .9 1.4m24 36.3 3.5.2 6.3.2a1.2 1.2 0 0 0 1.3-1.2 1.2 1.2 0 0 0-1.2-1.2l-6.3-.2-3.5-.2a1.2 1.2 0 0 0-1.3 1.1 1.2 1.2 0 0 0 1.2 1.3m-142-69.3.2.2.2.2.2.5.3.9.4 1.2.5 1.6.6 2 .8 2.3.9 2.7 1 3 1.2 3.1 1.3 3.2 1.4 3 1.4 2.5 1.3 2.2 1 1.7.9 1.3a1.2 1.2 0 0 0 1.7.3 1.2 1.2 0 0 0 .3-1.6l-.8-1.3-1-1.7-1.3-2-1.3-2.5-1.4-2.8-1.2-3.1-1.2-3.1-1-3-1-2.6-.7-2.4-.7-2-.5-1.5-.4-1.3-.3-1-.3-.6a1.2 1.2 0 0 0 0-.2l-.3-.4-.2-.2a1.2 1.2 0 0 0-1.6-.3 1.2 1.2 0 0 0-.3 1.7"/><path d="m145.8 338.8.4.3.7.7 1.2 1.1 1.8 1.6 2.6 1.9 3.4 2.2 4.1 2.5 5 2.5 5.4 2.5a1.2 1.2 0 0 0 1.6-.6 1.2 1.2 0 0 0-.6-1.6l-5.3-2.4-5-2.5-4-2.4-3.2-2.2-2.4-1.8-1.8-1.5-1.2-1-.7-.7-.4-.3a1.2 1.2 0 0 0-1.6 0 1.2 1.2 0 0 0-.3.9 1.2 1.2 0 0 0 .3.8M155 308H157.7l2.4-.6a1.3 1.3 0 0 0 .2 0l3.3-1h.1l4.5-1.8 5.6-2.5 6.5-3.3 7-3.8 7.2-4.2 7.2-4.7 6.6-4.8a1.2 1.2 0 0 0 .3-1.6 1.2 1.2 0 0 0-1.7-.3l-6.5 4.7-7.1 4.6-7.2 4.2-7 3.8-6.3 3.2-5.5 2.5-4.4 1.7-3.3 1-2.2.4-1.4.1H155a1.2 1.2 0 0 0-1.2 1.2 1.2 1.2 0 0 0 1.2 1.2"/><path d="M162 306.4h.4a1.2 1.2 0 0 0 .1 0l.8-.1a1.2 1.2 0 0 0 .2 0l1.5-.5h.1l2.6-1 3.7-1.6 4.5-2.3 5.4-2.9 5.8-3.3 6.4-3.8 6.6-4.3a1.2 1.2 0 0 0 .5-.8 1.2 1.2 0 0 0-.1-.9 1.2 1.2 0 0 0-.8-.5 1.2 1.2 0 0 0-.9.2l-6.5 4.2-6.4 3.8-5.8 3.3-5.3 2.9-4.5 2.2-3.5 1.6-2.5 1-1.4.3-.6.1h-.3a1.2 1.2 0 0 0-.8.4 1.2 1.2 0 0 0-.4.9 1.2 1.2 0 0 0 .4.8 1.2 1.2 0 0 0 .9.3"/><path d="m162 310.1-.1.1a1.2 1.2 0 0 0-.3.3l-.2.2-.3.4v.1l-.3.5-.3.5-.3.7-.3.6-.3.6-.3.5-.3.3-.2.2a1.2 1.2 0 0 0 .6-.3h-.2a1.1 1.1 0 0 0 1 .4v-.1a1.2 1.2 0 0 0 .2.5V314l.1-1 .3-1.3.3-1.3.5-1.2.5-1.2.5-1a1.2 1.2 0 0 0 0-.9 1.2 1.2 0 0 0-1.4-.7 1.2 1.2 0 0 0-.7.5l-.6 1v.1l-.5 1.2v.1l-.5 1.3v.1l-.4 1.4-.3 1.4-.2 1.2v1.8a1.2 1.2 0 0 0 0 .2v.4a1.2 1.2 0 0 0 .3.6l.2.1a1.1 1.1 0 0 0 1 .4h.3a1.2 1.2 0 0 0 .5-.3l.3-.2.2-.2.4-.5.4-.6.4-.7.4-.7v-.1l.3-.6.2-.5.2-.4.2-.2.1-.2a1.2 1.2 0 0 0-.3.3l.1-.1a1.2 1.2 0 0 0 .6-.7 1.2 1.2 0 0 0-.2-1 1.2 1.2 0 0 0-.7-.5 1.2 1.2 0 0 0-.9.1"/><path d="m162.6 314 .2-.2.4-.6 1-1 1.4-1.6 1.8-2 2.4-2.4 2.8-2.6a1.2 1.2 0 0 0 .3-.8 1.2 1.2 0 0 0-1-1.2 1.2 1.2 0 0 0-1 .3l-2.7 2.5-2.5 2.5-1.9 2-1.4 1.7-1 1-.5.7-.1.1-.3.4a1.2 1.2 0 0 0 .5 1.6 1.2 1.2 0 0 0 1.6-.4m-1-30.6.4-.3a1.1 1.1 0 0 0 .1 0l.4-.5h.1l.6-.8.9-1 1.2-1.4 1.7-1.7 2.2-2.2 2.6-2.5 2.6-2.6a1.2 1.2 0 0 0 .4-.8 1.2 1.2 0 0 0-1.2-1.2 1.2 1.2 0 0 0-.9.3l-2.6 2.6-2.6 2.5-2.2 2.2-1.7 1.8-1.3 1.4-1 1-.5.8-.3.3-.3.2a1.2 1.2 0 0 0-.2 1.7 1.2 1.2 0 0 0 1.7.2"/><path d="m168.6 278.8.1-.5.5-.9 1-1.5 1.4-2.1 2.2-2.7 3-3.4 3.4-4 3.6-3.9a1.2 1.2 0 0 0 .3-.9 1.2 1.2 0 0 0-1.2-1.1 1.2 1.2 0 0 0-.9.4l-3.6 4-3.5 4-2.9 3.3-2.3 2.8-1.6 2.2v.1l-1 1.6-.6 1.1v.2l-.2.6a1.2 1.2 0 0 0 .8 1.4 1.2 1.2 0 0 0 1.5-.7m3.7 36.2V313.3l.1-.6.1-.6.2-.5.2-.5.3-.4.3-.5.5-.5.6-.7 1-.8 1-.9 1.2-1 1.3-1 1.3-1.2 1.3-1.1 1.3-1 1.3-1 1.3-1a1.2 1.2 0 0 0 .2-1.8 1.2 1.2 0 0 0-1.7-.2l-1.3 1-1.3 1-1.3 1.1-1.4 1.2-1.2 1-1.3 1.2-1.2 1-1.1.9-1 .9-.8.8-.5.6-.4.5a1.2 1.2 0 0 0-.1.1l-.4.6a1.2 1.2 0 0 0 0 .1l-.3.6a1.2 1.2 0 0 0-.1.2l-.2.7-.2.8V315a1.2 1.2 0 0 0 1.1 1.2 1.2 1.2 0 0 0 1.2-1.2"/><path d="m184.5 300.3.8-.3 1.6-.6 2.2-1 3-1.6 3.9-2 4.5-2.5 5-3 5.5-3 5.4-3.4a1.2 1.2 0 0 0 .5-.7 1.2 1.2 0 0 0-.1-1 1.2 1.2 0 0 0-.7-.4 1.2 1.2 0 0 0-.9 0l-5.4 3.3-5.4 3.2-5.1 2.9-4.5 2.5-3.8 2-3 1.5-2 1-1.5.6-.8.2a1.2 1.2 0 0 0-.7.6 1.2 1.2 0 0 0 0 1 1.2 1.2 0 0 0 .6.7 1.2 1.2 0 0 0 .9 0"/><path d="M210.2 284v.1l-.2.1-.1.1-.2.1a1.1 1.1 0 0 0 1.2.2l-.1-.2a1.2 1.2 0 0 0 0 .8 1.2 1.2 0 0 0 .3.6l.3-.6.8-1.2 1.5-2.1 2.4-3 3-3.8 3.7-4.5 4.2-5 4.7-5.6a1.2 1.2 0 0 0 .3-.9 1.2 1.2 0 0 0-.5-.8 1.2 1.2 0 0 0-.8-.3 1.2 1.2 0 0 0-.9.4l-4.6 5.6-4.3 5.1-3.6 4.5-3 3.8-2.5 3-1.6 2.2-1 1.4v.3l-.3.6a1.2 1.2 0 0 0 0 .8 1.2 1.2 0 0 0 .4.6l.1.1a1.1 1.1 0 0 0 1.3.2l.2-.1a1.2 1.2 0 0 0 .2-.1l.2-.1.1-.1.2-.1a1.2 1.2 0 0 0 .5-.8 1.2 1.2 0 0 0-.2-.9 1.2 1.2 0 0 0-.7-.5 1.2 1.2 0 0 0-1 .2"/><path d="m209.7 288 .4-.6 1-1.2 1.3-1.9 1.8-2.6 2.3-3.5 3-4.4 3.2-5.2 3.7-6 3.8-6.5 4.2-7 4.2-7a1.2 1.2 0 0 0 .1-1 1.2 1.2 0 0 0-.5-.7 1.2 1.2 0 0 0-.9-.1 1.2 1.2 0 0 0-.7.5l-4.3 7.1-4.1 7-3.9 6.5-3.6 6-3.3 5-2.9 4.5-2.3 3.4-1.8 2.6-1.3 2-.9 1-.4.7a1.2 1.2 0 0 0-.3.8 1.2 1.2 0 0 0 .5.8 1.2 1.2 0 0 0 .9.3 1.2 1.2 0 0 0 .8-.5"/><path d="m236.5 245 .2-.3.6-.8 1-1.6 1.4-2.4 2-3.5 2.7-4.4 3-5 3.2-5.7 3.4-6 3.3-6.2 2.9-6a1.2 1.2 0 0 0 0-1 1.2 1.2 0 0 0-1.5-.7 1.2 1.2 0 0 0-.7.6l-2.9 6-3.2 6.2-3.3 6-3.3 5.5-3 5-2.6 4.5-2.1 3.5-1.5 2.4-.9 1.5-.5.8-.2.4a1.2 1.2 0 0 0-.1.8 1.2 1.2 0 0 0 .5.8 1.2 1.2 0 0 0 .9.1 1.2 1.2 0 0 0 .7-.5"/><path d="m256.7 205.5.6-.6 1-1.4h.1l1.6-2.4 2-3.4h.1l2.5-4.6 2.8-5.6 3-6.8 3-7.6 2.8-7.8a1.2 1.2 0 0 0 0-1 1.2 1.2 0 0 0-.7-.5 1.2 1.2 0 0 0-1 0 1.2 1.2 0 0 0-.6.7l-2.7 7.8-3 7.5-2.9 6.6-2.8 5.6-2.5 4.5-2 3.3-1.6 2.3-1 1.2-.5.6a1.2 1.2 0 0 0-.3.9 1.2 1.2 0 0 0 .4.8 1.2 1.2 0 0 0 .9.3 1.2 1.2 0 0 0 .8-.4"/><path d="m275.4 172.3.2-.7.5-1.2.6-1.6.9-2.2.9-2.7 1-2.8 1.2-3.1 1.2-3.3 1.3-3.3 1.3-3.3 1.3-3a1.2 1.2 0 0 0 0-1 1.2 1.2 0 0 0-.7-.6 1.2 1.2 0 0 0-1 0 1.2 1.2 0 0 0-.6.6l-1.2 3-1.3 3.4-1.3 3.3-1.3 3.3-1.1 3.1-1 3-1 2.6-.8 2.1-.7 1.7-.4 1.2-.3.7a1.2 1.2 0 0 0 0 .9 1.2 1.2 0 0 0 .7.6 1.2 1.2 0 0 0 1 0 1.2 1.2 0 0 0 .6-.7"/><path d="m288.3 107.3-.1.9-.4 2.1-.7 3.6-1 5.2-1.5 6.5-1.7 7.6-2 8.3-2.1 8.3-2.2 8.1-2 7.5-2.2 6.5a1.2 1.2 0 0 0 .8 1.5 1.2 1.2 0 0 0 1.5-.8l2.1-6.5 2.1-7.5 2.2-8.2 2.1-8.4 2-8.2 1.8-7.7 1.4-6.5 1-5.2.8-3.7.4-2.1v-1.1a1.2 1.2 0 0 0-1-1.2 1.2 1.2 0 0 0-1.3 1M177.6 266.1l.2-.3.3-.5.5-.8.6-1v-.1l.7-1.4 1-1.7 1-2 1-2.2 1.3-2.4 1.3-2.5 1.3-2.6 1.4-3v-.1l1.4-3.4 1.5-3.8 1.4-4.3 1.4-4.8 1.4-5.7 1.5-6.5 1.5-7.3 1.6-7.7a1.2 1.2 0 0 0-1-1.4 1.2 1.2 0 0 0-1.4 1l-1.5 7.6-1.6 7.3-1.4 6.5-1.4 5.5-1.4 4.8-1.4 4.2-1.4 3.7-1.4 3.4-1.4 3-1.3 2.6-1.2 2.4-1.3 2.4-1 2.2-1.1 2-.9 1.7-.7 1.4-.6 1-.4.7-.4.5-.2.4a1.2 1.2 0 0 0 .4 1.6 1.2 1.2 0 0 0 1 .2l.3-.2a1.2 1.2 0 0 0 .4-.4"/><path d="m184.4 253.3.2-.5.5-.9.7-1.3 1.2-2 1.7-2.8 2-3.5v-.1l2.3-4.5 2.5-5.7 2.7-6.8 2.9-7.8 3-8.8 3-9.9 3-10.4 2.5-10.4 2.3-9.9a1.2 1.2 0 0 0-.9-1.3 1.2 1.2 0 0 0-1.4.8l-2.3 9.8-2.6 10.4-2.9 10.3-3 9.8-3 8.8-2.8 7.7-2.7 6.7-2.5 5.6-2.2 4.5-2 3.5-1.6 2.7-1.3 2v.1l-.7 1.4-.5 1-.3.5a1.2 1.2 0 0 0 .6 1.6 1.2 1.2 0 0 0 1.6-.6m32.7-91v-.8l.3-1.5.5-2.5.8-3.7 1-4.6 1-5.3.9-5.8.8-6 .6-6.2.5-5.9.3-5.5.1-5a1.2 1.2 0 0 0-1.2-1.2 1.2 1.2 0 0 0-1.2 1.2l-.1 4.9-.3 5.4-.4 5.9-.7 6-.8 6-1 5.7-1 5.3-.9 4.6-.7 3.7-.5 2.6-.3 1.6v.8a1.2 1.2 0 0 0 1 1.3 1.2 1.2 0 0 0 1.3-1"/><path d="M223.8 93.1V93a1.2 1.2 0 0 0-1.2-1.2 1.2 1.2 0 0 0-1.1.7l-.1.5v33.2a1.2 1.2 0 0 0 1.2 1.2 1.2 1.2 0 0 0 1.2-1.2V93a1.2 1.2 0 0 0-1.2-1.2 1.2 1.2 0 0 0-1.1.7l-.1.5v.1a1.2 1.2 0 0 0 .3.9l.4.2a1.2 1.2 0 0 0 1.6-.6 1.2 1.2 0 0 0 0-.5M219 269.6l.1-.2.3-.4.4-.8.8-1.3 1-2 1.3-2.5 1.7-3.1 2.2-4 2.8-4.7 3.4-5.6 4-6.5 4.4-7.3 4.6-8 4.4-8.3a1.2 1.2 0 0 0-.5-1.5 1.2 1.2 0 0 0-1.6.4l-4.4 8.2-4.5 8-4.4 7.2-4 6.5-3.5 5.7-2.8 4.7-2.2 4-1.7 3.2-1.4 2.5-1 2-.6 1.2-.5.8-.3.5-.1.3a1.2 1.2 0 0 0 .5 1.5 1.2 1.2 0 0 0 1.6-.5M186 364h.1l.3-.1h.7l1.2-.1 1.8-.2h2.5l3.2-.2h8.4l5-.1H229a1.2 1.2 0 0 0 1.2-1.2 1.2 1.2 0 0 0-1.2-1.2h-29.4l-4 .1-3.2.1-2.5.1-1.8.2H187l-.9.1-.6.1a1.2 1.2 0 0 0-.1 0l-.3.2a1.2 1.2 0 0 0-.7 1.5 1.2 1.2 0 0 0 1.5.7"/><path d="m209.8 362 .2-.1a1.2 1.2 0 0 0-.5.2h.4l1-.1h1.9l2.9-.1H242.4a1.2 1.2 0 0 0 1.2-1.2 1.2 1.2 0 0 0-1.2-1.2H210.8l-1.1.1a1.2 1.2 0 0 0-.2 0l-.5.2a1.2 1.2 0 0 0-.5.2 1.2 1.2 0 0 0-.3 1.7 1.2 1.2 0 0 0 1.6.3m4.3 2.5h63.8a1.2 1.2 0 0 0 1.3-1.2 1.2 1.2 0 0 0-1.2-1.2H214a1.2 1.2 0 0 0-1.2 1.2 1.2 1.2 0 0 0 1.2 1.2"/><path d="M272.2 380.3V379.3l-.2-.9v-.1l-.5-1.3-.7-1.8-.1-.1-1.3-2.4-1.8-2.9-2-3-2.2-2.8-2-2.5-1.8-2.1a1.2 1.2 0 0 0-.8-.4 1.2 1.2 0 0 0-.8.2 1.2 1.2 0 0 0-.5.9 1.2 1.2 0 0 0 .3.8l1.8 2.1 2 2.5 2 2.8 2 2.8 1.7 2.8 1.3 2.3.7 1.7.4 1.1.1.6v.7a1.2 1.2 0 0 0 .4.8 1.2 1.2 0 0 0 .8.4 1.2 1.2 0 0 0 .9-.4 1.2 1.2 0 0 0 .3-.8"/><path d="M246.3 359.2h.6l1.3.3 2 .8 2.8 1.2 3.2 1.8 3.4 2a1.2 1.2 0 0 0 1.6-.4 1.2 1.2 0 0 0-.4-1.6l-3.3-2.1h-.1l-3.3-1.8-3-1.3-2.2-.8a1.2 1.2 0 0 0-.1 0l-1.4-.4h-1a1.2 1.2 0 0 0-1.2 1 1.2 1.2 0 0 0 1 1.3m18.3 7.4 1 .8 1.5 1.4 2.3 2.3 3 3.4 3.5 4 3.7 4.7 3.3 4.8 3 4.5 2.4 4.1 1.8 3.4 1.3 2.7a1.2 1.2 0 0 0 1.6.5 1.2 1.2 0 0 0 .5-1.6l-1.2-2.6-1.9-3.5v-.1l-2.5-4.1-3-4.7-3.4-4.8-3.7-4.7-3.6-4.2-3-3.4-2.4-2.4-1.7-1.5-1-.8a1.2 1.2 0 0 0-1.6.2 1.2 1.2 0 0 0 .1 1.6"/><path d="m270.6 370.8.6.9 1.6 2 2.9 3.6 4 5.1 5.1 6.6 5.9 7.6 6.3 8.4 6.5 8.7 6.6 8.8 6.3 8.8 6.3 8.6 5.7 8 4.7 7.3 3.6 6 2.6 5a1.2 1.2 0 0 0 1.6.6 1.2 1.2 0 0 0 .6-1.6l-2.6-5v-.1l-3.7-6.2-4.8-7.3-5.8-8.1-6.2-8.6-6.4-8.8-6.6-8.8-6.5-8.8-6.3-8.3-5.9-7.6-5.1-6.6-4-5.2-2.9-3.5-1.5-2-.6-.8a1.2 1.2 0 0 0-1.6-.3 1.2 1.2 0 0 0-.4 1.6m-96.9-6h.7l1.4-.3 2-.2 2.5-.4 2.9-.4 3-.5 2.8-.4 2.7-.4 2.5-.4 2.3-.2 2.5-.3 2.8-.3 3.9-.4 5.1-.3 6.4-.3 7.1-.2 7.3-.1h6.7l5.6-.1a1.2 1.2 0 0 0 1.2-1.2 1.2 1.2 0 0 0-1.2-1.2h-12.3l-7.3.2-7.2.2-6.4.3-5.2.3-4 .4-2.8.3-2.5.3-2.3.2-2.5.4-2.8.4-2.8.4-3 .5-2.8.4-2.6.4-2 .3-1.3.2-.8.1a1.2 1.2 0 0 0-1 1.4 1.2 1.2 0 0 0 1.4 1M250.5 358a1.2 1.2 0 0 0 1.2 1.2 1.2 1.2 0 0 0 1.2-1.2 1.2 1.2 0 0 0-1.2-1.2 1.2 1.2 0 0 0-1.2 1.2m0 0a1.2 1.2 0 0 0 1.2 1.2 1.2 1.2 0 0 0 1.2-1.2 1.2 1.2 0 0 0-1.2-1.2 1.2 1.2 0 0 0-1.2 1.2m-11.4-27 .5.3 1.2.9 2.1 1.8 3.3 2.8 4.5 3.8 5.4 4.7 6.1 5.3 6.6 5.6 6.6 5.8 6 5.4 5.1 4.5a1.2 1.2 0 0 0 1.7-.1 1.2 1.2 0 0 0 0-1.7l-5.1-4.5-6.1-5.4-6.6-5.8-6.6-5.6-6.1-5.3-5.5-4.7-4.4-3.8-3.3-2.8-2.2-1.9-1.4-1a1.2 1.2 0 0 0-.1 0l-.6-.4a1.2 1.2 0 0 0-1.6.5 1.2 1.2 0 0 0 .5 1.6m60-247.3-.3.6a1.2 1.2 0 0 0 0 .1l-.3 1.1v.1l-.4 1.6-.3 2.2-.4 2.7-.3 3-.4 3-.5 3.1-.5 3-.6 2.7-.7 2.5-.8 2.2-.6 1.8a1.2 1.2 0 0 0 .7 1.5 1.2 1.2 0 0 0 1.6-.7l.6-1.8.8-2.3.7-2.5v-.1l.7-2.8.5-3v-.1l.5-3.2.3-3 .4-3 .4-2.6.3-2.2.3-1.5.3-1 .2-.5a1.2 1.2 0 0 0-.7-1.5 1.2 1.2 0 0 0-1.6.6m-8.7-8.3v20l-.4 4.9-.5 4.6a1.2 1.2 0 0 0 1.1 1.2 1.2 1.2 0 0 0 1.3-1l.5-4.6.3-5V75.3a1.2 1.2 0 0 0-1.1-1.2 1.2 1.2 0 0 0-1.2 1.2m12.7-4.8V73l-.3 3-.5 4.2-.8 5.6-1.1 7-1.4 7.9-1.6 8.4-1.5 8.5-1.4 8.1-1 7.1a1.2 1.2 0 0 0 1 1.4 1.2 1.2 0 0 0 1.3-1l1.1-7 1.4-8.2 1.5-8.5 1.5-8.4 1.4-7.8 1.2-7.1.8-5.7.4-4.3.3-3v-1.8l.1-.9a1.2 1.2 0 0 0-1.2-1.2 1.2 1.2 0 0 0-1.2 1.2m5.3 29.7V102l.1 1.8.2 2.4.2 3 .1 3.7-.1 4-.4 4a1.2 1.2 0 0 0 1 1.3 1.2 1.2 0 0 0 1.4-1l.4-4v-.2l.1-4v-.1l-.1-3.7-.2-3.2-.2-2.4-.1-1.7v-1.6a1.2 1.2 0 0 0-1.2-1.2 1.2 1.2 0 0 0-1.2 1.2m9.2 14.9v.3l-.2 1-.4 1.5-.7 2.4-1.2 3.2-1.6 4-2 4.5-2.2 4.5-2 4.1a1.2 1.2 0 0 0 .5 1.6 1.2 1.2 0 0 0 1.6-.5l2-4v-.1l2.2-4.5 2-4.6 1.7-4.1 1.2-3.3.8-2.5.5-1.7v-.1l.1-1v-.6a1.2 1.2 0 0 0-1-1.2 1.2 1.2 0 0 0-1.3 1m13.1 18.2v1l-.2 1-.6 1.6-1.3 2.3-2 3-2.5 3.7-3 4.2-3.6 4.6-3.8 4.8a1.2 1.2 0 0 0 .2 1.7 1.2 1.2 0 0 0 1.7-.2l3.8-4.8 3.6-4.7 3-4.2h.1l2.6-3.8 2-3v-.1l1.3-2.4a1.2 1.2 0 0 0 0-.2l.8-1.7a1.2 1.2 0 0 0 0-.2l.3-1.2v-1.4a1.2 1.2 0 0 0-1.2-1.2 1.2 1.2 0 0 0-1.2 1.2m-.4 26.3v1.3l-.1 1.3-.4 2-.3 1.2-.6 1.4-.8 1.6-1 1.8-1.4 2-1.5 2-1.9 2.2-2.2 2.3-2.4 2.4-2.7 2.4a1.2 1.2 0 0 0 0 1.6 1.2 1.2 0 0 0 1.6.2l2.7-2.4 2.5-2.5 2.3-2.4 2-2.3 1.6-2.2 1.4-2 1-2h.1l.8-1.7.7-1.6.4-1.4v-.1l.5-2.1a1.2 1.2 0 0 0 0-.2V161h.1v-1.4a1.2 1.2 0 0 0-1.2-1.2 1.2 1.2 0 0 0-1.2 1.2m-1.5 30.2V192.2l-.3 2.4-.8 3.4-.5 2-.8 2.2-1 2.4-1.2 2.4-2.8 5a1.2 1.2 0 0 0 .4 1.7 1.2 1.2 0 0 0 1.7-.4l2.8-5.1v-.1l1.3-2.5 1-2.5.8-2.4.7-2.1.7-3.5v-.2l.4-2.5v-2.7a1.2 1.2 0 0 0-1.2-1.1 1.2 1.2 0 0 0-1.2 1.2"/><path d="M317.3 206.6v1.3l-.4 1.3-.9 1.9-1.5 2.4-2.3 3-3.4 3.5-3.9 3.7a1.2 1.2 0 0 0-.3.8 1.2 1.2 0 0 0 1.1 1.2 1.2 1.2 0 0 0 .9-.2l4-3.7 3.3-3.7h.1l2.4-3.1.1-.1 1.6-2.6v-.2l1-2a1.2 1.2 0 0 0 0-.2l.5-1.5v-1.1l.1-.1v-.5a1.2 1.2 0 0 0-1.1-1.2 1.2 1.2 0 0 0-1.3 1.1m12.8 21.3-.8.9-1.6 1.6-2.5 2.5-3.8 3.5-4.9 4.3-6 5-7.1 5.3a1.2 1.2 0 0 0-.3 1.7 1.2 1.2 0 0 0 1.7.3l7-5.4h.1l6.1-5 5-4.4 3.8-3.5 2.6-2.6 1.7-1.7.8-.8a1.2 1.2 0 0 0-.2-1.7 1.2 1.2 0 0 0-1.6 0m-17.6 28.4v1l-.2.6-.7 1-1.5 1.5-2.6 1.7-3.7 2-2.2 1-2.4 1-5.7 1.7a1.2 1.2 0 0 0-.8 1.5 1.2 1.2 0 0 0 1.5.8l5.7-1.7h.1l2.5-1h.1l2.3-1.1 3.8-2 .1-.1 2.7-1.9a1.2 1.2 0 0 0 .2 0l1.6-1.7a1.2 1.2 0 0 0 .2-.2l.9-1.3.1-.3.3-1a1.2 1.2 0 0 0 0-.2v-1.3a1.2 1.2 0 0 0-1.1-1.2 1.2 1.2 0 0 0-1.2 1.2m-5.3 11.7-.3.4-.6 1-1.5 1.6-2.4 2-1.8 1.3-2.1 1.4-2.6 1.4-3 1.5-6.9 3a1.2 1.2 0 0 0-.6 1.5 1.2 1.2 0 0 0 1.5.7l7-3h.1l3-1.6 2.7-1.5 2.2-1.4 1.9-1.3a1.2 1.2 0 0 0 .1 0l2.6-2.3 1.6-1.8.8-1v-.1l.4-.5a1.2 1.2 0 0 0-.4-1.7 1.2 1.2 0 0 0-1.7.4m-17.4 27.9-.3.1-.9.3-2 .5-3.4.5-5.2.4-6.7.5-7.7.4-7.8.4-7.2.4-6 .4a1.2 1.2 0 0 0-1.2 1.3 1.2 1.2 0 0 0 1.3 1.1l6-.4 7.2-.4 7.9-.4 7.6-.4 6.8-.5 5.2-.4h.1l3.5-.5h.1l2.1-.5h.1l1-.4h.2l.3-.3a1.2 1.2 0 0 0 .6-1.6 1.2 1.2 0 0 0-1.6-.5m-15.6 20.8-.1.2a1.2 1.2 0 0 0 .4-.3h-.3l-.6.2-1.3.2h-2l-2.8.1h-3.8l-4.5-.4-5-.5-4.9-.7-4.6-.8a1.2 1.2 0 0 0-1.3 1 1.2 1.2 0 0 0 1 1.4l4.5.7 5 .7h.1l5 .6 4.6.4h6.8l2-.1h.1l1.4-.2 1-.2a1.2 1.2 0 0 0 .2 0l.3-.2a1.2 1.2 0 0 0 .4-.3h.1a1.2 1.2 0 0 0 .4-1 1.2 1.2 0 0 0-1.3-1.1 1.2 1.2 0 0 0-.8.3M256.4 333h-6.5l-2.4-.2-2.8-.4-3.4-.6-3.7-1-3.7-1-3.4-1.2-3.1-1a1.2 1.2 0 0 0-1.5.7 1.2 1.2 0 0 0 .7 1.5l3 1.1 3.6 1.2 3.7 1 3.9 1 3.5.7 3 .4 2.5.1h6.6a1.2 1.2 0 0 0 1.2-1.1 1.2 1.2 0 0 0-1.2-1.2"/><path d="M231 330.3h-2.8l-2.2-.2-2.8-.4-2.9-.5-2.8-.6-2.4-.5-1.9-.4-1.3-.3-.6-.3c-.3 0-.5.2-.7.4a1.2 1.2 0 0 0-.3.7c0 .3 0 .6.2.8a1.2 1.2 0 0 0 .6.5h.1a1.2 1.2 0 0 0-.4 0l1 .1 1.5.5 2 .7 2.3.9 2 .9 1.3.6.2.2a1.2 1.2 0 0 0-.3-.4l.1.3a1.1 1.1 0 0 0 .1-1.1l-.1.2.5-.5h-.1l-.8.1-1.5-.2-2-.5-2.1-.7-2.4-1-2.4-.9-2-1-1.7-.7a1.2 1.2 0 0 0-1.5.6 1.2 1.2 0 0 0 .5 1.6l1.6.8 2.1.9 2.5 1 2.4 1 2.4.7 2 .5a1.2 1.2 0 0 0 .2 0l1.7.3a1.2 1.2 0 0 0 .2 0h1.2a1.2 1.2 0 0 0 .4-.2l.3-.1.5-.5.2-.2a1.1 1.1 0 0 0 0-1v-.3a1.2 1.2 0 0 0-.4-.4l-.3-.4-.2-.1-1.4-.8h-.1l-2.2-1-2.3-.8-2.2-.8-1.7-.5-1-.2a1.2 1.2 0 0 0-.4 0h-.1c-.3 0-.6.2-.8.4a1.2 1.2 0 0 0-.3.7c0 .3 0 .5.2.8a1.2 1.2 0 0 0 .7.4l.6.3h.1l1.4.3 1.9.4 2.4.5 2.8.6 3 .6 2.9.4 2.3.1 1.6.1h1.4a1.2 1.2 0 0 0 1.2-1.2 1.2 1.2 0 0 0-.3-.8 1.2 1.2 0 0 0-.9-.4M215 80.5l.5.8.9 1.6 1.6 2.5 2.2 3.1 2.7 3.7 2.9 3.8a1.2 1.2 0 0 0 1.7.2 1.2 1.2 0 0 0 .2-1.7l-2.9-3.8-2.6-3.6-2.2-3-1.5-2.4-1-1.5-.3-.8a1.2 1.2 0 0 0-1.6-.5 1.2 1.2 0 0 0-.5 1.6M226.7 83.4l.5.7 1.1 1.5L230 88l2.6 3.4 3.2 4.5 3.8 5.3 4 5.7 3.8 5.5a1.2 1.2 0 0 0 1.7.3 1.2 1.2 0 0 0 .3-1.7l-3.8-5.5-4-5.7-3.8-5.3-3.3-4.5-2.5-3.4-1.8-2.4-1-1.5-.5-.7a1.2 1.2 0 0 0-1.7-.3 1.2 1.2 0 0 0-.3 1.7m11 25.7-.2 1v.1l-.2 1.9-.1 2.5-.2 3.3-.1 3.9v4.3l-.1 4.7v10.5a1.2 1.2 0 0 0 1.2 1.2 1.2 1.2 0 0 0 1.2-1.2v-19.5l.2-3.8.2-3.2.1-2.5.2-1.8.2-1.1a1.2 1.2 0 0 0-1.1-1.3 1.2 1.2 0 0 0-1.3 1m8.3 29.2v4.1l-.3 3.2-.5 4.3-1 5.1-1.2 5.4-1.2 5.3a1.2 1.2 0 0 0 .9 1.4 1.2 1.2 0 0 0 1.4-.8l1.3-5.3 1.2-5.5 1-5.2.5-4.4.3-3.3v-4.3a1.2 1.2 0 0 0-1.2-1.2 1.2 1.2 0 0 0-1.2 1.2m8.4 20.3-.3.8-.8 1.5-1.4 2.4-2 3.2-2.6 3.8-3.1 4.4-3.3 4.7a1.2 1.2 0 0 0 .3 1.6 1.2 1.2 0 0 0 1.6-.2l3.3-4.7 3.1-4.4 2.7-3.9 2-3.3 1.5-2.4.8-1.6.1-.1.3-.9a1.2 1.2 0 0 0-.7-1.5 1.2 1.2 0 0 0-1.5.6M107.2 284.8l4.3 2.5 4.2 2.4 4 2.1a1.2 1.2 0 0 0 1.6-.4 1.2 1.2 0 0 0-.5-1.7l-4-2.1-4.1-2.4-4.3-2.5a1.2 1.2 0 0 0-1.6.5 1.2 1.2 0 0 0 .4 1.6M123 257v-1.9a1.2 1.2 0 0 0 0-.2l-.2-.6a1.2 1.2 0 0 0 0-.3l-.4-.6v-.1l-.5-.6a1.2 1.2 0 0 0 0-.2l-.6-.6-.7-.6-.1-.1-.7-.5-.2-.1-1-.5-1.2-.5-1.4-.4-1.5-.4-1.6-.3h-.1l-1.6-.3-1.6-.1-1.4-.1a1.2 1.2 0 0 0-.8.3 1.2 1.2 0 0 0-.4.8 1.2 1.2 0 0 0 .3.8 1.2 1.2 0 0 0 .7.5h1.4l1.5.2 1.5.2 1.5.3 1.5.4 1.2.4 1 .4.8.3.6.5.5.5.5.5.3.5.2.4.1.3V257.1a1.2 1.2 0 0 0 .4.8 1.2 1.2 0 0 0 .8.4 1.2 1.2 0 0 0 .9-.4 1.2 1.2 0 0 0 .3-.8"/><path d="M113.6 248H95.8a1.2 1.2 0 0 0-.8.3 1.2 1.2 0 0 0-.4.9 1.2 1.2 0 0 0 .4.8 1.2 1.2 0 0 0 .8.4H113.6a1.2 1.2 0 0 0 .8-.4 1.2 1.2 0 0 0 .4-.8 1.2 1.2 0 0 0-.4-.9 1.2 1.2 0 0 0-.8-.3"/><path d="m103 245.3-.6.1a1.3 1.3 0 0 0-.1 0l-1 .3-1.3.5-1.5.7-1.7.8-1.6.7-1.5.7a1.2 1.2 0 0 0-.6 1.6 1.2 1.2 0 0 0 1.6.6l1.5-.7 1.6-.8 1.6-.7 1.5-.6 1.1-.5.9-.2h.5a1.2 1.2 0 0 0 1-1.5 1.2 1.2 0 0 0-1.4-1m-6.6-.4H93.3a1.2 1.2 0 0 0-.2 0l-.8.2a1.2 1.2 0 0 0-.3.1l-.8.4a1.2 1.2 0 0 0-.2 0l-.8.6a1.2 1.2 0 0 0-.1.1l-.9.8-.9 1-.9 1.1-.7 1.2-.6 1-.6.8v.1l-.4.7a1.2 1.2 0 0 0 .5 1.6 1.2 1.2 0 0 0 1.7-.5l.3-.7.5-.8.6-1 .7-1 .7-1 .8-.8.7-.6.7-.5.6-.2.5-.1H96.4a1.2 1.2 0 0 0 1.2-1.3 1.2 1.2 0 0 0-1.2-1.2"/><path d="M85.5 248.5v1.1l-.1.4-.2.8-.3.9-.2 1-.2 1-.1 1v1a1.2 1.2 0 0 0 .2.8 1.2 1.2 0 0 0 .8.4 1.2 1.2 0 0 0 .9-.3 1.2 1.2 0 0 0 .4-.8v-.8l.2-1 .1-.8.2-1 .3-.8.2-.8.1-.7a1.2 1.2 0 0 0 0-.1v-1.3a1.2 1.2 0 0 0-.3-.8 1.2 1.2 0 0 0-.8-.4 1.2 1.2 0 0 0-.9.4 1.2 1.2 0 0 0-.3.8"/><path d="M82 255.6v.3l-.2.4-.3.8-.3 1-.3 1.3v.1l-.3 1.5-.2 1.6-.2 1.4v1.3a1.2 1.2 0 0 0 1 1.2 1.2 1.2 0 0 0 1.3-1l.1-1.3.1-1.3.2-1.5.3-1.4.3-1.2.3-1 .3-.7.1-.5.1-.4a1.2 1.2 0 0 0-.8-1.5 1.2 1.2 0 0 0-1.5.9m7.4-4.3-.1-.1a1.2 1.2 0 0 0-.5-.3h-.4l-.8-.2-1.2-.1-1.7-.2-2-.2-2.2-.2-2-.2a1.2 1.2 0 0 0-1.3 1.1 1.2 1.2 0 0 0 1.1 1.3l2 .2 2.2.2 2 .2 1.6.1 1.1.2h.7l.3.2a1.2 1.2 0 0 0-.5-.3 1.2 1.2 0 0 0 1.8 0 1.2 1.2 0 0 0-.1-1.7m-7.8-3.7h-.5l-.4-.1-.7-.2-1.1-.3-1.3-.3-1.4-.4-1.3-.3a1.2 1.2 0 0 0-1.5 1 1.2 1.2 0 0 0 1 1.4l1.2.3 1.4.3 1.3.3 1 .3.7.2h.1l.5.2a1.2 1.2 0 0 0 .3 0h.7a1.2 1.2 0 0 0 1.2-1.2 1.2 1.2 0 0 0-1.2-1.2"/><path d="M84.7 249.9h-2l-1.7-.2-2.3-.3-2.8-.5-3-.6-3.1-.8a1.2 1.2 0 0 0-1 0 1.2 1.2 0 0 0-.5.8 1.2 1.2 0 0 0 .1 1 1.2 1.2 0 0 0 .8.5l3 .8 3.2.7 2.9.5 2.4.3 1.8.2H84.8a1.2 1.2 0 0 0 .8-.4 1.2 1.2 0 0 0 .4-.8 1.2 1.2 0 0 0-.4-.8 1.2 1.2 0 0 0-.8-.4"/><path d="m73.8 248-.9-.2-1.5-.4-2.3-.5-2.6-.7-2.9-.7-2.7-.7-2.5-.7-2-.7a1.2 1.2 0 0 0-.9.1 1.2 1.2 0 0 0-.5.7 1.2 1.2 0 0 0 0 1 1.2 1.2 0 0 0 .7.5l2 .7 2.6.7 2.7.7 2.9.7 2.7.7 2.2.6 1.6.4 1 .1a1.2 1.2 0 0 0 .9-.2 1.2 1.2 0 0 0 .4-.7 1.2 1.2 0 0 0-.2-1 1.2 1.2 0 0 0-.7-.4"/><path d="M62.6 247h.3l.5.3.8.3 1.2.5 1.8.9 2.2 1 2.8 1.3 3.3 1.4L79 254l3.3 1.2 2.8 1a1.2 1.2 0 0 0 1-.1 1.2 1.2 0 0 0 .5-.7 1.2 1.2 0 0 0 0-1 1.2 1.2 0 0 0-.7-.5l-2.8-1-3.3-1.1-3.4-1.4-3.2-1.3-2.8-1.3-2.2-1-1.8-.8-1.2-.6-.8-.3-.5-.2-.3-.2h-.4l-.2-.1h-.2a1.2 1.2 0 0 0-.9.2 1.2 1.2 0 0 0-.4.8 1.2 1.2 0 0 0 .3 1 1.2 1.2 0 0 0 .8.3"/><path d="m72.4 252 .7.2 1 .5h.1l1.6.6 2 .8 2.5 1 2.4.9 2.3 1 1.9.7a1.2 1.2 0 0 0 1.5-.6 1.2 1.2 0 0 0-.6-1.5l-1.8-.9-2.4-1-2.4-1-2.4-.9-2.2-.8-1.5-.6-1.2-.4-.6-.3a1.2 1.2 0 0 0-1.5.7 1.2 1.2 0 0 0 .6 1.6m-12.6-1.6.5.1 1 .5 1.8.9 2.4 1.1 2.8 1.5 3.3 1.7 3.4 1.7 3.1 1.6 2.6 1.3 2 1 1.5.8a1.2 1.2 0 0 0 1.6-.5 1.2 1.2 0 0 0-.5-1.6l-1.4-.8-2-1-2.7-1.3-3.1-1.6-3.4-1.8-3.3-1.7-2.9-1.4-2.3-1.2-1.8-.9-1.2-.5-.7-.2a1.2 1.2 0 0 0-1.5.7 1.2 1.2 0 0 0 .8 1.6"/><path d="m62.8 248.3.2.2.4.3.7.6 1 .8 1.5 1 1.8 1.2 2 1.2 2.1 1.2 2 1.2 1.8 1 1.5.7a1.2 1.2 0 0 0 .9 0 1.2 1.2 0 0 0 .6-.6 1.2 1.2 0 0 0 0-1 1.2 1.2 0 0 0-.5-.6l-1.4-.7-1.7-1-2-1-2-1.3-2-1.2-1.8-1-1.3-1-1-.7-.7-.6-.4-.4-.3-.2a1.2 1.2 0 0 0-.9-.2 1.2 1.2 0 0 0-.7.5 1.2 1.2 0 0 0-.3.8 1.2 1.2 0 0 0 .5.8"/><path d="M77.6 257.6h.3l.5.3 1 .5 1.3.6 1.6.9 1.9 1 1.7.8a1.2 1.2 0 0 0 1 .1 1.2 1.2 0 0 0 .6-.6 1.2 1.2 0 0 0 .1-.9 1.2 1.2 0 0 0-.6-.7l-1.7-.9-1.8-1-1.7-.8-1.3-.7-1-.4-.6-.3-.4-.1a1.2 1.2 0 0 0-1 0 1.2 1.2 0 0 0-.6.6 1.2 1.2 0 0 0 0 1 1.2 1.2 0 0 0 .7.6"/><path d="M83.6 259.2h.1c-.2 0-.3 0-.5.2h.4l.6-.1h4l1.7.2 1.6.1a1.2 1.2 0 0 0 .9-.3 1.2 1.2 0 0 0 .4-.8 1.2 1.2 0 0 0-.3-.9 1.2 1.2 0 0 0-.8-.4l-1.6-.1-1.7-.2H85.2a1.2 1.2 0 0 0-.1 0H83.3a1.2 1.2 0 0 0-.1 0l-.4.1-.6.3a1.2 1.2 0 0 0-.5.8 1.2 1.2 0 0 0 .2 1 1.2 1.2 0 0 0 .8.4 1.2 1.2 0 0 0 1-.3"/><path d="M91.5 260h1.3l1.2.2 1.6.4 1.9.5 2 .5 1.7.4a1.2 1.2 0 0 0 1.4-.8 1.2 1.2 0 0 0-.9-1.5l-1.7-.4-1.9-.5-1.9-.5-1.7-.4-1.4-.3a1.2 1.2 0 0 0-.1 0h-1.5a1.2 1.2 0 0 0-1.2 1.1 1.2 1.2 0 0 0 1.2 1.2m0-3h1.1l1 .1 1.5.2 1.5.4 1.4.4a1.2 1.2 0 0 0 1.5-.9 1.2 1.2 0 0 0-.9-1.5l-1.4-.3-1.6-.4-1.6-.3h-1.2l-.1-.1h-1.3a1.2 1.2 0 0 0-1.2 1.2 1.2 1.2 0 0 0 1.2 1.2"/><path d="m85.2 254.1.3.5v.2l.7 1a1.2 1.2 0 0 0 .1 0l1.2 1.3.1.1 1.8 1.5a1.2 1.2 0 0 0 .1 0l2.4 1.7h.1l2.8 1.5h.1l3 1.3 3 1v.1l2.6.7 2 .5a1.2 1.2 0 0 0 1-.1 1.2 1.2 0 0 0 .5-.8 1.2 1.2 0 0 0-.1-.9 1.2 1.2 0 0 0-.8-.5l-2-.5-2.5-.7-2.8-1-3-1.2-2.6-1.5-2.3-1.5-1.7-1.4-1-1.1-.6-.8-.2-.4a1.2 1.2 0 0 0-.7-.6 1.2 1.2 0 0 0-.9 0 1.2 1.2 0 0 0-.6.7 1.2 1.2 0 0 0 0 1"/><path d="m98.8 259.5.5.3 1 .7 1.4 1 2 1.4 2.3 1.5 2.4 1.5a1.2 1.2 0 0 0 1.6-.4 1.2 1.2 0 0 0-.4-1.7l-2.3-1.4-2.3-1.5-2-1.3-1.4-1-1-.8-.5-.3a1.2 1.2 0 0 0-1.6.3 1.2 1.2 0 0 0 .3 1.7m-12 6.8.2.4.5.9.9 1.3 1.1 1.8 1.4 2.1 1.4 2.2 1.3 2a1.2 1.2 0 0 0 1.6.4 1.2 1.2 0 0 0 .4-1.6l-1.3-2-1.4-2.3-1.4-2-1.1-1.9-.8-1.3-.5-.7-.2-.4a1.2 1.2 0 0 0-.7-.5 1.2 1.2 0 0 0-1.4.7 1.2 1.2 0 0 0 0 .9"/><path d="m82 266 .1.2v.1l.4.3.5.5.6.6 1 1 1.1 1.1 1.5 1.6 1.6 1.7 2 1.9a1.2 1.2 0 0 0 .8.3 1.2 1.2 0 0 0 1.2-1.2 1.2 1.2 0 0 0-.4-.8l-1.8-1.8-1.7-1.8-1.4-1.5-1.2-1.3-1-.9-.7-.6-.4-.5-.3-.2-.1-.2a1.2 1.2 0 0 0-1.7-.1 1.2 1.2 0 0 0-.4.8 1.2 1.2 0 0 0 .3.9M97 280l.7.1 1 .2 1.6.4 2.1.6 2.4.9a1.2 1.2 0 0 0 1.5-.8 1.2 1.2 0 0 0-.7-1.5l-2.4-.9-2.2-.6-1.8-.4-1.2-.2-.7-.1a1.2 1.2 0 0 0-1.3 1 1.2 1.2 0 0 0 1 1.4m17.6 2.4.8.3 1.3.5 1.5.6 1.7.7 1.5.8 1.4.7 1.1.7 1 .6.8.7.8.6.8.6.7.8a1.2 1.2 0 0 0 .9.3 1.2 1.2 0 0 0 1.1-1.2 1.2 1.2 0 0 0-.3-.8l-.8-.8-.8-.8-1-.7-.8-.6-1-.7h-.1l-1.2-.8-1.5-.8-1.6-.8-1.7-.7-1.6-.6-1.3-.5-.9-.3a1.2 1.2 0 0 0-1.5.7 1.2 1.2 0 0 0 .7 1.5m227-67.5.1.7.1 1v1.4l-.2 1.7-.3 1-.5 1-1.6 2.7a1.2 1.2 0 0 0 .4 1.6 1.2 1.2 0 0 0 1.7-.3l1.6-2.7a1.2 1.2 0 0 0 0-.2l.6-1.2a1.2 1.2 0 0 0 0-.2l.4-1.1v-.2l.3-1.9a1.2 1.2 0 0 0 0-.2v-2.7l-.2-.7a1.2 1.2 0 0 0-1.3-1 1.2 1.2 0 0 0-1 1.3m-44.4-29.6v.9l-.3 1.6-.7 2.4-1.5 3.3-2.3 4.2-1.6 2.4-1.8 2.5-4.4 5.6a1.2 1.2 0 0 0 .2 1.6 1.2 1.2 0 0 0 1.7-.1l4.4-5.6 1.9-2.7 1.6-2.4v-.1l2.4-4.3 1.6-3.5a1.2 1.2 0 0 0 0-.1l.8-2.6a1.2 1.2 0 0 0 0-.2l.3-1.7v-.2l.1-.9a1.2 1.2 0 0 0-1.1-1.2 1.2 1.2 0 0 0-1.3 1.1m-34.6 48.8-.2.2-.3.7-.9 1.3-1.6 2-2.5 3-3.6 3.5a1.2 1.2 0 0 0-.4.9 1.2 1.2 0 0 0 1.2 1.1 1.2 1.2 0 0 0 .9-.3l3.6-3.6 2.6-3 1.7-2.2 1-1.4.5-.8v-.1l.1-.3a1.2 1.2 0 0 0-.6-1.6 1.2 1.2 0 0 0-1.5.6M236 285.4l-1 1-2.4 1.7-4.5 3-6.6 3.9a1.2 1.2 0 0 0-.4 1.7 1.2 1.2 0 0 0 1.6.4l6.6-4 4.7-3 2.4-1.9 1.2-1a1.2 1.2 0 0 0 .4-.7 1.2 1.2 0 0 0-1-1.3 1.2 1.2 0 0 0-1 .2M231 188v4.9l-.4 3.3-.3 2-.6 2.3-.8 2.6-1.1 2.7-1.4 3-1.8 3.2-2.2 3.3-2.4 3.4a1.2 1.2 0 0 0 .2 1.6 1.2 1.2 0 0 0 1.7-.2l2.5-3.4 2.2-3.5 1.9-3.3 1.5-3v-.1l1.1-2.9.9-2.7.6-2.4.4-2.2.4-3.5v-5.2a1.2 1.2 0 0 0-1.1-1.1 1.2 1.2 0 0 0-1.2 1.2m33-35.4v1.5l-.1 1-.2 1.3-.3 1.5-.6 1.6-1 2-1.2 2.6a1.2 1.2 0 0 0 .5 1.6 1.2 1.2 0 0 0 1.6-.5l1.3-2.6 1-2a1.2 1.2 0 0 0 0-.2l.7-1.7v-.2l.4-1.6.2-1.5v-2.8a1.2 1.2 0 0 0-1.1-1.2 1.2 1.2 0 0 0-1.2 1.2"/><path d="M302.3 81.8v3.7l-.2 2.8-.4 3.9-.8 4.8-1 5.5-1.4 5.9-1.3 5.7-1.3 5.3-1 4.4-.8 3.5-.4 2.5-.2 1.1a2.4 2.4 0 0 0 1.8 2.7 2.4 2.4 0 0 0 2.8-1.5l.1-.3.1-.4.4-1.6.5-3 1-4.5 1.2-5.7 1.3-6.6 1.1-6.7.9-6.3.6-5.5.3-4.5v-.1l.2-3.5V76.2h-.1v-.5a2.4 2.4 0 0 0-2.3-2.1 2.4 2.4 0 0 0-2.5 2v.5l-.2 1.4-.4 2.9-.7 4-1 5.3-1.4 6-1.5 6.1-1.5 5.7-1.3 4.7-1 3.4-.7 1.9-.1.3c.7-.2 1.3-.6 1.7-1.2h-.2a2.4 2.4 0 0 0 2.6 1.6v-.8l-.2-3.3v-5l-.1-6.5-.2-7-.5-6.8-.5-6v-.2l-.6-5-.5-3.7-.4-2.5v-.1l-.3-1.3a2.4 2.4 0 0 0-.5-1.1l-.1-.1a2.4 2.4 0 0 0-1-.7c-.5-.2-1-.2-1.4 0s-.8.2-1 .6a2.4 2.4 0 0 0-.7 1l-.1.3v.5l-.2 1.6-.1 3.5-.2 5.2-.3 6.5-.4 7.3-.3 7.3-.2 6.3-.2 5v4.7a2.4 2.4 0 0 0 2.2 2.4 2.4 2.4 0 0 0 2.5-2l.1-.7v-.1l.2-2.5.5-4.1.6-5.6 1-6.3.7-6.5.7-5.9.5-5 .3-3.7.1-2.5v-1.1a2.4 2.4 0 0 0-2.3-2.4 2.4 2.4 0 0 0-2.2 1.4 2.4 2.4 0 0 0-.2.9v5.3l-.1 4.3v5l.2 5 .2 4.7.2 4 .2 3.1v2.2a2.4 2.4 0 0 0 .3.9l.6.7a2.4 2.4 0 0 0 .8.5 2.4 2.4 0 0 0 1 .1c.3 0 .6 0 .8-.2l.8-.6a2.4 2.4 0 0 0 .5-.8 2.4 2.4 0 0 0 0-1v-2l-.2-3.1-.2-4-.2-4.6-.1-5-.1-4.9V74.2a2.4 2.4 0 0 0-2.3-2.4 2.4 2.4 0 0 0-2.2 1.3 2.4 2.4 0 0 0-.2 1v1l-.2 2.5-.3 3.6-.5 5-.6 5.8-.8 6.4-1 6.3-.6 5.6-.4 4.2-.3 2.5v.6a2.4 2.4 0 0 0 2.2 2.4 2.4 2.4 0 0 0 2.5-2v-1.4l.1-3.2.2-5 .2-6.3.3-7.2.4-7.4.3-6.5.2-5.2.1-3.4.1-1.4a2.4 2.4 0 0 0-1-.8h-1.4c-.4 0-.8.3-1 .6a2.4 2.4 0 0 0-.7 1.1v.1a2.4 2.4 0 0 0-.5-1l.3 1.2.4 2.4.5 3.7.5 4.9.6 6 .4 6.7.2 6.8.1 6.4v5.1l.1 3.4v.2l.1 1 .1.5.2.4a2.4 2.4 0 0 0 2.6 1.6h.2c.8-.1 1.4-.5 1.8-1.2l.2-.5a2.4 2.4 0 0 0 .2-.4l.7-2v-.2l1-3.5 1.4-4.8 1.5-5.7 1.5-6.2 1.5-6 1-5.5.8-4.2V81l.3-3 .2-1.3v-.2a2.4 2.4 0 0 0-2.3-2.2 2.4 2.4 0 0 0-2.4 2v1.1l.1 1.3v4.5l-.2 3.5-.3 4.3-.6 5.4-.8 6.1-1.2 6.6-1.2 6.5-1.3 5.7-1 4.5v.1l-.5 3-.2 1.4v.2a2.4 2.4 0 0 0 1.7 2.6 2.4 2.4 0 0 0 2.8-1.4l.2-1.1.4-2.3.7-3.4 1-4.4 1.3-5.2 1.4-5.8 1.3-6 1.2-5.6v-.1l.7-5 .5-4v-.2l.2-3v-3.8a2.4 2.4 0 0 0-.2-.9 2.4 2.4 0 0 0-1.3-1.3 2.4 2.4 0 0 0-.9-.2 2.4 2.4 0 0 0-1 .2 2.4 2.4 0 0 0-1.2 1.3 2.4 2.4 0 0 0-.2 1m5.7 25V109l-.4 2.1-.7 3.2-1.1 4.3-1.8 5.1-2.6 5.8-3 6-3 5.7a2.4 2.4 0 0 0 1 3.2 2.4 2.4 0 0 0 1 .3 2.4 2.4 0 0 0 .9-.1 2.4 2.4 0 0 0 1.4-1.2l3-5.7 3-6.1.1-.1 2.6-6 2-5.4v-.2l1.2-4.4.7-3.4v-.2l.4-2.3v-.2l.1-1.5v-1a2.4 2.4 0 0 0-1.4-2.2 2.4 2.4 0 0 0-1.8 0 2.4 2.4 0 0 0-1.6 2.2m8.8 28.5v1.7l-.2 1.7-.3 2.3-.6 3-.8 3.5-1.3 4-1.4 4-1.5 3.6-1.4 3.1-1 2.3-.8 1.7a2.4 2.4 0 0 0-.2.9 2.4 2.4 0 0 0 .1.9 2.4 2.4 0 0 0 .5.8 2.4 2.4 0 0 0 .7.6 2.4 2.4 0 0 0 3.2-1.2l.8-1.6 1.1-2.4 1.4-3.2 1.6-3.8 1.5-4.2 1.3-4.1v-.2l.9-3.6v-.1l.6-3.1v-.1l.4-2.5v-.1l.2-1.8v-2.1a2.4 2.4 0 0 0-.2-.9 2.4 2.4 0 0 0-1.3-1.3 2.4 2.4 0 0 0-.9-.2 2.4 2.4 0 0 0-.9.2 2.4 2.4 0 0 0-.8.5 2.4 2.4 0 0 0-.5.8 2.4 2.4 0 0 0-.2 1" class="C"/><path d="M314.2 161v.6l-.1.8-.3 1.3-.6 2.1-1 2.7-1.2 3-1.2 3-1.2 2.7-.9 2.3-.6 1.6-.2 1a2.4 2.4 0 0 0 .2.8 2.4 2.4 0 0 0 3.1 1.3 2.4 2.4 0 0 0 1.3-1.3l.7-1.6.9-2.3 1.1-2.7 1.2-3 1.2-3v-.1l1-2.8.1-.1.7-2.3v-.2l.4-1.6a2.4 2.4 0 0 0 0-.3l.1-1v-.8a2.4 2.4 0 0 0-.1-1 2.4 2.4 0 0 0-.5-.7l-.8-.5a2.4 2.4 0 0 0-1.8 0 2.4 2.4 0 0 0-1.3 1.2c-.2.3-.2.6-.2 1m11.4 16.6v1.1l-.1 1.3-.4 2-.8 2.6-1.2 3.4-1.9 4-2.5 4.8-3 5-3 4.8a2.4 2.4 0 0 0 .8 3.3 2.4 2.4 0 0 0 3.3-.8l3-4.8 3-5v-.2l2.7-4.8v-.1l2-4.3v-.2l1.4-3.5v-.2l.8-2.9v-.2l.5-2.2v-.2l.2-1.4v-1.5a2.4 2.4 0 0 0-.2-1 2.4 2.4 0 0 0-.5-.7l-.8-.5a2.4 2.4 0 0 0-.9-.2 2.4 2.4 0 0 0-1 .2 2.4 2.4 0 0 0-1.2 1.3 2.4 2.4 0 0 0-.2.9m11 44.3v1.1l-.6 1.2-1 1.8-1.4 2.3-2.1 2.9-2.6 3.2-3.2 3.6-3.7 3.8-4.1 3.8-4.2 3.7-3.8 3.3-3 2.7a2.4 2.4 0 0 0-.5.8c-.2.2-.2.5-.2.9a2.4 2.4 0 0 0 .1.9 2.4 2.4 0 0 0 .5.8l.7.5a2.4 2.4 0 0 0 1.8.1 2.4 2.4 0 0 0 .8-.4l3-2.7 3.8-3.3 4.2-3.8 4.2-3.9 3.9-3.9v-.1l3.3-3.6v-.1l2.7-3.3v-.1l2.3-3 1.7-2.6v-.1l1.1-2a2.4 2.4 0 0 0 .1-.3l.6-1.5.2-.4.2-1v-1a2.4 2.4 0 0 0-.6-1.7 2.4 2.4 0 0 0-.7-.5 2.4 2.4 0 0 0-2.6.3l-.6.8-.2.8M240.2 329l.5.1 1.2.4 2 .5 3 .8 4.1 1 5.3 1.2 6.1 1.3a2.4 2.4 0 0 0 1 0 2.4 2.4 0 0 0 .8-.4l.7-.6a2.4 2.4 0 0 0 0-2.7c-.1-.3-.4-.5-.6-.7a2.4 2.4 0 0 0-.9-.3l-6-1.3-5.3-1.2-4-1-3-.7-1.9-.5-1.2-.4-.7-.2a2.4 2.4 0 0 0-2.9 1.8 2.4 2.4 0 0 0 1.8 2.9" class="C"/><path d="M248 327.8h8.4l3.8.3 4.6.4 5.3.7 5.6.8 5.7.8 5.2.6a2.4 2.4 0 0 0 1.7-.5l.6-.7a2.4 2.4 0 0 0 .3-1 2.4 2.4 0 0 0 0-.8 2.4 2.4 0 0 0-1.2-1.5 2.4 2.4 0 0 0-.8-.3l-5.2-.6-5.6-.7-5.7-.8-5.3-.7-4.8-.5h-.1l-3.9-.2-3.1-.1H248a2.4 2.4 0 0 0-.9.2 2.4 2.4 0 0 0-1.3 1.3 2.4 2.4 0 0 0-.2.9 2.4 2.4 0 0 0 .2 1 2.4 2.4 0 0 0 1.3 1.2 2.4 2.4 0 0 0 1 .2m38.5-14.9 1.2.3h.1l2.5.5 3.7.6 4.8 1 5.8 1 6.4 1 6.5.8 6.1.7a2.4 2.4 0 0 0 1.8-.6l.5-.7a2.4 2.4 0 0 0 .2-1.8 2.4 2.4 0 0 0-.4-.8 2.4 2.4 0 0 0-.7-.6c-.3-.2-.5-.3-.9-.3l-6-.6-6.4-.9-6.3-1-5.7-1-4.9-.9-3.7-.6-2.4-.5-1.2-.2a2.4 2.4 0 0 0-1 0 2.4 2.4 0 0 0-1.4 1 2.4 2.4 0 0 0-.4.8 2.4 2.4 0 0 0 0 1l.3.8a2.4 2.4 0 0 0 1.5 1m11.6-11 .5-.3 1.2-.5 2.1-.7 3.3-1.2 4-1.6.8-.5.6-.7c.2-.2.2-.6.2-1a2.4 2.4 0 0 0-.2-.9c0-.3-.3-.5-.5-.8a2.4 2.4 0 0 0-.7-.5l-1-.2a2.4 2.4 0 0 0-.9.1l-4 1.6-3.2 1.1-2.2.8-1.3.6h-.2l-.5.3a2.4 2.4 0 0 0-1.1 3.2 2.4 2.4 0 0 0 .5.7l.8.5a2.4 2.4 0 0 0 1 .1 2.4 2.4 0 0 0 .8-.2m14.2-26.2h.4l.4-.2 1-.2h.1l2-.7 3-1.1h.1l4.3-1.7 5.5-2.2 6.1-2.6 6.2-3a2.4 2.4 0 0 0 1.4-2.3 2.4 2.4 0 0 0-.3-.9 2.4 2.4 0 0 0-2.2-1.3 2.4 2.4 0 0 0-1 .2l-6 2.9-6 2.6-5.4 2.2-4.3 1.6-3 1-1.8.7-.7.1h-.3a2.4 2.4 0 0 0-1.6 1 2.4 2.4 0 0 0-.5.8v.9a2.4 2.4 0 0 0 .2.9l.6.7.8.5a2.4 2.4 0 0 0 1 0m48.4-50.3-.3.2-.7.7-1.3 1-2.3 1.9-3.4 2.5-4.4 3-5.1 3-5.6 3-5.8 2.8-5.7 2.3-5 1.7-4.4 1.3a2.4 2.4 0 0 0-1.5 3 2.4 2.4 0 0 0 .4.8 2.4 2.4 0 0 0 .7.6 2.4 2.4 0 0 0 1.8.2l4.3-1.3h.1l5.2-1.8h.1l5.8-2.4h.2l6-2.8v-.1l5.7-3 .1-.1 5.2-3.2h.1l4.5-3 3.6-2.7 2.4-1.9h.1l1.4-1.2.7-.7.3-.2a2.4 2.4 0 0 0 .7-1.7 2.4 2.4 0 0 0-1.3-2.2l-.9-.3a2.4 2.4 0 0 0-1.7.6m-14.4-55-.4.4-1 .8-2 1.5-3 2-4.5 2.5-5.8 2.7a2.4 2.4 0 0 0-1.1 3.2 2.4 2.4 0 0 0 .5.8l.8.5a2.4 2.4 0 0 0 1 .1 2.4 2.4 0 0 0 .9-.2l5.8-2.8h.1l4.7-2.6.1-.1 3.3-2.1.1-.1 2-1.6h.1l1.2-1a2.4 2.4 0 0 0 .2-.3l.5-.5a2.4 2.4 0 0 0 .6-1.7 2.4 2.4 0 0 0-2.4-2.3 2.4 2.4 0 0 0-1.7.7M216.2 75v.6l.3 1.3.4 2.3.6 3.2.8 4 .9 4.2.9 4.4a2.4 2.4 0 0 0 2.8 1.8 2.4 2.4 0 0 0 .9-.4 2.4 2.4 0 0 0 .6-.6 2.4 2.4 0 0 0 .4-1.9l-1-4.2-.8-4.3-.8-4-.6-3-.4-2.3-.2-1.3v-.5a2.4 2.4 0 0 0-2.8-2 2.4 2.4 0 0 0-2 2.7M238.2 77.1l.1.2a2.4 2.4 0 0 0-.7-.9l.3.5.5 1.4.7 2.5.7 3.5.7 4.5.6 5.3.4 5.8v5.9c0 .3 0 .6.2.9l.5.8c.2.3.5.4.8.5a2.4 2.4 0 0 0 1 .2l.8-.2.8-.6c.2 0 .4-.5.5-.7a2.4 2.4 0 0 0 .2-1v-6l-.4-6-.6-5.5v-.1l-.7-4.6v-.1l-.9-3.7v-.1l-.7-2.7-.6-1.7-.2-.4-.3-.6a2.4 2.4 0 0 0-.7-.8l-.2-.1a2.4 2.4 0 0 0-3.3.5 2.4 2.4 0 0 0-.4.8 2.4 2.4 0 0 0 0 1c0 .3.1.6.3.8l.6.7m15 16 .1 1v.1l.3 2.1.3 3.1.5 4 .5 4.4.4 4.8.4 4.8.4 4.7a2.4 2.4 0 0 0 2.6 2.2 2.4 2.4 0 0 0 2.2-2.5l-.4-4.8-.4-4.8-.4-4.8-.5-4.6-.5-4-.4-3-.2-2v-1.2a2.4 2.4 0 0 0-1.8-2 2.4 2.4 0 0 0-.9-.2 2.4 2.4 0 0 0-2 1.7 2.4 2.4 0 0 0-.2 1m16.4 37.7V137.7l.1 2.7.2 3 .1 3.3v3.5l-.4 3.5a2.4 2.4 0 0 0 .5 1.7c.2.3.4.5.7.6a2.4 2.4 0 0 0 1.8.2 2.4 2.4 0 0 0 1.7-2l.4-3.6v-.2l.1-3.6v-.2l-.1-3.3-.2-3.1v-2.6l-.1-2.2v-4.6a2.4 2.4 0 0 0-.2-.9 2.4 2.4 0 0 0-.5-.8l-.8-.5a2.4 2.4 0 0 0-1-.2 2.4 2.4 0 0 0-.8.2 2.4 2.4 0 0 0-.8.5l-.5.8a2.4 2.4 0 0 0-.2 1m8.4 259.4.5 1.4v.2l1.4 3v.1l2.5 4.9 4.1 7v.2l5.7 8.7 6.6 9.6 3.7 5 3.8 5 7.7 9.3a2.4 2.4 0 0 0 .7.5 2.4 2.4 0 0 0 3.2-1 2.4 2.4 0 0 0-.2-2.6l-7.6-9.3-3.7-4.8-3.6-4.9-6.6-9.4-5.6-8.7-4-6.9-2.4-4.7-1.2-2.8-.4-1.3a2.4 2.4 0 0 0-1.2-1.4 2.4 2.4 0 0 0-1.8-.1c-.3 0-.6.2-.8.4l-.6.8a2.4 2.4 0 0 0-.2 1.8" class="C"/><path d="m264.2 376 .7 1.3 1.9 3.2 3.5 5.8 5.6 9.3 7.8 12.5 10.2 15.7 5.8 8.6 6.2 8.8 6.4 8.9 6.4 8.7 12.7 16.6 11.3 14.6 9.5 12.4 3.8 5.3 3.4 4.7 2.8 4.3 2.3 3.7a2.4 2.4 0 0 0 2.4 1l.9-.3a2.4 2.4 0 0 0 1-1.5v-.9a2.4 2.4 0 0 0-.2-.9l-2.4-3.7-2.8-4.4-3.4-4.8-4-5.4-9.5-12.4-11.3-14.6-12.6-16.6-6.4-8.6-6.4-8.8-6.1-8.8-5.8-8.6-10.1-15.5L280 393l-5.6-9.3-3.5-5.7-1.8-3.2-.7-1.2a2.4 2.4 0 0 0-.6-.7 2.4 2.4 0 0 0-1.8-.5 2.4 2.4 0 0 0-1.6.9l-.4.8-.1 1a2.4 2.4 0 0 0 .3.8m39.9 9.3.2.3h.1l.7.8 1.4 1.5 2.5 2.4 3.6 3.5 5.3 4.7 6.6 6 8.3 7.3 10 8.6 10.2 9 .8.4a2.4 2.4 0 0 0 1 .1 2.4 2.4 0 0 0 .8-.2 2.4 2.4 0 0 0 1.2-1.4 2.4 2.4 0 0 0-.6-2.5l-10.3-9-10-8.6-8.2-7.3-6.6-6-5.2-4.6-3.6-3.4-2.4-2.4-1.3-1.4-.6-.6-.2-.2a2.4 2.4 0 0 0-1.6-1c-.3 0-.6 0-1 .2a2.4 2.4 0 0 0-.8.4 2.4 2.4 0 0 0-.8 1.6v1a2.4 2.4 0 0 0 .5.8m-8 12.4.9.6 1.7 1.2 2.7 1.8 3.8 2.5 5 3.4 6 4.1 6.8 4.8 7.7 5.4 8.6 6 9.7 6.6L359 441l10.2 6.9 9.8 6.5a2.4 2.4 0 0 0 .8.3h1l.8-.3a2.4 2.4 0 0 0 1-1.6v-.9a2.4 2.4 0 0 0-.3-.9l-.7-.6-9.7-6.5-10.2-6.9-10.1-6.8-9.6-6.5-8.7-6-7.6-5.4-7-4.8-5.9-4.1-5-3.4-3.8-2.6-2.7-1.8-1.7-1.1-.8-.6a2.4 2.4 0 0 0-3.3.6 2.4 2.4 0 0 0 .5 3.3" class="C"/><path d="m293.5 397 2.3 1 4 1.7 5.4 2.6 6.6 3.3 7.5 4 8.2 4.4 8.6 4.8 8.5 4.9 8.2 4.6 7.7 4.2 6.7 3.9 5.7 3.3 4.4 2.6 3 1.9a2.4 2.4 0 0 0 1.9.3 2.4 2.4 0 0 0 1.5-1.1 2.4 2.4 0 0 0 .3-1.8 2.4 2.4 0 0 0-1.1-1.5l-3.1-1.9-4.4-2.6-5.7-3.4-6.9-3.8-7.6-4.3-8.2-4.6-8.6-4.9-8.6-4.8-8.2-4.4-7.5-4-6.8-3.4-5.5-2.6-4-1.8h-.1l-2.4-1a2.4 2.4 0 0 0-1.8 0 2.4 2.4 0 0 0-1.3 1.4 2.4 2.4 0 0 0 .5 2.6l.8.5" class="C"/><path d="m265.1 381.3 2.2 1.6 4.2 3 7 5 10.7 7 15 9.6 18.4 11.4 21 12.7 22.8 13.3L390 458l22.8 12.4 20 10.7 16.2 8.5 12.2 6.2a2.4 2.4 0 0 0 2.6-.3 2.4 2.4 0 0 0 .9-1.6c0-.3 0-.6-.2-1a2.4 2.4 0 0 0-.4-.7l-.7-.6-12.1-6.3-16.3-8.5-20-10.6-22.6-12.4-23.5-13.2-22.7-13.3-21-12.6-18.3-11.4-15-9.5-10.5-7-7-4.9-4.1-3-2.2-1.6a2.4 2.4 0 0 0-3.7 1.4 2.4 2.4 0 0 0 .8 2.5" class="C"/><path d="M288.5 119.4v.4a3.6 3.6 0 0 0 0 .4l-.2.8v1.5l-.1 1.8v5.1l-.1 3.8-.3 4.9-.6 5.6-1 6.4-1.6 6.7-1 3.2-1 3.2-1.1 3-1.3 2.8-1.4 2.6-1.5 2.4a3.6 3.6 0 0 0 .2 4 3.6 3.6 0 0 0 5 .8l.9-1 1.5-2.5.1-.2 1.6-2.8v-.2l1.4-3 .1-.2 1.3-3.2v-.1l1.1-3.4v-.1l1-3.5v-.1l1.7-6.9v-.2l1.1-6.6v-.2l.7-5.8v-.2l.3-5v-7l.1-2.2v-1.6l.1-1.1v-.6l.1-.2a3.6 3.6 0 0 0-.5-2.7 3.5 3.5 0 0 0-2.3-1.6 3.6 3.6 0 0 0-2.7.6c-.4.2-.7.5-1 1l-.6 1.2" class="B"/><path d="M294.3 140v.5l-.3 1-.8 2-1.4 3.4-2.4 4.6-3.2 5.8-4 6.5-4.4 6.9-4.5 6.5-4.3 5.6-3.5 4.4-2.7 3-1.8 1.8a3.6 3.6 0 0 0-.7 4 3.6 3.6 0 0 0 4.8 1.8c.4-.2.8-.4 1.1-.8l1.9-1.9 2.8-3.2h.1l3.7-4.6 4.4-5.8v-.1l4.7-6.7 4.5-7 4.1-6.7v-.1l3.4-6 2.4-4.9.1-.1 1.6-3.6v-.2l.9-2.3v-.3l.4-1.4.1-.4.1-.7a3.6 3.6 0 0 0-1.7-3.5 3.6 3.6 0 0 0-4 .2l-1 1-.4 1.3" class="B"/><path d="M298.8 133.8v1.4l-.5 2.7-.9 4.2-.7 2.6-1 3-1.2 3.5-1.6 4-2 4.3-2.3 4.6-2.5 4.6-2.6 4.7-2.8 4.5-2.8 4.2-2.9 4-2.7 3.5-2.6 3-2.5 2.8a3.6 3.6 0 0 0-.5 4 3.6 3.6 0 0 0 2 1.8 3.6 3.6 0 0 0 1.4.2 3.6 3.6 0 0 0 2.5-1.2l2.5-2.7v-.1l2.7-3.2.1-.1 2.9-3.7 3-4.1v-.1l3-4.4 2.8-4.7h.1l2.7-4.8v-.1l2.6-4.8v-.1l2.4-4.7 2-4.5.1-.1 1.7-4v-.2l1.3-3.6v-.2l1.1-3.2v-.1l.8-2.8v-.2l1-4.4v-.2l.5-2.7v-.3l.1-1.4v-.8a3.6 3.6 0 0 0-.2-1.4 3.6 3.6 0 0 0-2-2 3.6 3.6 0 0 0-1.3-.2 3.5 3.5 0 0 0-1.4.2 3.6 3.6 0 0 0-1.2.8 3.6 3.6 0 0 0-.8 1.1l-.3 1.4m11.5 7.8v.2l-.2.8-.5 1.7-1.4 3.2-2.4 4.6-3.2 5.5-4 6.3-4.2 6.5-4 6.2-3.7 5.5-3 4.8-2.3 3.9v.1l-1.6 2.8-.3 1.4a3.6 3.6 0 0 0 .2 1.3 3.6 3.6 0 0 0 1.7 2 3.6 3.6 0 0 0 1.3.5 3.6 3.6 0 0 0 1.4-.1c.4-.2.9-.4 1.2-.7l1-1 1.4-2.8 2.1-3.6 3-4.6 3.6-5.6 4-6.2 4.3-6.5 4-6.4v-.1l3.4-5.7v-.2l2.5-4.7.1-.2 1.5-3.4.1-.3.8-2.2a3.6 3.6 0 0 0 0-.4l.3-1.2a3.6 3.6 0 0 0 0-.4l.1-.5a3.6 3.6 0 0 0-.9-2.6 3.6 3.6 0 0 0-1-.8 3.5 3.5 0 0 0-1.4-.4c-.5 0-1 0-1.4.2a3.6 3.6 0 0 0-1.2.6l-.9 1.1a3.5 3.5 0 0 0-.4 1.4m8.8 30.6v.3l-.2.8-.7 1.6-1.2 2.6-2 3.6-3 4.4-3.9 5.1-4.8 5.8-5.3 6-5.3 5.7-5 5.2-4.6 4.5a3.6 3.6 0 0 0 0 5 3.6 3.6 0 0 0 1.2.8 3.6 3.6 0 0 0 1.4.3 3.6 3.6 0 0 0 1.4-.3 3.6 3.6 0 0 0 1.1-.7l4.5-4.5 5.2-5.3 5.4-5.8.1-.1 5.3-6 .1-.1 5-6 4-5.4.2-.2 3-4.6.1-.1 2.1-3.8.2-.2 1.3-2.9.2-.2.7-2 .1-.2.3-1.1.1-.4.1-.4a3.6 3.6 0 0 0 0-1.4 3.6 3.6 0 0 0-.5-1.3c-.3-.4-.6-.8-1-1a3.6 3.6 0 0 0-1.3-.6 3.6 3.6 0 0 0-3.7 1.6c-.3.4-.5.8-.6 1.3m-.7 27.8-.3 1.1-.8 2-1.6 3-2.6 4-1.7 2.3-2 2.5-2.5 2.8-2.9 3.1-3.3 3.3-3.7 3.4-4.1 3.7-4.5 3.8-9.3 7.5-.9 1a3.6 3.6 0 0 0-.4 1.4 3.6 3.6 0 0 0 1.9 3.5 3.6 3.6 0 0 0 1.3.4h1.4a3.6 3.6 0 0 0 1.2-.7l9.4-7.5 4.6-4 4.2-3.7 3.9-3.6 3.4-3.4v-.1l3-3.1.2-.1 2.5-3h.1l2.1-2.7.1-.1 1.8-2.5.1-.1 2.8-4.3.2-.3 1.7-3.3.2-.3 1-2.3v-.5l.4-1.4a3.6 3.6 0 0 0 .1-1.3c0-.5-.2-1-.5-1.3a3.6 3.6 0 0 0-2.1-1.6 3.6 3.6 0 0 0-2.7.3 3.6 3.6 0 0 0-1 .9c-.3.3-.6.7-.7 1.2m-5 31.2v.2l-.2.5-.7 1.1-.7.9-1 1.1-1.6 1.4-2 1.7-5.7 4.1-7.5 5.1-9 5.7-9.7 5.8c-.4.3-.8.6-1 1a3.6 3.6 0 0 0-.7 1.2v1.4a3.6 3.6 0 0 0 .4 1.4l1 1a3.6 3.6 0 0 0 1.3.6h1.4a3.6 3.6 0 0 0 1.3-.4l9.7-5.8 9.2-5.8 7.7-5.2.1-.1 5.8-4.3.2-.1 2.2-1.8.1-.1 1.7-1.5.2-.2 1.2-1.4.2-.2 1-1.1a3.6 3.6 0 0 0 .2-.4l1-1.7a3.6 3.6 0 0 0 .4-.8l.4-1 .1-.6.1-.6a3.6 3.6 0 0 0-.7-2.6 3.6 3.6 0 0 0-1-1 3.6 3.6 0 0 0-1.3-.4 3.6 3.6 0 0 0-2.6.6 3.6 3.6 0 0 0-1 1l-.5 1.3m5.4 15.3-.4.6-.8 1-1.6 1.6-2.6 2.4-4.2 3.1-2.7 1.8-3.2 2-7.6 4.2-9.2 4.6-10.2 4.8-10.3 4.6a3.6 3.6 0 0 0-1.1.8 3.6 3.6 0 0 0-.8 1.2 3.6 3.6 0 0 0-.2 1.3 3.6 3.6 0 0 0 2.3 3.3 3.6 3.6 0 0 0 1.4.3 3.6 3.6 0 0 0 1.3-.4l10.4-4.5 10.3-4.9h.1l9.3-4.7h.2l7.7-4.4h.1l3.3-2 .1-.2 2.9-1.8.1-.2 4.4-3.3.3-.2 2.8-2.5.2-.2 1.8-1.9.2-.2 1-1.2v-.1l.6-.7a3.6 3.6 0 0 0 .5-1.3 3.6 3.6 0 0 0-.4-2.7 3.6 3.6 0 0 0-3.6-1.6c-.5 0-1 .2-1.4.5l-1 .9m-21.6 25-.2.4-.5.7-1.1 1.3-2.1 2-3.5 2.5-2.3 1.5-2.7 1.5-6.7 3.4-7.8 3.7-8.4 3.6-8.5 3.4c-.4.2-.8.4-1 .8a3.6 3.6 0 0 0-.8 1.1 3.6 3.6 0 0 0 0 2.7 3.5 3.5 0 0 0 .7 1.2 3.6 3.6 0 0 0 1.1.8 3.6 3.6 0 0 0 1.4.3 3.6 3.6 0 0 0 1.3-.2l8.5-3.5h.1l8.5-3.7h.1l8-3.7 6.9-3.5.1-.1 2.8-1.6.2-.1 2.4-1.5.2-.2 3.8-2.8.3-.2 2.4-2.2.2-.3 1.5-1.6.2-.3.8-1.1a3.5 3.5 0 0 0 .3-.5l.3-.7a3.6 3.6 0 0 0 .1-2.7 3.6 3.6 0 0 0-.7-1.2 3.6 3.6 0 0 0-1.1-.9c-.4-.2-.9-.3-1.4-.3a3.6 3.6 0 0 0-1.4.2 3.6 3.6 0 0 0-2 1.8m9 18.8-.2.2-.4.3-1.3.8-2.3 1.2-3.8 1.8-5.1 2.3-6.1 2.6-7 2.9-7.6 3-8.2 3a3.6 3.6 0 0 0-1.2.7 3.6 3.6 0 0 0-.8 1.1 3.6 3.6 0 0 0-.3 1.4 3.5 3.5 0 0 0 .2 1.4 3.6 3.6 0 0 0 .7 1.2 3.6 3.6 0 0 0 1.2.8 3.6 3.6 0 0 0 1.3.3 3.5 3.5 0 0 0 1.4-.2l8.2-3 7.8-3 7-3h.1l6.1-2.6 5.3-2.3 4-2h.1l2.5-1.3.2-.1 1.5-1h.2l.6-.6.2-.1.3-.2a3.6 3.6 0 0 0 .9-1.1c.2-.5.4-1 .4-1.4a3.6 3.6 0 0 0-.1-1.4l-.7-1.2a3.6 3.6 0 0 0-1.1-.9c-.4-.2-.9-.4-1.4-.4a3.6 3.6 0 0 0-1.4.1l-1.2.7m-4 24.3.1.1c0-.8-.4-1.5-1-2v.1a3.5 3.5 0 0 0 .7-2.5l-.3.5 1-1-.7.5-1.4.5-3.1.9-4.8.9-6.6.8-7.9.6c-.5 0-1 .2-1.4.4a3.6 3.6 0 0 0-1 .8 3.6 3.6 0 0 0-.7 1.3 3.5 3.5 0 0 0-.2 1.4c0 .4.1.9.4 1.3a3.6 3.6 0 0 0 .8 1.1 3.6 3.6 0 0 0 1.3.7 3.5 3.5 0 0 0 1.4.2l8-.6h.1l6.7-.9h.3l5-1h.3l3.4-1a3.6 3.6 0 0 0 .5-.1l2-.8.5-.3 1-.6 1-1 .3-.4a3.5 3.5 0 0 0 .6-2.5v-.3c-.1-.8-.5-1.5-1-2l-.1-.1c-.4-.4-.8-.6-1.2-.8a3.6 3.6 0 0 0-1.4-.3 3.5 3.5 0 0 0-1.3.3 3.6 3.6 0 0 0-1.2.8l-.8 1.1a3.6 3.6 0 0 0-.3 1.4 3.6 3.6 0 0 0 .3 1.4c.2.4.4.8.8 1.1" class="B"/><path d="m256.7 318.8 2.7.2 3.9.5 4.1.5 3.6.5 2.7.5 1.4.2.3.2c.6-.4 1-.9 1.3-1.5a3.5 3.5 0 0 0 .3-1.9 3.5 3.5 0 0 0-.7-1.7c-.4-.6-1-1-1.5-1.2l-.2.1a3.6 3.6 0 0 0 1.2-.5h-.4l-2 .3-3.6.2h-5.2l-6.4.2a3.6 3.6 0 0 0-1.4.3c-.4.1-.8.4-1.1.8a3.6 3.6 0 0 0-.8 1.1 3.6 3.6 0 0 0 0 2.8 3.6 3.6 0 0 0 .8 1.1c.4.4.8.6 1.2.8a3.6 3.6 0 0 0 1.4.3l6.4-.1 5.3-.1 4-.2h.1l2.3-.3a3.6 3.6 0 0 0 .5 0l.5-.2a3.6 3.6 0 0 0 1.2-.6h.2c.6-.5 1-1 1.3-1.5a3.5 3.5 0 0 0 .3-2 3.5 3.5 0 0 0-.7-1.7c-.4-.5-1-1-1.5-1.2l-.7-.2a3.6 3.6 0 0 0-.6-.2l-1.8-.4h-.2l-2.8-.5-3.7-.5-4.2-.6-4-.4-2.9-.3a3.6 3.6 0 0 0-2.6.8 3.6 3.6 0 0 0-.9 1.1 3.6 3.6 0 0 0-.4 1.4c0 .4 0 .9.2 1.4a3.6 3.6 0 0 0 .6 1.2c.3.4.7.7 1.1.9l1.4.4m-24.3 5.3 1.7.1 2.2.2 2.2.1 1.3.2h.2a3.6 3.6 0 0 0 1.9-2.6 3.6 3.6 0 0 0 0-1.2 3.6 3.6 0 0 0-1-2l-.9-.6a3.6 3.6 0 0 0-1-.4h-.1a3.6 3.6 0 0 0 1.4-.3h-4.8a3.6 3.6 0 0 0-3.3 2.3 3.6 3.6 0 0 0 .8 4 3.6 3.6 0 0 0 2.6 1h3.4l1.6-.1a3.6 3.6 0 0 0 1.5-.4 3.6 3.6 0 0 0 1.7-1.6l.3-1a3.6 3.6 0 0 0 0-1.2 3.6 3.6 0 0 0-.3-1l-.7-1a3.6 3.6 0 0 0-2-1h-.2l-.3-.1-1.5-.1-2.3-.2-2.2-.2h-1.7a3.6 3.6 0 0 0-1.3.1 3.6 3.6 0 0 0-1.2.7 3.6 3.6 0 0 0-.9 1.1l-.4 1.4a3.6 3.6 0 0 0 .9 2.6l1 .8a3.6 3.6 0 0 0 1.4.4" class="B"/><path d="M196.2 322.2h1.4l2 .2 2.6.4 3 .6 3 .6 3 .8 3 .6 3.2.7 3.4.7h.1l3.8.7h.2l4.2.7 4.3.4a3.6 3.6 0 0 0 3.6-1.8 3.6 3.6 0 0 0-1.5-5l-1.3-.3-4.2-.5-4-.5-3.8-.7-3.3-.7-3.2-.7-3-.7-2.9-.7-3.1-.7h-.1l-3.1-.6h-.2l-2.8-.4h-.2l-2.2-.2h-.1l-1.5-.1a3.6 3.6 0 0 0-3.4 2 3.6 3.6 0 0 0 1.7 4.8c.4.2.9.4 1.4.4" class="B"/><path d="M189.1 328h5.1l3.2.2 4 .3 4.5.3 5 .3h.1l5.7.2h6.1l6.4.2h18.1a3.6 3.6 0 0 0 1.4-.3 3.6 3.6 0 0 0 1.1-.8 3.6 3.6 0 0 0 .8-1.1 3.6 3.6 0 0 0 .3-1.4 3.6 3.6 0 0 0-.3-1.4 3.6 3.6 0 0 0-.8-1.2 3.6 3.6 0 0 0-1.2-.7 3.6 3.6 0 0 0-1.3-.3h-18.1l-6.3-.1-6-.1-5.6-.2-5-.3-4.5-.3-4-.3-3.2-.1-2.5-.2H189.2a3.6 3.6 0 0 0-2.6 1 3.5 3.5 0 0 0-.8 1.2l-.3 1.4a3.6 3.6 0 0 0 .3 1.4l.8 1.2a3.5 3.5 0 0 0 1.2.7c.4.2.9.3 1.3.3m33.3-9.5h12.2l6.4-.1h.1l7.7-.5h.1l4.3-.4h.1l4.5-.7 4.7-.8h.1l4.7-1h.1l4.7-1 4.6-1.3h.1l4.4-1.3h.2l4.1-1.4h.2l7.3-2.8a3.5 3.5 0 0 0 1.2-.7 3.6 3.6 0 0 0 .8-1.2 3.6 3.6 0 0 0 .3-1.3 3.6 3.6 0 0 0-1-2.6 3.6 3.6 0 0 0-1-.8l-1.4-.3a3.6 3.6 0 0 0-1.4.2l-7.3 2.7-4 1.3-4.3 1.3-4.5 1.1-4.5 1-4.6 1-4.6.8-4.3.6-4.1.4-7.5.5H222.4a3.6 3.6 0 0 0-2.5 1.1 3.5 3.5 0 0 0-.8 1.2c-.2.4-.3.9-.3 1.4a3.6 3.6 0 0 0 .3 1.3c.2.5.5.9.8 1.2a3.5 3.5 0 0 0 1.2.8c.4.2.9.3 1.3.3" class="B"/><path d="m290 291.8-.3.1-.5.3-.8.4-1 .6-1.6.8-2.4 1-3.2 1.2-4.3 1.2-5.1 1.5-5.8 1.4-6.2 1.5-6.4 1.4-6.5 1.1-6.4 1-6 .6-5.3.3-4.6.1a3.6 3.6 0 0 0-3.2 2.3 3.6 3.6 0 0 0 0 2.8 3.6 3.6 0 0 0 2 1.9c.5.2 1 .2 1.4.2h4.7l.1-.1 5.5-.4h.1l6.1-.6h.2l6.5-1h.1l6.6-1.2h.1l6.5-1.4 6.4-1.4 6-1.6 5.2-1.5 4.4-1.3h.2l3.4-1.3h.2l2.5-1 .3-.2 1.7-.8.2-.1 1.2-.7h.1l.7-.5.4-.2.2-.1a3.6 3.6 0 0 0 1.7-2.2c.2-.4.2-.9.1-1.4a3.6 3.6 0 0 0-1.3-2.4 3.6 3.6 0 0 0-2.6-.7 3.6 3.6 0 0 0-1.4.4" class="B"/><path d="M214 312.3H214.8l1.3-.2h.1l2-.3 2.7-.4 3.2-.6 3.6-.6h.1l3.9-.8h.1l4-1 .2-.1 4-1.2h.2l4.1-1.4h.2l4.3-1.7h.2l4.4-2h.1l4.7-2.3 5-2.5 5.3-2.8 5.4-3 5.6-3 5.4-3 4.9-3 4.3-2.6h.1l3.5-2.4h.1l2.7-2a3.6 3.6 0 0 0 1.4-3.7 3.6 3.6 0 0 0-.6-1.2 3.6 3.6 0 0 0-2.3-1.5 3.6 3.6 0 0 0-2.6.6l-2.7 1.9-3.4 2.2-4.2 2.6-4.8 2.8-5.3 3-5.5 3-5.4 3-5.2 2.7-4.8 2.4-4.6 2.2-4.3 2-4.2 1.5-4 1.3-4 1.1-3.9 1-3.7.8-3.5.6-3.2.5-2.5.4-2 .3-1 .1h-.6a3.6 3.6 0 0 0-3.3 2.4 3.6 3.6 0 0 0 1 3.9 3.6 3.6 0 0 0 2.5 1" class="B"/><path d="M302.1 264.6h-.9l-.3.1-1.6.3h-.2l-2.6.7h-.2l-3.6 1.1h-.2l-4.7 1.8h-.1l-5.9 2.2-6.6 2.6-7 2.9-7 2.7-6.6 2.5-6 2-5 1.6-4 1-3 .5-1.5.1h-.8c.6.5 1.3.9 2.2 1l-.2-.3a3.5 3.5 0 0 0 1 3.3l.1-.3c-.5.5-.8 1.2-1 1.9l.6-.6 1.5-1 2.7-1.6 4.1-2.2 5.3-2.8 6.1-3.3 6.8-3.6 7-4h.2l7-4.3.2-.1 6.8-4.5.2-.1 3.2-2.4h.1l3.2-2.5 3-2.6h.2l2.7-2.6.2-.1 2.5-2.6.1-.1 2.2-2.5.2-.2 2-2.5.1-.2 1.8-2.4v-.2l1.6-2.4.1-.2 1.3-2.4.2-.2 2-4.4a3.6 3.6 0 0 0 0-2.8 3.6 3.6 0 0 0-1.9-2 3.6 3.6 0 0 0-2.7 0c-.5 0-.9.3-1.2.7a3.6 3.6 0 0 0-.8 1.1l-2 4.3-1.1 2.1-1.4 2.3-1.7 2.3-1.9 2.3-2.1 2.4-2.4 2.5-2.6 2.4-2.9 2.4-3 2.3-3.2 2.3-6.7 4.5-7 4.2-7 3.8-6.7 3.6-6.1 3.3-5.3 2.8-4.2 2.3-3 1.7-.2.2-1.9 1.3-.6.5-.8.8c-.5.6-.8 1.2-.9 1.9v.3a3.5 3.5 0 0 0 1 3.2l.3.2c.6.6 1.3.9 2 1h1.2a3.6 3.6 0 0 0 .7 0l2.1-.2h.3l3-.6h.2l4.2-1h.2l5.2-1.6h.1l6.2-2.2 6.7-2.5h.1l7-2.8 7-2.9 6.6-2.6 5.8-2.2 4.6-1.6 3.5-1 2.4-.6 1.4-.3h.7a3.6 3.6 0 0 0 3-2.6 3.6 3.6 0 0 0-1-3.8 3.6 3.6 0 0 0-2.7-.8" class="B"/><path d="M307 210h-.3a3.6 3.6 0 0 0-1.1.5l-.6.4c-.2 0-.3.2-.4.3l-1.2 1-.2.2-1.9 1.8-.1.2-2.6 2.8-3.3 3.9-4.1 4.8-4.7 5.8-5.3 6.3-5.6 6.5-5.7 6.3-5.4 5.6-4.7 4.6-3.7 3.4-2.5 2.1-1.2.9a3.5 3.5 0 0 0 2.3-.1l-.2-.1c0 .7.4 1.2.8 1.7a3.5 3.5 0 0 0 1.7 1v-.3a3.6 3.6 0 0 0 0 1.3v-.4a3.6 3.6 0 0 0-1.6-3.7 3.6 3.6 0 0 0-2.7-.4 3.6 3.6 0 0 0-2.3 1.6 3.6 3.6 0 0 0-.5 1.3v.5a3.6 3.6 0 0 0 0 1.3v.3c.2.7.5 1.2 1 1.7a3.5 3.5 0 0 0 1.6 1l.3.1a3.5 3.5 0 0 0 2.3-.1l.5-.2.8-.5 1.6-1.2.2-.1 2.6-2.3h.1l3.8-3.5.1-.1 4.8-4.7 5.5-5.8 5.9-6.4v-.1l5.6-6.5 5.4-6.4 4.7-5.7 4-4.8 3.3-3.8 2.5-2.8 1.6-1.6.8-.7.4-.2a3.6 3.6 0 0 0-1.1.4h.2c.5-.1 1-.3 1.3-.6l1-1a3.6 3.6 0 0 0 .5-1.2 3.6 3.6 0 0 0-1.5-3.7 3.6 3.6 0 0 0-1.3-.6H307m-9.4-16.2-.6.4-.2.2-1.4 1-2.3 1.8-3.3 2.5-4 2.7-4 2.7-3.5 2.2-2.9 1.6a3.6 3.6 0 0 0-1.6 3.6 3.5 3.5 0 0 0 .4 1.3 3.6 3.6 0 0 0 1 1 3.6 3.6 0 0 0 1.2.7 3.6 3.6 0 0 0 1.3 0c.5 0 1-.1 1.4-.3l2.8-1.7h.1l3.7-2.3 4.2-2.8 4-2.9h.1l3.4-2.5 2.4-1.8 1.3-1 .5-.4 1-1 .4-1.3a3.6 3.6 0 0 0 0-1.4 3.6 3.6 0 0 0-1.5-2.2 3.6 3.6 0 0 0-1.3-.5 3.6 3.6 0 0 0-2.6.4m-15.1-12-.2.4-.8 1-1.7 1.7-2.9 2.6-3.7 3.3-4.5 3.8-5 3.9-1 1-.3 1.4a3.6 3.6 0 0 0 0 1.4 3.6 3.6 0 0 0 .7 1.2 3.6 3.6 0 0 0 1 1l1.4.4a3.6 3.6 0 0 0 1.4-.1 3.6 3.6 0 0 0 1.2-.6l5-4h.2l4.6-4 3.8-3.3 3-2.8.2-.1 1.9-2a3.6 3.6 0 0 0 .2-.2l1-1.3a3.5 3.5 0 0 0 .3-.4l.4-.6a3.6 3.6 0 0 0-1.3-5 3.6 3.6 0 0 0-1.3-.4 3.6 3.6 0 0 0-3.6 1.7m-19.9-72.2.1.8.2 1.8.3 3 .3 4.4.2 5.4.1 6.3-.1 6.8-.5 7-.8 6.8-1.2 6.4-1.3 5.7-1.2 4.8-1.1 3.8c-.1.5-.2 1-.1 1.4a3.6 3.6 0 0 0 .4 1.3c.2.5.5.8.9 1.1a3.6 3.6 0 0 0 1.2.7 3.6 3.6 0 0 0 3.9-1.2c.3-.4.5-.8.6-1.3l1.1-3.8v-.1l1.3-5 1.4-6 1.2-6.6v-.2l.9-7v-.2l.5-7.2v-.2l.1-7v-6.6l-.3-5.4v-.1l-.3-4.4v-.1l-.3-3.1-.2-2v-.1l-.1-.9-.5-1.3-1-1a3.6 3.6 0 0 0-1.2-.7 3.6 3.6 0 0 0-3.8 1.3 3.6 3.6 0 0 0-.6 1.3v1.4" class="B"/><path d="M269.8 138.8v1.4l-.5 2.7-1 4.2-1.5 5.3-2 6.2-2.3 6.5-2.6 6.4-2.5 6.1-2.3 5.3-2 4.2-1.6 3-1.1 2.1-.7 1.2a3.6 3.6 0 0 0 .3 4 3.6 3.6 0 0 0 3.7 1.3c.5-.1 1-.3 1.3-.6l1-1 .7-1.3v-.2l1.2-2.1 1.6-3.2 2-4.3.1-.1 2.4-5.4 2.6-6.2 2.6-6.6v-.1l2.4-6.6v-.1l2.1-6.3v-.2l1.6-5.5v-.2l1-4.3v-.2l.5-3v-.3l.2-1.6a3.6 3.6 0 0 0-.8-2.6 3.6 3.6 0 0 0-2.5-1.2 3.6 3.6 0 0 0-2.6.8 3.6 3.6 0 0 0-1.3 2.5" class="B"/><path d="M259.1 161v.9l-.4 2-.8 3.2-1.2 4.3-1.6 5-1.9 5.2-2 5-2 4.6-1.6 3.7-1.4 2.8-1 2c-.2.3-.3.8-.3 1.3a3.5 3.5 0 0 0 .1 1.3 3.6 3.6 0 0 0 .7 1.3 3.6 3.6 0 0 0 6-.7l1-2 1.4-2.9 1.7-3.9 2-4.6.1-.1 2-5.2h.1l1.9-5.4v-.1l1.6-5.1v-.2l1.3-4.4v-.1l1-3.5v-.2l.4-2.2v-.3l.1-1a3.5 3.5 0 0 0-.1-1.5 3.6 3.6 0 0 0-3.1-2.5 3.5 3.5 0 0 0-1.4.1 3.6 3.6 0 0 0-2.6 3.2m-16.8-18.5v7.1l-.3 5.4-.8 6.9-1.3 7.6-1.8 8-2.2 7.7-2.5 7.4-2.6 6.9-2.5 6.2-2.5 5.4-2.1 4.4-1.8 3.4-1.4 2.5a3.6 3.6 0 0 0-.4 1.3v1.4a3.6 3.6 0 0 0 .7 1.2 3.6 3.6 0 0 0 1 1l1.4.4a3.5 3.5 0 0 0 1.4-.1 3.6 3.6 0 0 0 1.2-.7c.4-.2.7-.6 1-1l1.4-2.5 1.8-3.6h.1l2.2-4.6 2.5-5.6 2.7-6.4v-.1l2.7-7v-.1l2.5-7.6v-.2l2.3-8v-.1l2-8v-.3l1.3-7.8v-.2l.9-7v-.3l.3-5.5v-7.5a3.6 3.6 0 0 0-1-2.6 3.5 3.5 0 0 0-1.2-.8l-1.4-.2a3.6 3.6 0 0 0-1.3.2c-.5.2-.9.5-1.2.8a3.5 3.5 0 0 0-.8 1.2c-.2.4-.3.9-.3 1.4" class="B"/><path d="M239.3 180.2v2.2l-.1 3.5-.5 4.8-.9 6-1.5 7-2 7.5-2.4 7.5-2.8 7.3-3 7-3 6.2-3.1 5.5-3 4.8-2.5 4a3.6 3.6 0 0 0 1 5 3.6 3.6 0 0 0 2.8.5 3.9 3.9 0 0 0 2.3-1.6l2.6-4 3-5v-.2l3.2-5.6.1-.2 3.2-6.4v-.1l3-7.1.2-.2 2.8-7.4v-.2l2.5-7.7v-.2l2.1-7.6v-.1l1.6-7.2v-.3l1-6.2v-.2l.4-5v-.3l.2-3.6V180.3a3.6 3.6 0 0 0-2.2-3.4 3.5 3.5 0 0 0-2.8 0 3.6 3.6 0 0 0-2.2 3.3" class="B"/><path d="m230.5 217.7-.1 1-.4 2.2-.9 3.6-1.5 4.8-2.3 5.7-3 6.4-1.7 3.4-2 3.4-2 3.4-2.3 3.5-5 7-5 6.6-5.3 6.3-5.2 6-5.1 5.6-5 5.2-4.3 4.7-3.8 4a3.6 3.6 0 0 0-.8 1.1 3.6 3.6 0 0 0 0 2.8c.2.4.5.8.9 1.1a3.6 3.6 0 0 0 2.5 1 3.6 3.6 0 0 0 2.5-1l3.9-4 4.4-4.8 5-5.2 5.1-5.7 5.4-6v-.1l5.4-6.5 5.2-6.8.1-.1 5-7.1v-.1l2.4-3.6 2.2-3.6v-.1l2-3.5.1-.1 1.8-3.5.1-.1 3-6.7.2-.2 2.3-6v-.1l1.7-5v-.3l1-3.7v-.2l.5-2.4v-.4l.2-1.1a3.6 3.6 0 0 0-.2-1.4 3.6 3.6 0 0 0-.6-1.3 3.6 3.6 0 0 0-2.4-1.3 3.6 3.6 0 0 0-2.7.8 3.6 3.6 0 0 0-1.3 2.4m-48.8 69.9.3-.2 1-.7 1.8-1 2.6-1.5 3.3-1.6a3.6 3.6 0 0 0 1-.8 3.6 3.6 0 0 0 .6-4l-.8-1.1a3.6 3.6 0 0 0-1.2-.7 3.6 3.6 0 0 0-2.8.2l-3.4 1.6h-.1l-2.8 1.6h-.1l-2 1.2-.1.1-1.2.8-.3.2-.5.5a3.6 3.6 0 0 0-.4.3l-.1.2c-.4.4-.6.8-.8 1.2a3.6 3.6 0 0 0-.2 1.4c0 .5.1 1 .3 1.4a3.6 3.6 0 0 0 .9 1 3.6 3.6 0 0 0 1.2.8 3.6 3.6 0 0 0 3.8-1m-6.8-14.1-.7.2-.3.1-.6.3a3.6 3.6 0 0 0-.4.2l-.6.3a3.6 3.6 0 0 0-.8.7l-.3.4c-.5.5-.7 1-.9 1.7s0 1.3.2 1.9l.1.3a3.6 3.6 0 0 0 .7 1.3 3.6 3.6 0 0 0 1.2.8 3.6 3.6 0 0 0 4-.6 3.5 3.5 0 0 0 .8-1.1 3.6 3.6 0 0 0 0-2.8v-.3c-.5.5-.7 1-.9 1.7s0 1.2.2 1.9l.3-.4a3.6 3.6 0 0 0-.9.7l.4-.2.3-.1.5-.2 1.2-.7a3.6 3.6 0 0 0 .9-1.1c.2-.4.3-.9.3-1.4a3.6 3.6 0 0 0-3.3-3.8c-.5 0-1 0-1.4.2m46.8-194.8.1.4.2 1.4.2 2.8.2 4.2.1 5.5v6.7l.1 7.5v26.8a3.6 3.6 0 0 0 .3 1.3 3.6 3.6 0 0 0 .8 1.2 3.6 3.6 0 0 0 1.1.8 3.6 3.6 0 0 0 1.4.3 3.6 3.6 0 0 0 1.4-.3 3.6 3.6 0 0 0 1.2-.8 3.6 3.6 0 0 0 .7-1.2 3.6 3.6 0 0 0 .3-1.3V92.8l-.2-5.6-.2-4.3v-.1l-.2-3v-.3l-.3-1.8a3.6 3.6 0 0 0-.1-.5l-.2-.7a3.6 3.6 0 0 0-.7-1.2 3.6 3.6 0 0 0-2.4-1.3l-1.4.1a3.6 3.6 0 0 0-1.2.7 3.6 3.6 0 0 0-1.3 2.4v1.4m11.3 4.7v1l.2 1.9.2 3.2.2 4.6.2 5.8v13.7l-.3 7.1-.5 6.7-.6 6-.5 4.8-.4 3.6-.2 2.4a3.6 3.6 0 0 0 .1 1.4 3.6 3.6 0 0 0 .7 1.2c.3.4.6.7 1 .9l1.4.4a3.6 3.6 0 0 0 1.3-.1 3.6 3.6 0 0 0 1.3-.6l.9-1 .4-1.4.3-2.4.4-3.6.5-5 .6-6 .4-6.8v-.1l.4-7.2V99.6l-.2-5.9-.2-4.7-.2-3.2-.1-2V83l-.4-1.4a3.6 3.6 0 0 0-.9-1 3.6 3.6 0 0 0-1.2-.8 3.6 3.6 0 0 0-2.8.2 3.6 3.6 0 0 0-1 .8 3.6 3.6 0 0 0-.8 1.2l-.2 1.4m12 4 .2 1.1.2 2.2.2 3.7.2 5.2.1 6.5v7.3l.1 7.7v36.8c0 .4 0 .9.3 1.3a3.6 3.6 0 0 0 .7 1.2l1.2.8a3.5 3.5 0 0 0 1.4.3 3.6 3.6 0 0 0 3.3-2.2 3.5 3.5 0 0 0 .3-1.4v-44.6l-.1-7.3-.1-6.6-.2-5.3-.2-3.9v-.2l-.3-2.3v-.2l-.2-1.2a3.6 3.6 0 0 0-.5-1.3 3.5 3.5 0 0 0-1-1 3.6 3.6 0 0 0-2.7-.7 3.6 3.6 0 0 0-1.3.5 3.5 3.5 0 0 0-1 1 3.6 3.6 0 0 0-.6 2.6M83.3 258.7l.3.1 1 .3 1.7.5 2.3.7 2.7.7 2.7.7 2.6.7 2.2.5 1.7.4 1.1.2.6.1a3.6 3.6 0 0 0 4-2.4 3.6 3.6 0 0 0-1.8-4.4h-.1l-.3-.2-.7-.2h-.2l-1.1-.5-1.6-.6-2-.8-2.2-1-2.2-.9-2-.9-1.9-.8-1.6-.6-1-.4-.5-.2a3.6 3.6 0 0 0 1 .7 3.6 3.6 0 0 0-.5.5l-.4.6-.3.7a3.6 3.6 0 0 0 .5 2.8 3.6 3.6 0 0 0 .5.6 3.5 3.5 0 0 0-2 .8H87l1.6.3 2 .3 2 .5 1.9.5 1.5.6 1 .4.7.2a3.6 3.6 0 0 0 2.8 0 3.6 3.6 0 0 0 1.2-.7c.3-.3.6-.7.7-1.2a3.6 3.6 0 0 0 .3-1.3 3.5 3.5 0 0 0-.2-1.4c-.2-.5-.4-.8-.8-1.2a3.6 3.6 0 0 0-1.1-.8l-.7-.3h-.2l-1.2-.5h-.1l-1.7-.6h-.2l-2-.6h-.2l-2.2-.6h-.2l-2-.4h-.2l-1.8-.3h-.2l-1.2-.1H85.2a3.5 3.5 0 0 0-2 .9H83a3.6 3.6 0 0 0-.5.6l-.3.6-.3.7a3.6 3.6 0 0 0 .5 2.8 3.6 3.6 0 0 0 .5.6v.1a3.6 3.6 0 0 0 1.1.7l.7.3h.1l1.1.5 1.5.6 1.7.7 2 1h.1l2.2.9 2.2 1 2 .8h.2l1.7.7h.1l1.2.4.5.2a3.6 3.6 0 0 0 4-2.4 3.6 3.6 0 0 0-1.8-4.4h-.4l-1-.3-1.7-.3-2-.5-2.6-.6-2.7-.7-2.6-.8-2.1-.6-1.6-.5-1-.3h-.4l-.7-.3a3.6 3.6 0 0 0-.6 0h-.3a3.6 3.6 0 0 0-1.4.2 3.6 3.6 0 0 0-2.3 3.1l.1 1.4a3.6 3.6 0 0 0 1.8 2c.4.2.8.4 1.3.4" class="B"/><path d="m87.9 253.6.3.3v.1l.6.7.9 1 1 1.2 1.4 1.4 1.5 1.8h.2l1.7 1.8 1.8 1.7h.1L99 265l.1.1 1.3 1a3.6 3.6 0 0 0 2.7.9 3.6 3.6 0 0 0 3-2.6 3.6 3.6 0 0 0-1.1-3.8l-1.3-1-1.6-1.4-1.6-1.5-1.6-1.6-1.5-1.6-1.3-1.4-1-1.2-.8-1-.5-.5-.3-.3a3.6 3.6 0 0 0-3.8-1.2 3.6 3.6 0 0 0-2.6 3 3.6 3.6 0 0 0 .8 2.7" class="B"/><path d="M88.7 260.4h.1l.3.3.2.2.2.2.4.2.3.2.6.3.4.2.7.3.4.1.8.3.9.2 1 .2.7.2.5.1a3.6 3.6 0 0 0-1.4-.6 3.6 3.6 0 0 0 3.3-1.1 3.6 3.6 0 0 0-.5-5.3l-.5-.1-1-.2-1.5-.3-1.7-.4h-.1l-1.9-.4-1.7-.3-1.1-.2-.6-.1a3.5 3.5 0 0 0 1.4.7l-.1-.1a3.5 3.5 0 0 0-2.9 2.6 3.5 3.5 0 0 0 1.2 3.7h7l2.8.3 2.7.3 2.4.4a3.6 3.6 0 0 0 3.6-1.8 3.6 3.6 0 0 0-.2-4 3.6 3.6 0 0 0-2.3-1.4l-2.5-.3-3-.4-3-.2h-.2l-2.6-.1h-5.5l-.4.1a3.5 3.5 0 0 0-2.9 2.6 3.5 3.5 0 0 0 1.2 3.7l.1.1a3.5 3.5 0 0 0 1.5.8l.7.2h.2l1.3.2 1.6.3 1.8.3 1.7.4 1.5.3h.1l1.1.3h.6a3.6 3.6 0 0 0 3.3-1 3.6 3.6 0 0 0-.5-5.4 3.6 3.6 0 0 0-1.5-.6l-.4-.1-.7-.2-.8-.2-.8-.2-.6-.2H94l-.2-.2h-.2v-.1a3.6 3.6 0 0 0-5.9 1.2 3.6 3.6 0 0 0 .9 4" class="B"/><path d="m88.6 255.2.2.1a3.6 3.6 0 0 0 .2.3l.3.3.1.1.5.4.7.7 1.2 1 1.4 1.2 1.7 1.5 1.8 1.7 1.8 1.7 1.7 1.5 1.5 1.4a3.6 3.6 0 0 0 2.6 1 3.6 3.6 0 0 0 3.2-2.3 3.6 3.6 0 0 0 0-2.8 3.6 3.6 0 0 0-.9-1.1l-1.5-1.5-1.7-1.5-1.8-1.7-1.9-1.7L98 254l-1.5-1.4-1.1-1-.8-.6-.4-.4-.2-.1a3.6 3.6 0 0 0 .3.3v-.2a3.6 3.6 0 0 0-3.9-1 3.6 3.6 0 0 0-2 1.7 3.6 3.6 0 0 0-.4 2.7l.6 1.2" class="B"/><path d="m98 265.2.2.2.4.4.9.6 1 1 1.5 1.3a3.6 3.6 0 0 0 1.2.7 3.6 3.6 0 0 0 2.8-.2c.4-.2.7-.5 1-.9a3.6 3.6 0 0 0 .8-1.2 3.5 3.5 0 0 0 .2-1.3 3.6 3.6 0 0 0-.4-1.4 3.6 3.6 0 0 0-.8-1.1l-1.5-1.3-1.2-1-1-.8-.5-.5-.3-.2a3.6 3.6 0 0 0-1.3-.6 3.6 3.6 0 0 0-2.7.4l-1 1a3.6 3.6 0 0 0-.7 2.5 3.6 3.6 0 0 0 1.3 2.4m-16.9-4 .3.6.2.3.9 1v.1l1.4 1.8 2 2.3.1.1 2.7 3 3.1 3.3c.3.4.7.7 1.1.9a3.5 3.5 0 0 0 1.4.3 3.6 3.6 0 0 0 1.4-.2 3.6 3.6 0 0 0 2-1.9 3.6 3.6 0 0 0 .3-1.3 3.6 3.6 0 0 0-.2-1.4 3.6 3.6 0 0 0-.7-1.2l-3.1-3.4-2.6-2.9-2-2.2-1.2-1.6-.7-1-.3-.3a3.6 3.6 0 0 0-1-1c-.3-.3-.8-.5-1.2-.6a3.6 3.6 0 0 0-1.4 0c-.5 0-1 .2-1.3.5l-1 1a3.5 3.5 0 0 0-.6 1.2v1.4a3.6 3.6 0 0 0 .4 1.3" class="B"/><path d="m82.6 266.7.4.4.7.9 1.2 1.4v.1l1.7 1.7 2 2 .2.1 2.4 2.2.1.1 2.8 2.3.2.1 3.2 2.4.1.1 3.5 2.3.2.2 3.6 2 .3.2 3.5 1.7.2.1 3.2 1.4a3.6 3.6 0 0 0 1.3.2 3.6 3.6 0 0 0 1.4-.2c.5-.2.8-.5 1.2-.8a3.5 3.5 0 0 0 1-2.5 3.6 3.6 0 0 0-.2-1.4 3.6 3.6 0 0 0-2-2l-3-1.3-3.4-1.6-3.4-2-3.3-2.2-3-2.3-2.7-2.2-2.4-2.1-1.9-1.9-1.5-1.5-1-1.2-.6-.7-.3-.4A3.6 3.6 0 0 0 86 261a3.5 3.5 0 0 0-1.4 0 3.6 3.6 0 0 0-1.2.7 3.6 3.6 0 0 0-1 1 3.5 3.5 0 0 0-.4 1.4 3.6 3.6 0 0 0 .7 2.6m54.1 51 .4.3.1.2.8.7 1 1 1.3 1 1.4 1.3 1.7 1.6 1.9 1.7 2.3 2.2 3 2.8 4 3.8 5.1 5a3.6 3.6 0 0 0 1.2.7 3.6 3.6 0 0 0 1.4.2 3.5 3.5 0 0 0 1.4-.3 3.6 3.6 0 0 0 1.9-2c.2-.4.2-.9.2-1.3a3.6 3.6 0 0 0-.3-1.4c-.2-.4-.4-.8-.8-1.2l-5.1-5-4-3.8-3-2.8-2.4-2.2-2-1.8-1.6-1.5-1.5-1.3-1.3-1.1-1-.9-.5-.6-.4-.3a3.6 3.6 0 0 0-1.1-.8 3.6 3.6 0 0 0-2.8-.1 3.6 3.6 0 0 0-1.1.7 3.6 3.6 0 0 0-.9 1.2c-.1.4-.3.9-.3 1.4a3.6 3.6 0 0 0 .3 1.3 3.6 3.6 0 0 0 .7 1.2" class="B"/><path d="M142.7 329.7h.1l.5.4 1.2 1 2 1.5.2.1 3.4 2.3.1.1 5 3v.2l6.7 3.7h.2l8.2 4.2h.2l9.9 4.6h.1l11.4 4.7h.1l12.3 4.7h.1l12.4 4.2a3.6 3.6 0 0 0 3.8-1 3.6 3.6 0 0 0-1.5-5.8l-12.3-4.2-12.2-4.6-11.3-4.6-9.8-4.5-8.1-4-6.5-3.7-4.8-3-3.2-2.2-2-1.5-1.2-1h-.1l-.7-.4-.2-.2-.2-.1a3.6 3.6 0 0 0-2.7-.4 3.5 3.5 0 0 0-2.7 3v1.3l.6 1.2c0 .5.6.7 1 1" class="B"/><path d="m154 342.6.1.3a3.6 3.6 0 0 0 .4.4l.4.6a3.6 3.6 0 0 0 .3.3l1 .9a3.6 3.6 0 0 0 .3.3l1.8 1.3.2.2 3 2h.3l4.5 2.5.2.1 6.3 2.8.2.1 8 3 4.8 1.7 5.2 1.6h.1l5.5 1.6h.1l5.7 1.5h.1l11.3 2.6a3.6 3.6 0 0 0 3.7-1.4 3.6 3.6 0 0 0 .2-4 3.6 3.6 0 0 0-2.3-1.6l-11.2-2.6-5.7-1.5-5.4-1.5-5-1.6-4.7-1.5-7.8-3-6-2.7-4.3-2.3-2.8-1.8-1.5-1.2-.7-.6-.2-.2a3.6 3.6 0 0 0-4.9-1.1 3.6 3.6 0 0 0-1.2 4.8" class="B"/><path d="M169 353.8h.1v.1l.4.2a3.6 3.6 0 0 0 .4.2l.8.4a3.6 3.6 0 0 0 .4.1l1.4.5h.3l2.3.6 3.4.8h.1l4.6.8h.1l6.4 1 8 1h.2l9.4 1 10.1.6h.1l10.3.6 10 .3 8.8.2a3.6 3.6 0 0 0 3.4-2.1 3.5 3.5 0 0 0 0-2.8 3.6 3.6 0 0 0-1.9-2c-.4-.2-.9-.3-1.4-.3l-8.7-.2-9.8-.3-10.3-.5-10-.7-9.3-1-7.9-1-6.2-.9-4.5-.8-3.3-.7-2-.5-1.2-.4-.4-.1-.1-.1-.1-.1a3.6 3.6 0 0 0-4 .1 3.6 3.6 0 0 0-1.5 2.3 3.6 3.6 0 0 0 1.6 3.7" class="B"/><path d="M211.7 351.9h.8l1.3.1 2.4.3 3.4.5 4.5.7 5.9 1 6.6 1.4 7.2 1.6 7.1 1.6 6.8 1.6 6 1.5 5 1.3 3.8 1a3.6 3.6 0 0 0 4.4-2.5 3.6 3.6 0 0 0-2.5-4.4l-3.8-1-5-1.4-6.2-1.5-6.8-1.6-7.2-1.7-7.3-1.5-6.8-1.4-6-1-4.6-.8-3.5-.5-2.5-.3-1.6-.2H212a3.6 3.6 0 0 0-1.4.2 3.6 3.6 0 0 0-2.4 3.2c0 .5.1 1 .3 1.4a3.6 3.6 0 0 0 .7 1.2c.3.4.7.6 1.2.8l1.3.4" class="B"/><path d="m247 353.6.4.4.9.7 1.3 1.3 1.9 1.7 2.5 2v.1l2.8 2.3 2.8 2.3 2.7 2.1 2.2 1.7a3.6 3.6 0 0 0 4 .1l1-.9.6-1.2c.3-.4.1-1 0-1.4l-.4-1.3c-.3-.4-.5-.8-.8-1l-2.2-1.7-2.6-2-2.7-2.2-2.8-2.3-2.3-2-1.8-1.7-1.4-1.2-.7-.7-.3-.3a3.6 3.6 0 0 0-4-.7 3.5 3.5 0 0 0-1.9 2 3.6 3.6 0 0 0 .9 4" class="B"/><path d="m252.4 353.9.4.3 1 .8 1.5 1.3 2.4 2 3.3 3 4.5 3.8 5.6 4.7 6.6 5.3 7 5.5 6.8 5.4 6.1 4.8 5.2 4 4 3.4c.3.3.7.5 1.1.6a3.6 3.6 0 0 0 1.4.1c.5 0 1-.2 1.3-.4a3.6 3.6 0 0 0 1.8-2 3.6 3.6 0 0 0-.2-2.8 3.6 3.6 0 0 0-.9-1l-4-3.4-5.2-4.2-6.1-4.8-6.8-5.3-7-5.5-6.5-5.3-5.5-4.6-4.5-3.8-3.3-3-2.4-2-1.7-1.4-1-.8-.5-.4a3.6 3.6 0 0 0-1.3-.6 3.6 3.6 0 0 0-2.7.3 3.6 3.6 0 0 0-1.7 2.2 3.6 3.6 0 0 0-.1 1.4c0 .5.2 1 .4 1.3l1 1.1M221.5 61.4v11.5l.1 5.6.1 6.6.1 7 .1 6.5.2 6 .1 5 .2 3.7v2.5l.1 1.5a3.5 3.5 0 0 0 .3 1v.2a3.6 3.6 0 0 0 4 2.2c.4 0 .8-.2 1.2-.4a3.6 3.6 0 0 0 1-.8 3.6 3.6 0 0 0 .5-1c.2-.4.3-.8.3-1.3V90.2l.2-5.7.2-5 .4-4 .2-2.9.2-1.9.2-.9c-.1-.4-.3-.7-.6-1a3.5 3.5 0 0 0-.8-.9 3.6 3.6 0 0 0-1.1-.5 3.6 3.6 0 0 0-1.2 0 3.6 3.6 0 0 0-3 1.8 3.6 3.6 0 0 0-.3 1.2v.2a3.6 3.6 0 0 0-.1-1V133.6a3.6 3.6 0 0 0 .2 1.4 3.6 3.6 0 0 0 .8 1.2 3.5 3.5 0 0 0 1.2.8 3.6 3.6 0 0 0 2.7 0c.5-.2.9-.4 1.2-.8a3.6 3.6 0 0 0 .8-1.1 3.6 3.6 0 0 0 .3-1.4V79.9c-.6.2-1.2.5-1.6 1s-.7 1.1-.8 1.8a3.6 3.6 0 0 0-1-2c-.3 0-.5-.2-.7-.4a3.6 3.6 0 0 0-2.8-.3l.2.8.2 2.1.3 3.4.4 4.5.4 5v.1l.5 5.1.5 4.8.3 4 .4 3.2.3 2.3a3.6 3.6 0 0 0 .4 1.3 3.6 3.6 0 0 0 1 1 3.6 3.6 0 0 0 1.2.6 3.6 3.6 0 0 0 2.7-.3 3.6 3.6 0 0 0 1-1c.3-.3.6-.7.7-1.2a3.6 3.6 0 0 0 .1-1.3l-.3-2.2-.3-3-.4-4.1-.4-4.8-.5-5-.4-5.1-.4-4.5-.3-3.5V82l-.3-2.4a3.6 3.6 0 0 0-.1-.3l-.2-1a3.6 3.6 0 0 0-1.2-1.9c-.1-.2-.3-.3-.6-.4a3.6 3.6 0 0 0-2.8-.3h-.1c-.6.2-1.2.6-1.6 1s-.7 1.2-.9 1.8v.4a3.6 3.6 0 0 0 0 .6l-.1 1.7V133.5a3.6 3.6 0 0 0 .2 1.4 3.6 3.6 0 0 0 .8 1.2 3.5 3.5 0 0 0 1.2.8 3.6 3.6 0 0 0 2.7 0c.5-.2.9-.4 1.2-.8a3.6 3.6 0 0 0 .8-1.1 3.6 3.6 0 0 0 .3-1.4V69.5a3.6 3.6 0 0 0-.2-1v-.3l-.6-1a3.5 3.5 0 0 0-.9-.9 3.6 3.6 0 0 0-1-.5 3.6 3.6 0 0 0-1.3-.1 3.6 3.6 0 0 0-2.9 1.9 3.6 3.6 0 0 0-.3 1.1l-.2 1v.2l-.2 2-.3 3-.3 4v.2l-.3 5v.1l-.2 5.8V117.1a3.6 3.6 0 0 0 2.7 2.3h1.2a3.6 3.6 0 0 0 1.2-.4 3.6 3.6 0 0 0 1-.8 3.6 3.6 0 0 0 .6-1l.2-1.3a3.5 3.5 0 0 0 .2 1v-1.3l-.1-2.6-.2-3.7-.1-4.9-.2-5.9v-6.6l-.2-7v-6.5l-.2-5.6V61.4a3.6 3.6 0 0 0-1-2.6 3.5 3.5 0 0 0-1.2-.8c-.4-.2-.9-.2-1.4-.2a3.6 3.6 0 0 0-1.4.2l-1.1.8a3.5 3.5 0 0 0-.8 1.2c-.2.4-.3.9-.3 1.4" class="B"/><path d="M225.1 88.5v3.1l.2 3.5.2 5.3.3 6.8.3 8.5.3 9.6.3 10.1.3 10 .1 9.4v16.9l-.6 7.4a3.6 3.6 0 0 0 2 3.5 3.6 3.6 0 0 0 4-.5 3.6 3.6 0 0 0 1.2-2.4l.5-7.6v-.2l.2-8.2v-.1l-.1-8.9-.1-9.4-.3-10-.3-10.2-.3-9.7-.3-8.5-.3-6.8-.2-5.3-.2-3.4v-2.9a3.6 3.6 0 0 0-2.2-3.3 3.6 3.6 0 0 0-4 .8 3.5 3.5 0 0 0-1 2.5" class="B"/><path d="M230 73.4v7.9l.2 3.5.2 3.9.4 4v.1l.5 4.3.6 4.5.5 4.7.3 5.2.2 5.5v16.5l-.2 4.2-.2 2.7v.5a1.2 1.2 0 0 0 .3-.6l-.2.1a1.2 1.2 0 0 0 .4.4l.4.1a1.2 1.2 0 0 0 .5 0l.4-.2-.1-.2-.2-.6-.5-2.6-.5-3.9-.3-4.6-.2-5.3-.2-5.2a1.2 1.2 0 0 0-.3-.8 1.2 1.2 0 0 0-.9-.4 1.2 1.2 0 0 0-.8.4 1.2 1.2 0 0 0-.4.9l.2 5.2.2 5.3.3 4.7v.1l.5 4 .6 2.8v.1l.3.8c0 .1 0 .2.2.3l.2.4a1.2 1.2 0 0 0 .4.3l.4.2a1.2 1.2 0 0 0 .5 0l.4-.3.2-.2a1.2 1.2 0 0 0 .5-.6l.1-.7a1.2 1.2 0 0 0 0-.2l.2-2.8.1-4.3.1-5.2V117l-.2-5.6-.3-5.1-.5-4.8-.6-4.6-.5-4.3-.4-4-.2-3.8-.1-3.4-.1-3.1v-4.8a1.2 1.2 0 0 0-.4-.9 1.2 1.2 0 0 0-.8-.3 1.2 1.2 0 0 0-.9.3 1.2 1.2 0 0 0-.3.9"/><path d="m231.1 100.2.2.8.3 1.9.4 3.4.5 4.8.4 6 .3 6.5.2 6.6.2 6V149.3a1.2 1.2 0 0 0 1.1 1.2 1.2 1.2 0 0 0 1.3-1.1v-1l.4-1.7.4-2.4.5-2.8a1.2 1.2 0 0 0-1-1.4 1.2 1.2 0 0 0-1.3 1l-.6 2.7-.4 2.5-.3 1.9v1a1.2 1.2 0 0 0 1 1.2 1.2 1.2 0 0 0 1.3-1v-13l-.2-6.2-.2-6.6-.3-6.6-.4-6-.5-4.9-.5-3.4-.2-2v-.1l-.2-.9a1.2 1.2 0 0 0-1.5-.9 1.2 1.2 0 0 0-.9 1.5m10.7 22.4v.9l.2 1.4.2 2 .3 2.7.3 3 .2 3.6.2 3.8v4.1l.1 4v6.3l.1.5a1.2 1.2 0 0 0 1.6.6 1.2 1.2 0 0 0 .7-1V144l-.1-4.1-.2-4-.2-3.5-.3-3.2-.3-2.6-.2-2-.2-1.4v-.9a1.2 1.2 0 0 0-1.3-1 1.2 1.2 0 0 0-1.1 1.2"/><path d="m233.6 106.1-.1.5-.3 1.1-.5 2.2-.7 3.4-.7 4.6-.7 5.4-.7 6-.6 6.2-.4 6-.3 5.4-.2 4.6v3.5l-.1 2.7a1.2 1.2 0 0 0 .7 1.1l.5.1a1.2 1.2 0 0 0 1.2-1.2v-2.6l.1-3.6.2-4.5.3-5.3.4-6 .6-6.1.7-6 .7-5.4.7-4.5.6-3.3.5-2.1.3-1.1.1-.5a1.2 1.2 0 0 0-1-1.4 1.2 1.2 0 0 0-1.3.8m-133.9 170h2.6l1 .2 1 .1a.6.6 0 0 0 .7-.4.6.6 0 0 0-.4-.7l-1.2-.2-1-.1h-2.7a.6.6 0 1 0 0 1.2"/><path d="M88.2 267.3h-.1a.6.6 0 0 0-.6.5.6.6 0 0 0 .5.7h.5l.9.4 1.1.5 1.4.8 1.5 1 1.5 1 1.4 1.2 1.3 1 1.2 1 1 .7a.6.6 0 0 0 .4.1.6.6 0 0 0 .5-.6.6.6 0 0 0-.2-.4l-1-.8-1-.9-1.4-1-1.5-1.2-1.6-1.1-1.5-1-1.4-.8-1.3-.6-1-.4h-.5v-.1h-.1a.6.6 0 0 0-.6.5.6.6 0 0 0 .5.7h.1a.6.6 0 0 0 .6-.6.6.6 0 0 0-.6-.6"/><path d="M90.5 272H91.8l.8.1 1.1.3 1.5.5 1.9.8 2 1 2.1 1.1 2.1 1.3 2 1.3 2 1.3 1.6 1.2a.6.6 0 0 0 .4 0 .6.6 0 0 0 .5-.6.6.6 0 0 0-.2-.4l-1.7-1.2-1.9-1.3-2-1.3-2.2-1.3-2.1-1.2-2.1-1-2-.8-1.5-.6-1.3-.3h-2.3a.6.6 0 1 0 0 1.2m-1.5 7.6h1.7l1 .2 1.2.3 1.4.6 1.7.7 2.2.9 2.8 1 3.3 1.3 3.7 1.2 3.9 1a.6.6 0 0 0 .7-.4.6.6 0 0 0-.4-.7l-3.8-1-3.7-1.2-3.3-1.2-2.8-1.1-2.1-1-1.8-.7-1.5-.5-1.3-.3-1-.2a.6.6 0 0 0-.1 0H89a.6.6 0 1 0 0 1.1"/><path d="m99.6 283.3.3.1.6.3 1 .6 1.5.9 1.9 1.1 2.2 1.4 2.5 1.6 2.5 1.6 2.4 1.5 2 1.3 1.5 1a.6.6 0 0 0 .4.1.6.6 0 0 0 .5-.7.6.6 0 0 0-.2-.3l-1.6-1-2-1.4-2.3-1.5-2.6-1.6-2.4-1.6-2.3-1.4-1.8-1.1-1.5-1-1.1-.6-.7-.3a.6.6 0 0 0-.1 0l-.4-.1a.6.6 0 1 0-.3 1.1m9 7.6.2.2.6.4 1.1 1 1.8 1.3 2.1 1.9 2.7 2.3 3 2.7 3.2 3 3 3 2.8 2.7 2.2 2.4 1.7 2 1.1 1.6a.6.6 0 0 0 .4.2.6.6 0 0 0 .7-.4.6.6 0 0 0-.1-.5l-1.2-1.6-1.7-2-2.3-2.5-2.7-2.8-3-3-3.2-3-3-2.7-2.8-2.3-2.2-1.9-1.7-1.4-1.1-1-.7-.4-.2-.1a.6.6 0 0 0-.4-.1.6.6 0 0 0-.5.6.6.6 0 0 0 .2.4m28.5 33.9H137.7l.6.1.9.4 1.6.9 2.6 1.6 3.6 2.4 4.7 2.9 5.8 3.2 6.6 3.4 7.3 3.3 7.5 3 7 2.4a.6.6 0 0 0 .4 0 .6.6 0 0 0 .4-.3.6.6 0 0 0 0-.5.6.6 0 0 0-.4-.3l-7-2.4-7.4-3-7.3-3.3-6.6-3.3-5.7-3.3-4.7-2.8-3.6-2.4-2.6-1.6-1.7-1-1-.4a.6.6 0 0 0-.2 0l-.7-.2h-.7a.6.6 0 1 0 0 1.2m39.2-18.7-.1.2-.1.3-.2.2-.3.3-.3.4-.4.3-.5.4-.4.5a.6.6 0 0 0 0 .1l-.5.7-.5 1-.6 1.4-.6 1.9-.7 2.1-.6 2.4-.4 2-.3 1.6v.8l.2.1a.6.6 0 0 0 .4.3h.3a.6.6 0 0 0 .2-.1l.6-.6 1-1.5 1.6-2.2 2-2.7 2.4-3.1 2.8-3.5 2.8-3.5 3-3.5 3-3.6 2.7-3.3 2.5-3 2.1-2.6 1.8-2 1.4-1.7 1-1a.6.6 0 0 0 .1-.5.6.6 0 0 0-.6-.6.6.6 0 0 0-.4.2l-1 1.2-1.4 1.5-1.8 2.1-2.1 2.6-2.6 3-2.7 3.4-3 3.5-2.9 3.6-2.9 3.5-2.8 3.4-2.4 3.1-2 2.8-1.5 2.2-1 1.4-.5.5a.6.6 0 0 0 .4.3h.3a.6.6 0 0 0 .2-.2v-.1.3-.4l.3-1.4.4-2 .6-2.3.6-2.1.7-1.9.5-1.3.5-1 .3-.5.4-.4.4-.4.4-.3.4-.4.3-.4a.6.6 0 0 0 .1-.1l.2-.3a.6.6 0 0 0 0-.1l.1-.3.1-.1a.6.6 0 0 0 0-.5.6.6 0 0 0-.6-.4.6.6 0 0 0-.4.3"/><path d="M179.6 309.8v-.5l.3-1.1.8-1.9 1.7-2.8 2.6-3.7 3.6-4.3 4.5-4.6 4.8-4.8 5-4.6 4.7-4.2 4.2-3.6a.6.6 0 0 0 .2-.4.6.6 0 0 0-.5-.7.6.6 0 0 0-.4.2l-4.3 3.6-4.8 4.2-5 4.6-4.8 4.8-4.4 4.7-3.7 4.4-2.7 3.8-1.7 2.8a.6.6 0 0 0 0 .1l-.9 2-.4 1.2a.6.6 0 0 0 0 .1v.5a.6.6 0 0 0 .5.7.6.6 0 0 0 .7-.5"/><path d="m187.7 296.2.2-.4.7-1 1.2-1.7 2.2-2.7 3.3-3.8 4.2-4.5 5.2-5.2 5.8-5.6 6.2-5.6 6.2-5.5 5.7-5a.6.6 0 0 0 .2-.3.6.6 0 0 0-.6-.7.6.6 0 0 0-.4.2l-5.7 5-6.2 5.4-6.2 5.6-5.8 5.6-5.2 5.2-4.3 4.6-3.3 3.8-2.2 2.7-1.3 1.8-.7 1-.3.5a.6.6 0 0 0 0 .5.6.6 0 0 0 .7.4.6.6 0 0 0 .4-.3m6.9-16.2.7-1 1.4-2 2.4-3 3.8-4.3 4.8-5.2 5.7-6 6.3-6.5 6.3-6.6 6-6.3a.6.6 0 0 0 .1-.5.6.6 0 0 0-.6-.6.6.6 0 0 0-.4.2l-6 6.3-6.3 6.7-6.2 6.4-5.7 6-4.9 5.3-3.8 4.4-2.4 3-1.5 2-.7 1a.6.6 0 0 0-.1.5.6.6 0 0 0 .7.5.6.6 0 0 0 .4-.3"/><path d="m213.8 274.7.2-.8.5-1.4 1-2.1 1.8-3.1 2.4-4.1 3-5 3.4-5.8 3.9-6.6 4.2-7.1 4.5-7.7 4.6-8 4.4-7.8 3.7-7.1a.6.6 0 0 0 0-.5.6.6 0 0 0-.7-.4.6.6 0 0 0-.3.3l-3.8 7.1-4.3 7.9-4.6 7.9-4.5 7.6-4.2 7.2-3.9 6.6-3.4 5.8-3 5-2.4 4-1.8 3.2-1 2.2a.5.5 0 0 0-.1 0l-.6 1.6-.1 1a.6.6 0 0 0 .5.6.6.6 0 0 0 .6-.5m21.6-55 .6-.9 1.3-2 2.2-3 3-4.3 4.1-5.3 4.7-6 5-6.3a.6.6 0 0 0 .2-.5.6.6 0 0 0-.7-.5.6.6 0 0 0-.4.2l-5 6.4-4.7 6-4.1 5.3-3.1 4.3-2.2 3.1-1.3 2-.6.9a.6.6 0 0 0 0 .4.6.6 0 0 0 .6.5.6.6 0 0 0 .4-.3m70.7-30.6v1.2l-.2 1.7-.4 2.4-.6 3.2-1 4-1.1 4.4-1.3 4.8-1.4 5.2-1.4 5.3-1.5 5.4-1.3 5.2a.6.6 0 0 0 .5.7.6.6 0 0 0 .7-.4l1.3-5.2 1.4-5.3 1.5-5.4 1.4-5.1 1.3-4.9 1.1-4.4 1-4 .6-3.3.4-2.4.1-1.8.1-1.2a.6.6 0 0 0-1.2 0m0 24.3v1l-.4 1.8-.7 2.7-1.3 3.6-2.1 4.4-3 5.2-3.7 5.8-4.5 6-4.7 5.7-4.5 4.9-4 4a.6.6 0 0 0-.1.4.6.6 0 0 0 .6.6.6.6 0 0 0 .4-.2l4-4 4.5-5 4.8-5.7 4.4-6 3.8-5.8 3-5.3 2.2-4.5v-.1l1.3-3.6.8-2.8.4-2v-1a.6.6 0 0 0-1.2 0m7.1 28.7-.4.8-.8 1.2-1.3 1.9-2 2.4-3.2 3.1-4.2 3.7-5.6 4.2-7 4.9-7.8 5-8.4 5-8 4.7-7 3.8-5.4 2.9a.6.6 0 0 0-.3.4.6.6 0 0 0 .4.7.6.6 0 0 0 .4 0l5.5-3 7-3.8 8-4.6 8.4-5 8-5.1 6.9-4.9 5.6-4.2 4.3-3.8 3.2-3.1 2.1-2.6 1.4-1.9.9-1.3.4-.8a.6.6 0 0 0 0-.5.6.6 0 0 0-.3-.3.6.6 0 0 0-.4 0 .6.6 0 0 0-.4.2M297 266.7l-.6.7-1.5 1.5-3 2.5-5 3.8-6.4 4.4-7.6 5-8.3 5.1-8 5a.6.6 0 0 0-.3.3.6.6 0 0 0 .5.7.6.6 0 0 0 .4 0l8-5 8.3-5 7.7-5 6.4-4.6 5-3.7 3-2.6 1.7-1.6.6-.7a.6.6 0 0 0 .1-.5.6.6 0 0 0-.6-.5.6.6 0 0 0-.4.2M280 294.5l-.9.5-2 1-3.7 1.9-5.4 2.4-6.9 3-8.5 3.3-9.8 3.4-10.2 3.2-9.6 2.6a.6.6 0 1 0 .3 1.2l9.6-2.7 10.3-3.1 9.8-3.4 8.6-3.4 7-3 5.3-2.4 3.7-1.8 2.1-1.1 1-.5a.6.6 0 0 0 .2-.4.6.6 0 0 0-.4-.7.6.6 0 0 0-.5 0m-.4 16.8-.6.2-1.4.5-2.5 1-4.2 1-5.8 1.5-7.6 1.7-8.8 1.7-9.2 1.7a.6.6 0 0 0-.5.7.6.6 0 0 0 .7.5l9.3-1.7 8.7-1.7 7.6-1.7 5.9-1.5 4.2-1.1 2.6-1 1.4-.4.6-.2a.6.6 0 1 0-.4-1.2m-6.3 13.3h-12a.6.6 0 1 0 0 1.2h12a.6.6 0 1 0 0-1.2"/><path d="M215.8 318.1h1.5l1.7-.2 2.3-.1 3-.1h3.9l4.8-.1H244.9l7.2-.3 7.5-.5a.6.6 0 0 0-.1-1.2l-7.5.5-7.1.2h-6.3l-5.7.1h-4.7l-4 .1h-3l-2.2.2-1.7.1h-1l-.5.1a.6.6 0 0 0 0 1.2m14.6-9.7h6l4-.2 5-.3 6.2-.3 6.3-.4a.6.6 0 0 0 0-1.2l-6.4.4-6 .3-5.2.3-4 .2h-5.9a.6.6 0 1 0 0 1.2m8.8-7.2h2l3.5-.3 5-.6 6.6-1 8-1.5 8.7-2 8.8-2.3 4.2-1.3 4-1.3 7-2.7a.6.6 0 0 0 .3-.3.6.6 0 0 0 0-.4.6.6 0 0 0-.8-.4l-6.9 2.7-4 1.3-4 1.2-8.9 2.3-8.6 2-8 1.5-6.6 1-5 .6-3.4.3h-2a.6.6 0 1 0 .1 1.2m62.5-33.2 1.7-.8 2.7-1.3 3.5-2 4.1-2.2 4.6-2.7 4.8-3.1 4.7-3.4 4.6-3.6 4-3.8 1.8-2 1.7-2 1.6-2.2 1.3-2.2 1.2-2.3 1-2.2.7-2.2.6-2 .8-3.7a.6.6 0 0 0-.5-.7.6.6 0 0 0-.7.4l-.7 3.7-.6 2-.8 2-.9 2.2-1 2.1-1.4 2.2-1.5 2.1-1.6 2-1.8 2-4 3.7-4.5 3.6-4.7 3.3-4.7 3-4.6 2.7-4 2.3-3.5 1.9-2.7 1.3-1.7.9a.6.6 0 0 0-.3.3.6.6 0 0 0 0 .4.6.6 0 0 0 .3.4.6.6 0 0 0 .5 0m43.8-57-.6 1-1.2 2-2.2 3.3-3.3 4.6-4.4 5.6-5.5 6.2-6 6.4-6.2 6-5.8 5-4.8 4a.6.6 0 0 0-.3.3.6.6 0 0 0 .6.7.6.6 0 0 0 .4-.1l4.9-4 5.8-5 6.2-6 6.1-6.5 5.5-6.2 4.4-5.7 3.4-4.6 2.2-3.3 1.2-2 .6-1a.6.6 0 0 0 0-.5.6.6 0 0 0-.7-.4.6.6 0 0 0-.3.2m-16.5-2.5-.7 1-1.6 2.3-2.7 3.7-3.9 5-4.7 6-5.4 6.2-5.2 5.6-4.3 4.6a.6.6 0 0 0-.2.4.6.6 0 0 0 .6.6.6.6 0 0 0 .5-.2l4.3-4.5 5.2-5.7 5.4-6.3 4.8-6 3.9-5 2.7-3.7 1.6-2.2.7-1.1a.6.6 0 0 0 0-.5.6.6 0 0 0-.6-.4.6.6 0 0 0-.4.2m-12.6-43.4-.1 1-.4 2-.8 2.9-1.3 3.6-1.4 4-1.7 4-1.6 3.6-1.4 3-1 2a.6.6 0 0 0 0 .5.6.6 0 0 0 .7.4.6.6 0 0 0 .4-.3l1-2.2 1.4-2.9 1.6-3.6 1.7-4 1.5-4 1.2-3.8.8-3 .5-2v-1a.6.6 0 1 0-1.1-.2m-11.8-44v29.4l.2 3.7a.6.6 0 0 0 1.2 0l-.1-3.7V146l-.1-5v-19.9a.6.6 0 1 0-1.2 0m-4.7-29.7-.1.8-.1 1.6-.1 2.5v3.5l-.1 4.5V130a.6.6 0 1 0 1.2 0V96.5l.2-2.5v-1.6l.2-.8a.6.6 0 1 0-1.2-.1"/><path d="M293.9 70.8V72l.2 2.4.3 3.8.7 5.1.9 6.6 1.2 7.8 1.3 8.8 1.4 9 1.5 8.6 1.3 7.3 1 5.5.9 3.8a.6.6 0 0 0 .7.4.6.6 0 0 0 .4-.6l-.7-3.8-1.1-5.6-1.4-7.2-1.4-8.6-1.4-9-1.3-8.8-1.2-7.8-1-6.5-.6-5.2-.3-3.7-.1-2.4-.1-1.2a.6.6 0 1 0-1.2.1m3.9 11.8.7 2 1.1 3.4 1.5 4.8 1.6 5.9 1.5 6.6 1.3 7.2.9 7.2.6 7.3.3 7.5.1 7.4v6.5a.6.6 0 1 0 1.3 0V142l-.2-7.4-.3-7.5-.6-7.4-1-7.3-1.2-7.3-1.5-6.6-1.6-6-1.5-4.7-1.2-3.5-.7-2a.6.6 0 0 0-.3-.3.6.6 0 0 0-.4 0 .6.6 0 0 0-.4.2.6.6 0 0 0 0 .5m18.2 37.6.3 1.4.2 2.7.2 3.8v4.9l.2 5.7v19.8l-.2 5.9-.1 4.8a.6.6 0 1 0 1.2 0l.1-4.8.1-5.9.1-6.6v-13.3l-.1-5.7-.1-4.8-.2-3.8-.2-2.8-.3-1.5a.6.6 0 0 0-1.2.2m33.1 25v.6l-.3 1.4-.7 2.3-1.5 3.4-2.4 4.4-3.5 5.7-4.3 6.7-4.7 7.1-4.4 6.7a.6.6 0 0 0 0 .5.6.6 0 0 0 .6.4.6.6 0 0 0 .4-.2l4.4-6.7 4.7-7.2 4.3-6.7 3.5-5.7 2.5-4.5 1.5-3.5.8-2.4.3-1.5v-.8a.6.6 0 0 0-1.2 0m8.7 37.8v.5l-.4.8-.8 1.3-1.4 1.7-1.9 2.3-2.6 2.8-3.2 3.4-3.7 3.8-3.9 4.1-3.8 4.1a.6.6 0 0 0-.1.5.6.6 0 0 0 .6.5.6.6 0 0 0 .4-.2l3.8-4 3.9-4.1 3.7-3.8 3.2-3.5 2.6-2.8 2-2.3 1.3-1.8 1-1.4.4-1v-.2l.1-.5a.6.6 0 1 0-1.2-.2m-126.2 99.4.5-.7 1.3-1.4 2.5-2.4 4-3.5 5.5-4.5 6.5-5.4 7-5.9a.6.6 0 0 0 .3-.4.6.6 0 0 0-.5-.6.6.6 0 0 0-.5.1l-7 5.8-6.6 5.4-5.4 4.6-4.1 3.5-2.6 2.4-1.4 1.6-.5.7a.6.6 0 0 0 0 .5.6.6 0 0 0 .7.4.6.6 0 0 0 .3-.2m-11.3-19.6.8-.4a.6.6 0 0 0 .1 0l2-1.1 3.6-2.5 5.9-4 8-5.4 10-6.5 11.1-7.2 11.5-7.4 10.9-7.2 9.4-6.5 4-3 3.4-2.7 3-2.4 2.3-2.2 3.6-3.6a.6.6 0 0 0 .1-.4.6.6 0 0 0-.6-.6.6.6 0 0 0-.4.2l-3.5 3.5-2.4 2.2-2.9 2.4-3.4 2.7-4 3-9.3 6.4-10.9 7.2-11.4 7.4-11.2 7.2-10 6.5-8 5.4-6 4-3.5 2.5-1.9 1-.7.4a.6.6 0 0 0-.3.3.6.6 0 0 0 0 .5.6.6 0 0 0 .3.3.6.6 0 0 0 .4 0M240.7 121.4v12.1l-.2 7.3-.3 8.8-.5 9.8-.5 10.1-.4 9.6-.3 8.5-.3 6.7v5a.6.6 0 1 0 1.1 0l.1-5 .3-6.7.3-8.4.4-9.6.5-10.2.5-9.8.3-8.8.1-7.2V128l.1-3.7v-3a.6.6 0 1 0-1.2 0m-10.2 26.2v52.8a.6.6 0 1 0 1.2 0V147.5a.6.6 0 1 0-1.2 0m.4 67.6-.1.5-.1 1.2-.1 2-.2 2.4-.3 3-.5 3-.6 3.2-.6 2.9-.7 2.6-.7 2.3-.6 1.7a.6.6 0 0 0 .4.8.6.6 0 0 0 .7-.4l.6-1.8.7-2.2.7-2.7.7-3 .6-3.1.5-3.2.3-3 .2-2.5V217l.2-1v-.5a.6.6 0 1 0-1.1-.3m6.2-108.7V133.8l-.1 6.1-.1 6.4-.1 6.4-.2 6.2-.2 5.8-.2 5-.3 3.8a.6.6 0 0 0 1.2 0l.3-3.8.2-5 .2-5.8.2-6.2v-6.4l.2-6.3V106.4a.6.6 0 1 0-1.1 0m16.6 263.3.7.3 1.6 1.2 3 2.7 4.4 4.1 5.8 5.8 6.7 7 7.4 8.2 7.7 8.6 7.4 8.6 6.8 8a.6.6 0 0 0 .4.2.6.6 0 0 0 .6-.5.6.6 0 0 0 0-.4l-6.9-8.1-7.4-8.6-7.7-8.6-7.4-8.1-6.7-7.1-5.8-5.8-4.5-4.2-3-2.7-1.7-1.3a.6.6 0 0 0-.1 0l-.8-.4a.6.6 0 0 0-.5 0 .6.6 0 0 0-.3.3.6.6 0 0 0 0 .5.6.6 0 0 0 .3.3"/><path d="m247.3 361.7 1 1 1.9 2.5 3.2 3.8 4.3 5.3 5.3 6.5 6.3 7.7 7.2 9 7.5 9.5 7.7 9.8 7.4 9.4 7 8.7 6.5 7.8 5.5 6.5a.6.6 0 0 0 .4.2.6.6 0 0 0 .7-.5.6.6 0 0 0-.2-.4l-5.5-6.6-6.4-7.7-7-8.7-7.5-9.4-7.6-9.8-7.6-9.6-7.2-9-6.3-7.6-5.3-6.5-4.3-5.3-3.2-3.9-2-2.4-.8-1a.6.6 0 0 0-.4-.3.6.6 0 0 0-.7.6.6.6 0 0 0 .1.4m48.4 51.5.5.8 1.5 2 2.7 3.8 3.8 5.3 4.8 6.7 5.5 7.6 5.7 8 5.5 7.4 4.7 6.5 3.7 5.2 2.7 3.8a.6.6 0 0 0 .3.2.6.6 0 0 0 .7-.5.6.6 0 0 0 0-.4l-2.7-3.8-3.7-5.2-4.7-6.5-5.5-7.5-5.7-7.9-5.6-7.6-4.7-6.7-3.8-5.3-2.7-3.7-1.5-2.1-.5-.8a.6.6 0 0 0-.4-.3.6.6 0 0 0-.7.5.6.6 0 0 0 0 .5"/><path d="m301.9 426.5.5 1v.1l1.4 2.2 2.4 3.6 3.6 5.3 4.5 6.6 5.4 7.7 5.7 7.8 5.4 7.4 4.8 6.4 4 5.1 3 3.8a.6.6 0 0 0 .4.3.6.6 0 0 0 .6-.5.6.6 0 0 0 0-.5l-3-3.8-4-5.1-4.8-6.4-5.5-7.4-5.6-7.8-5.4-7.6-4.5-6.7-3.6-5.2-2.4-3.7-1.3-2.1-.6-1a.6.6 0 0 0-.4-.3.6.6 0 0 0-.7.4.6.6 0 0 0 0 .4m-13.4-37.1.8.7 1.6 1.3 2.6 2.2 4 3.1 5.2 4 6.4 4.7 7.2 5 7.8 5 7.7 5 7 4.5a.6.6 0 0 0 .5 0 .6.6 0 0 0 .5-.6.6.6 0 0 0-.3-.4l-7-4.5-7.8-5-7.7-5-7.2-5-6.4-4.6-5.2-4-3.9-3.1-2.7-2.2-1.5-1.3-.9-.7a.6.6 0 0 0-.4-.2.6.6 0 0 0-.5.6.6.6 0 0 0 .2.5"/><path d="m305.2 411.7.7.4 1.3.7 1.6.8 2.1 1 2.6 1v.1l3.2 1.3 4 1.4 5 1.7 6.3 2 7.4 2.3 8.2 2.5 8.6 2.6 8.6 2.4a.6.6 0 0 0 .7-.4.6.6 0 0 0-.4-.7l-8.6-2.5-8.6-2.5-8.2-2.5-7.4-2.3-6.2-2-5-1.7-4-1.4-3.1-1.3-2.6-1.2-2-1-1.7-.7-1.2-.6-.6-.4a.6.6 0 0 0-.5-.1.6.6 0 0 0-.4.7.6.6 0 0 0 .2.4"/><path d="m311.3 405.5.9.4 2 1.2 4 2.3 5.8 3.2 7.4 4 8.4 4.4 8.6 4.5 7.8 4a.6.6 0 0 0 .4 0 .6.6 0 0 0 .4-.7.6.6 0 0 0-.3-.4l-7.8-4-8.5-4.4-8.4-4.5-7.4-4-5.8-3.2-4-2.2-2-1.2-1-.5a.6.6 0 0 0-.4 0 .6.6 0 0 0-.4.7.6.6 0 0 0 .3.4M93 259.9l.3.1.3.2.3.3a.6.6 0 0 0 .5.1.6.6 0 0 0 .5-.6.6.6 0 0 0-.2-.4l-.4-.4a.6.6 0 0 0-.1 0l-.4-.3a.5.5 0 0 0-.1 0l-.3-.1a.6.6 0 0 0-.7.4.6.6 0 0 0 0 .4.6.6 0 0 0 .3.3m-7.5 2 .1.1a.6.6 0 0 0 .1.1l.4.3.5.4.6.4.8.6.8.5.9.5.8.4.8.3.6.1a.6.6 0 0 0 .7-.5.6.6 0 0 0-.4-.7h-.6l-.7-.3-.7-.3-.7-.5-.8-.5-.7-.6-.7-.4-.5-.4-.3-.2v-.1a.6.6 0 0 0-.5-.2.6.6 0 0 0-.6.5.6.6 0 0 0 .1.5m-3 1.5.3.2.4.5.6 1 .8 1.4 1 1.8 1 2.2 1.2 2.6 1.3 2.6L90 278l.9 2 .6 1.5a.6.6 0 0 0 .3.3.6.6 0 0 0 .4 0 .6.6 0 0 0 .4-.3.6.6 0 0 0 0-.5l-.6-1.5-1-2-1-2.3-1.3-2.6-1.2-2.6-1.1-2.2-1-1.9-.8-1.4-.6-1-.4-.6a.6.6 0 0 0-.1-.1l-.3-.3a.6.6 0 0 0-.4 0 .6.6 0 0 0-.6.5.6.6 0 0 0 .2.4m10.3 9.3.4.4.9.7 1.3 1.1 1.7 1.4 2.2 1.8 2.6 2 2.8 2 2.8 2 2.7 2a.6.6 0 0 0 .4 0 .6.6 0 0 0 .5-.6.6.6 0 0 0-.2-.4l-2.7-1.9-2.8-2-2.8-2-2.6-2-2.2-1.8-1.6-1.4-1.3-1-.9-.8-.5-.4a.6.6 0 0 0-.4-.1.6.6 0 0 0-.5.6.6.6 0 0 0 .2.4m-24.5-23.1-.4-.1-.8-.3-1.4-.4-1.8-.6-2.3-.9-2.8-1-3-1.2-3.2-1.3a.6.6 0 0 0-.5 0 .6.6 0 0 0-.3.3.6.6 0 0 0 0 .5.6.6 0 0 0 .3.3l3.2 1.3 3 1.2 2.8 1 2.4.9 1.9.6 1.3.4.8.3.5.1a.6.6 0 1 0 .3-1.1M127.6 262.9l.5.3 1.1.8 1.9 1.5 2.6 2.2 3.5 3 4.1 3.4 4.6 3.9 4.8 4.1 4.8 4.2 4.3 3.9 3.5 3.2a.6.6 0 0 0 .4.1.6.6 0 0 0 .6-.6.6.6 0 0 0-.2-.4l-3.5-3.2-4.3-3.9-4.8-4.2-4.8-4.1-4.6-4-4.1-3.4-3.5-2.9-2.6-2.2-2-1.5-1-.9h-.1l-.6-.3a.6.6 0 0 0-.4-.1.6.6 0 0 0-.4.7.6.6 0 0 0 .2.4"/><path d="M153.6 285.3h.3l.7.3 1.1.7 1.5 1 2 1.5 2.4 1.7 2.5 2 2.6 1.8 2.5 1.7 2.2 1.4a.6.6 0 0 0 .4 0 .6.6 0 0 0 .5-.6.6.6 0 0 0-.2-.4l-2.2-1.4-2.5-1.7-2.6-1.9-2.5-1.8-2.4-1.8-2-1.5-1.6-1-1.2-.7-.8-.4h-.5a.6.6 0 1 0-.2 1.1m-2.1-3.9h1.7l2 .2 3.1.5 4.2 1.2 4.7 1.6 5 1.8 4.7 1.9 3.8 1.6a.6.6 0 0 0 .5 0 .6.6 0 0 0 .3-.4.6.6 0 0 0 0-.4.6.6 0 0 0-.3-.3l-3.9-1.6-4.7-1.9-5-1.9-4.8-1.6-4.2-1.1-3.2-.6-2.1-.2h-1.8a.6.6 0 1 0 0 1.2"/><path d="m167 285.4.6.3 1 .5 1.3.7 1.6.8 1.9.9 1.8.8 1.8.8 1.5.7a.6.6 0 0 0 .4 0 .6.6 0 0 0 .4-.7.6.6 0 0 0-.3-.3l-1.5-.8-1.7-.8-2-.8-1.7-.9-1.7-.8-1.3-.7-1-.5-.6-.3a.6.6 0 0 0-.4 0 .6.6 0 0 0-.4.3.6.6 0 0 0 0 .5.6.6 0 0 0 .3.3"/></g></svg>