<svg xmlns="http://www.w3.org/2000/svg" width="309.589" height="490.182" viewBox="0 0 81.912 129.694" xmlns:v="https://vecta.io/nano"><g fill="#fff" stroke="#fff" stroke-width="2"><path d="M2.662 25.935c1.559-.755 4.678-2.264 7.244-4.024s4.578-3.773 5.488-5.786.7-4.225-.608-5.684-3.723-2.264-5.684-2.465-3.471.201-4.412.961-1.373 2.057-1.575 1.756-.201-1.912.453-3.22S5.53 5.26 7.341 4.656s4.125-.905 6.439-.302 4.628 2.113 6.087 3.723 2.062 3.32 2.46 5.232.608 4.225 1.514 5.885 2.515 2.767 5.131 3.471 6.238 1.006 9.206.855 5.282-.755 7.244-1.962 3.572-3.018 3.939-5.187-.569-4.874-1.977-6.534-3.32-2.364-5.03-2.415-3.219.553-3.622 1.459.302 2.113 1.258 2.968 2.163 1.358 1.66 1.358-2.716-.503-4.341-2.41-2.602-5.035-1.243-7.148 5.081-3.119 9.558-2.415 9.709 3.119 12.81 5.491 4.143 4.872 4.696 8.192.654 7.546-1.509 12.425-6.59 10.413-12.274 13.884-12.626 4.88-21.178 5.534-18.713.553-23.794.503-3.27-20.575-1.71-21.329z"/><path d="M63.028 13.862c1.559-.453 4.678-1.358 7.596-1.107s5.634 1.66 7.445 3.572 2.716 4.326 2.831 6.694-.617 4.876-2.177 6.334-3.974 1.962-6.06 1.593-3.749-1.543-4.051-1.995.805-.151 2.264-.201 3.27-.453 4.326-1.66 1.358-3.219.312-4.475-3.481-1.763-5.292-.958-3.018 2.918-4.276 4.88-2.566 3.773-5.332 5.735-6.992 4.075-9.105 5.131 9.96-23.09 11.52-23.543z"/><g stroke-linecap="round"><path d="M53.018 36.952c3.035.506 6.037 1.006 8.703 2.415s4.98 3.723 5.944 6.138.546 5.13-.511 7.142-2.767 3.421-5.232 3.974-5.684.252-7.646-1.056-2.666-3.622-2.716-5.181.553-2.364.855-2.515.302.352.654 1.207 1.056 2.062 2.616 2.716 3.974.755 4.98-.402.604-3.572-.503-4.98-2.918-1.811-6.238-1.559-8.149 1.157-13.582 1.509-11.469.151-17.506-.05M4.121 97.619c7.445 3.119 14.89 6.238 19.669 8.803s6.892 4.578 8.208 7.041 1.802 5.183.997 7.095-2.918 2.918-5.131 2.817-4.527-1.308-5.232-2.767.201-3.169 1.032-4.308 1.684-1.779 1.081-1.779-2.616.604-3.96 2.016-2.077 3.819-1.473 5.932 2.515 4.024 4.829 5.131 5.03 1.409 8.703.755 8.3-2.264 10.564-4.729 2.163-5.785 1.358-10.111-2.314-9.658-5.383-15.192-7.697-11.268-12.325-17.003"/><path d="M43.057 110.9c2.918 1.509 5.835 3.018 8.3 3.169s4.477-1.056 5.534-1.861 1.157-1.207.201-1.258-2.968.252-6.087-1.107-7.344-4.376-11.57-7.395m-7.847-13.884c.905-2.314 1.811-4.628 4.88-5.383s8.3.05 12.325 1.107 6.841 2.364 8.602 4.075 2.465 3.823 2.163 5.684-1.61 3.471-3.471 4.175-4.276.503-5.433-.252-1.056-2.062-.453-3.169a6.35 6.35 0 0 1 2.515-2.415c.805-.403 1.308-.302.855-.553s-1.861-.855-3.421-.604-3.27 1.358-4.173 2.968-1.008 3.924.199 5.936 3.723 3.823 7.043 4.628 7.445.604 10.589-.733 5.207-3.694 5.861-6.763-.151-6.791-1.083-9.423-2.086-4.31-3.495-6.322-3.119-4.427-7.244-7.646-10.665-7.244-14.639-10.816-5.383-6.691-6.59-10.463-2.213-8.2-3.22-12.626"/><path d="M61.469 80.113c3.008-.301 6.037-.604 8.134-2.42s3.336-5.327 3.034-8.194-2.113-5.181-4.125-6.338-4.226-1.157-6.037-.755-3.219 1.207-2.968 1.61 2.163.402 3.746 1.343 2.744 2.682 1.773 4.095-4.06 2.41-7.531 2.007-7.294-2.213-11.117-4.024"/></g><path d="M37.121 57.929c1.811 1.358 4.024.151 6.114.186s4.148 1.373 4.802 1.273-.05-1.61-2.867-3.622-7.747-4.527-9.508-3.823-.352 4.628 1.459 5.986zM5.63 42.686h26.561v42.256H5.63z"/></g><g stroke-linecap="round" fill="none" stroke="#000"><path d="M6.565 96.979c7.434 2.988 14.868 5.976 19.76 8.999s7.239 6.083 8.377 8.893 1.067 5.371-.053 7.043-3.302 2.458-5.306 2.545-3.854-.518-5.081-1.354-1.832-1.903-1.974-3.041.178-2.348.569-3.273.854-1.565.925-1.832-.249-.16-.96.534-1.814 1.974-2.188 3.61-.018 3.628 1.182 5.216 3.211 2.752 5.701 3.268 5.442.373 7.932-.356 4.517-2.045 5.958-3.646 2.294-3.486 2.632-5.371.16-3.77.036-4.891-.196-1.476-.133-1.752.222-.436.626-.42 1.055.233 1.819.5 1.654.587 2.775.836 2.472.427 3.806.267 2.65-.658 3.148-.943.178-.356-.8-.498-2.614-.356-5.069-1.476-5.727-3.148-7.488-4.286-2.01-1.387-2.259-1.636c-1.814-3.201-3.628-6.403-5.442-9.266s-3.628-5.389-5.442-7.915" stroke-width="1.4"/><path d="M61.522 79.905c1.636 1.636 3.272 3.272 4.571 5.229s2.259 4.233 2.686 6.243.32 3.753-.231 5.496-1.547 3.486-3.433 4.802-4.649 2.202-7.518 2.328-5.821-.514-7.777-1.403-2.917-2.028-3.415-3.29-.534-2.65-.16-3.806 1.156-2.081 2.259-2.703 2.526-.943 3.184-.978.551.213.009.757-1.556 1.413-1.999 2.48-.339 2.277.461 3.148 2.294 1.369 4.104 1.353 3.953-.552 5.126-1.94 1.387-3.628.943-5.834-1.547-4.375-3.771-6.047-5.567-2.846-9.106-3.45-7.274-.64-9.978-.249-4.375 1.209-5.523 2.051-1.805 1.755-2.445 2.644m31.907-6.938c1.423-.391 2.846-.783 4.517-1.672s3.593-2.277 4.571-4.002 1.014-3.788.889-5.176-.421-2.129-1.18-2.986-2.004-1.888-3.409-2.492-2.97-.783-4.197-.676-2.116.498-2.17.747.729.356 1.832.836 2.526 1.334 3.34 2.277 1.035 2.045.537 2.916-1.707 1.547-3.148 2.063-3.112.871-5.589.603-5.74-1.155-8.301-2.613-4.411-3.486-6.083-5.264l-3.895-4.268c-.729-.96-.694-1.352-.085-1.673s1.775-.568 3.141-.534 2.938.356 3.8.576.987.314.827.029-.622-.96-2.223-1.867-4.34-2.045-6.087-2.723-2.485-.888-3.001-1.599-.8-1.921-1.281-2.881-1.156-1.672-1.832-2.383" stroke-width="1.5"/><path d="M32.07 46.717c.696-.383 1.423-.783 3.628-1.103l9.409-.907 9.426-.836c2.614-.071 4.535.213 5.816 1.014s1.921 2.116 2.099 3.397-.107 2.526-.765 3.397-1.69 1.369-2.97 1.423a7.22 7.22 0 0 1-3.931-1.049c-1.12-.711-1.832-1.743-2.205-2.348s-.409-.783-.409-.427.036 1.245.374 2.116.978 1.725 1.939 2.419 2.241 1.227 3.682 1.405 3.041 0 4.482-.747 2.721-2.063 3.379-3.646.694-3.433.249-4.998-1.369-2.846-2.775-3.948-3.29-2.028-4.98-2.739-3.184-1.209-3.942-1.941-.78-1.697-.087-2.607 2.102-1.765 3.787-2.847 3.647-2.389 5.332-4.351 3.094-4.578 4.628-5.986 3.194-1.61 4.603-1.434 2.566.729 3.32 1.71 1.107 2.389.931 3.546-.88 2.062-1.886 2.716-2.314 1.056-3.32 1.182-1.71-.025-1.258.201 2.062.83 3.396.83 2.389-.604 3.345-1.534 1.811-2.188 2.062-3.697-.101-3.27-.604-4.729-1.157-2.616-2.264-3.546-2.666-1.635-4.578-2.037-4.175-.503-5.942-.214-3.037.967-3.816.59-1.069-1.81-1.969-3.457-2.409-3.508-4.723-5.219-5.433-3.27-8.401-4.05-5.785-.78-7.671-.025-2.842 2.264-3.2 3.573-.095 2.514.37 3.432 1.195 1.647 1.798 2.151 1.107.805.855.478-1.258-1.283-1.685-2.364-.277-2.289.478-2.993 2.113-.905 4.009-.397 4.291 1.705 5.901 3.013 2.415 2.716 2.792 4.477.327 3.873-.679 5.835-2.968 3.773-6.364 4.779-8.225 1.207-12.174.729-7.017-1.635-8.527-3.295-1.459-3.823-1.818-6.135-1.1-4.681-2.231-6.441-2.641-2.867-4.678-3.496-4.603-.78-6.565-.176-3.32 1.962-3.924 2.716-.453.905.075.528 1.434-1.283 2.792-1.66 3.169-.226 4.88.402 3.32 1.736 4.301 3.094 1.333 2.968 1.157 4.779-.88 3.823-2.605 5.677-4.514 3.579-6.978 4.962S2.813 28.35.65 29.406" stroke-width="1.3"/></g></svg>