<svg xmlns="http://www.w3.org/2000/svg" width="395.451" height="509.424" viewBox="0 0 104.63 134.785"><path d="m9.073 78.917 32.643 30.928s9.112-22.768 30.98-30.302c17.298-5.96 23.157-10.781 23.157-10.781l-34.43-35.278S21.326 50.186 10.542 64.02c-8.778 11.264-1.47 14.897-1.47 14.897" style="fill:#fff;fill-opacity:1;stroke:#fffefe;stroke-width:4.96668;stroke-linecap:round;stroke-linejoin:round;stroke-opacity:1;paint-order:fill markers stroke" transform="scale(-1 1)rotate(18.754 112.702 -239.882)"/><path d="m6.194 75.97 81.317 78.839-11.095 10.578-80.17-80.306Z" style="fill:#fff;fill-opacity:1;stroke:snow;stroke-width:5.16302;stroke-linecap:round;stroke-linejoin:round;stroke-opacity:1;paint-order:fill markers stroke" transform="scale(-1 1)rotate(18.754 112.702 -239.882)"/><path d="m55.86 62.289 29.359 29.359s7.65-24.49 27.318-31.642c15.557-5.657 23.942-9.799 23.942-9.799l-29.296-30.912s-37.479 16.87-47.177 30.003c-7.896 10.692-4.146 12.99-4.146 12.99M54.288 62.146l74.928 74.928-5.77 5.769-75.158-75.16z" style="fill:none;stroke:#000;stroke-width:4.5892;stroke-linecap:round;stroke-linejoin:round;stroke-opacity:1;paint-order:fill markers stroke" transform="scale(-1 1)rotate(18.754 80.528 -390.172)"/></svg>