<svg xmlns="http://www.w3.org/2000/svg" preserveAspectRatio="none" viewBox="0 0 179.959 100.484"><path fill="#fff" stroke="#fff" stroke-width="3.6" d="M1.895 87.424c-.094 1.623-.282 4.868.999 7.109s4.031 3.479 8.713 3.749 11.298-.428 16.636-.709 9.395-.144 13.291.187 7.617.855 12.211.917 10.059-.336 16.271-.71 13.163-.722 19.75-.606 12.788.695 18.402.519 10.634-1.109 17.649-1.269 16.022.451 24.464.755 16.317.299 20.754-1.548 5.435-5.536 5.53-10.515-.715-11.248-1.028-18.817-.128-16.437.533-22.178 1.798-8.355 2.035-12.363-.426-9.412-.34-13.571.919-7.074-.497-9.297-5.08-3.755-9.909-4.454-10.821-.566-18.706-.448l-25.299.083c-7.639-.137-13.143-.513-19.962-.256S88.438 5.146 80.986 5.146s-14.219-.889-22.81-1.179-19.004.017-26.862-.388S18.151 2.057 14.12 1.84s-6.789.466-8.229 2.263-1.56 4.71-2.166 8.065-1.699 7.154-1.561 11.875 1.507 10.363 1.665 15.75-.893 10.519-1.022 15.563.663 10 .681 15.06-.74 10.222-1.119 12.804-.379 2.581-.473 4.204z"/><g fill="none" stroke="#000"><g stroke-width="1.5"><path d="m5.621 91.281-.363-5.511c-.073-2.248-.024-4.665.404-6.94s1.265-4.541 1.41-6.91-.387-4.882-.534-7.71.098-6.066.389-8.991l.773-8.653c.145-3.07.097-6.55-.141-9.499l-.971-8.676c-.29-3.215-.435-7.178-.145-10.973s1.015-7.42 1.764-9.595 1.523-2.9 3.456-2.828 5.027.943 7.396 1.571 4.012 1.015 6.623.918 6.187-.677 11.068-.774 11.071.29 16.099.483 8.894.193 12.762.532S73.345 8.74 78.518 8.74s11.65-.677 16.049-1.16 6.719-.773 10.586-.483 9.281 1.16 13.003 1.234 5.75-.65 9.704-1.012 9.833-.362 16.088-.225 12.886.41 16.874.816 5.378.962 6.812 1.269 2.941.376 4.001 1.128 1.675 2.188 2.083 4.239.618 4.854.755 7.964.205 6.597-.171 9.502-1.196 5.23-1.504 8.101-.103 6.289-.137 9.878-.308 7.349-.615 10.22-.649 4.854-.718 7.622.137 6.324.41 9.4l.752 7.383c.137 1.709.068 2.529-.479 3.692a14.7 14.7 0 0 1-2.666 3.76c-1.094 1.094-2.256 1.777-4.854 1.983s-6.631-.068-9.776-.308-5.401-.444-7.828-.855-5.025-1.025-9.708-1.128-11.451.308-17.706.752-11.998.923-17.979.923-12.203-.479-18.39-.615-12.339.068-19.212.342l-20.14.784c-5.683.169-9.46.165-12.581.079s-5.587-.256-7.333-.332-2.774-.061-4.352.052-3.706.322-5.815.35-4.197-.124-5.52-.442-1.878-.801-2.156-1.043-.278-.242-.375-1.329z"/><g stroke-linecap="round"><path d="M5.288 86.84c-.085 2.324-.169 4.649.461 6.069s1.952 1.929 3.695 2.117 3.897.051 6.58-.103l9.52-.649 10.203-1.025c2.547-.222 3.606-.188 5.777.154l8.204 1.231c2.752.24 4.973.068 7.862-.12l9.673-.496 9.571-.253c3.435-.151 7.4-.453 11.365-.754m2.409.066 9.887.75 6.691.191c2.034-.103 4.187-.41 6.341-.718m6.756-.641 9.62.266 9.209-.048c3.36.169 7.275.701 11.718.833s9.414-.135 12.54-.615 4.409-1.174 5.631-2.357 2.386-2.855 3.549-4.527M7.496 93.3c-.479-.513-.957-1.025-1.282-2.444s-.496-3.743-.308-6.136.735-4.854 1.209-6.854.893-3.605.88-5.298-.465-3.571-.944-4.904-.991-2.153-.945-3.522.671-3.348.877-4.972 0-2.922-.205-4.221m-.295 5.184-.574-4.525c-.088-1.411-.019-2.676.374-3.99s1.147-2.746 1.883-4.144m-.465 4.296c.308-1.47.615-2.94.82-5.298a75 75 0 0 0 .222-8.135 36 36 0 0 0-.769-6.375L6.47 25.416m-.718-3.077c-.205-1.128-.41-2.256-.222-3.657s.769-3.076 1.35-4.751m-1.025 9.947c.436-1.711.889-3.487 1.077-5.811s.119-5.298.102-7.178.017-2.7.463-3.445S8.8 6.03 9.656 5.36M18.263 6.24l7.435.077 11.331.385m29.532 1.127 8.272 1.41a33 33 0 0 0 7.246.034c2.529-.248 5.401-.743 8.272-1.239"/></g></g><path stroke-linecap="round" stroke-width="1.435" d="m172.583 41.191 1.03-3.805.923-3.756c.188-1.218.184-2.384.154-3.86l-.138-4.666-.131-3.465"/><path stroke-linecap="round" stroke-width="1.5" d="m174.463 22.634.211-6.424c-.045-1.75-.271-2.946-.339-3.749s.017-1.231-.607-1.726-1.957-1.06-2.575-1.446-.509-.622-1.39-.887-2.743-.573-4.811-.692-4.341-.051-6.614.017M6.419 25.954c-.385-.855-.769-1.709-.906-2.572s-.026-1.735.085-2.606"/></g></svg>