<?xml version="1.0" encoding="UTF-8" standalone="no"?>
<svg
   width="543.436"
   height="574.59"
   viewBox="0 0 143.784 152.027"
   version="1.1"
   id="svg9"
   sodipodi:docname="flowers.svg"
   inkscape:version="1.3 (0e150ed6c4, 2023-07-21)"
   xmlns:inkscape="http://www.inkscape.org/namespaces/inkscape"
   xmlns:sodipodi="http://sodipodi.sourceforge.net/DTD/sodipodi-0.dtd"
   xmlns="http://www.w3.org/2000/svg"
   xmlns:svg="http://www.w3.org/2000/svg">
  <defs
     id="defs9" />
  <sodipodi:namedview
     id="namedview9"
     pagecolor="#ffffff"
     bordercolor="#000000"
     borderopacity="0.25"
     inkscape:showpageshadow="2"
     inkscape:pageopacity="0.0"
     inkscape:pagecheckerboard="0"
     inkscape:deskcolor="#d1d1d1"
     inkscape:zoom="0.89107011"
     inkscape:cx="311.42331"
     inkscape:cy="258.11661"
     inkscape:window-width="1280"
     inkscape:window-height="730"
     inkscape:window-x="-6"
     inkscape:window-y="-6"
     inkscape:window-maximized="1"
     inkscape:current-layer="svg9" />
  <style
     id="style1"><![CDATA[.B{stroke:#000}.C{stroke-linecap:round}.D{stroke-width:1.999}]]></style>
  <g
     class="D"
     id="g6">
    <path
       d="M44.898 148.692c-3.045-1.499-5.269-3.916-8.411-6.574s-7.203-5.559-9.813-8.556-3.771-6.091-3.771-8.024 1.16-2.707.483-3.674-3.19-2.127-4.979-3.916-2.852-4.206-2.707-6.139 1.499-3.384 4.496-3.384 7.638 1.45 10.49 2.127 3.916.58 3.287-1.499-2.949-6.139-5.124-8.266-4.206-2.32-6.067-3.357-3.65-3.024-6.26-4.281-6.091-1.837-8.169-3.722-2.755-5.076-2.9-7.154.242-3.045-.87-5.317-3.722-5.849-3.577-8.604 3.045-4.689 5.704-5.849 5.076-1.547 6.913-3.045 3.094-4.109 5.027-5.366 4.544-1.16 6.284-2.079 2.61-2.852 1.595-4.399-3.915-2.707-5.734-4.069-2.629-3.085-2.726-5.164.483-4.592.483-7.348-.58-5.752.773-8.411 4.641-4.979 7.469-7.182 5.293-4.372 7.952-5.29 5.559-.628 7.569-1.462 3.211-2.937 5.338-3.807 5.221-.58 6.961-.435 2.127.145 4.012-.58 5.269-2.175 7.622-2.664 3.737.006 7.028.441 8.504.822 11.61 2.897 4.049 5.659 6.466 9.526 6.284 7.928 6.65 10.889-2.686 4.773-3.556 7.142.483 5.269.242 7.058-2.079 2.465-1.982 2.9 2.127.628 3.819-.435 3.045-3.384 5.317-4.061 5.462.29 8.556-.387 6.091-2.997 8.895-3.19 5.414 1.74 6.762 3.094 1.456 2.32 2.906 2.948 4.254 1.015 6.623 2.175 4.302 3.094 4.786 4.641-.483 2.707-.29 4.109 1.547 3.045 2.224 5.607.677 6.042-.677 7.928-4.061 2.175-4.931 4.109.097 5.511-1.354 7.638-5.317 2.804-6.623 4.737-.048 5.124-1.257 8.895-4.882 8.121-7.444 11.311-4.012 5.221-3.819 5.849 2.03-.145 3.625-.097 2.949.918 3.384 3.094-.048 5.656-.387 8.411-.532 4.786-1.015 6.333-1.257 2.61-3.142 4.737a158.4 158.4 0 0 1-7.783 8.121c-2.9 2.804-5.704 5.221-10.006 6.284s-10.103.773-16.339 1.692-12.907 3.045-17.789 4.206-7.976 1.354-11.457 1.16-7.348-.773-10.393-2.272z"
       fill="#fff"
       stroke="#fff"
       id="path1" />
    <g
       fill="none"
       class="B"
       id="g5">
      <path
         d="M104.61 61.306a2.35 2.35 0 0 1 .085-2.272c.508-.834 1.668-1.607 2.84-1.909s2.357-.133 3.03.255.849 1.038-.04 1.882-2.857 1.912-4.041 2.347-1.595.242-1.873-.302z"
         id="path2"
         style="stroke-width:1.32291715;stroke-dasharray:none" />
      <path
         d="M107.764 64.633l.393 5.777c.256 1.948.701 3.931 1.683 5.666s2.538 3.256 3.888 3.939 2.512.547 3.299.103 1.196-1.196.803-2.683-1.589-3.709-3.025-5.691-3.11-3.726-4.17-4.837l-1.948-2.068m5.025-3.077c2.495.513 4.99 1.025 7.674 2.188s5.554 2.974 7.161 4.632 1.948 3.162 1.504 4.033-1.675 1.111-3.23.752-3.435-1.316-5.52-2.888-4.375-3.76-5.718-5.217-1.768-2.235-2.178-2.987m2.665-5.23c2.256-.273 4.512-.547 7.486-.496s6.665.427 9.109.923 3.64 1.111 3.589 2-1.35 2.051-2.888 2.529-3.316.273-5.469-.171-4.683-1.128-6.7-1.829-3.521-1.419-5.025-2.136m-2.665-2.666l7.212-4.768c2.359-1.419 4.649-2.581 6.375-3.264s2.888-.889 3.811-.803 1.607.461 1.384 1.333-1.35 2.239-3.299 3.487-4.717 2.376-7.264 3.059-4.871.923-7.195 1.162m-5.331-1.642c.752-2.085 1.504-4.17 3.401-6.187s4.939-3.965 6.836-5.025 2.649-1.231 2.461-.342-1.316 2.837-2.837 4.734-3.435 3.743-5.059 5.008-2.957 1.948-4.29 2.632m-3.794-2.05c-1.18-1.652-2.393-3.35-2.773-4.992s.073-3.314.688-4.135 1.401-.82 1.996.172 1.012 3.041 1.2 4.699.154 2.957.12 4.256m-5.435 1.948c-2.564-.41-5.127-.82-6.845-1.514s-2.555-1.631-2.692-2.315.444-1.094 1.607-1.06 2.905.513 4.614 1.299 3.384 1.88 5.059 2.974m-.82 10.255c-2.324 1.812-4.649 3.623-6.187 5.623s-2.29 4.187-2.547 5.657-.017 2.222.991 2.085 2.786-1.162 4.384-2.638 3.05-3.446 3.885-5.241 1.079-3.503 1.318-5.178m-5.843-6.87c-3.589-.444-7.178-.889-9.708-.667s-3.999 1.111-4.546 1.795-.171 1.162 1.401 1.538 4.341.649 6.785.41 4.563-.991 6.682-1.743m-.409 3.076c-2.449 1.054-4.922 2.119-7.007 3.538s-3.794 3.196-4.529 4.256-.496 1.401.479 1.231 2.683-.855 4.751-2.171 4.495-3.264 6.922-5.213M92.28 139.49c.337-4.444.684-9.024 1.812-15.689s3.042-15.484 5.025-24.03l6.084-25.089m-6.973 38.147c2.188-4.375 4.375-8.75 7.452-13.365s7.041-9.468 9.708-12.408 4.033-3.965 4.273-3.384-.649 2.769-3.828 8.306-8.648 14.424-12.305 20.064-5.503 8.033-7.349 10.425m-.412 15.793l8.067-9.434c3.008-3.418 6.494-7.246 9.297-9.981s4.922-4.375 7.041-6.016m-18.048 25.021c1.367-1.572 2.735-3.145 4.888-4.888s5.093-3.657 8.033-5.572m-19.894 7.383l15.382-14.151"
         class="C"
         id="path3"
         style="stroke-width:1.32291715;stroke-dasharray:none" />
      <path
         d="M52.134 30.947c-.872-.53-1.077-1.726.12-2.717s3.794-1.777 5.366-1.846 2.119.581 1.692 1.504-1.829 2.119-3.299 2.786-3.008.803-3.88.273z"
         id="path4"
         style="stroke-width:1.32291715;stroke-dasharray:none" />
      <path
         d="M53.211 35.1c-2.017 3.897-4.033 7.793-5.093 11.382s-1.162 6.87-.889 8.597.923 1.897 2.239-.273 3.298-6.682 4.273-10.442.94-6.836.906-9.878m3.383-.821c-.475 4.888-.957 9.844-.53 13.485s1.76 5.999 2.837 7.383 1.897 1.795 2.341.906.513-3.076.188-6.46-1.043-7.964-1.76-10.733-1.436-3.726-2.153-4.683"
         class="C"
         id="path5"
         style="stroke-width:1.32291715;stroke-dasharray:none" />
    </g>
  </g>
  <path
     d="M48.391 33.658c-2.971 1.587-5.971 3.19-8.366 6.097s-4.2 7.127-4.964 9.819-.486 3.854-.208 4.536.555.881 1.97-.323 4.001-3.847 6.188-7.186 3.992-7.393 5.797-11.447"
     fill="none"
     stroke-width="1.987"
     class="B C"
     id="path6"
     style="stroke-width:1.32291715;stroke-dasharray:none" />
  <path
     d="M47.468 29.768c-5.161.444-10.323.889-14.493 2.598s-7.349 4.683-8.528 6.614-.359 2.82 3.657 1.504 11.229-4.837 18.441-8.357m15.382-6.461c3.828-1.914 7.657-3.828 11.622-4.802s8.067-1.008 10.972-.513 4.614 1.521 5.298 2.478.342 1.846-1.948 2.598-6.529 1.367-10.921 1.675-8.938.308-13.485.308m-.923 1.845c5.537.171 11.075.342 15.477 1.431s7.698 3.115 9.356 4.944 1.692 3.469-.017 3.674-5.161-1.025-9.708-2.735l-15.826-6.084m-1.025 2.154c2.564 6.118 5.127 12.237 7.657 15.689s5.025 4.238 6.479 4.614 1.861.342 1.554-1.47-1.333-5.401-3.837-8.863-6.52-6.826-10.519-10.176m-9.743-9.535c-1.128-1.88-2.256-3.76-2.427-5.999s.615-4.837 1.179-6.084.906-1.145 1.572.051 1.658 3.486 2.084 5.486.292 3.64.155 5.315m1.437 1.025c.82-3.555 1.641-7.11 3.504-9.759s4.768-4.392 6.46-5.264 2.171-.872 2.126-.287-.639 1.808-2.356 4.503-4.538 6.842-7.375 11.012m-7.999 1.539c-1.948-2.632-3.897-5.264-6.016-6.802s-4.409-1.983-5.9-2.118-2.166.033-1.893.768 1.504 2.034 3.614 3.645 5.068 3.516 8.042 5.43m11.382-1.949c3.111-3.965 6.221-7.93 9.041-10.237s5.349-2.957 7.332-3.247 3.418-.222 4.603-.015 2.097.545 1.225 1.604-3.538 2.837-7.281 4.99-8.562 4.683-13.382 7.212m-14.151 3.18c-3.657-1.914-7.315-3.828-10.665-4.426s-6.392.12-8.819 1.179-4.238 2.461-3.828 3.367 3.042 1.316 6.956 1.316 9.109-.41 14.305-.82m17.034 29.865c1.063 6.284 2.127 12.568 2.804 22.43s.967 23.3.918 34.031-.435 18.756-.822 26.78m7.251 2.901l2.997-6.284 2.224-4.737M65.539 144.68l-3.384-8.073c-1.063-2.079-2.03-3.239-2.997-4.399m11.892 1.16l7.009-17.112 3.722-8.991M67.86 117.416l-.529-15.856-1.502-25.04m2.321 34.805l8.846-23.687c2.465-6.284 4.206-10.151 5.172-12.133s1.16-2.079.918-1.015-.918 3.287-2.465 9.136l-5.511 21.656a364.16 364.16 0 0 0-2.9 12.713M26.529 76.956c-.759 2.277-1.547 4.641-1.885 7.299s-.242 5.656.218 7.323 1.281 2.006 2.006.217 1.354-5.704 1.595-8.459.097-4.351-.048-5.946m2.465-.579c2.224 4.544 4.447 9.088 6.139 11.698s2.852 3.287 3.263 2.61.073-2.707-1.112-5.124-3.215-5.221-4.544-6.888-1.958-2.199-2.586-2.731m-11.602-1.741l-6.985 6.671c-1.571 1.837-2.006 3.094-2.054 3.867s.29 1.063 1.281.943 2.635-.653 4.447-2.248 3.795-4.254 5.777-6.913m-1.305-6.96l-7.372-1.885c-2.441-.435-4.858-.58-6.236-.169s-1.716 1.378-.773 2.272 3.166 1.716 5.704 1.982 5.39-.024 8.242-.314"
     fill="none"
     class="D B C"
     id="path7"
     style="stroke-width:1.32291715;stroke-dasharray:none" />
  <path
     d="M24.261 71.38c-.149.601.327 1.177.803 1.754.714.24 1.428.481 2.469.505s2.409-.168 2.944-.793.241-1.669-.661-2.301-2.372-.822-3.503-.606-1.904.841-2.052 1.442z"
     fill="none"
     stroke-width="2.236"
     class="B"
     id="path8"
     style="stroke-width:1.32291715;stroke-dasharray:none" />
  <path
     d="M24.064 67.094L20.39 60.23c-.677-1.74-.532-2.659.338-2.296s2.465 2.006 3.505 3.746 1.523 3.577 2.006 5.414m3.191-1.015c0-2.61 0-5.221.411-6.792s1.233-2.103 1.934-2.296 1.281-.048 1.305 1.499-.508 4.496-.991 6.284-.918 2.417-1.354 3.045m4.64 6.961l7.009 6.236c2.272 1.595 4.447 2.465 5.777 2.369s1.813-1.16-.01-2.882-5.911-4.079-8.376-5.336-3.287-1.402-4.109-1.547M33.2 67.384c.918-1.305 1.837-2.61 3.505-3.601s4.085-1.668 5.293-1.619 1.208.822-.145 1.982-4.061 2.707-5.752 3.674l-3.045 1.74M35 71.88c3.619.483 7.251.967 9.958.991s4.496-.411 5.172-.894.242-1.015-1.861-1.426-5.873-.701-8.604-.604-4.423.58-6.115 1.063m-1.655 16.242c3.577 7.928 7.154 15.855 10.393 24.702s6.139 18.611 7.589 24.267 1.45 7.203 1.45 8.75m-22.913-17.114l6.405 5.054c2.151 1.96 4.23 4.228 6.236 6.33l5.922 6.018m-11.602-23.492c-4.157-1.644-8.314-3.287-11.263-4.834s-4.689-2.997-3.97-3.529 3.921-.144 7.595 1.596 7.831 4.834 11.339 8.954 6.45 9.415 9.35 14.636m2.902-44.957c1.063 6.768 2.127 13.535 2.272 19.626s-.628 11.505-.822 15.71.193 7.203.58 10.2m37.995-40.025c.097 4.061.193 8.121-.097 12.955s-.967 10.441-1.168 14.068.105 5.461.395 7.201"
     fill="none"
     class="C D B"
     id="path9"
     style="stroke-width:1.32291715;stroke-dasharray:none" />
</svg>
