<?xml version="1.0" encoding="UTF-8" standalone="no"?>
<!-- Created with Inkscape (http://www.inkscape.org/) -->

<svg
   width="189.04294mm"
   height="180.74602mm"
   viewBox="0 0 189.04294 180.74602"
   version="1.1"
   id="svg1"
   xml:space="preserve"
   inkscape:version="1.3 (0e150ed6c4, 2023-07-21)"
   sodipodi:docname="flower.svg"
   xmlns:inkscape="http://www.inkscape.org/namespaces/inkscape"
   xmlns:sodipodi="http://sodipodi.sourceforge.net/DTD/sodipodi-0.dtd"
   xmlns="http://www.w3.org/2000/svg"
   xmlns:svg="http://www.w3.org/2000/svg"><sodipodi:namedview
     id="namedview1"
     pagecolor="#ffffff"
     bordercolor="#000000"
     borderopacity="0.25"
     inkscape:showpageshadow="2"
     inkscape:pageopacity="0.0"
     inkscape:pagecheckerboard="0"
     inkscape:deskcolor="#d1d1d1"
     inkscape:document-units="mm"
     inkscape:zoom="0.32252323"
     inkscape:cx="-103.86849"
     inkscape:cy="629.41203"
     inkscape:window-width="1280"
     inkscape:window-height="730"
     inkscape:window-x="-6"
     inkscape:window-y="-6"
     inkscape:window-maximized="1"
     inkscape:current-layer="layer1" /><defs
     id="defs1"><inkscape:path-effect
       effect="bspline"
       id="path-effect13"
       is_visible="true"
       lpeversion="1.3"
       weight="33.333333"
       steps="2"
       helper_size="0"
       apply_no_weight="true"
       apply_with_weight="true"
       only_selected="false"
       uniform="false" /><inkscape:path-effect
       effect="bspline"
       id="path-effect12"
       is_visible="true"
       lpeversion="1.3"
       weight="33.333333"
       steps="2"
       helper_size="0"
       apply_no_weight="true"
       apply_with_weight="true"
       only_selected="false"
       uniform="false" /><inkscape:path-effect
       effect="bspline"
       id="path-effect11"
       is_visible="true"
       lpeversion="1.3"
       weight="33.333333"
       steps="2"
       helper_size="0"
       apply_no_weight="true"
       apply_with_weight="true"
       only_selected="false"
       uniform="false" /><inkscape:path-effect
       effect="bspline"
       id="path-effect10"
       is_visible="true"
       lpeversion="1.3"
       weight="33.333333"
       steps="2"
       helper_size="0"
       apply_no_weight="true"
       apply_with_weight="true"
       only_selected="false"
       uniform="false" /><inkscape:path-effect
       effect="bspline"
       id="path-effect9"
       is_visible="true"
       lpeversion="1.3"
       weight="33.333333"
       steps="2"
       helper_size="0"
       apply_no_weight="true"
       apply_with_weight="true"
       only_selected="false"
       uniform="false" /><inkscape:path-effect
       effect="bspline"
       id="path-effect8"
       is_visible="true"
       lpeversion="1.3"
       weight="33.333333"
       steps="2"
       helper_size="0"
       apply_no_weight="true"
       apply_with_weight="true"
       only_selected="false"
       uniform="false" /><inkscape:path-effect
       effect="bspline"
       id="path-effect7"
       is_visible="true"
       lpeversion="1.3"
       weight="33.333333"
       steps="2"
       helper_size="0"
       apply_no_weight="true"
       apply_with_weight="true"
       only_selected="false"
       uniform="false" /><inkscape:path-effect
       effect="bspline"
       id="path-effect6"
       is_visible="true"
       lpeversion="1.3"
       weight="33.333333"
       steps="2"
       helper_size="0"
       apply_no_weight="true"
       apply_with_weight="true"
       only_selected="false"
       uniform="false" /><inkscape:path-effect
       effect="bspline"
       id="path-effect5"
       is_visible="true"
       lpeversion="1.3"
       weight="33.333333"
       steps="2"
       helper_size="0"
       apply_no_weight="true"
       apply_with_weight="true"
       only_selected="false"
       uniform="false" /><inkscape:path-effect
       effect="bspline"
       id="path-effect4"
       is_visible="true"
       lpeversion="1.3"
       weight="33.333333"
       steps="2"
       helper_size="0"
       apply_no_weight="true"
       apply_with_weight="true"
       only_selected="false"
       uniform="false" /><inkscape:path-effect
       effect="bspline"
       id="path-effect3"
       is_visible="true"
       lpeversion="1.3"
       weight="33.333333"
       steps="2"
       helper_size="0"
       apply_no_weight="true"
       apply_with_weight="true"
       only_selected="false"
       uniform="false" /><inkscape:path-effect
       effect="bspline"
       id="path-effect2"
       is_visible="true"
       lpeversion="1.3"
       weight="33.333333"
       steps="2"
       helper_size="0"
       apply_no_weight="true"
       apply_with_weight="true"
       only_selected="false"
       uniform="false" /><inkscape:path-effect
       effect="bspline"
       id="path-effect1"
       is_visible="true"
       lpeversion="1.3"
       weight="33.333333"
       steps="2"
       helper_size="0"
       apply_no_weight="true"
       apply_with_weight="true"
       only_selected="false"
       uniform="false" /></defs><g
     inkscape:label="Layer 1"
     inkscape:groupmode="layer"
     id="layer1"
     transform="translate(-9.0717243,-2.0517887)"><path
       style="fill:#ffffff;fill-opacity:1;stroke:#ffffff;stroke-width:4.1;stroke-linecap:round;stroke-dasharray:none;stroke-opacity:1"
       d="m 55.542397,177.44108 c 5.654093,1.84923 11.766706,2.44305 18.104494,1.03086 6.337788,-1.4122 12.900491,-4.83027 17.344102,-8.18008 4.443611,-3.34982 6.767899,-6.63117 7.930068,-8.95552 1.162169,-2.32435 1.162169,-3.69158 2.802909,-1.70901 1.64074,1.98258 4.92209,7.31478 9.77592,11.69003 4.85383,4.37526 11.27981,7.79334 18.04781,8.95549 6.76799,1.16216 13.87758,0.0684 20.8247,-2.03896 6.94713,-2.10734 13.83519,-5.27585 18.62062,-9.78786 4.78543,-4.51201 7.51989,-10.39109 8.27187,-17.56928 0.75198,-7.17818 -0.47853,-15.65501 -2.8029,-21.0557 -2.32437,-5.40069 -5.74245,-7.72498 -6.01587,-8.61369 -0.27342,-0.88872 2.59776,-0.34182 7.0414,-1.9142 4.44365,-1.57238 10.45946,-5.2639 14.51171,-10.59063 4.05225,-5.32673 6.06546,-12.037445 6.06544,-19.694169 -2e-5,-7.656725 -2.05087,-16.133551 -5.81088,-22.933278 -3.76001,-6.799727 -9.22883,-11.921884 -14.63789,-15.090093 -5.40906,-3.168209 -10.75786,-4.382132 -15.40653,-4.213655 -4.64867,0.168477 -8.59713,1.719378 -9.61426,1.264272 -1.01713,-0.455106 0.89699,-2.916119 1.17043,-7.086311 0.27344,-4.170193 -1.09379,-10.049283 -4.17017,-15.928549 -3.07638,-5.879265 -7.86168,-11.758352 -14.01441,-15.5183263 -6.15274,-3.7599744 -13.6725,-5.4006497 -20.9874,-5.400632 -7.3149,1.77e-5 -14.42449,1.640692 -20.919021,6.0843503 -6.494531,4.443658 -12.373619,11.689976 -15.313223,17.774321 -2.939603,6.084345 -2.939603,11.00637 -2.871239,13.330706 0.06836,2.324335 0.205088,2.050888 -1.162198,0.888699 -1.367286,-1.16219 -4.238468,-3.213034 -9.502486,-4.375206 -5.264017,-1.162172 -12.920503,-1.435618 -20.508857,0.615312 -7.588354,2.05093 -15.108118,6.426066 -20.552265,12.775518 -5.444147,6.349452 -8.81246,14.672969 -10.076192,22.94504 -1.263732,8.272072 -0.422799,16.491872 2.85726,22.689559 3.28006,6.197682 8.998854,10.372512 15.18481,12.149982 6.185956,1.77747 12.838468,1.15736 15.002599,1.46258 2.164131,0.30521 -0.160162,1.53572 -3.943389,5.25214 -3.783226,3.71641 -8.885346,9.75307 -11.274612,16.27586 -2.389267,6.52279 -1.995685,13.44875 0.131901,19.75141 2.127586,6.30266 5.988925,11.9814 10.517553,16.3733 4.528629,4.3919 9.724104,7.49649 15.378196,9.34572 z"
       id="path12"
       inkscape:path-effect="#path-effect13"
       inkscape:original-d="m 55.083879,178.69649 c 6.112611,0.59382 12.225224,1.18764 18.337834,1.78146 6.562965,-3.41821 13.125669,-6.83628 19.688505,-10.25442 2.324383,-3.28149 4.648674,-6.56284 6.973012,-9.84426 0,-1.36728 0,-2.73451 0,-4.10177 3.28148,5.33241 6.56283,10.66461 9.84425,15.99691 6.42624,3.41821 12.85222,6.83629 19.27833,10.25443 7.10988,-1.09383 14.21947,-2.18761 21.32921,-3.28142 6.83642,-3.00802 13.67257,-6.28938 20.50886,-9.43407 2.73457,-5.87933 5.46903,-11.75841 8.20354,-17.63762 -1.23055,-8.47716 -2.46106,-16.95399 -3.69159,-25.43098 -3.41821,-2.32439 -6.83629,-4.64868 -10.25443,-6.97302 2.8713,0.54692 5.74248,1.09381 8.61372,1.64071 6.01605,-3.69166 12.03186,-7.38319 18.0478,-11.07478 2.05092,-6.97315 4.10177,-13.672574 6.15265,-20.50886 -2.05092,-8.477165 -4.10177,-16.953989 -6.15265,-25.430985 -5.46914,-5.122459 -10.93796,-10.244614 -16.40709,-15.367068 -5.34899,-1.213967 -10.69779,-2.427889 -16.04668,-3.641832 -3.94845,1.550898 -7.89691,3.101798 -11.84537,4.652699 1.9142,-2.461112 3.82832,-4.922126 5.74248,-7.383188 -1.36728,-5.879324 -2.73451,-11.758414 -4.10177,-17.637619 -4.7855,-5.879323 -9.5708,-11.758412 -14.3562,-17.6376179 C 127.42822,5.7424475 119.90846,4.1017716 112.38855,2.461063 105.27866,4.1018044 98.16907,5.7424803 91.059332,7.3831891 85.180008,14.629797 79.300921,21.876116 73.421713,29.122579 c 0,4.922226 0,9.844251 0,14.766379 0.136728,-0.273457 0.273452,-0.546904 0.410178,-0.820356 -2.871298,-2.050926 -5.74248,-4.101772 -8.613722,-6.152658 -7.656793,-0.273455 -15.313279,-0.546902 -22.969921,-0.820354 -7.520066,4.375311 -15.03983,8.750447 -22.559744,13.12567 -3.368379,8.323681 -6.736693,16.647198 -10.1051405,24.971046 0.8409835,8.220295 1.6819165,16.440095 2.5229005,24.660392 5.719138,4.175072 11.437931,8.349902 17.157066,12.524982 6.652775,-0.62014 13.305287,-1.24025 19.95793,-1.86037 -2.324383,1.23055 -4.648674,2.46106 -6.973012,3.69159 -5.242116,6.2023 -10.344238,12.23896 -15.516357,18.35845 0.393589,6.92609 0.78717,13.85205 1.180768,20.77828 3.861573,5.67909 7.722914,11.35783 11.584489,17.03692 5.195682,3.10471 10.391154,6.2093 15.586731,9.31394 z"
       sodipodi:nodetypes="ccccccccccccccccccccccccccccccccccccccc" /><path
       style="fill:none;fill-opacity:1;stroke:#000000;stroke-width:5;stroke-linecap:round;stroke-dasharray:none;stroke-opacity:1"
       d="M 97.888184,92.0874 C 95.422853,87.591795 90.782226,79.470701 87.495097,71.301186 84.207968,63.13167 82.274412,54.914061 81.808618,48.123978 c -0.465795,-6.790084 0.53615,-12.152157 2.265696,-16.710352 1.729546,-4.558195 4.164342,-8.278133 7.35155,-11.095333 3.187207,-2.817199 7.012572,-4.630673 10.877116,-5.651697 3.86455,-1.021024 7.73299,-1.232974 12.122,-0.714672 4.38901,0.518303 9.29802,1.766792 13.51712,3.962154 4.2191,2.195361 7.74776,5.337322 10.21314,9.422122 2.46539,4.0848 3.86719,9.111941 4.32642,13.704318 0.45924,4.592377 -0.0241,8.749435 -2.22364,13.100112 -2.19951,4.350677 -6.11496,8.894533 -11.98832,14.888744 -5.87337,5.99421 -13.70427,13.438397 -18.58662,18.562449 -4.88234,5.124051 -6.81589,7.927704 -7.92771,8.894494 -1.11182,0.966791 -1.40185,0.09669 -3.867186,-4.398917 z"
       id="path1"
       inkscape:path-effect="#path-effect1"
       inkscape:original-d="M 100.06348,95.71289 C 95.422851,87.591796 90.782226,79.470701 86.141601,71.34961 84.207968,63.13167 82.274414,54.914061 80.340818,46.696288 c 1.002005,-5.362394 2.00395,-10.724467 3.005955,-16.086862 2.457087,-3.753995 4.891883,-7.473933 7.371113,-11.261759 3.895185,-1.846574 7.72055,-3.660047 11.580954,-5.490131 3.86869,-0.211964 7.73713,-0.423914 11.60583,-0.635878 4.90932,1.248569 9.81833,2.49706 14.72765,3.745627 3.52888,3.142153 7.05754,6.284116 10.58642,9.426269 1.40189,5.027445 2.80369,10.054586 4.20557,15.082031 -0.48341,4.15731 -0.96679,8.314367 -1.45019,12.471681 -3.91561,4.544041 -7.83106,9.087896 -11.74658,13.631836 -7.83121,7.444483 -15.66211,14.88867 -23.49317,22.333007 -1.93363,2.803766 -3.86718,5.607421 -5.80078,8.411131 -0.29004,-0.870133 -0.58008,-1.740233 -0.87011,-2.61035 z"
       sodipodi:nodetypes="ccccccccccccccc" /><path
       style="fill:none;fill-opacity:1;stroke:#000000;stroke-width:5;stroke-linecap:round;stroke-dasharray:none;stroke-opacity:1"
       d="m 104.99414,91.652343 c 5.02734,-4.350586 14.40527,-13.051758 22.26242,-19.514466 7.85715,-6.462708 14.2825,-10.746276 19.59992,-13.211615 5.31743,-2.465339 9.57125,-3.142083 13.29345,-3.093736 3.7222,0.04835 6.91257,0.821769 10.07953,2.446834 3.16696,1.625064 6.40433,4.175717 9.06304,8.042957 2.65871,3.867239 4.78562,9.087837 5.89744,14.356934 1.11182,5.269096 1.2085,10.586374 -0.14505,15.372062 -1.35354,4.785687 -4.1572,9.039507 -7.44434,12.036597 -3.28715,2.99709 -7.05758,4.73729 -11.5049,5.3657 -4.44732,0.62841 -9.57124,0.14502 -15.13038,-1.0635 -5.55914,-1.20851 -11.55316,-3.14207 -19.95267,-5.50771 -8.39952,-2.36564 -19.25088,-5.17537 -25.05167,-7.060632 -5.80079,-1.885263 -6.574215,-2.852043 -6.622547,-3.335441 -0.04833,-0.483398 0.628412,-0.483398 5.655757,-4.833984 z"
       id="path2"
       inkscape:path-effect="#path-effect2"
       inkscape:original-d="m 100.64355,96.002929 c 9.37793,-8.701172 18.75586,-17.402344 28.13379,-26.103516 6.38099,-4.157308 12.76172,-8.507812 19.14258,-12.761719 4.25399,-0.67677 8.50781,-1.353516 12.76172,-2.030273 3.19049,0.773454 6.38086,1.546876 9.57129,2.320311 3.19049,2.417043 6.38086,5.027346 9.57129,7.541017 2.12699,5.220808 4.2539,10.441405 6.38085,15.662111 0.0967,5.317487 0.19336,10.634765 0.29005,15.952147 -2.80377,4.253993 -5.60743,8.507813 -8.41114,12.761723 -3.77058,1.74026 -7.54101,3.48047 -11.31152,5.2207 -5.12413,-0.48341 -10.24805,-0.9668 -15.37207,-1.4502 -5.99426,-1.93363 -11.98828,-3.86719 -17.98242,-5.80078 -10.82835,-2.70708 -21.65625,-5.60742 -32.48438,-8.41113 -0.77345,-0.966816 -1.546873,-1.933596 -2.320311,-2.900391 0.676772,0 1.353516,0 2.030271,0 z" /><path
       style="fill:none;fill-opacity:1;stroke:#000000;stroke-width:5;stroke-linecap:round;stroke-dasharray:none;stroke-opacity:1"
       d="m 93.537596,97.839842 c -4.785645,1.546874 -15.22705,3.770508 -25.62022,4.833978 -10.393169,1.06348 -20.737689,0.96681 -27.988709,-0.29005 -7.25102,-1.25686 -11.408159,-3.673808 -14.308566,-6.622574 -2.900408,-2.948766 -4.54393,-6.429167 -5.318417,-10.34476 -0.774486,-3.915593 -0.675708,-8.459406 0.387789,-13.003397 1.063497,-4.543991 3.09373,-9.184523 6.187521,-13.196764 3.093791,-4.012241 7.250935,-7.395963 11.649907,-9.764628 4.398972,-2.368666 9.039504,-3.722154 13.348716,-4.107854 4.309212,-0.3857 8.259147,0.192339 11.449601,1.062468 3.190454,0.870129 5.607399,2.030262 8.556164,5.124062 2.948766,3.0938 6.429165,8.121044 10.63478,15.613819 4.205615,7.492775 9.136181,17.450583 12.03658,22.864654 2.900399,5.414072 3.770499,6.284171 -1.015146,7.831046 z"
       id="path3"
       inkscape:path-effect="#path-effect3"
       inkscape:original-d="M 99.193359,97.163084 C 88.751951,99.386717 78.310546,101.61035 67.86914,103.83398 57.524207,103.7373 47.179687,103.64062 36.83496,103.54395 32.67765,101.1269 28.520509,98.70996 24.363281,96.292968 22.719693,92.81243 21.076171,89.332029 19.432617,85.851562 c 0.09668,-4.350673 0.193359,-8.894532 0.290039,-13.341797 2.030314,-4.640717 4.060547,-9.281249 6.09082,-13.921874 4.157309,-3.383857 8.314453,-6.767579 12.471679,-10.151367 4.640717,-1.353545 9.28125,-2.707031 13.921875,-4.060547 3.963947,0.67677 7.927734,1.160156 11.891602,1.740233 2.41704,1.16018 4.833985,2.320314 7.250978,3.48047 3.480538,5.027443 6.960936,10.054687 10.441405,15.08203 4.930762,9.958207 9.861328,19.916015 14.791992,29.874024 0.870135,0.870133 1.740233,1.740234 2.610352,2.61035 z" /><path
       style="fill:none;fill-opacity:1;stroke:#130e05;stroke-width:5;stroke-linecap:round;stroke-dasharray:none;stroke-opacity:1"
       d="m 108.71631,100.16016 c 8.16943,2.41699 23.5415,6.96093 33.01615,10.68313 9.47464,3.7222 13.05172,6.62253 16.33886,10.48977 3.28714,3.86723 6.28415,8.70112 7.94773,13.49167 1.66358,4.79055 1.99366,9.53739 0.64497,14.33485 -1.34868,4.79747 -4.35532,9.61193 -8.12311,13.11132 -3.76779,3.49939 -8.19428,5.58849 -13.6118,6.73688 -5.41752,1.14839 -11.80118,1.34183 -16.61359,0.4367 -4.81241,-0.90513 -8.14267,-2.96206 -11.38147,-5.66912 -3.2388,-2.70707 -6.42917,-6.09079 -8.9912,-10.53811 -2.56203,-4.44732 -4.49559,-9.95796 -5.60537,-16.09727 -1.10978,-6.13931 -1.40389,-13.09994 -1.8873,-19.86758 -0.4834,-6.76765 -1.160144,-13.43842 -1.015115,-16.62885 0.14503,-3.190421 1.111815,-2.900386 9.281245,-0.48339 z"
       id="path4"
       inkscape:path-effect="#path-effect4"
       inkscape:original-d="m 101.51367,98.033201 c 15.37207,4.543949 30.74414,9.087889 46.11621,13.631839 3.57722,2.90045 7.1543,5.80078 10.73145,8.70117 2.99713,4.83408 5.99414,9.66797 8.99121,14.50195 0.33009,4.74712 0.66017,9.49396 0.99026,14.24107 -3.02746,4.84782 -6.0341,9.66228 -9.08221,14.54317 -4.48747,2.11789 -8.91396,4.20699 -13.37094,6.31049 -6.38099,0.0967 -12.76172,0.38672 -19.14258,0.58008 -3.28718,-1.93364 -6.57422,-4.06055 -9.86133,-6.09082 -3.19049,-3.38386 -6.38086,-6.76758 -9.57129,-10.15137 -1.93363,-5.51085 -3.86719,-11.02149 -5.80078,-16.53223 -0.29004,-6.76771 -0.58008,-13.72851 -0.87012,-20.59277 -0.676769,-6.67103 -1.353512,-13.3418 -2.030271,-20.012696 0.966816,0.290045 1.933601,0.580078 2.900391,0.870117 z"
       sodipodi:nodetypes="cccccccccccccc" /><path
       style="fill:none;fill-opacity:1;stroke:#000000;stroke-width:5;stroke-linecap:round;stroke-dasharray:none;stroke-opacity:1"
       d="m 91.458983,99.386717 c -6.670897,2.126953 -19.916014,7.057623 -29.052295,11.311563 -9.136281,4.25394 -14.16352,7.83102 -18.079076,12.32667 -3.915556,4.49566 -6.719214,9.90962 -7.299275,15.32374 -0.580062,5.41411 1.063461,10.82807 4.181573,15.59223 3.118111,4.76417 7.80669,8.96435 12.408862,11.52847 4.602171,2.56411 9.126344,3.5267 13.283609,4.05844 4.157264,0.53174 7.927696,0.62842 11.698241,-0.87015 3.770545,-1.49856 7.540979,-4.59225 10.634754,-8.07276 3.093774,-3.48051 5.510716,-7.34762 7.052674,-12.52055 1.541957,-5.17293 2.22855,-11.84269 2.421907,-20.30226 0.193357,-8.45958 -0.09668,-18.8041 -0.290038,-24.31485 -0.19336,-5.510751 -0.290038,-6.187497 -6.960936,-4.060543 z"
       id="path5"
       inkscape:path-effect="#path-effect6"
       inkscape:original-d="M 98.033201,96.583007 C 84.788086,101.51367 71.542967,106.44433 58.297852,111.375 c -5.027446,3.57722 -10.054688,7.15429 -15.082033,10.73145 -2.803766,5.41416 -5.607421,10.82812 -8.411131,16.24218 1.643587,5.41417 3.287109,10.82813 4.930664,16.24219 4.640718,4.06063 9.28125,8.31445 13.921875,12.47168 4.544036,1.0635 9.08789,1.93359 13.631836,2.90039 3.770582,0.0967 7.541014,0.19336 11.311522,0.29004 3.770582,-3.09381 7.541016,-6.1875 11.311524,-9.28125 2.417041,-3.86727 4.833983,-7.73438 7.250975,-11.60157 0.676773,-6.47766 1.353516,-13.14843 2.030275,-19.72265 -0.290046,-10.34493 -0.58008,-20.68945 -0.870119,-31.034181 -0.09668,-0.67677 -0.193357,-1.353516 -0.290039,-2.030272 z" /><path
       style="fill:none;fill-opacity:1;stroke:#000000;stroke-width:2.80001;stroke-linecap:round;stroke-dasharray:none;stroke-opacity:1"
       d="m 133.12793,134.28808 c -3.48047,-5.41406 -6.96094,-10.82812 -11.02153,-15.71049 -4.0606,-4.88236 -8.70113,-9.23286 -12.22996,-12.32663 -3.52883,-3.09377 -5.94578,-4.93065 -8.36277,-6.767562"
       id="path7"
       inkscape:path-effect="#path-effect8"
       inkscape:original-d="m 133.12793,134.28808 c -3.48047,-5.41406 -6.96094,-10.82812 -10.44141,-16.24218 -4.64071,-4.35068 -9.28125,-8.70117 -13.92187,-13.05176 -2.41704,-1.83695 -4.83399,-3.67383 -7.25098,-5.510742" /><path
       style="fill:none;fill-opacity:1;stroke:#000000;stroke-width:2.80001;stroke-linecap:round;stroke-dasharray:none;stroke-opacity:1"
       d="m 147.91992,85.271485 c -7.91278,1.254464 -15.85547,2.513671 -23.58992,4.592313 -7.73445,2.078642 -15.27531,4.978972 -22.81633,7.879364"
       id="path8"
       inkscape:path-effect="#path-effect9"
       inkscape:original-d="m 147.91992,85.271485 c -7.92773,1.160155 -15.85547,2.513671 -23.7832,3.770505 -7.54117,2.90045 -15.08203,5.800783 -22.62305,8.701172" /><path
       style="fill:none;fill-opacity:1;stroke:#000000;stroke-width:2.80001;stroke-linecap:round;stroke-dasharray:none;stroke-opacity:1"
       d="m 110.50488,44.666016 c -1.83691,5.51074 -3.67383,11.021484 -5.12403,16.628962 -1.45021,5.607478 -2.51366,11.311465 -3.0454,16.918943 -0.53174,5.607478 -0.53174,11.118108 -0.53174,16.628852"
       id="path9"
       inkscape:path-effect="#path-effect10"
       inkscape:original-d="m 110.50488,44.666016 c -1.83691,5.510741 -3.67383,11.021483 -5.51074,16.532225 -1.0635,5.704215 -2.12695,11.408203 -3.19043,17.112305 0,5.510853 0,11.021483 0,16.532227" /><path
       style="fill:none;fill-opacity:1;stroke:#000000;stroke-width:2.80001;stroke-linecap:round;stroke-dasharray:none;stroke-opacity:1"
       d="m 53.947266,74.830077 c 5.124024,2.126954 10.248045,4.253906 15.082075,6.477562 4.83403,2.223656 9.377885,4.543922 13.970216,7.154302 4.592332,2.610381 9.232864,5.510714 13.873489,8.411105"
       id="path10"
       inkscape:path-effect="#path-effect11"
       inkscape:original-d="m 53.947266,74.830077 c 5.124024,2.126953 10.248045,4.253907 15.372069,6.38086 4.544036,2.320359 9.08789,4.640625 13.631836,6.960936 4.640717,2.90045 9.28125,5.800781 13.921875,8.701173" /><path
       style="fill:none;fill-opacity:1;stroke:#000000;stroke-width:2.80001;stroke-linecap:round;stroke-dasharray:none;stroke-opacity:1"
       d="m 65.548827,135.44824 c 4.350586,-5.80078 8.701172,-11.60156 14.16364,-17.78913 5.462467,-6.18756 12.036555,-12.76165 18.610773,-19.33587"
       id="path11"
       inkscape:path-effect="#path-effect12"
       inkscape:original-d="m 65.548827,135.44824 c 4.350586,-5.80078 8.701172,-11.60156 13.051758,-17.40234 6.57435,-6.57435 13.148437,-13.14844 19.722655,-19.72266" /></g></svg>
