<svg xmlns="http://www.w3.org/2000/svg" xmlns:xlink="http://www.w3.org/1999/xlink" width="204.057" height="577.912" viewBox="0 0 53.99 152.906" xmlns:v="https://vecta.io/nano"><path d="M18.805 138.448c.539.334.122 1.32.024 2.055s.098 1.164.272 1.393.313.229.578.878.638 1.884 1.195 2.993 1.286 2.059 1.908 2.603 1.152.687 2.021.195 2.086-1.619 2.746-2.498.765-1.513 1.095-1.883.886-.475 1.234-1.091.487-1.742.382-2.727-.452-1.83-.243-2.252.973-.422 1.825-.334 1.79.264 2.503.633 1.199.932 1.894 1.196 1.6.229 2.817-.51 2.746-2.182 3.876-3.765 1.86-3.308 3.111-5.507L50.371 123c1.304-1.953 2.138-3.185 2.465-4.275s.16-1.971-.518-2.605-1.86-.985-2.938-.985-2.051.352-2.642.633-.8.493-.939.088-.209-1.425-.243-2.305a8.18 8.18 0 0 1 .324-2.905c.359-1.287 1.101-3.182 1.327-4.942s-.052-3.413.184-4.965 1.015-3.058 1.467-4.289.591-2.217.261-3.712-1.13-3.501-1.495-5.683-.296-4.539-.474-6.403-.586-3.169-.727-4.348.002-2.269-.085-3.835-.4-3.642-1.06-6.475l-2.573-9.008c-.904-2.586-1.703-4.17-2.607-4.575s-1.912.369-2.607 2.164-1.078 4.61-1.408 4.363-.608-3.554-.747-7.566-.139-8.727-.017-11.102.365-2.41.765-2.322.956.299 1.443.106.904-.792.98-1.376-.215-1.211 1.131-2.554 4.285-3.408 6.354-5.695 3.25-4.786 3.876-7.354.695-5.208.261-7.724-1.373-4.909-2.955-7.055-3.807-4.047-6.727-4.962S33.91.49 30.938.737s-5.302.669-7.498 1.89-4.259 3.242-5.461 6.336-1.542 7.262-1.042 10.881 1.84 6.692 3.607 9.024 3.961 3.926 5.379 4.927 2.06 1.407 2.381 1.998.321 1.365.703 1.805 1.147.545 1.738.704 1.008.369 1.13 2.71-.052 6.809-.539 9.343-1.286 3.132-2.26 5.19-2.121 5.577-2.868 8.832-1.095 6.246-2.347 8.621-3.407 4.135-5.667 7.003-4.624 6.844-6.414 10.346-3.007 6.528-4.172 9.818-2.277 6.844-3.146 10.31-1.495 6.844-1.291 10.259 1.256 6.931 2.856 9.623 3.755 4.592 5.389 5.859 2.746 1.9 4.05 2.059 2.799-.158 3.337.176z" fill="#fff" stroke="#fff" stroke-width="2.95"/><g transform="translate(-60.455 -49.197)"><g transform="matrix(-1 0 0 1 190.51252 -.038575)" fill="none" stroke="#000" stroke-linecap="round"><path d="M98.709 134.565l-.622-8.715-.729-7.754c-.107-2.775.036-6.011.338-8.199s.765-3.326 1.227-4.464"/><use xlink:href="#B"/></g><g fill="none" stroke="#000"><g stroke-linecap="round"><path d="M98.709 134.565l-.622-8.715-.729-7.754c-.107-2.775.036-6.011.338-8.199s.765-3.326 1.227-4.464"/><use xlink:href="#B"/><path d="M101.271 149.645l.665-1.725c.239-.549.505-1.059.779-1.439s.556-.633.838-.884m-11.745 4.401c-.119-.512-.244-1.049-.52-1.562s-.687-.982-1.148-1.322-.963-.543-1.465-.745m6.96 7.627l1.081.97c.266.304.39.578.514.853m1.223-1.705c-.354.235-.709.47-.904.745s-.23.588-.266.902m-10.734-20.48c-.837 1.255-1.673 2.509-2.081 3.521s-.389 1.781-.565 2.489-.548 1.355-.76 2.129-.266 1.715-.231 2.646a7.57 7.57 0 0 0 .744 3.136c.585 1.264 1.63 2.852 2.614 4.044a16.25 16.25 0 0 0 2.72 2.616c.815.627 1.524 1.085 2.233 1.544m12.829-22.851l1.324 3.803 1.078 3.328c.416 1.059.966 2.097 1.099 3.401s-.151 2.872-.748 4.417-1.493 3.041-2.278 4.135-1.466 1.788-2.14 2.474m-10.234-.94c-.292.529-.585 1.059-.665 1.681s.053 1.338.465 1.771 1.103.583 1.856.684 1.568.155 2.144-.018.913-.572 1.178-.534.461.515.984.761 1.373.259 2.073.064 1.249-.596 1.595-1.165.486-1.295.35-1.961-.542-1.238-.952-1.818" stroke-width="1.017"/><path d="M92.093 131.257c.676-.178 1.352-.356 2.188-.418s1.832-.009 2.526.08 1.085.213 1.476.338"/><path d="M105.522 152.135c.129 1.647.258 3.295-.115 5.595s-1.26 5.288-2.432 7.833-2.634 4.664-3.836 5.903-2.143 1.599-2.734 1.249-.831-1.41-.861-2.233.15-1.41.541-2.299.991-2.081 1.392-3.444.601-2.895.801-4.428" stroke-width="1.001"/><path d="M81.39 150.567c-.205 1.981-.411 3.962-.064 6.563s1.255 5.86 2.456 8.636 2.7 5.087 3.932 6.439 2.197 1.744 2.803 1.362.852-1.537.883-2.435-.154-1.537-.554-2.507-1.016-2.27-1.427-3.756-.616-3.157-.821-4.829"/><path d="M88.617 159.939c.038-.508.077-1.017.223-1.492s.4-.916.653-1.357" stroke-width="1.012"/><path d="M76.513 178.104l-1.476-7.488c-.267-2.365-.196-4.535-.036-6.047s.409-2.365.889-2.935 1.192-.854 1.796-.871 1.103.231 1.559.927.895 1.901 1.215 3.555l.943 5.994c.409 2.205 1.014 4.482 1.72 6.778l1.891 6.312c.356 1.636.249 2.561-.249 3.184s-1.387.943-2.419.569-2.205-1.441-3.379-2.508m17.395-5.656l4.215-5.211c1.583-1.796 3.433-3.682 5.051-4.855s3.006-1.636 4.055-1.618 1.761.516 1.414 1.773-1.717 3.225-3.353 5.555l-4.962 7.381c-1.441 2.383-2.437 4.482-3.646 5.745s-2.632 1.69-3.415 1.12-.925-2.134-1.067-3.699M67.366 165.25c.31-.558.62-1.115 1.033-1.587a4.43 4.43 0 0 1 1.529-1.128 4.42 4.42 0 0 1 1.956-.393 4.19 4.19 0 0 1 1.836.516c.507.285.863.649 1.218 1.014" transform="matrix(.983996 -.033766 .033503 .976333 -3.230459 5.568277)"/><path d="M81.494 150.16c-.478-1.736-.956-3.471-.994-5.747s.365-5.093 1.27-7.244 2.314-3.635 3.131-4.452 1.044-.968 1.27-1.119m5.922-2.262c.818-.249 1.636-.498 2.508-.569a7.85 7.85 0 0 1 2.419.196c.623.16.943.373 1.263.587m-17.181 20.488c-1.601-2.988-3.201-5.976-3.753-8.786s-.053-5.442.783-7.719 2.01-4.197 3.273-5.442 2.614-1.814 3.966-2.383m7.256-1.201l3.077-.067c.871.058 1.512.236 2.152.414m6.829 2.241c.348 1.425.711 2.917.854 4.589s.07 3.628-.001 5.549"/><path d="M81.613 128.306c-3.058 3.814-6.116 7.627-8.795 12.433s-4.978 10.605-6.16 14.679-1.247 6.425-1.773 8.418-1.502 3.61-1.362 6.964 1.391 8.311 3.554 11.751 5.226 5.314 7.778 5.942 4.595.011 6.638-.606m2.65.141l5.436.063c1.8.147 3.583.484 5.366.821" transform="matrix(.983996 -.033766 .033503 .976333 -3.230459 5.568277)"/><path d="M102.978 171.701c.034-.882.069-1.799-.153-2.68s-.702-1.741-1.181-2.603" transform="matrix(.983996 -.033766 .033503 .976333 -1.836114 4.439367)"/><path d="M91.002 188.341l1.61 2.339c.402.729.604 1.383.604 2.037s-.201 1.308-.428 1.534-.478.025-.672-.279-.36-.802-.435-.526-.075 1.383-.428 2.314-1.056 1.736-1.736 2.389-1.333 1.157-1.727 1.229-.562-.374-1.003-1.186-1.218-2.106-1.501-3.139-.07-1.935-.246-2.262-.729-.126-.89-.257.111-.674.362-1.202.503-1.082.931-1.585 1.031-.956 1.635-1.409" transform="matrix(.983996 -.033766 .033503 .976333 -7.838995 5.578902)"/><path d="M93.32 123.947l-.241-36.154"/></g><path d="M90.074 85.152c-.241.261-.458.6-.567 1.009s-.109.89-.025 1.062.252.037.533-.071.674-.188.865-.049.182.497.438.476.778-.42 1.364-.336 1.239.653 1.526.67.205-.537.364-.763.558-.134 1.03.058 1.015.484 1.193.272-.012-.927-.401-1.511-.978-1.037-1.608-1.155-1.301.099-1.965.106-1.321-.193-1.781-.203-.725.173-.965.434z"/><g stroke-linecap="round"><path d="M90.608 84.416c-4.527-2.925-9.054-5.849-11.073-10.763s-1.531-11.816.896-15.813 6.791-5.088 10.494-5.451 6.743.001 9.462 1.225 5.118 3.309 6.519 6.338 1.803 7.003 1.085 10.556-2.602 6.76-4.837 9.123-4.845 3.92-7.455 5.477"/><path d="M76.023 161.78l.792 2.088c.163.553.176.893.189 1.232" transform="matrix(.983996 -.033766 .033503 .976333 -3.044835 5.561907)"/><path d="M78.74 161.705l-.214 1.616c-.038.484-.025.887-.013 1.289" transform="matrix(.983996 -.033766 .033503 .976333 -3.230459 5.568277)"/><path d="M88.776 170.081c.163.516.327 1.031.667 1.465s.855.786 1.371 1.138m5.13-1.056c.352-.163.704-.327 1.053-.665s.682-.832 1.022-1.335m9.281 1.66l1.075-1.489 1.067-1.373m-.718 3.05l.951-.778 1.23-1.188m-22.76-33.878c.116-.418.231-.836.196-1.187s-.222-.636-.191-.698.28.098.516.271.458.36.582.267.151-.467.143-.73-.055-.431.074-.351.431.4.734.72m9.499.164l.123-.663c.022-.211.016-.406.104-.299s.27.516.445.829.335.523.432.485.129-.327.252-.314.336.327.509.626.305.582.437.865m-12.575-2.439c-.231-1.12-.462-2.241-.418-3.637s.365-3.068.818-5.256l1.268-7.551c.227-2.66.093-5.308-.04-7.94"/><path d="M100.257 133.604l.406-4.652c.228-1.273.608-2.16.501-4.436s-.694-5.958-1.084-8.467l-.655-4.801c-.067-.925-.004-1.423.058-1.921"/></g></g></g><defs ><path id="B" d="M103.405 136.165l.676-4.624c.32-1.85.783-4.162.655-7.06s-.832-6.315-1.668-9.445l-2.389-7.664c-.593-1.723-.795-2.296-1.022-2.452s-.467.138-.707.431"/></defs></svg>