<svg xmlns="http://www.w3.org/2000/svg" xml:space="preserve" width="604.051" height="261.573" viewBox="0 0 159.822 69.208"><path d="M66.904 75.945C56.7 66 83.049 51.017 83.049 51.017s16.421-11.47 32.806-8.137c13.546 2.756 19.509 15.042 3.745 23.378-14.14 7.478-28.027 17.953-40.555 14.466-12.529-3.488-12.141-4.78-12.141-4.78z" style="opacity:1;fill:#fff;fill-opacity:1;stroke:#fff;stroke-width:7.165;stroke-linecap:round;stroke-dasharray:none;stroke-opacity:.990854" transform="translate(-15.618 -38.667)"/><path d="M74.653 79.045s1.68 10.203 18.082 6.716 74.654-13.69 78.4-6.329c3.745 7.362-6.35 10.035-24.67 11.108-28.673 1.679-120.504-2.713-126.833 7.878s57.863 3.617 57.863 3.617" style="display:inline;opacity:1;fill:none;fill-opacity:1;stroke:#fff;stroke-width:7.165;stroke-linecap:round;stroke-dasharray:none;stroke-opacity:.990854" transform="translate(-15.618 -38.667)"/><g style="display:inline"><path d="M84.717 65.623s4.173-4.426 4.299-5.243c.125-.818-.151-1.828-.88-2.141-.73-.313-2.087.409-2.087.409s-6.184 6.037-5.958 7.432c.227 1.395.83 1.732.83 1.732s1.433.866 2.539-.697c1.106-1.564 1.257-1.492 1.257-1.492" style="fill:#000;stroke-width:2.87019;stroke-dasharray:none" transform="translate(-15.618 -38.667)"/><path fill="none" d="M100.227 48.697s-11.703 7.104-24.605 26.016" style="fill:#000;fill-opacity:0;stroke:#000;stroke-width:1.445;stroke-linecap:round;stroke-dasharray:none;stroke-opacity:1" transform="translate(-15.618 -38.667)"/><path fill="none" d="M127.17 58.212s-1.643-22.467-28.86-14.521C71.096 51.636 67.808 69.4 67.808 69.4s-.045 3.699 1.324 4.84c1.37 1.142 11.143 8.676 20.047 6.165s19.508-10.595 21.446-11.306c1.937-.71 16.82-6.017 16.547-10.887z" style="fill:#000;fill-opacity:0;stroke:#000;stroke-width:1.265;stroke-dasharray:none;stroke-opacity:1" transform="translate(-15.618 -38.667)"/><path fill="none" d="M117.131 50.578s-9.896 4.857-15.434 14.156c-5.416 9.093-7.542 11.926-12.61 13.57-3.74 1.213-14.998-3.418-16.211-4.2-1.416-.914-5.617-3.745-4.247-6.942" style="fill:#000;fill-opacity:0;stroke:#000;stroke-width:1.165;stroke-dasharray:none;stroke-opacity:1" transform="translate(-15.618 -38.667)"/><path fill="none" d="M74.707 78.194c-1.827 11.873 19.727 7.198 19.727 7.198s82.926-17.626 77.446-1.735-132.79-.255-149.96 13.262 51.144 5.551 51.144 5.551l4.635-.707" style="opacity:1;fill:#000;fill-opacity:0;stroke:#000;stroke-width:1.265;stroke-linecap:round;stroke-dasharray:none;stroke-opacity:1" transform="translate(-15.618 -38.667)"/></g></svg>