<svg xmlns="http://www.w3.org/2000/svg" width="703.964" height="760.869" viewBox="0 0 450.537 486.956"><path d="m219.884 27.676 173.79 46.299a74.647 74.647 60.135 0 1 52.767 91.895l-81.426 296.564a67.82 67.82 150.655 0 1-84.046 47.252L95.472 456.65a63.72 63.72 60.722 0 1-43.888-78.28L135.35 76.083a69.226 69.226 150.203 0 1 84.533-48.406" style="fill:#fff;fill-opacity:1;stroke:none;stroke-width:13.321;stroke-linecap:round;stroke-linejoin:round;stroke-dasharray:none;stroke-opacity:1;paint-order:fill markers stroke" transform="translate(-49.27 -25.343)"/><path d="m191.497 172.29 166.555 43.624M175.748 226.48l166.555 43.623M160.28 284.187l166.556 43.624M138.363 349.373l166.555 43.624" style="fill:#000;fill-opacity:1;stroke:#000;stroke-width:15.36;stroke-linecap:round;stroke-linejoin:round;stroke-opacity:1;paint-order:fill markers stroke" transform="translate(-49.27 -25.343)"/><path d="m217.808 56.33 170.635 45.722a43.99 43.99 60 0 1 31.108 53.88l-77.8 290.352a45.563 45.563 150 0 1-55.803 32.218l-171.392-45.925a46.84 46.84 60.093 0 1-33.081-57.513L158.768 90.29a48.24 48.24 150.093 0 1 59.04-33.96" style="display:inline;opacity:1;fill:none;fill-opacity:1;stroke:#040000;stroke-width:15.36;stroke-linecap:round;stroke-linejoin:round;stroke-dasharray:none;stroke-opacity:1;paint-order:fill markers stroke" transform="translate(-49.27 -25.343)"/><path d="m464.986 151.711-146.54 146.54 28.816 28.815L494.047 180.28ZM316.722 298.99l-26.598 52.705 56.152-23.151z" style="opacity:1;fill:#fff;fill-opacity:1;stroke:#040000;stroke-width:11.52;stroke-linecap:round;stroke-linejoin:round;stroke-dasharray:none;stroke-opacity:1;paint-order:fill markers stroke" transform="translate(-49.27 -25.343)"/><path d="m203.882 111.233 166.556 43.624" style="fill:#000;fill-opacity:1;stroke:#000;stroke-width:15.36;stroke-linecap:round;stroke-linejoin:round;stroke-opacity:1;paint-order:fill markers stroke" transform="translate(-49.27 -25.343)"/></svg>