<svg xmlns="http://www.w3.org/2000/svg" xml:space="preserve" width="330.271" height="416.154" viewBox="0 0 87.384 110.107"><path d="M47.856 34.716s.382-.038 4.507 1.451M49.987 32.141s4.85.84 6.15 1.757" style="font-variation-settings:normal;fill:none;fill-opacity:1;stroke:#fff;stroke-width:1.4;stroke-linecap:round;stroke-linejoin:round;stroke-miterlimit:4;stroke-dasharray:none;stroke-dashoffset:0;stroke-opacity:1;paint-order:fill markers stroke;stop-color:#000"/><path d="M11.142 38.92s3.285-3.056 10.236-4.737" style="font-variation-settings:normal;fill:#f20000;fill-opacity:1;stroke:#fff;stroke-width:1.4;stroke-linecap:round;stroke-linejoin:round;stroke-miterlimit:4;stroke-dasharray:none;stroke-dashoffset:0;stroke-opacity:1;paint-order:fill markers stroke;stop-color:#000"/><path d="M9.558 35.285s2.253-1.642 9.205-3.323" style="font-variation-settings:normal;opacity:1;fill:#f20000;fill-opacity:1;stroke:#fff;stroke-width:1.4;stroke-linecap:round;stroke-linejoin:round;stroke-miterlimit:4;stroke-dasharray:none;stroke-dashoffset:0;stroke-opacity:1;paint-order:fill markers stroke;stop-color:#000;stop-opacity:1"/><path d="M.1 71.4s-.968 25.7 3.137 26.564 25.893 13.712 29.35 11.984c3.457-1.729 17.192-10.967 22.594-10.967 5.401 0 11.879-.369 14.04-2.313s4.48-3.665 5.91-2.497c2.568 2.1 12.14-5.554 12.246-10.306.108-4.861-.933-13.059-5.301-19.499-5.084-7.494-9.172-17.217-6.89-15.786 3.319 2.079 4.556 7.339 7.905.202 3.41-7.269-11.128-15.4-15.605-6.404-5.552 11.157 4.023 15.15 10.865 33.828 1.414 3.86-1.475 7.709-1.173 5.173.33-2.76-7.753-18.055-9.694-20.014-3.495-3.529-22.21-19.661-20.657-23.568 1.485-3.734 7.034-1.782 2.712-14.613C47.7 17.73 50.879 7.416 41.12.342 36.451-3.043 35.17 19.993 31.707 13.7 28.142 7.22 24.8-5.757 19.191 6.17c-3.501 7.449.925 14.566-.615 20.066-2.31 8.245 2.956 9.52 6.521 12.149 5.674 4.183-7.319 10.976.111 28.142 5.826 13.458 3.433 13.807-.024 12.079-8.271-3.132-16.3-6.109-25.085-7.207" style="font-variation-settings:normal;opacity:1;vector-effect:none;fill:#fff;fill-opacity:1;stroke:none;stroke-width:.7;stroke-linecap:round;stroke-linejoin:round;stroke-miterlimit:4;stroke-dasharray:none;stroke-dashoffset:0;stroke-opacity:1;-inkscape-stroke:none;paint-order:fill markers stroke;stop-color:#000;stop-opacity:1"/><path d="M66.613 39.941c.011-.014-.025-.234-.657-.544a5 5 0 0 0-.178-.083c-.564-.248-1.52-.537-2.932-.464-1.415.078-2.714.327-3.87.732a9.9 9.9 0 0 0-2.516 1.288c-.752.542-1.173 1.038-1.357 1.293-.32.444-.235.585-.218.596.043.026.134.003.51-.336.2-.18.68-.624 1.389-1.077a10.6 10.6 0 0 1 2.408-1.127c1.102-.362 2.332-.589 3.694-.67 1.294-.08 2.218.046 2.758.167q.093.02.177.043c.515.133.773.208.792.182" style="opacity:1;fill:#000;fill-rule:nonzero;stroke:none;stroke-width:.7;stroke-linecap:round;stroke-linejoin:round;paint-order:fill markers stroke" transform="translate(-30.924 -23.03)"/><path d="M68.76 51.658c.02-.004.069-.043.066-.451 0-.15-.01-.574.02-1.022.026-.368.081-.854.22-1.366.12-.448.308-.934.608-1.39.118-.17.28-.397.48-.635.192-.23.42-.473.68-.69.257-.215.54-.4.847-.527.308-.127.635-.194.982-.178.424.02.779.086 1.086.196.326.116.602.283.848.494.247.213.49.494.732.877.228.36.45.802.676 1.352.122.297.193.577.222.84a2.45 2.45 0 0 1-.254 1.389 3 3 0 0 1-.385.574c-.305.36-.684.655-1.066.877-.195.113-.39.207-.574.28a3.5 3.5 0 0 1-.523.167c-.442.096-.793.167-1.11.217a7 7 0 0 1-.899.091 4.2 4.2 0 0 1-.804-.057 6.5 6.5 0 0 1-.871-.192c.115.087.389.331.788.484.216.083.502.16.873.191.278.023.593.02.976-.017.335-.032.706-.088 1.155-.168.192-.033.402-.09.622-.17a5 5 0 0 0 .664-.299 4.6 4.6 0 0 0 1.254-.986c.182-.207.346-.437.48-.69.135-.253.238-.527.3-.822q.094-.445.048-.94a3.8 3.8 0 0 0-.26-1.027 9 9 0 0 0-.721-1.466 4.5 4.5 0 0 0-.867-1.036 3.3 3.3 0 0 0-1.076-.615 4.3 4.3 0 0 0-1.29-.213 2.9 2.9 0 0 0-1.26.26 3.8 3.8 0 0 0-.989.658c-.287.259-.528.54-.723.8-.203.269-.36.521-.469.711a5.1 5.1 0 0 0-.61 1.556 6.8 6.8 0 0 0-.061 2.517c.079.415.164.43.185.426" style="font-variation-settings:normal;opacity:1;vector-effect:none;fill:#000;fill-opacity:1;fill-rule:nonzero;stroke:none;stroke-width:.7;stroke-linecap:round;stroke-linejoin:round;stroke-miterlimit:4;stroke-dasharray:none;stroke-dashoffset:0;stroke-opacity:1;-inkscape-stroke:none;paint-order:fill markers stroke;stop-color:#000;stop-opacity:1" transform="translate(-32.166 -22.598)"/><path d="M58.85 51.948c.015.002.07-.013.134-.346a7.6 7.6 0 0 0 .116-1.326 8 8 0 0 0-.14-1.583 5.1 5.1 0 0 0-.6-1.62 8 8 0 0 0-.41-.68 4.5 4.5 0 0 0-.625-.743 3.1 3.1 0 0 0-.904-.602 2.8 2.8 0 0 0-1.218-.223q-.402.014-.77.206c-.23.12-.439.29-.626.5a3.3 3.3 0 0 0-.474.714 5 5 0 0 0-.333.875 7.1 7.1 0 0 0-.24 2.083c.02.757.147 1.533.384 2.277a.242.098 88.062 0 0 .027.06c.219.347.471.617.741.826.28.216.579.365.875.465.646.217 1.31.21 1.839.15a8.3 8.3 0 0 0 1.733-.407c.162-.055.296-.106.389-.143l.19-.078.071-.03.057-.02a.688.688 0 0 0-.142-.014q-.077 0-.209.019c-.107.015-.235.04-.408.077l-.163.035c-.295.062-.917.197-1.546.23-.51.025-1.109-.008-1.663-.226a2.6 2.6 0 0 1-.724-.43 2.7 2.7 0 0 1-.58-.69 7.8 7.8 0 0 1-.282-2.108c.002-.693.1-1.341.27-1.895q.131-.42.307-.75.18-.336.39-.56.215-.231.438-.342a1.1 1.1 0 0 1 .473-.124c.34-.012.648.042.935.153.268.105.512.258.738.448a4.4 4.4 0 0 1 .585.61c.174.215.323.429.45.605.3.447.493.955.62 1.444.142.546.203 1.08.231 1.5.04.589.023 1.169.022 1.299-.005.333.028.361.043.364" style="font-variation-settings:normal;opacity:1;vector-effect:none;fill:#000;fill-opacity:1;fill-rule:nonzero;stroke:none;stroke-width:.7;stroke-linecap:round;stroke-linejoin:round;stroke-miterlimit:4;stroke-dasharray:none;stroke-dashoffset:0;stroke-opacity:1;-inkscape-stroke:none;paint-order:fill markers stroke;stop-color:#000;stop-opacity:1" transform="translate(-30.762 -22.22)"/><path d="M64.69 55.523c1.426.29-.466.74-.774 1.133-.338.43-.305.006-1.502-.823-.07-.084.759-.619 2.276-.31" style="font-variation-settings:normal;opacity:1;vector-effect:none;fill:none;fill-opacity:1;stroke:#000;stroke-width:.569362;stroke-linecap:round;stroke-linejoin:round;stroke-miterlimit:4;stroke-dasharray:none;stroke-dashoffset:0;stroke-opacity:1;-inkscape-stroke:none;paint-order:fill markers stroke;stop-color:#000;stop-opacity:1" transform="translate(-32.652 -24.542)"/><path d="M54.078 43.137c-.005-.015-.085-.072-.424.13l-.006.004c-.17.104-.517.35-.897.87-.304.417-.656 1.046-.948 1.984-.27.868-.488 1.996-.57 3.461q-.003.003-.01.024l-.022.055q-.029.068-.082.172c-.07.139-.169.317-.275.522a7.7 7.7 0 0 0-.644 1.584 5.3 5.3 0 0 0-.17 1.016c-.024.36-.008.74.068 1.136.153.805.543 1.64 1.275 2.468.286.327.638.637 1.02.925.398.299.836.58 1.283.837a21.6 21.6 0 0 0 3.196 1.485c1.08.4 2.032.637 2.599.73.584.095.712.036.723-.002.014-.042-.061-.15-.576-.43-.507-.275-1.365-.677-2.397-1.147l-.299-.136c-.813-.372-1.828-.844-2.753-1.366a14 14 0 0 1-1.204-.753 6.4 6.4 0 0 1-.912-.764c-.657-.695-1.01-1.373-1.17-2.017a3.7 3.7 0 0 1-.108-.936c.004-.306.043-.6.105-.879.12-.54.315-1.022.52-1.483.088-.2.178-.396.242-.556q.049-.122.08-.233.017-.056.026-.111a1 1 0 0 0 .01-.117c.05-1.43.228-2.526.455-3.365.245-.906.547-1.517.803-1.924a4 4 0 0 1 .751-.897c.274-.24.316-.271.31-.287" style="font-variation-settings:normal;opacity:1;vector-effect:none;fill:#000;fill-opacity:1;fill-rule:nonzero;stroke:none;stroke-width:.7;stroke-linecap:round;stroke-linejoin:round;stroke-miterlimit:4;stroke-dasharray:none;stroke-dashoffset:0;stroke-opacity:1;-inkscape-stroke:none;paint-order:fill markers stroke;stop-color:#000;stop-opacity:1" transform="translate(-30.708 -23.246)"/><path d="M77.894 42.512c-.038-.004-.238.098-.061.959q.03.15.08.327c.157.572.509 1.535 1.302 3.049.32.615.59 1.19.809 1.741.21.532.372 1.036.492 1.535.243 1.013.31 1.993.296 3.111q-.005.229-.079.435a1.7 1.7 0 0 1-.206.393c-.176.254-.426.493-.734.738-.307.245-.645.476-.993.727-.356.256-.704.52-1.003.818-.762.765-1.723 1.352-2.663 1.802-1.006.483-2.03.829-2.827 1.072l-.208.063c-1.23.368-2.251.61-2.817.768-.582.162-.686.231-.682.271.002.03.12.107.733.107.584 0 1.66-.079 2.968-.376l.22-.051c.84-.204 1.918-.532 3-1.034 1.001-.466 2.065-1.108 2.923-1.982a9 9 0 0 1 .879-.764c.318-.251.675-.523.99-.804.323-.287.62-.597.838-.95.112-.181.203-.373.265-.576a2.2 2.2 0 0 0 .096-.653c-.003-1.151-.079-2.19-.347-3.273a12 12 0 0 0-.535-1.62 18 18 0 0 0-.862-1.792c-.792-1.462-1.18-2.405-1.378-2.913q-.064-.162-.115-.297c-.293-.77-.344-.827-.381-.831" style="font-variation-settings:normal;opacity:1;vector-effect:none;fill:#000;fill-opacity:1;fill-rule:nonzero;stroke:none;stroke-width:.7;stroke-linecap:round;stroke-linejoin:round;stroke-miterlimit:4;stroke-dasharray:none;stroke-dashoffset:0;stroke-opacity:1;-inkscape-stroke:none;paint-order:fill markers stroke;stop-color:#000;stop-opacity:1" transform="translate(-31.572 -22.382)"/><path d="M73.698 51.225a.42.42 0 0 0-.357.196c-.101.166-.159.488-.193.85v.006c-.026.279-.054.62-.03.887q.007.096.026.18c.018.082.053.166.093.244.092.176.213.323.25.387.07-.054.212-.14.356-.311a.96.96 0 0 0 .21-.415c.073-.277.091-.623.098-.915v-.007c.008-.372-.023-.704-.11-.88a.41.41 0 0 0-.343-.222" style="font-variation-settings:normal;opacity:1;vector-effect:none;fill:#000;fill-opacity:1;fill-rule:nonzero;stroke:none;stroke-width:.7;stroke-linecap:round;stroke-linejoin:round;stroke-miterlimit:4;stroke-dasharray:none;stroke-dashoffset:0;stroke-opacity:1;-inkscape-stroke:none;paint-order:fill markers stroke;stop-color:#000;stop-opacity:1" transform="translate(-33.436 -23.948)"/><path d="M58.863 50.888c-.058.079-.286.263-.365.474-.036.097-.058.22-.071.357-.027.258-.025.578-.026.822v.03c-.001.285.007.562.059.78q.017.075.041.138c.025.065.064.13.108.188.103.134.205.201.256.241.036-.041.142-.134.231-.251a.8.8 0 0 0 .15-.305c.056-.205.082-.48.097-.766l.001-.03c.012-.25.03-.567.004-.845a1.4 1.4 0 0 0-.078-.376c-.092-.229-.334-.384-.407-.457" style="font-variation-settings:normal;opacity:1;vector-effect:none;fill:#000;fill-opacity:1;fill-rule:nonzero;stroke:none;stroke-width:.7;stroke-linecap:round;stroke-linejoin:round;stroke-miterlimit:4;stroke-dasharray:none;stroke-dashoffset:0;stroke-opacity:1;-inkscape-stroke:none;paint-order:fill markers stroke;stop-color:#000;stop-opacity:1" transform="translate(-33.003 -23.665)"/><path d="M67.604 40.906s5.13-15.93 6.34-14.323c1.552 2.062 3.385 4.538 5.019 9.883 1.26 4.125.996 10.713.996 10.713M62.903 40.673S57.108 24.89 55.79 27.198c-.938 1.645-2.388 3.426-3.211 8.393-.705 4.255 1.284 11.689 1.284 11.689" style="font-variation-settings:normal;opacity:1;vector-effect:none;fill:none;fill-opacity:1;stroke:#000;stroke-width:.7;stroke-linecap:round;stroke-linejoin:round;stroke-miterlimit:4;stroke-dasharray:none;stroke-dashoffset:0;stroke-opacity:1;-inkscape-stroke:none;paint-order:fill markers stroke;stop-color:#000;stop-opacity:1" transform="translate(-32.652 -24.542)"/><path d="M76.414 60.781s-.727.494-.714 2.18c.012 1.62.431 2.874 1.758 4.872 1.943 2.925 4.982 6.66 7.831 9.676 3.985 4.219 9.468 7.017 12.886 11.706 3.542 4.86 6.687 9.927 7.46 16.424.777 6.543-1.607 11.394-3.289 13.094-2.442 2.469-6.64 2.276-10.428 2.577-4.868.387-10.07.634-12.667.328 0 0-3.576-.647-2.771-3.183.537-1.692 1.824-2.568 2.99-2.582.527-.007 1.476-.411 2.654.699 1.14 1.074.477 2.607.477 2.607" style="font-variation-settings:normal;opacity:1;vector-effect:none;fill:none;fill-opacity:1;fill-rule:nonzero;stroke:#000;stroke-width:.7;stroke-linecap:round;stroke-linejoin:round;stroke-miterlimit:4;stroke-dasharray:none;stroke-dashoffset:0;stroke-opacity:1;-inkscape-stroke:none;paint-order:fill markers stroke;stop-color:#000;stop-opacity:1" transform="translate(-32.652 -24.542)"/><path d="M77.674 118.617c.016-.013.048-.081-.128-.349a3 3 0 0 0-.169-.228 5.4 5.4 0 0 0-1.154-1.05 2.6 2.6 0 0 0-.443-.23 1.6 1.6 0 0 0-.47-.11c-1.094-.06-2.051.15-2.757.63-.626.424-1.016 1.04-1.068 1.72-.027.356.009.717.097 1.062.087.34.225.666.402.953.175.286.392.538.638.729q.186.145.395.24.21.094.437.125c.256.035.597.077.985.101.4.025.839.031 1.283-.006a5.3 5.3 0 0 0 1.35-.277 3.1 3.1 0 0 0 1.181-.736 1 1 0 0 0 .155-.225q.067-.129.125-.294c.079-.222.154-.501.225-.82.148-.665.287-1.533.415-2.496q.03-.215.057-.437c.24-1.89.466-4.24.68-6.715.222-2.576.427-5.246.61-7.454a179 179 0 0 1 .255-2.863c.04-.396.078-.746.114-1.042q.055-.445.104-.71c.135-.723.32-1.498.502-2.288.186-.807.364-1.614.487-2.408.127-.82.19-1.605.144-2.337a6 6 0 0 0-.165-1.086 4.3 4.3 0 0 0-.386-.995c-.881-1.61-1.622-2.93-2.073-3.655-.358-.574-.639-.91-.767-1.092.083.207.21.626.495 1.24.359.773 1.058 2.117 1.922 3.735q.216.405.337.887.115.465.147.996c.041.684-.019 1.431-.142 2.232-.12.774-.294 1.566-.48 2.373-.179.783-.366 1.573-.502 2.31-.035.189-.07.439-.107.739s-.075.654-.115 1.053c-.08.798-.164 1.779-.254 2.87-.182 2.212-.386 4.88-.608 7.454-.213 2.473-.438 4.816-.678 6.695l-.057.434c-.128.958-.266 1.81-.41 2.453-.07.31-.14.568-.21.763a2 2 0 0 1-.098.233.5.5 0 0 1-.07.109c-.265.269-.602.47-1 .612a4.8 4.8 0 0 1-1.223.245 8 8 0 0 1-1.21 0 14 14 0 0 1-.95-.1 1 1 0 0 1-.296-.088 1.5 1.5 0 0 1-.29-.178 2.2 2.2 0 0 1-.517-.594 3 3 0 0 1-.342-.812 2.8 2.8 0 0 1-.086-.897c.036-.503.323-.994.84-1.353.588-.408 1.428-.62 2.457-.58q.16.004.338.067.191.068.378.178c.285.164.554.38.752.55.155.133.304.27.394.354.081.074.147.132.205.182.238.201.302.194.319.18z" style="font-variation-settings:normal;opacity:1;vector-effect:none;fill:#000;fill-opacity:1;fill-rule:nonzero;stroke:none;stroke-width:.7;stroke-linecap:round;stroke-linejoin:round;stroke-miterlimit:4;stroke-dasharray:none;stroke-dashoffset:0;stroke-opacity:1;-inkscape-stroke:none;paint-order:fill markers stroke;stop-color:#000;stop-opacity:1" transform="translate(-35.893 -25.19)"/><path d="M71.157 116.205s.583-17.352-1.852-24.54" style="font-variation-settings:normal;opacity:1;vector-effect:none;fill:none;fill-opacity:1;stroke:#000;stroke-width:.7;stroke-linecap:round;stroke-linejoin:round;stroke-miterlimit:4;stroke-dasharray:none;stroke-dashoffset:0;stroke-opacity:1;-inkscape-stroke:none;paint-order:fill markers stroke;stop-color:#000;stop-opacity:1" transform="translate(-32.652 -24.542)"/><path d="M65.944 115.8c.037-.004.179-.109.07-1.505-.076-.965-.288-2.931-.726-5.927a114 114 0 0 0-1.011-5.936 46 46 0 0 0-.589-2.567c-.195-.74-.403-1.41-.62-1.935a117 117 0 0 0-1.412-4.237c-.513-1.466-1.064-2.993-1.58-4.444-.509-1.433-.98-2.78-1.345-3.924a35 35 0 0 1-.46-1.542 11 11 0 0 1-.253-1.13c-.129-.878-.255-1.596-.34-2.229-.093-.684-.137-1.255-.114-1.827l.003-.055a7.6 7.6 0 0 1 .33-1.842c.205-.681.52-1.47 1.005-2.46.412-.836.81-1.559 1.195-2.277.373-.698.718-1.365.992-2.044.28-.692.484-1.392.582-2.154a8.7 8.7 0 0 0-.066-2.539c-.407-2.613-.551-3.66-.748-3.966-.126-.195-.367-.168-.428-.16-.062.01-.3.054-.363.28-.086.308.053 1.447.551 4.019.155.827.193 1.565.13 2.264a8 8 0 0 1-.443 1.958c-.229.645-.528 1.292-.873 2.002-.353.725-.732 1.47-1.127 2.333-.47 1.024-.778 1.855-.977 2.581a8.7 8.7 0 0 0-.316 2.04c-.02.616.028 1.218.119 1.92.084.648.203 1.366.323 2.237.044.326.13.73.252 1.198.12.463.273.992.454 1.573.359 1.157.822 2.516 1.321 3.954.506 1.456 1.046 2.986 1.55 4.451.528 1.54 1.003 2.967 1.387 4.236a.316.128 48.265 0 0 .01.031c.2.488.4 1.13.592 1.864.202.769.397 1.635.58 2.529.402 1.97.762 4.153 1.034 5.896.464 2.982.728 4.938.89 5.89.233 1.377.38 1.449.421 1.444" style="font-variation-settings:normal;opacity:1;fill:#000;fill-opacity:1;fill-rule:nonzero;stroke:none;stroke-width:.8;stroke-linecap:round;stroke-linejoin:round;stroke-miterlimit:4;stroke-dasharray:none;stroke-dashoffset:0;stroke-opacity:1;paint-order:fill markers stroke;stop-color:#000;stop-opacity:1" transform="translate(-32.652 -24.542)"/><path d="M77.755 117.132c.01.004.062.005.102-.081a.28.28 0 0 0 .017-.182.4.4 0 0 0-.031-.084.5.5 0 0 0-.117-.145.8.8 0 0 0-.193-.117 1.6 1.6 0 0 0-.393-.102c-.151-.023 0 0 0 0s.204.031 0 0a3 3 0 0 0-.24-.028 6.6 6.6 0 0 0-1.511.058 3.2 3.2 0 0 0-1.095.381c-.289.17-.533.394-.722.673q-.261.392-.365.877a3.7 3.7 0 0 0-.044 1.273c.06.394.19.754.381 1.07.193.319.444.586.732.795.298.216.63.368.977.456.29.076.632.124.99.138.4.015.81-.013 1.203-.085a4.5 4.5 0 0 0 1.26-.421c.629-.327.955-.726 1.004-.887.05-.163-.145-.212-.17-.249-.042-.028-.096-.204-.247-.172-.147.03-.461.268-.976.477a5 5 0 0 1-1.04.289c-.327.054-.669.079-1.007.073a4.7 4.7 0 0 1-.803-.079 2.1 2.1 0 0 1-.69-.272 1.9 1.9 0 0 1-.546-.51 2.1 2.1 0 0 1-.339-.758 2.9 2.9 0 0 1-.036-1.028q.041-.384.202-.69.172-.33.498-.567c.249-.18.557-.312.912-.398.458-.11.955-.137 1.417-.123q.131.002.213.013c.176.02 0 0 0 0s-.131-.016 0 0c.091.01.21.036.311.08q.077.035.12.07a.4.4 0 0 1 .064.06q.015.016.025.03l.02.023.041.056c.033.048.062.08.076.086" style="font-variation-settings:normal;opacity:1;vector-effect:none;fill:#000;fill-opacity:1;fill-rule:nonzero;stroke:none;stroke-width:.7;stroke-linecap:round;stroke-linejoin:round;stroke-miterlimit:4;stroke-dasharray:none;stroke-dashoffset:0;stroke-opacity:1;-inkscape-stroke:none;paint-order:fill markers stroke;stop-color:#000;stop-opacity:1" transform="translate(-43.753 -25.613)"/><path d="M86.876 95.713c-.004-.02-.298-.047-1.409.219-.39.093-.957.242-1.618.466-.76.257-1.723.64-2.688 1.188-.875.496-1.773 1.14-2.52 1.969a6.2 6.2 0 0 0-1.205 1.88c-.38.905-.622 2.019-.599 3.351l.001.042c.028 1.282.3 2.895 1.066 4.875.73 1.886 1.9 4.08 3.7 6.616.083.116.184.212.292.29q.167.12.353.198c.25.108.536.18.834.227.313.05.653.077 1 .087.373.011.76.004 1.14-.014a23 23 0 0 0 2.51-.267c1.176-.195 2.066-.498 2.449-.6-.396-.006-1.333-.076-2.51-.051h-.055c-.603.015-1.576.051-2.412.043-.365-.004-.73-.015-1.074-.04a8 8 0 0 1-.88-.111 2.7 2.7 0 0 1-.6-.18 1 1 0 0 1-.161-.095.3.3 0 0 1-.067-.068c-1.758-2.485-2.885-4.605-3.585-6.398-.734-1.88-.99-3.379-1.03-4.54v-.037c-.037-1.206.152-2.197.448-3.005a6.5 6.5 0 0 1 .944-1.723c.641-.791 1.44-1.442 2.252-1.972.891-.58 1.8-1.016 2.527-1.322.627-.265 1.18-.46 1.553-.583 1.07-.354 1.347-.426 1.344-.445zM58.303 85.175c-.055.02-.237.154-.116.685.096.419.404 1.24.977 2.368.39.77.89 1.64 1.47 2.456.61.859 1.255 1.579 1.922 2.11a36 36 0 0 0 2.284 1.648c.793.533 1.664 1.093 2.327 1.523.39.253.717.468 1.021.67a36 36 0 0 1 .845.581c.264.187.463.335.618.464q.132.11.208.19a.7.7 0 0 1 .132.174.6.6 0 0 0-.046-.228 1.4 1.4 0 0 0-.142-.27 3.7 3.7 0 0 0-.535-.615l-.13-.12a12 12 0 0 0-.674-.558 32 32 0 0 0-.991-.735c-.673-.483-1.473-1.033-2.27-1.6a38 38 0 0 1-2.205-1.666c-.589-.49-1.165-1.175-1.721-2.01a22 22 0 0 1-1.356-2.393c-.544-1.099-.871-1.884-1.082-2.245-.267-.456-.474-.45-.536-.429" style="font-variation-settings:normal;opacity:1;vector-effect:none;fill:#000;fill-opacity:1;fill-rule:nonzero;stroke:none;stroke-width:.7;stroke-linecap:round;stroke-linejoin:round;stroke-miterlimit:4;stroke-dasharray:none;stroke-dashoffset:0;stroke-opacity:1;-inkscape-stroke:none;paint-order:fill markers stroke;stop-color:#000;stop-opacity:1" transform="translate(-32.652 -24.542)"/><path d="M105.863 111.01s6.642.85 7.864-4.65-2.587-14.358-9.838-24.777c-6.807-9.779 0-18.333 5.653-15.583s5.27 5.118 3.896 7.868c-1.375 2.75-3.733-4.889-6.657-3.49-3.1 1.485-.79 6.95.4 8.955 7.596 12.789 14.725 24.683 9.124 32.237-5.042 6.799-11.874 4.705-11.874 4.705" style="font-variation-settings:normal;opacity:1;vector-effect:none;fill:none;fill-opacity:1;stroke:#000;stroke-width:.7;stroke-linecap:round;stroke-linejoin:round;stroke-miterlimit:4;stroke-dasharray:none;stroke-dashoffset:0;stroke-opacity:1;-inkscape-stroke:none;paint-order:fill markers stroke;stop-color:#000;stop-opacity:1" transform="translate(-32.652 -24.542)"/><path d="M68.653 55.311c.003.036.302.075 1.571.028 1.313-.049 3.42-.17 5.86-.168h.341c2.14.012 4.363.117 6.362.36l.108.014c.918.114 1.852.263 2.73.476 1.169.284 1.865.593 2.26.805-.378-.24-1.05-.61-2.214-.969a19.6 19.6 0 0 0-2.844-.625c-2.008-.3-4.254-.403-6.4-.413h-.342c-2.416-.002-4.603.105-5.88.226-1.269.12-1.554.24-1.552.266" style="font-variation-settings:normal;opacity:1;vector-effect:none;fill:#000;fill-opacity:1;fill-rule:nonzero;stroke:none;stroke-width:.7;stroke-linecap:round;stroke-linejoin:round;stroke-miterlimit:4;stroke-dasharray:none;stroke-dashoffset:0;stroke-opacity:1;-inkscape-stroke:none;paint-order:fill markers stroke;stop-color:#000;stop-opacity:1" transform="translate(-31.736 -23.015)"/><path d="M68.959 56.075c-.002.035.211.113 1.161.214 1 .107 2.573.226 4.488.486l.266.037c1.671.235 3.441.556 5.107.962l.09.022c1.692.416 3.838 1.221 4.454 1.551-.876-.553-2.26-1.242-4.377-1.84l-.091-.025c-1.665-.463-3.457-.784-5.134-1.019l-.267-.037c-1.884-.256-3.548-.4-4.515-.43-.96-.03-1.181.053-1.182.08" style="font-variation-settings:normal;opacity:1;vector-effect:none;fill:#000;fill-opacity:1;fill-rule:nonzero;stroke:none;stroke-width:.7;stroke-linecap:round;stroke-linejoin:round;stroke-miterlimit:4;stroke-dasharray:none;stroke-dashoffset:0;stroke-opacity:1;-inkscape-stroke:none;paint-order:fill markers stroke;stop-color:#000;stop-opacity:1" transform="translate(-32.5 -23.32)"/><path d="M41.039 59.627c.01.012.474-.303 1.277-.728a18.5 18.5 0 0 1 2.96-1.254c1.41-.461 3.234-.866 5.514-1.166 2.254-.296 6.545-.414 8.144-.34-2.394-.185-5.32-.284-8.18.044a26 26 0 0 0-5.683 1.294c-1.23.428-2.172.867-2.845 1.26-.797.463-1.198.879-1.187.89" style="font-variation-settings:normal;opacity:1;vector-effect:none;fill:#000;fill-opacity:1;fill-rule:nonzero;stroke:none;stroke-width:.7;stroke-linecap:round;stroke-linejoin:round;stroke-miterlimit:4;stroke-dasharray:none;stroke-dashoffset:0;stroke-opacity:1;-inkscape-stroke:none;paint-order:fill markers stroke;stop-color:#000;stop-opacity:1" transform="translate(-31.43 -24.313)"/><path d="M41.802 62.607c.011.01.595-.439 1.51-1.05a26 26 0 0 1 3.2-1.84c1.462-.705 3.286-1.385 5.424-1.953 2.114-.561 5.898-1.051 7.266-1.09-2.056-.017-4.637.132-7.34.8-2.172.538-3.988 1.314-5.45 2.04l-.138.07c-1.275.641-2.306 1.275-3.068 1.821-.902.646-1.414 1.19-1.404 1.202" style="font-variation-settings:normal;opacity:1;vector-effect:none;fill:#000;fill-opacity:1;fill-rule:nonzero;stroke:none;stroke-width:.7;stroke-linecap:round;stroke-linejoin:round;stroke-miterlimit:4;stroke-dasharray:none;stroke-dashoffset:0;stroke-opacity:1;-inkscape-stroke:none;paint-order:fill markers stroke;stop-color:#000;stop-opacity:1" transform="translate(-30.513 -23.702)"/><path d="M57.243 43.432s.143-9.382-1.04-16.412M73.369 43.427s-3.708-5.157-.41-16.174" style="font-variation-settings:normal;opacity:1;vector-effect:none;fill:none;fill-opacity:1;stroke:#000;stroke-width:.7;stroke-linecap:round;stroke-linejoin:round;stroke-miterlimit:4;stroke-dasharray:none;stroke-dashoffset:0;stroke-opacity:1;-inkscape-stroke:none;paint-order:fill markers stroke;stop-color:#000;stop-opacity:1" transform="translate(-32.652 -24.542)"/><path d="M53.378 42.825c.01.022.053.023.226.012l.106-.007c.105-.005.23 0 .36.017.103.015.174.031.253.047l.027.005c.095.018.144.013.239.036l.01.002c.072.019.17.05.28.118.136.086.233.195.291.273a1.5 1.5 0 0 0-.18-.384 1.1 1.1 0 0 0-.265-.28.76.76 0 0 0-.328-.159 1 1 0 0 0-.334 0 1.7 1.7 0 0 0-.507.165c-.164.087-.184.141-.178.155" style="font-variation-settings:normal;opacity:1;vector-effect:none;fill:#000;fill-opacity:1;fill-rule:nonzero;stroke:none;stroke-width:.7;stroke-linecap:round;stroke-linejoin:round;stroke-miterlimit:4;stroke-dasharray:none;stroke-dashoffset:0;stroke-opacity:1;-inkscape-stroke:none;paint-order:fill markers stroke;stop-color:#000;stop-opacity:1" transform="translate(-30.857 -22.988)"/><path d="M72.091 40.87c.021.024.099.056.268-.016.168-.072.453-.254.802-.4l.051-.02a5.8 5.8 0 0 1 1.132-.314l.024-.004c.436-.076 1.182-.089 1.453-.048-.375-.13-.9-.275-1.485-.25l-.025.002a3.8 3.8 0 0 0-1.286.31c-.388.161-.69.34-.832.48-.143.143-.12.238-.102.26" style="font-variation-settings:normal;opacity:1;vector-effect:none;fill:#000;fill-opacity:1;fill-rule:nonzero;stroke:none;stroke-width:.7;stroke-linecap:round;stroke-linejoin:round;stroke-miterlimit:4;stroke-dasharray:none;stroke-dashoffset:0;stroke-opacity:1;-inkscape-stroke:none;paint-order:fill markers stroke;stop-color:#000;stop-opacity:1" transform="translate(-31.545 -21.716)"/><path d="M73.343 41.192c.017.025.368-.007.674-.036l.094-.009c.123-.012.275-.028.409-.032a9 9 0 0 1 .527.01 10 10 0 0 1 1.375.207c-.252-.12-1.005-.43-1.335-.503a3 3 0 0 0-.566-.068 2.4 2.4 0 0 0-.457.018q-.052.009-.106.02c-.341.078-.632.368-.615.393" style="font-variation-settings:normal;opacity:1;vector-effect:none;fill:#000;fill-opacity:1;fill-rule:nonzero;stroke:none;stroke-width:.7;stroke-linecap:round;stroke-linejoin:round;stroke-miterlimit:4;stroke-dasharray:none;stroke-dashoffset:0;stroke-opacity:1;-inkscape-stroke:none;paint-order:fill markers stroke;stop-color:#000;stop-opacity:1" transform="translate(-32.003 -21.945)"/><path d="M67.661 46.84c.018-.002.064-.25.118-.509q.026-.115.058-.226c.033-.114.063-.211.095-.343.051-.213.123-.468.176-.695.046-.196.091-.476.122-.575-.09.092-.27.258-.39.468-.13.224-.21.49-.254.728-.026.137-.031.261-.03.38q.001.122.007.245c.01.276.08.528.098.526M68.834 46.84c.017.004.203-.337.337-.583l.022-.04c.084-.155.063-.108.135-.251a5.411 5.411 0 0 1 .218-.412l.026-.045c.062-.108.106-.178.145-.225a1 1 0 0 0-.287.174q-.084.075-.169.18a1.675 1.675 0 0 0-.291.528c-.1.276-.154.668-.136.673" style="font-variation-settings:normal;opacity:1;vector-effect:none;fill:#000;fill-opacity:1;fill-rule:nonzero;stroke:none;stroke-width:.7;stroke-linecap:round;stroke-linejoin:round;stroke-miterlimit:4;stroke-dasharray:none;stroke-dashoffset:0;stroke-opacity:1;-inkscape-stroke:none;paint-order:fill markers stroke;stop-color:#000;stop-opacity:1" transform="translate(-32.652 -24.542)"/><path d="M67.634 46.745c.014-.006-.003-.187-.031-.396-.018-.129-.023-.265-.035-.406l-.017-.159c-.02-.165-.056-.343-.066-.517a2 2 0 0 1-.002-.129 1.4 1.4 0 0 1 .117-.559 1.4 1.4 0 0 0-.265.537q-.018.067-.033.135a1.8 1.8 0 0 0-.041.567q.01.09.029.17c.035.147.09.283.14.407.08.204.19.355.204.35" style="font-variation-settings:normal;opacity:1;vector-effect:none;fill:#000;fill-opacity:1;fill-rule:nonzero;stroke:none;stroke-width:.7;stroke-linecap:round;stroke-linejoin:round;stroke-miterlimit:4;stroke-dasharray:none;stroke-dashoffset:0;stroke-opacity:1;-inkscape-stroke:none;paint-order:fill markers stroke;stop-color:#000;stop-opacity:1" transform="translate(-32.652 -24.542)"/><path d="M66.473 47.123c.024-.01.037-.05.048-.235.007-.133.021-.315.031-.435l.007-.082c.008-.106.016-.228.033-.328a4 4 0 0 1 .09-.37c.06-.213.303-.687.422-.83-.153.106-.57.49-.697.71l-.008.015a1.6 1.6 0 0 0-.154.401 1.7 1.7 0 0 0-.055.483c.01.155.054.335.12.478.086.184.148.198.163.193" style="font-variation-settings:normal;opacity:1;vector-effect:none;fill:#000;fill-opacity:1;fill-rule:nonzero;stroke:none;stroke-width:.7;stroke-linecap:round;stroke-linejoin:round;stroke-miterlimit:4;stroke-dasharray:none;stroke-dashoffset:0;stroke-opacity:1;-inkscape-stroke:none;paint-order:fill markers stroke;stop-color:#000;stop-opacity:1" transform="matrix(-1 0 0 1 95.325 -24.275)"/><path d="M66.986 46.772c.03.007.264-.27.415-.477l.045-.063c.055-.077.124-.181.18-.252.053-.067.153-.179.224-.257l.009-.01c.136-.15.494-.445.633-.516-.154.024-.63.162-.824.286l-.012.009c-.123.08-.212.165-.297.256a1.7 1.7 0 0 0-.267.358c-.135.26-.135.658-.106.666" style="font-variation-settings:normal;opacity:1;vector-effect:none;fill:#000;fill-opacity:1;fill-rule:nonzero;stroke:none;stroke-width:.7;stroke-linecap:round;stroke-linejoin:round;stroke-miterlimit:4;stroke-dasharray:none;stroke-dashoffset:0;stroke-opacity:1;-inkscape-stroke:none;paint-order:fill markers stroke;stop-color:#000;stop-opacity:1" transform="matrix(-1 0 0 1 95.038 -24.218)"/><path d="M63.804 120.236c.066-.02.252-.117.278-.309a.6.6 0 0 0 .002-.116c-.015-.193-.102-.485-.15-.776-.052-.317-.11-.638-.112-.962q0-.063.002-.125a3 3 0 0 1 .038-.366c.04-.221.105-.38.158-.479a1.7 1.7 0 0 0-.36.395 2 2 0 0 0-.245.503 3.3 3.3 0 0 0-.179 1.093c.005.344.034.676.11.884a.6.6 0 0 0 .057.117c.12.184.337.161.4.141" style="font-variation-settings:normal;opacity:1;vector-effect:none;fill:#000;fill-opacity:1;fill-rule:nonzero;stroke:none;stroke-width:.7;stroke-linecap:round;stroke-linejoin:round;stroke-miterlimit:4;stroke-dasharray:none;stroke-dashoffset:0;stroke-opacity:1;-inkscape-stroke:none;paint-order:fill markers stroke;stop-color:#000;stop-opacity:1" transform="translate(-32.652 -24.542)"/><path d="m63.912 119.804-.01.003q-.006.001-.011-.004l-.002-.008a.02.02 0 0 1 .005-.012l.007-.006.009-.004q.01-.002.017-.002h.021q.008 0 .014-.002a.1.1 0 0 0 .02-.01l.018-.018.016-.023a.3.3 0 0 0 .025-.058.7.7 0 0 0 .028-.16 1 1 0 0 0-.01-.206c-.02-.145-.064-.323-.106-.523a4.5 4.5 0 0 1-.094-.657 4 4 0 0 1 .018-.633q.039-.335.145-.615a2 2 0 0 1 .066-.155 1.462 1.462 0 0 1 .836-.769 1.7 1.7 0 0 0-.71.255 1.5 1.5 0 0 0-.487.527c-.118.205-.2.44-.253.689-.05.234-.074.474-.082.703l-.001.031c-.009.241-.009.478.006.698.014.223.042.422.09.578q.013.044.028.083.028.068.064.127a.6.6 0 0 0 .117.14.4.4 0 0 0 .091.058l.03.01.031.006.018.003q.005 0 .01.002a.1.1 0 0 0 .033-.001l.01-.004.007-.006a.02.02 0 0 0 .006-.013v-.01a.02.02 0 0 0-.01-.008z" style="font-variation-settings:normal;vector-effect:none;fill:#000;fill-opacity:1;fill-rule:nonzero;stroke:none;stroke-width:.7;stroke-linecap:round;stroke-linejoin:round;stroke-miterlimit:4;stroke-dasharray:none;stroke-dashoffset:0;stroke-opacity:1;-inkscape-stroke:none;paint-order:fill markers stroke;stop-color:#000" transform="translate(-17.038 -22.693)"/><path d="M79.851 98.26c-3.202-3.435-1.54-2.594 1.08.026.35.35-.465-.876-.729-1.296-.516-.822-1.505-1.666-1.701-2.647-.04-.197 3.133 3.073 3.133 2.998 0-.951-1.621-2.854-2.107-3.62-.233-.367-.843-1.523-.648-1.133.229.458 3.513 4.105 4.78 4.105.452 0-1.154-1.162-.702-1.162.24 0 1.092 1.507 1.458 1.324.25-.125-.256-1.31-.054-1.513.423-.422 1.314 1.667 1.432 1.08.055-.275.02-.88.054-1.08M94.804 120.137c1.656.163 3.083-.285 4.583-.917M102.29 116.546c1.496-1.839 2.372-4.065 3.82-5.958M100.762 118.456c1.529-.855 2.47-2.52 3.438-3.972M105.422 114.026c1.322-1.626 1.393 1.44 1.52-.584" style="fill:none;stroke:#000;stroke-width:.264583px;stroke-linecap:butt;stroke-linejoin:miter;stroke-opacity:1" transform="translate(-32.652 -24.542)"/><path d="M106.778 111.791c1.058.379 3.6-1.012 4.22-1.012.22 0-.298.33-.477.458-1.06.765-2.232 1.137-3.476 1.49-.273.077-1.103.198-.821.23 1.302.144 3.869-.203 4.832-1.166.25-.25-.555.44-.84.65-.942.686-2 1.18-3.037 1.7-.278.138-1.15.4-.84.4.826 0 1.66-.63 2.52-.63.191 0-.294.246-.458.344-.405.242-1.279.676-1.719.859-3.106 1.29 1.043-.387-1.527.974M113.286 113.572c.96-1.136 1.918-2.268 2.81-3.456M116.527 108.765c.596-1.59.377-3.398.324-5.077M104.505 81.942c-1.367-1.353-2.042-3.131-2.482-4.965M102.023 75.41c-.211-1.45-.192-2.93-.115-4.391M104.849 71.4c.244-1.657 1.457-2.559 3.056-2.559M109.623 70.14c.649.593.961 1.495 1.49 2.215M113.214 73.157c.174-.974.144-1.959.114-2.94M74.026 63.914c.495 1.864 1.611 3.33 2.826 4.737M76.852 66.588c.856 1.885 1.792 3.555 3.132 5.118M81.471 72.845c.585 1.313 1.705 2.245 2.701 3.241M102.105 94.667c1.54 2.497 2.413 5.223 2.701 8.102M61.116 61.623c.771 1.038.988 2.352 1.375 3.514M75.422 61.07c1.256-1.247 2.09-2.723 2.809-4.321M54.302 48.16c.003 1.344-.245 2.664-.594 3.943M67.103 96.18c1.101 1.575 1.986 3.314 2.917 4.969M67.536 99.204c1.101 1.595 1.922 3.326 2.7 5.078" style="fill:none;stroke:#000;stroke-width:.264583px;stroke-linecap:butt;stroke-linejoin:miter;stroke-opacity:1" transform="translate(-32.652 -24.542)"/><path d="M69.48 100.825q.324 3.18.324 6.374M69.372 103.418c-.065 3.313.194 6.659-.216 9.938M69.588 110.116c.066 1.936-.038 3.94-.108 5.833M69.804 115.409c.64-3.393.47-6.743 1.297-10.047M62.339 66.359c.186.975.047 2.026 0 2.979M62.873 91.109c1.632 1.502 2.986 3.303 4.584 4.812" style="fill:none;stroke:#000;stroke-width:.264583px;stroke-linecap:butt;stroke-linejoin:miter;stroke-opacity:1" transform="translate(-32.652 -24.542)"/><path d="M36.379 38.331c.454-.243.666-.788.864-1.134.254.624.431 1.303.702 1.89-.081-.593-.068-1.188-.108-1.782.096.475.36.9.54 1.35.118-.717.446-1.355.703-1.998-.007.711.22 1.38.378 2.052.43-.899.71-1.866.972-2.808v1.782c.033-.585.309-1.034.486-1.566.137.991.247 1.906.486 2.862.16-.994.398-2.03.649-2.97v2.538c.414-.94.438-1.993.648-2.97M24.372 18.808a76 76 0 0 0-1.451-6.722c.4 1.73 1.093 6.199 1.03 6.76-.617-.4-2.855-3.172-1.183-1.222.436 1.63 1.865 3.211-.382 1.757-2.357.78-1.23.585.305.688M40.643 18.159c-.972-1.867-.611-3.923-.611-5.92.357 1.82.225 3.866.458 5.614.395-1.347.904-2.668 1.299-4.01.03 1.62-.764 3.124-.764 4.736a24 24 0 0 0 3.017-2.559c-.494 1.054-1.443 2.836-1.795 3.476.61-.515 1.297-.925 1.948-1.375v1.031" style="opacity:1;fill:none;stroke:#000;stroke-width:.264583px;stroke-linecap:butt;stroke-linejoin:miter;stroke-opacity:1"/><path d="M36.208 119.93s-2.444-22.305-1.375-22.305c1.07 0 27.653 8.556 28.57 10.694.916 2.14 2.597 23.375 1.07 24.292-1.529.917-28.265-12.68-28.265-12.68" style="font-variation-settings:normal;opacity:1;vector-effect:none;fill:#fff;fill-opacity:1;stroke:#000;stroke-width:.7;stroke-linecap:round;stroke-linejoin:round;stroke-miterlimit:4;stroke-dasharray:none;stroke-dashoffset:0;stroke-opacity:1;-inkscape-stroke:none;paint-order:fill markers stroke;stop-color:#000;stop-opacity:1" transform="translate(-32.652 -24.542)"/><path d="M63.738 132.553 84.48 122.29" style="font-variation-settings:normal;opacity:1;vector-effect:none;fill:none;fill-opacity:1;stroke:#000;stroke-width:.7;stroke-linecap:round;stroke-linejoin:round;stroke-miterlimit:4;stroke-dasharray:none;stroke-dashoffset:0;stroke-opacity:1;-inkscape-stroke:none;paint-order:fill markers stroke;stop-color:#000;stop-opacity:1" transform="translate(-32.652 -24.542)"/><path d="M64.062 122.182c1.469-.851 3.146-1.195 4.645-1.944 1.755-.878-4.567 3.319-4.429 3.457 1.436 1.435 15.1-8.062 3.133 1.512-.32.256-.682.466-.972.756-.637.637 1.747-.447 2.592-.756 3.474-1.27 6.774-3.158 10.263-4.321 1.402-.468-2.405 1.724-3.673 2.484-4.078 2.448-8.268 4.261-11.775 7.13" style="opacity:.50885;fill:none;stroke:#000;stroke-width:.264583px;stroke-linecap:butt;stroke-linejoin:miter;stroke-opacity:1" transform="translate(-32.652 -24.542)"/><path d="M34.986 99c.282 1.858.153 3.772.153 5.653M36.056 106.028c.108 3.112-.153 6.211-.153 9.32M36.667 117.486c.523.725.916 1.528 1.375 2.292M59.43 128.944c1.209.893 2.786 1.319 4.126 1.834.42-4.265.458-8.552.458-12.834" style="fill:none;stroke:#000;stroke-width:.264583px;stroke-linecap:butt;stroke-linejoin:miter;stroke-opacity:1" transform="translate(-32.652 -24.542)"/><path d="M62.639 109.083c-.191 4.903.358 9.802.764 14.667M36.82 99.611h1.986M34.528 101.75c.228-.657.204-1.325.305-1.986 3.832-.801 7.4.572 10.848 2.139" style="fill:none;stroke:#000;stroke-width:.264583px;stroke-linecap:butt;stroke-linejoin:miter;stroke-opacity:1" transform="translate(-32.652 -24.542)"/></svg>