<svg xmlns="http://www.w3.org/2000/svg" width="627.591" height="471.647" viewBox="0 0 166.05 124.79" xmlns:v="https://vecta.io/nano"><style><![CDATA[.B{stroke-linecap:round}]]></style><path d="M10.756 80.513c-6.284 8.024-8.604 13.245-8.749 17.064s1.885 6.236 4.931 7.589 7.106 1.644 12.617 1.499 12.472-.725 18.853-.822 12.182.29 15.59.899 4.519 1.518 8 2.195 9.378 1.16 14.985 2.079 10.925 2.272 14.985 4.592 6.864 5.607 9.33 6.719 4.592.048 7.203-.918 5.704-1.837 8.508-2.369 5.317-.725 6.719-1.837 1.692-3.142 1.982-4.931.58-3.335 1.45-4.931 2.32-3.239 4.592-3.77 5.366.048 8.025-.681 5.075-2.945 7.299-4.685 4.351-3.094 5.801-5.317 2.224-5.317 4.447-9.378 5.897-9.088 6.599-15.669-1.669-15.075-5.439-21.263-8.991-10.248-12.762-14.792-6.091-9.571-9.571-14.889-8.121-10.925-14.309-13.342-13.922-1.644-20.303 0-11.408 4.157-14.405 7.831-3.964 8.508-7.154 11.602-8.604 4.447-16.002 8.762-16.966 11.734-26.827 20.822-20.109 19.916-26.393 27.94z" fill="#fff" stroke="#fff" stroke-width="4"/><g fill="none" stroke="#000"><g stroke-width="2.2"><path d="M87.343 43.597c-.208 1.034-.549 2.469-1.677 4.52l-4.17 6.87c-1.128 2.153-1.47 3.794-.855 5.025s2.188 2.051 4.033 2.051 3.965-.82 5.777-1.675 3.316-1.743 5.469-3.076l7.369-4.572c2.412-1.462 4.492-2.64 4.937-3.358s-.718-.991-2.119-1.436-3.042-1.06-4.496-2.493-2.784-3.796-4.026-5.095-2.425-1.589-3.527-1.338-2.123 1.043-3.001 1.726-1.613 1.258-2.15 1.332-.873-.353-1.078-.25-.278.734-.486 1.768z"/><path d="M96.551 47.092l-.82 1.436m14.561-15.587l4.136-3.213c1.265-.752 2.359-1.025 3.452-1.299M88.022 42.134c-.78-2.723-1.561-5.446-1.643-8.106s.533-5.258 1.074-8.059 1.008-5.804 2.05-8.031 2.659-3.68 5.092-5.357 5.681-3.58 9.322-4.463 7.674-.746 11.468.108 7.349 2.427 9.571 3.76 3.111 2.427 4.033 3.794 1.88 3.008 2.974 4.546 2.324 2.974 3.179 5.025 1.333 4.717 1.025 7.383-1.401 5.332-2.495 7.998m-29.427 20.252c1.063.967 2.127 1.934 2.127 3.819s-1.063 4.689-2.514 7.058-3.287 4.302-7.886 5.753-11.934 2.416-18.46 2.9-12.23.483-17.934.483m26.974-52.498c-5.897 2.127-11.795 4.254-18.659 7.976s-14.695 9.039-24.122 18.176-20.448 22.091-31.469 35.046M136.884 30.84c.971 2.627 1.921 5.198 3.82 6.972s4.589 2.602 7.026 4.766 4.564 5.644 6.099 9.128 2.526 7.151 2.961 11.308.338 8.894-2.03 13.874-7.009 10.2-12.762 14.115-12.617 6.526-21.463 8.073-19.674 2.03-27.939 2.175-13.972-.048-19.676-.242m-15.372-2.9c0 1.837 0 3.674.798 4.52s2.393.701 5.777 1.136 8.556 1.45 13.414 2.151 9.402 1.088 13.076 2.103 6.478 2.659 8.346 4.647 2.869 4.489 3.787 4.972 1.789-.967 4.206-1.982 6.381-1.595 9.04-1.644 4.012.435 4.206-.29-.773-2.659-.338-4.399 2.272-3.287 3.314-4.267 1.375-1.534.505-1.921-2.9-.677-7.734-.822-12.472-.145-20.109-.145m-24.076-2.029c1.208-1.409 2.32-2.707 2.852-3.916s.435-2.272.338-3.335m-65.838 1.74l12.762-11.602M7.952 98.109l12.762-10.151m35.384 12.761l-14.695-.822c-4.641-.242-8.894-.435-13.35-.144s-9.08 1.062-13.721 1.836m7.832-10.441l-13.922 8.991m18.272-4.931l-16.242 5.511" class="B"/></g><path d="M101.207 42.984l3.003-4.198c1.183-1.399 2.639-2.797 4.095-4.196" class="B"/><path d="M64.509 100.139l4.979-.773c1.499-.387 2.755-.967 4.012-1.547" stroke-width="1.2" class="B"/><path d="M107 49.238l6.429-.242c1.789-.242 3.045-.725 4.302-1.208" stroke-width="2.1" class="B"/><path d="M142.53 43.001c1.837 1.16 3.674 2.32 5.317 4.496s3.094 5.366 4.544 8.556M11.722 95.789l11.65-11.408c2.949-3.094 4.496-5.124 6.042-7.154M9.982 96.949c4.931-2.417 9.861-4.834 12.955-6.913s4.351-3.819 5.607-5.559m5.221 10.441l-21.753 5.221m91.943 13.052l-5.511-5.511m14.792 3.771l-9.233-3.674c-2.659-.773-4.689-.87-6.719-.967m19.432 2.61l-8.556-3.142c-1.982-.628-2.659-.628-3.335-.628m12.762-1.16l-11.602.58M88.583 40.681l.048-8.314c-.145-2.32-.532-3.964-.918-5.607m28.133 1.449l3.771-1.16m-69.9 29.004l-9.571 9.571m-.87 5.221l-6.091 6.671m13.052 17.112l-9.861 1.74m23.783-15.662l-18.853 1.16" stroke-width="1.2" class="B"/><path d="M147.003 86.879c1.422.125 2.845.25 3.118.694s-.602 1.208-1.414 2.281-1.561 2.455-2.784 3.242-2.92.976-3.913 1.755-1.282 2.146-1.742 2.992-1.092 1.171-2.253 1.001-2.849-.838-4.311-1.171-2.695-.334-3.929-.334" stroke-width="2" class="B"/></g></svg>