<svg xmlns="http://www.w3.org/2000/svg" width="260.389" height="95.559" viewBox="0 0 68.895 25.283"><g style="display:inline"><g style="display:inline;fill:#fff;fill-opacity:1;stroke:#fff;stroke-opacity:.990854"><path d="m28.629 42.377.839-5.501 3.534 4.207 6.618-.412-4.642 4.648 4.193 7.179-7.607-3.383-7.833 3.509 4.15-6.216-6.2-2.56z" style="display:inline;fill:#fff;fill-opacity:1;stroke:#fff;stroke-width:1.26927;stroke-linecap:round;stroke-dasharray:none;stroke-opacity:.990854" transform="translate(3.276 -28.82)"/><path d="m50.935 36.574 4.095-5.793 2.31 7.257 6.447.941-5.225 3.235 2.322 8.234-7.272-3.93-9.703 3.526 5.18-7.87-4.872-5.937z" style="display:inline;fill:#fff;fill-opacity:1;stroke:#fff;stroke-width:1.28177;stroke-linecap:round;stroke-dasharray:none;stroke-opacity:.990854" transform="translate(3.276 -28.82)"/><path d="m7.061 36.983 4.257-6.335 1.144 7.3 6.703 1.029-5.433 3.537 2.415 9.004-7.561-6.206-10.088 5.765 4.846-8.788-3.717-4.856z" style="display:inline;fill:#fff;fill-opacity:1;stroke:#fff;stroke-width:1.3667;stroke-linecap:round;stroke-dasharray:none;stroke-opacity:.990854" transform="translate(3.276 -28.82)"/></g><path d="m29.615 43.002.583-3.939 2.459 3.012 4.603-.295-3.229 3.328 2.917 5.139-5.291-2.422-5.449 2.512 2.886-4.45-4.312-1.832z" style="display:inline;fill:none;fill-opacity:1;stroke:#000;stroke-width:.895659;stroke-linecap:round;stroke-dasharray:none;stroke-opacity:.990854" transform="translate(3.276 -28.82)"/><path d="m51.661 37.417 3.134-4.607 1.768 5.772 4.934.748-3.999 2.572 1.778 6.548-5.566-3.124-7.427 2.803 3.965-6.258-3.728-4.722z" style="display:inline;fill:none;fill-opacity:1;stroke:#000;stroke-width:1;stroke-linecap:round;stroke-dasharray:none;stroke-opacity:.990854" transform="translate(3.276 -28.82)"/><path d="m7.744 38.09 3.133-4.607.842 5.31 4.935.747-4 2.573 1.778 6.548-5.566-4.513L1.44 48.34l3.567-6.39-2.736-3.532z" style="display:inline;opacity:1;fill:none;fill-opacity:1;stroke:#000;stroke-width:1;stroke-linecap:round;stroke-dasharray:none;stroke-opacity:.990854" transform="translate(3.276 -28.82)"/></g></svg>