<?xml version="1.0" encoding="UTF-8" standalone="no"?>
<svg
   width="708.367"
   height="853.028"
   viewBox="0 0 187.422 225.697"
   version="1.1"
   id="svg188"
   sodipodi:docname="tree.svg"
   inkscape:version="1.3 (0e150ed6c4, 2023-07-21)"
   xmlns:inkscape="http://www.inkscape.org/namespaces/inkscape"
   xmlns:sodipodi="http://sodipodi.sourceforge.net/DTD/sodipodi-0.dtd"
   xmlns="http://www.w3.org/2000/svg"
   xmlns:svg="http://www.w3.org/2000/svg">
  <defs
     id="defs188" />
  <sodipodi:namedview
     id="namedview188"
     pagecolor="#ffffff"
     bordercolor="#000000"
     borderopacity="0.25"
     inkscape:showpageshadow="2"
     inkscape:pageopacity="0.0"
     inkscape:pagecheckerboard="0"
     inkscape:deskcolor="#d1d1d1"
     inkscape:zoom="0.60021475"
     inkscape:cx="354.87298"
     inkscape:cy="426.51401"
     inkscape:window-width="1280"
     inkscape:window-height="730"
     inkscape:window-x="-6"
     inkscape:window-y="-6"
     inkscape:window-maximized="1"
     inkscape:current-layer="svg188" />
  <style
     id="style1"><![CDATA[.B{stroke-opacity:.641}.C{stroke-linecap:round}]]></style>
  <path
     d="M24.429 217.96c-.193 1.74-.387 4.061 3.964 5.414s13.245 1.74 24.557 1.934 25.04.193 35.143-.048 16.581-.725 20.569-1.904 5.583-3.172 6.187-4.79.266-2.922-.861-4.428-3.041-3.215-7.518-4.036-11.519-.752-16.534-1.159-8.042-1.302-8.589-2.669 1.367-3.213 1.06-6.05-2.837-6.665-4.58-10.323-2.7-7.144-2.495-10.289 1.572-5.948 3.281-8.99 3.76-6.324 7.417-9.092 8.921-5.025 12.545-7.144 5.606-4.102 7.041-4.512 2.324.752 3.487 2.495 2.598 4.068 4.273 5.366 3.589 1.572 5.469 1.265 3.726-1.196 4.341-2.803 0-3.931.137-5.298 1.025-1.777 1.846-2.905 1.572-2.974 1.709-4.854-.342-3.794-2.017-5.264-4.546-2.495-7.486-3.145-5.948-.923-8.272-.444-3.965 1.709-5.401 1.709-2.666-1.231-4.341-3.076-3.794-4.307-2.966-6.043 4.602-2.748 7.359-3.35 4.498-.796 6.963-.167 5.656 2.079 9.04 3.48 6.961 2.755 10.296 2.997 6.429-.628 8.459-1.112 2.997-.58 5.076.048 5.269 1.982 8.798 2.707 7.396.822 11.65.338 8.894-1.547 12.617-2.079 6.526-.532 8.363-1.885 2.707-4.061 1.789-6.478-3.625-4.544-5.607-5.414-3.239-.483-4.206-1.209-1.644-2.562-1.547-4.302.967-3.384 1.354-5.366.29-4.302.628-6.236 1.112-3.48.773-5.317-1.789-3.964-1.16-4.544 3.335.387 4.931-.87 2.079-4.737 1.982-6.671-.773-2.32-.725-3.432.822-2.949.532-4.351-1.644-2.369-3.625-4.012-4.592-3.964-7.058-5.849-4.786-3.335-5.076-4.157 1.45-1.015 3.384-2.127 4.061-3.142 4.157-5.801-1.837-5.946-3.771-9.088-3.867-6.139-6.284-8.121-5.317-2.949-7.009-3.094-2.175.532-1.595-.483 2.224-3.722 1.692-6.333-3.239-5.124-3.625-6.768 1.547-2.417 2.9-4.109 2.127-4.302 1.402-6.671-2.949-4.496-5.462-5.656-5.317-1.354-8.459-.967-6.623 1.354-7.299 2.707 1.45 3.094 1.885 4.882-.822 3.625-2.804 4.544-4.689.918-6.864 1.644-3.819 2.175-6.333 2.804-5.897.435-7.686-.338-1.982-2.127-3.674-3.916-4.882-4.012-7.444-5.124-4.496-1.112-6.187-1.547-3.142-1.305-7.976-1.934-13.052-1.015-17.499-.822-5.124.967-7.638 1.595-6.864 1.112-11.021 2.997-8.121 5.172-9.813 7.589-1.112 3.964-.483 6.188 1.305 5.124.242 7.058-3.867 2.9-7.686 3.045-8.653-.532-11.892.725-4.882 4.447-4.979 6.816 1.354 3.916 1.837 5.559 0 3.384-1.595 5.656-4.302 5.076-5.897 7.879-2.079 5.607-2.949 8.024-2.127 4.447-4.061 7.928-4.544 8.411-4.544 12.375 2.61 6.961 5.559 8.749 6.236 2.369 7.203 3.577-.387 3.045-2.127 5.076-3.867 4.254-6.188 6.574-4.834 4.737-6.139 7.251-1.402 5.124-.048 6.719 4.157 2.175 6.478 2.175 4.157-.58 4.544.435-.677 3.625-.822 6.236.628 5.221 2.514 6.284 4.882.58 8.314-.097 7.299-1.547 9.426-2.369 2.514-1.595 2.949-.483.918 4.109 2.175 5.414 3.287.918 4.399 1.499 1.305 2.127.918 3.722-1.354 3.239-.822 4.399 2.562 1.837 5.124 2.465 5.656 1.208 7.734 1.595 3.142.58 2.949 2.755-1.644 6.332-2.03 9.91.29 6.574.145 9.765-1.112 6.574-1.354 9.571.242 5.607.097 7.879-.918 4.206-1.595 5.994-1.257 3.432-2.949 4.544-4.496 1.692-7.928 2.32-7.493 1.305-10.345 2.175-4.496 1.934-5.414 3.045-1.112 2.272-1.305 4.012z"
     fill="#fff"
     stroke="#fff"
     stroke-width=".5"
     id="path188" />
  <g
     fill="none"
     class="C"
     id="g56">
    <g
       stroke="#8b8b8b"
       id="g5">
      <path
         d="M70.989 212.494l-3.897-17.022m2.769-23.585c.034 4.82.068 9.639.427 13.844s1.043 7.793 1.454 10.357.545 4.034.682 5.538m-8.203-9.538l.615-25.841m3.487-.205l3.589-10.46"
         stroke-width="1.823"
         id="path1" />
      <g
         stroke-width="1.423"
         id="g4">
        <path
           d="M63.913 214.135l1.538-7.691m8.204-45.53l-4.051 6.802c-1.384 2.017-2.82 3.657-4.256 5.298m30.046-18.868l-8.323 2.136-6.99 1.436c-1.88.53-3.179 1.248-4.478 1.965m5.435-.614l-6.87 3.179m-3.692-4.102l8.101-3.692m3.897 1.846l6.956-5.144c1.487-1.248 1.726-1.795 1.965-2.341m11.075-1.949c-1.299.889-2.598 1.777-4.187 2.529s-3.469 1.367-5.349 1.983m3.076-1.949l-3.179-7.383m-1.846 2.461c-.786-1.538-1.572-3.076-2.547-4.238s-2.136-1.948-3.299-2.735m-1.64-8.819l2.153-1.231m-16.817 88.599l26.969.615"
           id="path2" />
        <path
           d="M79.398 214.545l-8.921-1.743m8.334-85.117l3.48.363m-2.32-1.451c1.354-.483 2.707-.967 2.393-1.293s-2.296-.495-2.852-.882.314-.991-.447-1.438-3.154-.737-3.118-1.245 2.502-1.233 1.861-2.018-4.387-1.631-8.133-2.477m9.005-2.269c-1.934-3.631-3.897-7.315-4.905-10.613s-1.077-6.238-.325-8.255 2.324-3.111 3.897-4.204"
           id="path3" />
        <path
           d="M77.142 119.794c-2.803-5.025-5.606-10.049-6.614-14.237s-.222-7.537.564-10.887m17.227 59.169c2.735-1.983 5.469-3.965 6.888-5.896s1.521-3.811 1.299-5.144-.769-2.119-1.316-2.905"
           id="path4" />
      </g>
    </g>
    <g
       stroke="#000"
       id="g55">
      <g
         stroke-width="1.023"
         id="g16">
        <path
           d="M56.333 214.334c-.29-1.16-.58-2.32-.508-3.819a12.17 12.17 0 0 1 1.402-5.003c.894-1.668 2.248-3.166 3.601-4.665m-1.015-32.339l.291 8.725-.291 9.015-.29 7.275.29 7.613m19.868 1.452l-2.743.516c-.713.226-1.076.499-1.463.789m2.611-3.046l-2.03-3.964c-.483-1.257-.677-2.417-.87-3.577m-.726 11.312c.047 1.45.097 2.997.906 4.532s2.429 3.154 4.048 4.266 3.263 1.74 4.906 2.369m2.467-1.161l-6.153-2.145c-1.706-.695-2.935-1.383-4.143-2.06m-15.807-6.816l4.206-4.206m11.456 1.305c0-1.305 0-2.61-.725-4.713s-2.175-5.003-3.19-7.058l-2.175-4.471m-1.451-10.876l1.42 5.827 1.118 4.566c.218 1.209.218 2.079.218 2.949m-.146-27.119l4.073-3.062 5.45-3.778 6.139-4.036m-26.973 62.213l-.242-3.601-.048-2.925m3.045-2.175v8.991"
           id="path5" />
        <path
           d="M61.264 202.008l-.967-4.133-.773-5.583m4.785 9.716l-1.305-5.656c-.338-1.885-.532-3.77-.725-5.656m5.366 8.266l-4.496-5.511"
           id="path6" />
        <path
           d="M58.363 185.91l3.166 7.058c1.233 2.224 2.731 4.254 4.23 6.284m-.87 8.556l2.997 4.302c.677.725.87.387.99-.459s.17-2.296.678-2.61 1.474.459 2.755 1.499l4.471 3.65"
           id="path7" />
        <path
           d="M72.575 199.687l.076-5.197c-.117-1.91-.463-4.181-.801-6.404m-11.311.29l.392-9.353c.199-2.392.478-3.603.768-4.859m-.87-2.03l1.754-3.728 3.032-5.408m5.51 14.211l.314-3.94c.121-1.039.266-1.668.411-2.296m1.16.435c.918-1.16 1.837-2.32 2.61-3.746s1.402-3.118 2.03-4.81m-3.48 3.916c-.435.677-.87 1.354-1.136 2.127s-.363 1.644-.459 2.514m.725-7.687c3.142-1.837 6.284-3.674 8.883-5.476s4.701-3.612 6.779-5.4m-10.876 9.571l5.076-4.061m-1.016-16.386l-7.082 6.768-7.904 7.13c-1.885 1.716-2.369 2.248-2.562 2.731s-.097.918 0 1.354m23.204-19.144l-5.825 4.641-6.139 4.085-2.683 1.861"
           id="path8" />
        <path
           d="M61.989 154.441l5.027-2.03 6.574-2.61m7.686-10.877l-1.885-6.381c-.918-2.417-2.272-5.269-3.625-8.121m10.586 21.318c-.773-2.61-1.547-5.221-3.128-8.744s-3.93-7.885-6.091-11.721-4.074-7.04-6.008-10.279m2.03 45.391l6.333-4.447 5.959-3.788 3.08-1.916m-14.792 11.456l3.577-2.876 5.124-3.94"
           id="path9" />
        <path
           d="M65.324 159.517c.193-.677.387-1.354 1.982-2.707s4.592-3.384 7.396-4.955l6.623-3.384c1.208-.701 1.015-.991 1.885-1.789s2.804-2.103 4.737-3.408m-14.792 64.244c.242.773.483 1.547 1.305 2.393s2.224 1.764 3.625 2.683m-12.326 2.175l-3.771-4.786m-1.739 4.061l-2.175-3.045m-.726-4.786c-.187 1.354-.387 2.804-.798 4.133s-1.039 2.586-1.668 3.843m10.442 2.901l11.021.29"
           id="path10" />
        <path
           d="M69.095 213.899c-1.051-.287-2.127-.58-3.021-.653s-1.619.072-2.344.218m27.553-60.908l3.384-5.704c.773-1.644 1.015-2.9.967-3.867s-.387-1.644-.725-2.32m-3.771-1.741l-4.713-9.571c-1.619-3.481-3.311-7.396-5.003-11.311M97.374 144c.193-.967.387-1.934-1.16-4.061s-4.834-5.414-6.768-7.541-2.514-3.094-3.094-4.061m-12.617-13.921l5.994 9.91 7.348 13.003m-16.822-23.493c-.188-1.644-.387-3.384-.266-5.366s.556-4.254.894-6.598.58-4.761 1.438-6.535 2.284-2.867 4.436-3.617 5.003-1.136 7.976-1.571l8.145-1.547c2.079-.628 3.142-1.402 3.722-2.224s.677-1.692.628-2.804-.242-2.465-.435-3.819"
           id="path11" />
        <path
           d="M77.506 116.736l-1.885-5.221"
           id="path12" />
        <path
           d="M80.261 115.721c-2.175-1.595-4.351-3.19-5.849-5.003s-2.32-3.843-3.142-5.873m1.885 11.601c-.611-1.409-1.257-2.9-1.619-4.689s-.459-3.916-.556-6.042m2.61 1.885l1.305-7.807c.435-2.393.87-4.471 1.924-5.917s2.765-2.277 4.457-3.098"
           id="path13" />
        <path
           d="M65.324 110.79l4.931-5.172 6.091-6.719m13.196-9.572c1.982-1.16 3.964-2.32 5.214-3.748s1.795-3.213 2.327-4.953m-.145 6.381c-2.369 1.208-4.737 2.417-7.759 3.215s-6.695 1.184-9.33 1.813-4.23 1.499-5.097 2.562-1.018 2.417-1.163 3.722m11.313 27.408c.949-2.087 1.934-4.254 3.674-6.937s4.254-5.922 6.768-9.16m-25.959 17.548c1.45-.87 2.9-1.74 3.891-2.61s1.523-1.74 2.054-2.61"
           id="path14" />
        <path
           d="M58.943 113.111l5.656-1.764c1.692-.701 3.094-1.571 4.496-2.441m20.157-19.724c-2.997-1.402-5.994-2.804-8.943-4.882s-5.849-4.834-8.749-7.589"
           id="path15" />
        <path
           d="M86.932 90.633l-6.091-6.236m2.756 38.72l5.317-6.043c2.417-2.949 5.801-7.299 9.185-11.65m10.586 37.416c-2.03.048-4.061.097-5.752.628s-3.045 1.547-4.181 2.538-2.054 1.958-2.617 2.802-.743 1.476-1.299 2.105-1.474 1.208-2.393 1.789m12.544-85.635l-3.659 6.938c-1.048 2.49-1.852 5.292-2.423 7.261s-.903 3.083-1.386 3.904-1.112 1.329-1.74 1.837m-29.917 94.109l.273-9.708.137-4.751m1.538-3.589l-1.846 2.136c-.479.496-.752.667-1.025.837m10.247 49.598l3.577-.508 2.224-.218m2.41-88.454l-2.991-9.229-3.982-9.058c-.991-2.666-1.265-4.751-1.111-7.024s.735-4.734 1.282-5.982 1.06-1.282 1.863-1.299l2.991-.017m-13.947 13.844l.615-7.452c.205-2.256.41-4.17 1.179-5.384s2.102-1.726 3.435-2.239m-.011 62.982l6.695-3.746 8.967-4.375c2.417-1.257 3.529-2.079 4.641-2.9m-31.904 17.475l1.216-4.353c.394-1.211.79-2.101 1.177-2.971"
           id="path16" />
      </g>
      <g
         stroke-width=".523"
         id="g54">
        <path
           d="M60.829 169.088l.145-7.323m1.885 8.048l-1.015-3.444c-.29-1.269-.508-2.719-.725-4.169m-2.031 7.251l.568-3.891c.278-1.233.689-2.369 1.1-3.505m2.61 3.045l-1.39-1.656c-.375-.544-.616-1.076-.858-1.607m3.481 1.595c-.628-.773-1.257-1.547-1.378-2.393s.266-1.764.653-2.683m-.363 5.366c-.29-.87-.58-1.74-.912-2.339s-.731-.948-1.118-1.286m1.45-3.626l2.465-1.233m3.844 2.684c-.411.943-.822 1.885-.955 2.647s.012 1.341.157 1.813.29.834.435 1.196m-2.103-6.309l6.091-2.175m-5.511 8.338c-.931-.645-1.885-1.305-2.357-1.909s-.471-1.16-.471-1.716m3.554 2.9l-1.378-1.16m-4.532 29.105l.103-6.358m.512-.717l1.829 5.127c.53 1.709.94 3.418 1.348 5.726l1.062 7.332.461 3.743c.154.53.393.427.718-.82s.735-3.64.906-5.811.102-4.187-.035-6.084l-.547-5.52"
           id="path17" />
        <path
           d="M66.99 185.628l-.103 11.588m-1.538-11.691v-10.152m6.255 31.379l-.461-5.025c-.12-1.401-.188-2.393-.53-3.623s-.957-2.7-1.572-4.17m.512-3.487l1.947 5.076c.443 1.521.583 2.854.72 4.153"
           id="path18" />
        <path
           d="M74.475 207.982l-3.487-8.101m16.669-49.718c.604-.798 1.208-1.595 1.656-2.707s.737-2.538 1.027-3.964"
           id="path19" />
        <path
           d="M87.802 143.637l1.378 3.916"
           id="path20" />
        <path
           d="M89.035 144.072c.145 1.571.29 3.142.169 4.52s-.508 2.562-.931 3.396-.882 1.317-1.341 1.801m2.755.507l4.616-1.813c1.281-.653 2.175-1.378 3.07-2.103m3.408-6.743l-.846 3.722c-.363 1.015-.846 1.692-1.366 1.994s-1.076.23-1.631.157m2.321-7.395c-.14-.678-.29-1.402-1.305-2.792s-2.9-3.468-4.786-5.547m-3.335-4.061l5.571 5.487c1.317 1.426 1.825 2.248 2.332 3.07"
           id="path21" />
        <path
           d="M96.068 147.263c-.121-2.151-.242-4.302-.937-6.252s-1.988-3.73-3.269-5.494m1.306 13.196l-1.68-5.97-1.438-4.906m4.568 9.136l-.641-3.783c-.109-1.027-.06-1.704-.55-2.652s-1.541-2.194-2.58-3.427m2.393 11.457c.024-1.402.048-2.852-.29-4.073s-1.039-2.236-1.74-3.251m11.568.084l4.683.837 4.717 1.487c1.436.41 2.632.581 3.657.461s1.88-.53 2.341-.94.53-.82.598-1.231m-13.535 1.642l10.87 1.333m-7.897-2.768h4.204m-22.046 6.665c.239-.513.479-1.025.598-1.487s.12-.872.12-1.282m1.025-12.715c-1.538-1.367-3.076-2.735-4.102-4.256s-1.538-3.196-2.034-4.614-.974-2.581-.606-3.937 1.615-2.95 4.042-5.821l9.673-11.211m-12.203 36.402l-.205-3.076m11.588 8.613c-.103-1.367-.205-2.735-.828-4.267s-1.735-3.184-3.043-4.647-2.828-2.742-4.332-4.006m-32.712 13.946l-.513-5.537m-7.076 4.819l3.897-5.742m3.076 3.999c-.376-1.675-.752-3.35-.615-4.871s.786-2.888 1.572-4.221 1.709-2.632 2.461-3.435 1.333-1.111 2.136-1.282 1.829-.205 3.12-.713 2.879-1.509 4.451-2.5"
           id="path22" />
        <path
           d="M56.735 139.688l.41-3.794m-6.255-.616l4.614-.103"
           id="path23" />
        <path
           d="M52.326 135.073l4.307.923m3.076-2.871l-2.769 2.871m13.229-8.101l4.204.205m-.923 1.436c1.231-.034 2.461-.068 3.743.171s2.615.752 3.948 1.265M58.068 140.2l.103-1.538m-3.999 1.846l2.153-3.589m-1.743-10.254l1.008-2.854a19.57 19.57 0 0 1 .94-1.965m.513 2.358c.581-.923 1.162-1.846 1.897-2.598s1.624-1.333 2.512-1.914m-46.35 2.256l5.025-2.359m4.409-.615l-6.05 2.051m2.359-.513l3.948-.581 2.512-.444"
           id="path24" />
        <path
           d="M25.869 119.897c.855-.239 1.709-.479 2.581-.889s1.76-.991 3.162-1.555 3.316-1.111 5.845-1.607l8.101-1.316 6.067-.872 5.366-.325 2.102-.205"
           id="path25" />
        <path
           d="M27.613 118.871c.615-.649 1.231-1.299 2.82-1.983s4.153-1.401 5.879-1.846l3.504-.786m1.333.001l7.776-.342 5.947-.12 5.248-.137a45.33 45.33 0 0 1 5.708.41c1.812.256 3.384.632 4.478 1.111s1.709 1.06 2.324 1.641m-5.948-5.024l-3.162.974c-1.043.222-2.068.291-3.093.359m8.203 1.128c-1.299-.547-2.598-1.094-4.427-1.213s-4.187.188-6.546.496"
           id="path26" />
        <path
           d="M51.403 115.59l7.281-3.179m1.538-1.436l5.537-4.614"
           id="path27" />
        <path
           d="M57.145 109.232l4.495-.769c1.692-.154 3.674-.154 5.657-.154"
           id="path28" />
        <path
           d="M61.042 112.206l3.452-2.341 2.085-1.453m-38.146.82l5.076.803c1.521.325 2.786.735 4.05 1.145m13.434-.205l-13.399-2.359c-2.94-.444-3.589-.376-3.572-.034s.701.957 1.453 1.419 1.572.769 2.393 1.077m45.324 10.767l1.538-4.307m-2.461-1.435l4.512-1.231m-1.846 1.846l5.23-1.641m-2.872 7.588l3.692-4.614m.615-7.896c.265-.959.547-1.983 1.171-2.798s1.631-1.475 2.623-2.124m.206 3.999l17.535-5.537"
           id="path29" />
        <path
           d="M97.445 108.309c1.538-1.162 3.076-2.324 4.717-3.076s3.384-1.094 6.29-1.213 6.973-.017 11.04.085m-21.739 2.358l5.742-3.076"
           id="path30" />
        <path
           d="M97.856 104.31l12.733-.837 12.801-.496"
           id="path31" />
        <path
           d="M110.571 105.335l6.683-1.88 8.562-1.709c2.871-.615 5.503-1.333 7.212-1.931s2.495-1.077 3.281-1.555m-53.655 21.812l-2.393-15.952m1.088 13.849l-3.625-11.239m-10.152-5.003l1.1-7.178c.471-1.909 1.1-3.094 1.414-3.19s.314.943.302 1.607l-.06 1.293m1.232-1.669c.604-.556 1.208-1.112 2.139-1.462s2.187-.495 3.384-.471 2.332.218 3.468.411m-10.369 11.239l-.906 1.631c-.23.471-.35.834-.387.242s.012-2.187.048-3.601l.085-4m2.973-1.016l-1.426 2.212c-.218.52-.048.713.218 1.366a17.45 17.45 0 0 1 .786 2.514c.157.749.109 1.136.06 1.523m-2.538-6.237l2.568-2.702c.876-.865 1.807-1.697 2.628-2.193s1.547-.665 2.272-.834m2.756 11.675l1.015-3.843m17.573-14.012l1.846-1.179m.307.666l7.383-3.999m2.41.871l7.742-2.923"
           id="path32" />
        <path
           d="M111.699 80.879l5.025.461m-77.473 9.537l.35-3.854c.179-1.085.453-1.871.726-2.658m-2.768 2.974l2.82-5.794m-.153 5.127c.444-.513.889-1.025 1.154-1.521s.35-.974.436-1.453m.563 2l.07-3.008c-.067-1.06-.275-2.239-.48-3.401M29.151 68.881l7.002 4.856c2.388 1.472 4.842 2.716 7.303 3.963m-10.357-7.178l7.537 5.589m-8.511-4l7.332 4.102"
           id="path33" />
        <path
           d="M11.154 85.032l5.469-.009a23.44 23.44 0 0 0 5.255-1.034l5.247-1.812c2.094-.581 4.777-1.043 8.229-1.632L47.25 78.52m-6.973 5.076l1.487-3.845"
           id="path34" />
        <path
           d="M15.102 84.006l12.818-.41m-5.383 1.077l-6.409-.256m7.742-1.385l15.894-6.717"
           id="path35" />
        <path
           d="M28.279 80.212c5.091-.683 10.186-1.367 14.04-2.401s6.469-2.418 9.084-3.803m-4.358 3.538l-5.435 1.231m6.255-4.769l7.323-1.786c2.162-.385 3.905-.453 5.648-.521m-1.794 1.128l-4.871-.205m-11.689 5.588l6.306-2.205m12.049-4.614l11.639 5.999m-7.486-2.615l4.517 1.903c1.338.639 2.439 1.293 3.533 1.942m-6.05-5.947l4.153 3.897m7.332 3.384l-6.05-2.307m-2.154-3.692l-3.017-2.025c-.931-.761-1.752-1.649-2.572-2.538m3.077 1.743l-3.29-5.042-2.914-4.29m5.076 6.409l.094-4.17c-.043-1.128-.197-1.863-.35-2.598m-3.179-3.896l1.598 5.478 1.427 4.623m-1.436-9.589l.333 3.717c.197 1.29.521 2.658.846 4.025"
           id="path36" />
        <path
           d="M70.015 69.291l-7.161-8.161c-2.547-2.76-5.332-5.58-7.298-7.511s-3.11-2.974-4.256-4.016m13.69 18.406l-5.46-6.546-4.127-4.939-3.794-4.153"
           id="path37" />
        <path
           d="M61.247 61.651l-2.564-2.153m2.821 1.282l-4.35-4.743c-1.581-1.461-3.358-2.743-4.495-3.461s-1.632-.872-2.287-1.143-1.482-.668-3.524-1.882-5.307-3.247-8.571-5.281"
           id="path38" />
        <path
           d="M50.583 53.038c-.803-1.231-1.607-2.461-2.752-3.529s-2.632-1.974-3.858-2.783l-3.183-2.25m-9.024 12.407l8.938-.632 8.921.068 8.597.051m-23.175 1.795l6.212-1.256c2.179-.299 4.52-.419 6.862-.538"
           id="path39" />
        <path
           d="M36.021 58.678l16.202-2.461m-.205-.718l-5.435.564M42.84 45.86l5.58 2.871c1.307.718 1.786 1.077 1.871 1.307s-.222.333-.179.538.436.513.829.82m15.638 15.485l-4.461-4.409m7.692 3.127l.222-2.786c.12-.427.308-.103.547.632s.53 1.88.615 1.307-.034-2.863-.313-4.125-.73-1.506-.807-1.574.214.034.359-.214.145-.846.145-1.444m27.448 45.057l12.472-4.858m-4.496 3.843l13.849-7.033m7.469 8.048l10.949-.072m-28.061.797l7.589-.81 5.463-.278m32.629 11.167l7.178-.145m-23.638-9.572l16.242 8.846m10.224-1.015l-4.556.834-6.538.399m.798 5.728c.957.526 1.934 1.063 2.755 1.873s1.499 1.897 2.175 2.985"
           id="path40" />
        <path
           d="M155.889 114.053l1.74 5.438m-.072-3.117l2.973 6.381m-18.49-19.796l13.414 6.671m-5.003-1.087l6.091 1.668m1.16 1.304l8.049-2.755"
           id="path41" />
        <path
           d="M154.294 110.5l6.163.58M149 108.252l-10.224-5.656m-1.595-5.51l1.595-2.03m-7.323 3.988c.653-.29 1.305-.58 2.538-1.583s3.045-2.719 4.858-4.435m1.523-.436l1.813-1.668"
           id="path42" />
        <path
           d="M138.777 96.651l2.973-3.916m2.465-3.19l5.571-3.239 3.202-1.692m-1.305 1.813c2.043-1.442 4.109-2.9 5.6-4.457s2.4-3.181 3.318-4.825"
           id="path43" />
        <path
           d="M153.569 80.481l9.463-.677c3.758-.145 8.423-.169 13.088-.193m-16.823 2.465c.798-.677 1.595-1.354 2.961-1.716s3.299-.411 5.233-.459m7.178.363l-7.178.073m-5.874-1.668l.29-6.32.58-4.919m.58 9.063l-.218-7.178"
           id="path44" />
        <path
           d="M160.675 80.989c.121-.894.242-1.789.471-2.526s.568-1.317.906-1.897m1.595-3.698l.363-.87m-6.598 5.873l2.03-3.118M83.499 87.595c-1.384-.82-2.769-1.641-3.982-2.683s-2.256-2.307-3.298-3.572m21.124-.82l4.204-7.537m-4.255 6.562l2.316-5.922 1.53-3.768m-.821 2.871l5.537-7.691m-5.64 17.177l.256-5.332"
           id="path45" />
        <path
           d="M99.906 78.007l3.546-6.563c.983-2.017 1.666-3.777 3.153-5.938s3.777-4.723 5.538-6.391 2.994-2.441 4.227-3.215m-6.452 7.759l6.357-5.438c1.764-1.378 2.997-2.103 4.23-2.828"
           id="path46" />
        <path
           d="M107.887 65.544l2.32-4.568m-2.827 3.191l-4.375-6.888c-1.668-2.151-3.65-4.085-5.632-6.018m4.641 10.223c-.338-1.16-.677-2.32-1.523-3.638s-2.199-2.792-3.553-4.266m3.481 2.901L92.515 45.46m-2.812 44.981l5.315-1.594c1.384-.62 2.188-1.372 2.581-2.098s.376-1.427.359-2.128m-11.1 3.128l5.05-.077m-32.609-70.32l10.716 5.999M62.478 21.3l20.458 5.896"
           id="path47" />
        <path
           d="M72.732 23.454l7.024 2.871m.578.572l1.523 2.61m5.003-13.704l-.145 7.976m-.508-5.294l-.363 5.825c-.218 1.571-.58 2.586-.943 3.601m-.434-3.335l-.193 5.849c-.145 1.644-.411 2.828-.677 4.012m-.29-7.25l.218 6.816m-2.031-6.526l1.591 6.539c.48 1.754.898 2.911 1.684 4.132l2.381 3.36c.435.834.145 1.196 1.269 2.067s3.662 2.248 4.846 2.792 1.015.254-.036-.761l-4.477-4.346c-1.492-1.591-2.52-3.001-2.955-5.189s-.266-5.136-.097-8.085"
           id="path48" />
        <path
           d="M86.57 23.634l-1.16 2.683m19.142 40.387l.218-4.713m7.903-.87l7.517-3.396 3.36-1.317m-7.977 5.656c1.257-1.354 2.514-2.707 4.314-3.601s4.145-1.329 5.856-1.87 2.809-1.2 3.897-1.852m-11.021 5.655l6.091-3.335m-5.874-.29l8.097-2.296c2.731-.556 5.511-.798 8.29-1.039"
           id="path49" />
        <path
           d="M120.722 57.206l8.846-5.511m-2.175 4.495c1.958-3.48 3.916-6.961 5.115-9.522s1.628-4.158 2.366-5.947 1.776-3.746 2.755-5.184 1.897-2.357 3.565-2.973 4.085-.931 6.502-1.245"
           id="path50" />
        <path
           d="M144.07 31.755l5.221-2.03M129.495 53.58l4.261-8.413 4.802-10.222m2.974-3.843l.399-5.136.544-5.088m-10.369 34.225l13.849-2.973m-.725-.943l7.245-3.899c2.169-1.337 3.994-2.748 5.807-4.15m-.653 1.016c1.595 0 3.19 0 5.245.399s4.568 1.196 7.082 1.994"
           id="path51" />
        <path
           d="M159.732 45.096l3.263-.193c1.136 0 2.344.097 3.553.193M51.765 211.579c1.571-.121 3.142-.242 4.822-.737s3.468-1.366 5.257-2.236m-9.427 4.133l5.221-1.16m-6.671 7.323l8.651-2.707c1.98-.58 2.612-.677 3.241-.774"
           id="path52" />
        <path
           d="M52.998 216.727l48.437.435m.144-2.103c-5.221-.749-10.441-1.499-14.478-2.369s-6.888-1.861-8.629-2.683-2.369-1.474-2.997-2.127m9.354 4.279l12.834.58"
           id="path53" />
        <path
           d="M83.089 214.479l14.284.508m-6.96-1.305l-7.65-1.245c-2.139-.616-3.662-1.535-5.184-2.453"
           id="path54" />
      </g>
    </g>
  </g>
  <g
     stroke="#5d5d5d"
     fill="none"
     stroke-width="1.4"
     class="C B"
     id="g180">
    <path
       d="M45.353 150.455l6.101-.205m5.999-6.255l5.384-2.871m-4.41 2.871c1.384-.427 2.769-.855 4.273-.923s3.128.222 3.264.53-1.213.632-2.735.82-3.213.239-4.905.291m.513 2.102l5.384-.872m-9.229 4.614l6.973-1.384"
       id="path56" />
    <path
       d="M55.659 151.48c1.675-.085 3.35-.171 3.674-.59s-.701-1.171-1.239-1.795-.59-1.119-.145-1.384 1.384-.299-.111-.231l-9.357.41m12.021-11.25l7.336.314c.834.242-.749.689-2.247 1.009s-2.913.514-2.702.737 2.048.477 3.885.731m-2.574-6.706c1.861.242 3.722.483 3.909.779s-1.299.647-.918.955 2.628.574 4.876.84"
       id="path57" />
    <path
       d="M48.864 142.767c.556.87 1.112 1.74 1.982 2.369s2.054 1.015 2.78 1.16.991.048 1.257-.048m-4.641 2.827c-1.015-.097-2.03-.193-2.622-.568s-.761-1.027.024-1.354 2.526-.326 4.266-.326m-3.118-6.018l-3.287 1.088c-.097-.121 1.305-.967 1.281-1.571s-1.474-.967-2.586-1.124-1.885-.109-2.079-.326.193-.701 1.499-.955 3.529-.278 5.752-.302m-2.175-4.713c-.918 0-1.837 0-2.067.266s.23.798 0 1.269-1.148.882-2.248 1.329-2.381.931-1.341 1.027 4.399-.193 7.759-.483"
       id="path58" />
    <path
       d="M54.738 134.719l-10.079.435m5.801-1.813c.169-1.281.338-2.562.955-3.045s1.68-.169 2.26-.23.677-.495.544-1.076-.495-1.305-.858-2.03"
       id="path59" />
    <path
       d="M53.505 132.688c.314-.532.628-1.063.06-1.438s-2.018-.592-2.792-.979-.87-.943-.556-1.233 1.04-.314 1.475-.375.58-.157.725-.254m2.901 3.989l-1.015-2.465m7.251-5.366c.725.024 1.45.048 1.547-.302s-.435-1.076-.967-1.801m-4.496-3.553l.713 3.625c.085 1.015-.06 1.74-.483 2.115s-1.124.399-1.982.363l-2.888-.23m-2.176-1.014c1.885-1.136 3.771-2.272 4.23-2.997s-.508-1.039-1.474-1.354"
       id="path60" />
    <path
       d="M52.998 122.392l8.604 1.354c-.048.242-4.471.169-8.894.097m9.281-5.367c-.846-.218-1.692-.435-.616-1.063s4.073-1.668 7.07-2.707"
       id="path61" />
    <path
       d="M74.46 122.537c-1.088-.242-2.175-.483-2.103-.773s1.305-.628.858-.786-2.574-.133-2.78-.58 1.511-1.366.894-1.837-3.565-.495-5.342-.773-2.381-.81-2.985-1.341m-20.591 8.99l5.011-3.684c.129-.397-2.038.446-2.697.464s.175-.768 1.311-1.517 2.562-1.45 2.236-1.813-2.405-.387-2.707-.653 1.172-.773 2.647-1.281m-29.657 8.919c-.246 1.353-.483 2.659-.344 3.052s.683-.175 1.686-.961l3.952-2.816m10.296-2.393c.653-1.257 1.305-2.514 1.511-2.236s-.036 2.091-.278 3.903m-20.521 10.225l3.843.87m3.916-1.523l1.233 1.015m18.997 2.901c-1.837-.072-3.674-.145-3.783-.665s1.511-1.486 2.84-2.067 2.369-.773 3.408-.967"
       id="path62" />
    <path
       d="M22.691 124.152c-.752.085-1.504.171-1.461.504s.88.914 1.923 1.282 2.29.521 3.538.675m6.818 1.846c-1.06.496-2.119.991-3.7.855s-3.683-.906-5.004-1.442-1.875-.848-2.422-1.156m1.436 1.692c.308.598.615 1.196 1.538 1.572s2.461.53 3.999.684"
       id="path63" />
    <path
       d="M30.535 128.869c-1.401-.564-2.803-1.128-3.76-1.863s-1.47-1.641-1.453-2.256.564-.94 2.597-1.205 5.555-.47 9.076-.675m-1.23 4.666l-2.205-1.897m.769 3.692l-3.538-4.204"
       id="path64" />
    <path
       d="M26.792 126.254c1.002-.425 2.017-.855 2.153-1.461s-.598-1.393-.521-1.795.966-.419 1.854-.436m9.127 1.488l-.256-2.666m-.308.871c-.957-.103-1.914-.205-2.35-.701s-.35-1.384-.265-2.273m-17.816 3.038c.193-.508.387-1.015-.435-1.354s-2.659-.508-4.012-.604l-3.094-.145"
       id="path65" />
    <path
       d="M13.407 119.056c-.882 1.249-1.74 2.465-2.441 2.985s-1.233.326-1.118-.306.9-1.736 1.335-2.28.532-.544.628-.544m-6.489-.29l4.604.29m-3.335-1.559l3.082.725m3.988 1.596c-.52.81-1.039 1.619-1.704 2.181s-1.474.876-2.063.861-.946-.348-.505-1.085 1.686-1.873 2.193-2.9.278-1.946-.272-2.532-1.42-.84-1.77-.725-.181.598-.012 1.082"
       id="path66" />
    <path
       d="M13.697 116.591l-4.387.653m6.635 1.45c1.499-.725 2.997-1.45 3.227-1.837s-.81-.435-1.849-.483m3.408.072c.495-.024.991-.048.979-.381s-.532-.973-1.263-1.311-1.674-.375-2.477-.568-1.468-.544-2.133-.894"
       id="path67" />
    <path
       d="M17.939 115.685c.628-.858 1.257-1.716 1.378-2.344s-.266-1.027.048-1.221 1.329-.181 1.639-.907-.092-2.211-.159-2.954.199-.755.973-.205 2.054 1.662 3.335 2.774"
       id="path68" />
    <path
       d="M23.559 113.763l-6.127-5.692"
       id="path69" />
    <path
       d="M18.374 113.509c-.109-.677-.218-1.354.821-1.764s3.227-.556 5.372-.562l6.351.26m2.321.217l-5.064 1.988c-1.1.586-1.317 1.057-.61.858s2.338-1.07 3.97-1.94"
       id="path70" />
    <path
       d="M31.136 116.555l-.798-4.459m-5.51-5.62c1.668-.036 3.335-.072 3.196.471s-2.085 1.668-2.309 2.187 1.275.435 2.774.35m1.813-3.189c-.786.628-1.571 1.257-1.263 1.752s1.71.858 2.949 1.172l3.39.846m-6.2-.072l3.335.87m1.995-2.03c.181-.641.363-1.281.22-1.936s-.619-1.339-1.405-1.907-1.885-1.027-2.109-.87.429.931 1.223 1.572 1.72 1.147 2.559 1.376 1.589.181 2.338.133m3.736 4.024l5.553-1.184 4.997-1.426m-15.082-.616l6.345-.363m-5.004 4.169c-.181-.906-.363-1.813.242-2.351s1.994-.707 3.384-.876m-6.961-4.676l5.027-.598c1.499-.332 2.731-.864 3.964-1.396m-10.079-1.342l11.094 1.414m-9.39 4.822c.332-.273.677-.556 1.329-.683s1.619-.103 2.586-.079m5.113-5.582l5.91 5.565 5.039 5.638m-9.173-2.212c.326-.447.653-.894.242-1.088s-1.559-.133-1.892-.387.151-.822-.332-1.1-1.934-.266-2.604-.483-.562-.665-.489-1.184.109-1.112.145-1.704"
       id="path71" />
    <path
       d="M48.103 108.833c1.124-.399 2.248-.798 1.408-1.045s-3.644-.344-3.039-.918 4.616-1.625 3.789-1.903-6.496.218-8 .115 1.154-.804 2.151-1.323.332-.858-.332-1.196"
       id="path72" />
    <path
       d="M42.882 106.041l6.671-.03c1.499.042 1.909.163 2.32.284m1.376-1.421l3.555 3.546c.667.367.555-.487.414-1.53s-.312-2.273.009-2.649 1.132.103 1.944.581"
       id="path73" />
    <path
       d="M47.414 101.364l3.118 4.931m4.206 3.335c-1.378-2.103-2.755-4.206-2.635-4.87s1.74.109 2.441.181.483-.556-.387-1.499-2.393-2.199-3.299-2.719-1.196-.302-1.003.181.87 1.233 1.946 2.054 2.55 1.716 4.024 2.61m8.412 2.177l-2.248-6.091m.725-1.595c.483 1.426.967 2.852 1.553 3.838s1.299 1.552 1.867 1.684 1.003-.157 1.438-.447m-2.538 2.828l2.629-1.517c.695-.454 1.142-.851 1.577-1.238m4.64-.798c.338 1.644.677 3.287 1.136 3.19s1.039-1.934 1.499-2.151.798 1.184 1.088 1.958.532.918.773 1.063m4.206 4.352l-4.858 4.133c-.604.846.314.894 1.354.798s2.199-.338 3.36-.58m-5.657-17.548c.918 2.417 1.837 4.834 2.659 5.269s1.547-1.112 1.474-.628-.943 2.997-.732 2.342 1.53-4.566 2.013-5.146.145 2.127.024 3.674-.024 1.934.073 2.32M66.049 89.908c.338 1.74.677 3.48 1.136 3.529s1.039-1.595 1.354-1.378.363 2.296.411 4.375m7.541-3.626c-1.208 1.112-2.417 2.224-2.248 2.586s1.716-.024 2.538-.459.918-.918 1.015-1.402m4.931 1.015l6.091 3.045m-3.481-5.365c2.417.773 4.834 1.547 4.906 2.079s-2.199.822-2.272 1.015 2.054.29 4.181.387M17.83 92.808c-1.813-.121-3.625-.242-3.097-.796s3.412-1.548 3.677-1.923-2.079-.133-2.187-.592 2.018-1.619 4.145-2.78m-3.045 1.16c-2.683 0-5.366 0-7.1-.333s-2.544-1.02-2.266-1.431 1.631-.556 2.514-.495 1.293.326 2.719.326 3.867-.266 6.308-.532"
       id="path74" />
    <path
       d="M17.54 92.735c-2.561.145-5.124.29-5.45-.181s1.583-1.559 2.115-2.187-.314-.798-.254-1.1 1.027-.737 1.994-1.172m3.626 2.61c.532-.822 1.063-1.644.967-2.079s-.822-.483-.706-.794 1.093-.897 2.06-1.478m7.612-2.9c1.378.073 2.755.145 3.71-.06s1.486-.689 2.018-1.172m-14.066 5.945l13.269-4.278m-11.674 5.656c1.015.967 2.03 1.934 1.764 2.381s-1.813.375-2.006.822.967 1.414 2.127 2.381m4.713-.581c-1.039.532-2.079 1.063-2.973 1.317s-1.644.23-2.393.205m3.336-.362l7.444-.81c1.499-.085 1.523.109.931.773s-1.801 1.801-3.009 2.937m4.64-11.746l-5.994 4.604c-.822 1.027.121 1.293 1.245 1.595l3.905.907c1.476.266 3.117.459 4.452-.125s2.387-1.978 3.426-3.355m-5.728 1.74c2.393-.991 4.786-1.982 5.825-2.876s.725-1.692.085-1.909-1.607.145-2.042-.06-.338-.979-.242-1.752"
       id="path75" />
    <path
       d="M18.265 89.11l10.804-.725m1.233.145l3.843-3.625M31.97 87.95l6.671-3.771m-5.366 8.629c.725-.701 1.45-1.402 1.45-1.716s-.725-.242-.392-.601 1.745-1.163 3.147-1.961m8.122 3.408l1.825-2.308 2.453-3.13m-6.381 9.063c-1.136.387-2.272.773-2.586.375s.193-1.583 1.124-2.888 2.284-2.731 3.045-3.444.931-.713 1.1-.713m1.16 2.9l2.973.363m-15.59 6.235l.218-4.351m-4.133-2.827c-.677.58-1.354 1.16-1.1 1.499s1.438.435 2.622.532M17.178 81.206l-8.701-3.045m7.033-.508l-6.816.218m5.656-.87c-.773-.58-1.547-1.16-1.293-1.39s1.535-.109 1.511-.399-1.354-.991-.822-.991 2.925.701 5.317 1.402"
       id="path76" />
    <path
       d="M27.692 79.104c-1.184-.387-2.369-.773-2.761-1.119s.03-.669-.659-1.249-2.477-1.426-4.266-2.272m-2.393 9.425L8.67 82.657c-.435-.459 2.949-.991 6.332-1.523m-8.193 4.568l12.979-1.958m5.366-1.523L18 82.33c-.097-.133 3.239-.52 3.828-1.004s-1.556-1.063-3.707-1.643m10.368 1.451c-1.789-.242-3.577-.483-3.589-.749s1.752-.556 3.517-.846m2.683 1.812l4.786.29m-12.037 4.641l3.771-1.958m34.514 5.293c.967.459 1.934.918.894 1.644s-4.085 1.716-5.644 1.97-1.631-.23-1.486-.471.508-.242.87-.242m-3.48-6.889l8.774 3.988m-8.919-6.09l8.629 5.946m-13.343-6.961l4.919.048c-.157-.193-3.009-.701-3.434-1.136s1.585-.798 3.591-1.161m4.423-1.594c-1.378.242-2.755.483-2.32.882s2.683.955 4.375 1.245 2.828.314 2.192-.3-3.062-1.876-3.485-2.323 1.148-.085 2.719.278m1.015 0l5.438 6.743m-5.438 0h6.526"
       id="path77" />
    <path
       d="M62.931 79.539l3.287 5.172c.967 1.16 1.74 1.474 2.018 2.477s.06 2.695-.157 4.387m2.611-4.133l-3.311 6.103c-.749.834-.967-.133-1.184-1.1m3.262-8.048c-1.16-.508-2.32-1.015-1.716-1.136s2.973.145 3.384-.653-1.136-2.659-1.813-2.985-.483.882-.29 2.091m-12.979 2.683c-.87-.556-1.74-1.112-1.438-1.619s1.776-.967.749-1.221-4.556-.302-8.085-.35m-18.272-10.08l-8.339-1.813m-2.683-1.449l7.323 1.088m.726 1.159c.532-.822 1.063-1.644.858-2.357s-1.148-1.317-2.091-1.921"
       id="path78" />
    <path
       d="M22.688 66.777l7.323.073"
       id="path79" />
    <path
       d="M22.761 68.227c.314-.363.628-.725-.048-1.535s-2.344-2.067-2.335-2.49 1.707-.011 2.867-.011 1.789-.411 1.257-1.293-2.224-2.236-3.166-2.502-1.136.556-.81 1.184 1.172 1.063 2.018 1.499m2.9 2.175c1.378-.628 2.755-1.257 4.496-1.644s3.843-.532 5.946-.677m-12.11-1.449l17.765 1.015m-6.598 8.048c.532-.58 1.063-1.16 1.245-1.789s.012-1.305.048-1.704.278-.52.979-.085 1.861 1.426 3.021 2.417m-4.568 3.192l8.544-1.329c3.082-.556 6.514-1.281 9.946-2.006m-20.666 1.594l13.052-.508m10.587-3.552l2.248 1.885m-2.103 1.088l-3.625-1.305"
       id="path80" />
    <path
       d="M53.36 70.33l2.61-1.45m2.103-2.321l-5.003-1.885m-7.106 5.656l6.091-3.263"
       id="path81" />
    <path
       d="M39.946 69.315c5.462-.29 10.925-.58 11.191-.786s-4.665-.326-5.946-.725 1.088-1.076 3.456-1.752m-10.369-.508l3.19.435m-4.133.798c-.047-.677-.097-1.402-.786-1.462s-2.018.52-2.097.355 1.118-1.092.96-1.576-1.655-.532-3.154-.58m7.18.363l6.743-2.103"
       id="path82" />
    <path
       d="M44.876 64.239c-1.233-.943-2.465-1.885-1.676-2.841s3.585-1.92 4.552-2.573.097-.991-1.523-1.136-3.988-.097-6.357-.048"
       id="path83" />
    <path
       d="M37.335 62.136c1.257-.894 2.514-1.789 3.082-2.671s.447-1.752.326-2.622m-8.208 3.373c.205-.752.41-1.504-.12-1.829s-1.795-.222-1.128-1.025 3.264-2.512 5.862-4.221"
       id="path84" />
    <path
       d="M23.819 55.396h11.177m1.128 0c1.06-1.06 2.119-2.119 2.307-2.735s-.496-.786-1.619-.634-2.705.634-3.867 1.112-1.914.957-2.666 1.436m1.333-1.947c-.752-.103-1.504-.205-1.624-.41s.393-.513-.154-.615-2.153 0-2.08-.206 1.807-.716 2.405-1.195.051-.923.957-1.077 3.264-.017 5.623.12m-5.537-.309c2.085-.923 4.17-1.846 4.136-2.256s-2.188-.308-1.794-.786 3.333-1.538 5.401-2.427 3.264-1.607 4.461-2.324M28.946 35.4l7.315 3.692c2.119.889 3.76 1.265 5.401 1.641"
       id="path85" />
    <path
       d="M24.229 41.143l4.717 2.256m2.358.615l-5.332-4.204m3.794-2.974l6.631 3.64 3.503 2.205c.837.376 1.556.342.548-.701s-3.743-3.093-5.11-4.375-1.367-1.795-1.367-2.307m.717 12.51l2.871-1.743m12.203-.103c-.513-1.777-1.025-3.555-1.436-3.965s-.718.547-.974.034-.461-2.495-.837-2.957-.923.598-1.179.53-.223-1.196-.188-2.359m-6.973 6.871l6.563.41m5.229.308l2.615 2.7c.701.786 1.145 1.401 1.094.701s-.598-2.717-1.145-4.734m.923 2.359c.649-1.607 1.299-3.213 1.983-3.999s1.401-.752 1.829.137.564 2.632.632 4.238l.137 4.17c.068 1.025.205 1.572.342 2.119m-1.539.615l-1.025-6.665m4.101 6.153l-1.743-3.999m-.308 5.434l-1.538-8.921M41.251 61.139c1.641-.444 3.281-.889 2.666-1.231s-3.486-.581-4.136-1.47.923-2.427 2.615-3.367 3.504-1.282 5.315-1.624m-9.434 2.667l6.563-2.905c1.777-.581 2.94-.581 4.102-.581"
       id="path86" />
    <path
       d="M42.789 56.729l-1.743-5.127m31.276 5.538l-7.896-1.128m6.665 16.304c1.078-1.583 2.188-3.213 2.188-4.136s-1.094-1.162-1.897-1.624-1.316-1.145-1.829-1.829m-5.435-11.074c-.41.889-.82 1.777-.684 2.222s.82.444.991.889-.171 1.333.359 1.555 1.931-.222 2.239.256-.479 1.88-1.265 3.281"
       id="path87" />
    <path
       d="M70.066 60.113l-7.178 2.666m6.46 2.051c-.957-.034-1.914-.068-1.931-.769s.906-2.068 1.829-3.435m3.486 8.101c.957-1.299 1.914-2.598 1.367-3.299s-2.598-.803-4.649-.906m-.922-6.87c.581-1.401 1.162-2.803 1.948-2.358s1.777 2.734 2.581 4.102 1.419 1.812 2.034 2.256"
       id="path88" />
    <path
       d="M73.553 62.985c1.231-1.025 2.461-2.051 2.324-3.367s-1.641-2.922-3.145-4.529"
       id="path89" />
    <path
       d="M78.372 59.088c-2.222-.239-4.444-.479-5.974-1.32s-2.4-2.337-3.255-3.807m16.1 29.532l-.308-2.461m5.435-.82l-4.563-.957c-.735-.273-.291-.479-1.658-.923s-4.546-1.128-7.725-1.812"
       id="path90" />
    <path
       d="M84.935 79.084c-1.267.069-2.529.137-2.522-.21s1.257-1.089.386-1.722-3.88-1.145-5.008-2.324-.376-3.025.41-2.854 1.607 2.359 2.427 4.546"
       id="path91" />
    <path
       d="M81.243 75.905c.771-.503 1.572-1.025.598-1.265s-3.709-.205-5.2-.58-1.721-1.095-1.123-1.386 2.034-.12 3.469.051m-.205-1.434l9.183-.323c1.458-.186.491-.497-.785-.973s-2.894-1.13-2.535-1.506 2.683-.479 2.068-.632-4.17-.359-5.691-.632-1.008-.615.41-.94l4.951-.908c1.208-.276 1.322-.579.262-.801s-3.281-.393-4.375-.564-1.06-.342-.034-.803 3.042-1.213 5.059-1.965m-4.821-5.848l2.974 3.384"
       id="path92" />
    <path
       d="M85.345 61.344l.103-2.359m6.87 23.688c.82-2.256 1.641-4.512 2.991-6.409s3.23-3.435 5.11-4.973m-.205 2.153l-3.333 3.486c-.256.068.769-1.504 1.795-3.076m-6.666 3.794l5.025-5.64"
       id="path93" />
    <path
       d="M92.01 80.315c2.017-2.94 4.033-5.879 4.068-7.178s-1.914-.957-1.846-1.248 2.153-1.213 1.965-1.607-2.649-.256-3.35-.564.359-1.06 1.795-1.436 3.247-.376 4.624-.629 2.349-.773 3.306-1.286m.513-3.588l-5.948 1.846m.616 1.231l-6.87-9.229"
       id="path94" />
    <path
       d="M103.495 61.241l-8.067 2.444c-1.914.53-2.666.632-1.983-.205s2.803-2.615 4.17-3.76l2.598-2.171"
       id="path95" />
    <path
       d="M112.519 59.806c-4.409.068-8.819.137-11.616-.032s-4.004-.583-5.201-.993"
       id="path96" />
    <path
       d="M92.626 54.268c-.649-.41-1.299-.82.325.325l9.417 6.546m-10.46-4.41l10.049 4.922"
       id="path97" />
    <path
       d="M107.802 56.934l-14.664.513m4.615-1.743l-17.227-5.23m15.996 21.637c.923-.923 1.846-1.846 1.265-1.863s-2.666.872-4.751 1.76M79.808 54.166l-3.487-2.871"
       id="path98" />
    <path
       d="M80.423 52.217l-8.204-.923m11.588-1.948l-10.87 1.743"
       id="path99" />
    <path
       d="M88.832 52.115c-2.085-1.128-4.17-2.256-7.913-3.042s-9.143-1.231-14.544-1.675m7.383-.615c-2.94-.376-5.879-.752-6.341-1.265s1.555-1.162 2.102-1.812-.376-1.299.513-2.068 3.589-1.658 6.289-2.547m9.434 10.255c-.547-1.812-1.094-3.623-2.393-5.657s-3.35-4.29-5.401-6.546m8.717 11.178c.718-.171 1.436-.342 1.043-.923s-1.897-1.572-3.401-2.564"
       id="path100" />
    <path
       d="M74.886 48.116c1.675-.171 3.35-.342 3.418-.803s-1.47-1.213-.718-1.743 3.794-.837 3.914-1.231-2.683-.872-5.486-1.35m2.563 3.486l6.768-1.641"
       id="path101" />
    <path
       d="M73.347 44.937l11.075-1.436m-18.458-6.255l7.246 3.145c1.641.41 2.119-.137 1.76-.837s-1.555-1.555-3.469-2.222-4.546-1.145-6.819-1.094-4.187.632-6.016 1.077-3.572.752-3.401.393 2.256-1.384 4.461-2.034 4.529-.923 6.853-1.196m10.973-1.334h-2.256m-7.383 2.666l7.383-3.179"
       id="path102" />
    <path
       d="M74.578 34.375l-6.46 2.051m11.587 1.23l-1.333-2.564m2.461-.102l-3.281.103m-1.436 2.461h-8.614m17.433 7.075l-2.359-3.281m-8.613 6.357c1.128-.82 2.256-1.641 2.888-2.632s.769-2.153.906-3.316M58.325 26.786c-2.222.017-4.444.034-4.29-.376s2.683-1.248 3.854-1.675.983-.444.795-.461m.512.564l6.289 1.307c.513.385-1.35.692-3.213 1m2.667 1.538l-3.487.461m-1.999 5.436l2.256-1.538m1.384-3.589c-.12.564-.239 1.128.479 1.521s2.273.615 2.29 1.119-1.504 1.29-3.025 2.077"
       id="path103" />
    <path
       d="M61.042 32.324l1.077-3.538m7.691 2c1.931-.94 3.862-1.88 3.256-2.042s-3.751.453-5.384.735-1.752.231-1.871.179m7.588-2.513l-5.845 1.692"
       id="path104" />
    <path
       d="M71.912 29.606l3.538-1.384m-6.615-.256l1.077-1.589m-8.306 1.281c2.307-.308 4.614-.615 5.341-1.025s-.128-.923-.983-1.436m-7.178-1.128l-4.777.051c-.162-.154 1.82-.564 3.435-.949l4.11-1.102"
       id="path105" />
    <path
       d="M62.478 25.043c.273-.53.547-1.06.461-1.589s-.53-1.06-.974-1.589m4.307 2.973l-2.974-2.564m-14.561-1.23l16.202.154m-13.844 1.435l1.478.043 6.366.214m-6.664 3.845l4.307-1.436m19.842 4.666l-5.23-5.537"
       id="path106" />
    <path
       d="M79.398 29.35l-8.306-4.82m9.536 2.974l-8.511-5.537m-.718 1.333l1.47-6.494c.376-.547.581 1.333 1.008 1.76s1.077-.598 1.487-.291.581 1.948.752 3.589m-8.921-.718l-1.846-4.102m-6.255-2.871c1.743 1.436 3.487 2.871 3.897 3.64s-.513.872-1.88.53-3.179-1.128-4.99-1.914m1.332 2.769c.855.308 1.709.615 2.136.444s.427-.82.427-1.47m2.974-3.076c2.871-.205 5.742-.41 6.136-1.008s-1.692-1.589-3.777-2.581"
       id="path107" />
    <path
       d="M64.939 12.635l4.512 6.87m-.718 1.334l-1.641-4.409"
       id="path108" />
    <path
       d="M72.527 21.146l-4.512-2.461m2.974-2.05l3.076-2.461m0 .717c.137 1.401.273 2.803.684 3.23s1.094-.12 1.145.308-.53 1.829.103 1.812 2.478-1.453 4.324-2.888"
       id="path109" />
    <path
       d="M80.423 22.069L79.5 17.66m.513 9.024c.068-1.231.137-2.461.291-2.564s.393.923.632 1.948m-.718 2.872l-4.409-3.589m6.87 1.846l1.35-4.461c.051-.564-.496.256-1.043 1.077m-.205-3.692l4.922-.923m-3.794-.923l3.179-1.025M76.116 9.149c1.436 1.743 2.871 3.487 3.333 3.401s-.051-2 .222-2.341 1.333.889 1.983 1.111.889-.564 1.128-1.35"
       id="path110" />
    <path
       d="M86.268 7.611l-5.332 4.102m5.332 2.153l-.718-5.127"
       id="path111" />
    <path
       d="M81.141 12.738l1.333-2.461m-3.384 3.794l1.231-4.102m1.538-2.051l-3.692 2.461m7.896.616l3.606-1.658c.803-.222 1.008.051.171.632s-2.717 1.47-2.478 1.829 2.598.188 3.025.444-1.077.94-1.128 1.487 1.35.957 2.752 1.367m2.255-4.409l-1.948 1.743"
       id="path112" />
    <path
       d="M91.395 8.328l-3.487 6.255m-.409 9.23l1.965-4.888c.325-.171.154 1.846.513 1.606s1.248-2.734 2.136-5.23m2.256 1.641l-1.743 6.768"
       id="path113" />
    <path
       d="M91.088 17.147l1.025 13.946"
       id="path114" />
    <path
       d="M89.755 21.967c-.41 1.47-.82 2.94.12 2.991s3.23-1.316 4.409-2.085 1.248-.94 1.316-1.111m3.076-.616l-3.999 11.382"
       id="path115" />
    <path
       d="M99.291 26.786l-1.025-5.742m-4.922 11.177l1.795-5.879c.496-1.709.837-3.042.598-1.675s-1.06 5.435-2.273 8.545-2.82 5.264-2.803 6.118 1.658.41 2.529-.034.974-.889 1.077-1.333m-2.462 2.667l2.769-1.948m-6.255-1.641l3.794-5.537"
       id="path116" />
    <path
       d="M90.78 35.708l2.376-8.699c.393-2 .188-2.649-.017-3.299m.615-7.998l-2.564 5.127M73.553 18.48c.342 1.06.684 2.119 1.179 1.795s1.145-2.034 1.795-3.743"
       id="path117" />
    <path
       d="M96.728 40.015c-.103-1.572-.205-3.145-1.265-4.546s-3.076-2.632-5.093-3.862m8.819 7.997l-1.538-4.102m-.103-5.639L95.6 31.196m-6.461 5.435c-.308-1.436-.615-2.871-.154-4.119s1.692-2.307 2.922-3.367m1.949 0l.513-4.922m7.383-8.204c-.068 1.025-.137 2.051.615 2.136s2.324-.769 3.897-1.624"
       id="path118" />
    <path
       d="M103.188 20.736l-1.333-7.793m3.179 5.948l-2.359-5.948"
       id="path119" />
    <path
       d="M101.957 13.251c1.162-.615 2.324-1.231 2.324-.786s-1.162 1.948-1.077 2.017 1.419-1.299 2.444-1.709 1.743.137 1.914 1.231-.205 2.734-.53 4.512l-.872 5.606m2.258-3.796l-.308-7.076"
       id="path120" />
    <path
       d="M109.956 16.224l-6.87-1.333m6.46-1.025l-6.665.41M90.37 54.884l4.615 2.051m11.382-2.769c-2.94-.308-5.879-.615-6.033-1.077s2.478-1.077 4.837-1.983 4.444-2.102 4.444-2.974-2.085-1.419-2.17-2.119 1.829-1.555 3.794-2.598 3.982-2.273 4.649-3.008-.017-.974-2.341-1.094-6.289-.12-8.169-.564-1.675-1.333.051-2.632 4.973-3.008 8.221-4.717"
       id="path121" />
    <path
       d="M100.829 33.247l12.613-1.538m-7.383-.718c1.538-.615 3.076-1.231 2.734-1.555s-2.564-.359-2.905-.735 1.196-1.094 1.453-1.504-.769-.513-1.795-.615"
       id="path122" />
    <path
       d="M109.238 28.94c2.769.513 5.537 1.025 5.469 1.812s-2.974 1.846-5.879 2.905"
       id="path123" />
    <path
       d="M110.571 34.272c3.042-1.983 6.084-3.965 6.17-4.649s-2.786-.068-5.657.547"
       id="path124" />
    <path
       d="M107.597 29.145c3.521-1.299 7.041-2.598 8.169-2.393s-.137 1.914-1.401 3.623m-5.845-3.076c2.803-1.436 5.606-2.871 5.264-3.145s-3.828.615-4.221.564 2.307-1.043 5.008-2.034M98.778 44.219l9.639 9.332m1.436-1.026l-8.716-7.998"
       id="path125" />
    <path
       d="M102.983 42.681l-1.436 8.204m2.359-.411l-.41-7.178m1.127-1.333l4.717-6.768"
       id="path126" />
    <path
       d="M108.11 45.142l-.82-9.844m1.948 1.743l3.794-3.076m-3.589 7.485l3.487-7.178m.615 2.769l-4.307 7.178m2.358 4.922l-1.025-6.563"
       id="path127" />
    <path
       d="M113.647 46.68l-5.025 5.435m-2.665-2.871l1.846-3.794m-1.129 7.793l8.409-1.897c.615-.461-2.051-.667-2.974-1.231s-.103-1.487.718-2.41m-37.326 54.964c5.742-.581 11.485-1.162 12.664-1.504s-2.205-.444-5.589-.547m-4.512-.82c1.88-.649 3.76-1.299 3.162-1.624s-3.674-.325-3.811-.701 2.666-1.128 5.469-1.88m-.923 16.715l4.409-7.178m-3.999 7.896l6.973-5.127m-.82-5.127c.308 2.153.615 4.307.94 4.375s.667-1.948.974-2.239.581 1.145.855 2.581m5.127-5.64c-2.29 1.06-4.58 2.119-4.666 1.88s2.034-1.777 4.153-3.316m1.333 6.563l-1.64-3.486m3.486-2.359l10.254-4.717"
       id="path128" />
    <path
       d="M104.726 98.055c.034-1.436.068-2.871.427-3.811s1.043-1.384 1.333-1.521.188.034-.068.837l-1.077 3.674"
       id="path129" />
    <path
       d="M98.471 99.901l8.306-4.512m-6.973-6.768l7.178-6.665"
       id="path130" />
    <path
       d="M98.778 86.262l9.024-.205m1.026-1.333c1.094-1.162 2.188-2.324 3.23-4.119s2.034-4.221 3.025-6.648"
       id="path131" />
    <path
       d="M108.418 78.981c1.538-2.017 3.076-4.033 3.948-4.238s1.077 1.401 1.983 1.008 2.512-2.786 2.94-2.905-.325 2.034-1.077 4.187m2.46-1.948l-.513 2.051m5.948 8.203c2.119-1.162 4.238-2.324 6.512-2.923s4.7-.632 7.127-.667m-17.967-45.934c.725-.363 1.45-.725.701-1.088s-2.973-.725-2.804-1.027 2.731-.544 5.293-.786m.508 2.394c.87-.894 1.74-1.789 1.329-2.272s-2.103-.556-3.795-.628m-.144-.363l5.438-1.378m-4.931-.798l5.402-.786c1.293-.302 1.825-.665 1.233-1.063s-2.308-.834-3.396-1.112l-2.006-.52m-5.293-4.495l10.586.073m-.942.507l-6.308.725c-.991.338-.314.822.266 1.341s1.063 1.076 1.547 1.631"
       id="path132" />
    <path
       d="M122.172 23.561l6.888 7.759"
       id="path133" />
    <path
       d="M130.293 31.537c-2.006.073-4.012.145-4.786.435s-.314.798-.169 1.414-.024 1.341-.193 2.067m-.363 10.876l-.508-9.934m-9.191 15.31l9.639 3.487"
       id="path134" />
    <path
       d="M119.8 50.782l4.307 2.974"
       id="path135" />
    <path
       d="M122.774 49.551l.598 2.666c.051.684-.12 1.06-.291 1.436"
       id="path136" />
    <path
       d="M125.85 50.372h-3.487m-14.971 11.587l6.255-5.742m-.102 6.255l10.87 4.409m-6.768-5.947l13.843 3.794m-2.615-13.69c-.205-.393-.41-.786-.855-2.068s-1.128-3.452-.863-3.427 1.478 2.247 1.906 2.059.068-2.786.265-3.076.949 1.726 1.581 1.632 1.145-2.299.94-2.076-1.128 2.871-2.051 5.52m-.923-8.459l3.281 3.128"
       id="path137" />
    <path
       d="M129.183 41.912l4.409-1.077m-1.743-.923l5.742-1.436m-12.254 8.307l1.846-5.879c.342-1.436.273-2.085.205-2.735m-1.64 1.538v-3.076m2.666 8.818l-.615-3.692"
       id="path138" />
    <path
       d="M132.413 44.732l.615-9.844m2.461-.103l.222-5.948c-.12-2.051-.53-4.204-.94-6.358"
       id="path139" />
    <path
       d="M134.156 35.4c-.171-2.359-.342-4.717.222-6.734s1.863-3.692 3.162-5.366m-8.203 14.664l3.487-5.948"
       id="path140" />
    <path
       d="M132.515 37.143l.222-7.93c.154-1.846.427-2.495.701-3.145m-2.461-2.46l5.127 3.692m1.334-1.231c0-.718 0-1.436-.649-2.307s-1.948-1.897-3.042-2.529-1.983-.872-2.871-1.111"
       id="path141" />
    <path
       d="M132.618 18.378l1.231 2.871m1.743-3.897l.205 5.537m1.333-3.793c.991 1.196 1.983 2.393 2.444 2s.393-2.376.325-4.358m.512 2.153c.308.444.615.889.906.256s.564-2.341.837-4.05m.103 18.047l-6.46-8.204m-4.307 14.562l-.718-3.692m.308-4.614l1.128-4.512m-2.051-1.128l-1.538-2.153m25.457-9.993l-6.816-3.698m8.339-1.16l-6.163.653m-1.233-3.481l2.9 1.74m-4.06.362l4.931.459c.967.073.918.024.87-.024m-3.336-3.117l2.465 1.378m-4.794 14.727l-2.666.718m3.794.615l-3.076-.205m8.511 2.871L144 23.915m-2.871-1.128c1.983 1.88 3.965 3.76 5.332 4.05s2.119-1.008 3.076-.94 2.119 1.504 3.281 2.94m-8.407.103l5.025-1.538"
       id="path142" />
    <path
       d="M146.974 30.581l.82-6.563m-14.663 20.919l10.049-8.614m-8.511 7.998l12.1-9.229m-1.743 3.692l3.589-1.914c-.308.41-2.871 2.393-5.435 4.375m-1.846-1.23l7.588-5.23m-2.05-3.076l5.742.325c.752.188-.239.496-1.248.855l-3.059 1.179"
       id="path143" />
    <path
       d="M139.283 35.195l10.562.103m-15.586 10.664l6.46-4.82m-7.281 8.512l4.82-5.127m-2.051 4.306l2.615-2.034c.222.017-.53 1.077.171 1.008s2.854-1.265 5.008-2.461"
       id="path144" />
    <path
       d="M139.386 43.604l.103 6.153"
       id="path145" />
    <path
       d="M137.643 49.141l10.767-.205m-3.897-.615l6.153-2.051m-8.819-1.231l7.178 1.436"
       id="path146" />
    <path
       d="M141.95 48.833l1.333-4.922m-4.205 7.794l9.332 1.641m-19.381 1.64l9.639 5.127m-6.973-.923c3.931 1.777 7.862 3.555 9.913 4.734s2.222 1.76 2.393 2.341m-25.842-4.921l9.229-.615m-2.974-3.384l4.614 2.461m-23.171 16.687l-1.269 3.456c-.447.943-.931 1.571-1.414 2.199m11.674 3.264l-3.77-2.03c-.145-.193 1.378.338 2.9.87m3.771 2.175c.314.266.628.532.81.073s.23-1.644.278-2.828m-2.901.87l-3.771-5.511m-7.395 6.381l3.553-1.813"
       id="path147" />
    <path
       d="M108.032 75.913l-.145 7.251m6.091-11.819l-.29 3.988m1.305-1.523c.411-.846.822-1.692 1.402-1.789s1.329.556 2.054.423 1.426-1.051 2.127-1.97m-.144 5.367c-.991 2.054-1.982 4.109-1.269 4.169s3.13-1.873 5.547-3.807m1.74-.29l-1.305 1.958m-5.003 7.106l-5.003-3.118m5.438 2.61l-5.438-4.278m-3.699-13.197l11.312-1.595m-10.006 2.321h4.061"
       id="path148" />
    <path
       d="M118.401 69.46c-1.208-.193-2.417-.387-1.837-1.16s2.949-2.127 4.786-2.755 3.142-.532 3.408-.677-.508-.532.314-.749 3.239-.266 5.656-.314m0-1.596l10.876-.58"
       id="path149" />
    <path
       d="M143.055 65.109c-1.644-2.03-3.287-4.061-2.828-4.326s3.021 1.233 3.239.435-1.909-3.891-4.036-6.985m-15.953 4.495l4.786 2.03"
       id="path150" />
    <path
       d="M136.515 55.499l4.888 2.068c1.06.632 1.265 1.179 1.47 1.726m7.485-2.153l-11.588-3.179m5.128-1.333l5.537 3.384m-.615-4.41l1.436 5.23m1.23.102l2.769-4.102"
       id="path151" />
    <path
       d="M161.638 54.063l-9.434 1.128m-6.973 7.896l-5.64-3.794m-10.665 4.409c-.649-1.06-1.299-2.119-.94-2.427s1.726.137 3.093.581m29.431-15.279l7.264 4.187c.496.085-1.897-1.795-4.29-3.674m3.589 1.538c1.231 1.094 2.461 2.188 3.35 2.581s1.436.085 1.179-1.128-1.316-3.333-2.376-5.452"
       id="path152" />
    <path
       d="M162.766 57.447l-6.255-5.025m-2.974 1.744l2.461-3.589m-3.486.102l5.537-1.641"
       id="path153" />
    <path
       d="M159.485 54.268c-.034-1.196-.068-2.393-.564-3.965s-1.453-3.521-1.248-3.931 1.572.718 2.94 1.846m-8.409-2.871l2.717-4.153c.667-1.213.974-2.171.974-1.606s-.308 2.649.051 2.734 1.384-1.829 2.119-3.076 1.179-1.829 1.607-1.162.837 2.581 1.589 3.042 1.846-.53 2.359.034.444 2.683.889 3.162 1.401-.684 1.743-.513.068 1.675-.205 3.179"
       id="path154" />
    <path
       d="M154.357 42.168c-1.846-.137-3.692-.273-3.914-.889s1.179-1.709 2.171-2.085 1.572-.034 2.923.41 3.469.991 4.905 2 2.188 2.478 2.478 3.384.12 1.248-.051 1.589m-8.306-3.281l5.435 5.025m7.383-.103l-.615-4.717m-7.794-6.768l3.298 2.632c.769.581 1.043.718 1.316.855M109.99 98.101l5.148-7.033m-2.175 4.278l6.997-3.239c.326.097-2.357 1.958-1.958 2.26s3.879-.955 4.786-.882-.761 1.474.858.834 6.526-3.323 11.432-6.006m-25.305 12.834l10.659-3.48"
       id="path155" />
    <path
       d="M122.172 99.334c1.16-.798 2.32-1.595.58-1.752s-6.381.326-11.021.81"
       id="path156" />
    <path
       d="M114.848 98.029l12.327-6.526m-11.747 4.06l6.526-4.133m15.952.58c.604-1.45 1.208-2.9 1.825-3.553s1.245-.508 1.221.628-.701 3.263-1.269 5.221l-1.39 5.027c-.363 1.281-.628 2.054-1.124 1.39s-1.221-2.767-1.897-3.299-1.305.508-1.934 1.547"
       id="path157" />
    <path
       d="M132.468 98.681c-1.015-.266-2.03-.532-.568-1.499s5.402-2.635 8.145-3.468 4.29-.834 4.471-.242-1.003 1.776-2.187 2.961m-1.015-4.858l3.819-5.487c.58-1.281.121-1.74-.641-1.45s-1.825 1.329-2.381 2.308-.604 1.897-.653 2.816m2.177 1.813l3.19-3.19m.87 2.465l-2.103-13.777m.653 2.973l1.45-3.335m.218 2.32l2.175-4.351m-.58 6.671l-.145-4.496m.363 3.481l6.308-9.354m-5.076 13.705l1.305-6.888"
       id="path158" />
    <path
       d="M152.626 82.584l.363-8.556m.942 5.076v-8.121m.943 1.377l.58-2.465"
       id="path159" />
    <path
       d="M156.469 77.073l-1.233-6.526m2.538 4.424l.072-2.973"
       id="path160" />
    <path
       d="M154.729 79.611l2.417-4.532c.483-.955.483-1.076.483-1.196m-1.088 1.305l.218-4.496m4.496-.217l-.072-7.541m-2.394 15.735l3.553-4.641m-8.338 12.834l8.701-6.816m-.145-10.731l.798-4.931m-.508 5.366l3.916-5.221m-1.813 5.801l1.668-4.931m-1.088 10.659l2.973-3.48m-1.596 2.973l6.816-6.308m-5.365 6.67l8.266-4.931m-7.034 4.931l7.396-2.538m-5.22 4.423l8.991-1.305m-9.789-.29l4.496-.87m-92.523 41.331l12.979.508"
       id="path161" />
    <path
       d="M93.458 116.519c-.918 1.329-1.837 2.659-.834 2.647s3.928-1.366 4.242-1.293-1.982 1.571-3.251 2.308-1.511.713-1.752.689m3.19-.653c-.169.604-.338 1.208.616 1.063s3.033-1.039 5.112-1.934"
       id="path162" />
    <path
       d="M96.358 119.129l1.16-2.973m-6.525-2.32l11.529 2.683m2.683.217c1.16-.097 2.32-.193 2.514-1.112s-.58-2.659-1.353-4.399m-2.322 4.714c-1.257-1.329-2.514-2.659-2.961-3.589s-.085-1.462.749-1.68 2.139-.121 3.444-.024m-.216 4.712l-1.088-1.958m1.958 5.149l-4.351-6.888m5.221 3.117l-3.263-3.408m-1.221-2.241l9.229 3.692m.718.205l4.614 5.332m3.487 3.077c-2.615-.649-5.23-1.299-6.828-2.213s-2.179-2.094-2.76-3.273"
       id="path163" />
    <path
       d="M116.365 119.692l-4.409-3.538m5.537 1.846l-2.769-6.819"
       id="path164" />
    <path
       d="M115.391 116.564c2.854-.017 5.708-.034 6.221.47s-1.316 1.53-3.145 2.555m2.545 2.223c.242-.29.483-.58-.024-.967s-1.764-.87-3.021-1.354m-1.233-13.196l-1.088 3.77m2.32.218l10.731-.435m-8.99 2.102l6.526.145m-3.989 2.828l2.393-1.74m-2.9-.145l3.263.145m-10.369 2.683l4.568-1.305m6.888-10.007l4.351-.435m-.508 1.886l3.916-.218m-6.816 1.233l10.151-1.16m-6.525 2.61l5.728-2.393m-3.916 3.118l5.728-2.9m-8.411 8.556l.072-3.118m-12.108-1.16l9.934 1.523m5.945-2.466c1.523-.435 3.045-.87 3.263-.58s-.87 1.305-.906 1.656.979.036 1.994-.278m3.843-6.236c-.483 1.523-.967 3.045-.435 3.529s2.079-.072 3.625-.628"
       id="path165" />
    <path
       d="M142.475 110.065l1.74-3.19m-11.819 2.32l-1.668 1.305m1.16 3.626l2.526-2.477c.06.181-1.051 1.873-.363 1.813s3.178-1.873 3.033-1.68-2.925 2.393-1.946 2.393 5.716-2.199 7.577-3.154.846-.665-.169-.375"
       id="path166" />
    <path
       d="M135.284 109.847c-1.043.786-2.085 1.572-2.615 2.401s-.547 1.701.179 2.29 2.196.897 5.683-.761 8.99-5.281 14.493-8.904"
       id="path167" />
    <path
       d="M136.669 110.257l5.845.205m-5.26 3.664l3.408 6.961m3.19.362l-5.366-6.453m8.049 3.263l-7.251-3.335"
       id="path168" />
    <path
       d="M145.883 119.564c-.387-1.378-.773-2.755-1.511-3.819s-1.825-1.813-2.997-2.308-2.429-.737-3.686-.979m.145 2.683l-1.281 2.695c-.266.665-.29.979.387.87s2.054-.64 3.432-1.172m1.668.435l-.653-3.553m8.556-12.834l-16.025-.145m14.792-5.511l-14.429 5.438m16.895-3.19l-11.239 2.32m19.867-6.236l-7.577 4.387c-2.502 1.245-4.967 2.163-6.647 2.405s-2.574-.193-3.468-.628m7.831-9.499l-6.441 3.843c-1.994 1.088-3.758 1.885-2.792 1.124s4.665-3.082 8.363-5.402m-1.088-1.016l2.9-3.48m5.947-.218l-4.568 5.003"
       id="path169" />
    <path
       d="M159.224 86.427l-7.106 4.278m8.194-2.103l-7.251 2.973m-6.598 4.351l.218-6.163"
       id="path170" />
    <path
       d="M155.889 92.808l4.568-4.568m-3.19 5.148l4.568-5.221m-2.248 6.164l1.233-4.713m4.423-8.629c-.749 1.208-1.499 2.417-2.308 3.323s-1.68 1.511-.677 1.341 3.879-1.112 6.755-2.054"
       id="path171" />
    <path
       d="M164.953 83.527l1.16-.943m5.511-1.668l6.441 3.07c.544.459-1.317.073-3.178-.314m5.655 1.45l-6.961-5.148m0-1.451l-.508-1.305m-22.477 23.493l9.499-4.858m-6.454 3.916l12.327-4.931m-7.179 5.801l6.888-5.148m-5.075 4.713l8.049-4.278"
       id="path172" />
    <path
       d="M160.675 94.983c1.716-.991 3.432-1.982 3.287-2.344s-2.151-.097-2.671-.242.447-.701 1.414-1.257m-15.423 29.474l5.845-3.897"
       id="path173" />
    <path
       d="M148 119.692c1.231.034 2.461.068 2.803.461s-.205 1.145-.239 1.521.444.376 1.35 1.196 2.239 2.461 3.025 2.734 1.025-.82 1.829-.701 2.171 1.453 3.538 2.786m4.408-1.332c.547-.444 1.094-.889.786-1.487s-1.47-1.35-1.521-1.897 1.008-.889 1.555-1.333.581-.991 1.47-.427 2.632 2.239 4.375 3.914m1.334-1.744l1.333 1.436m2.051-.513c.615-.068 1.231-.137 1.128-.632s-.923-1.419-1.743-2.341m3.589 5.024c1.231-1.06 2.461-2.119 2.7-2.94s-.513-1.401-1.265-1.983m-25.052-5.967c-1.136.072-2.272.145-1.716.332s2.804.489 5.051.792m-3.816 1.05l11.28.82m-12.921 1.436l14.254-1.436"
       id="path174" />
    <path
       d="M154.152 122.563l5.435-2.564m-9.126 1.641c-1.367.957-2.735 1.914-2.649 2.769s1.624 1.607 2.564 2.205 1.282 1.043 1.624 1.487m.101-1.436l-.615-2.769"
       id="path175" />
    <path
       d="M149.128 126.972l2.051-5.127m4.511 4.717l-1.641-3.076m5.128 1.64l-3.487-3.897m13.947 4l-3.897-4.307m3.384-2.666c1.641-1.743 3.281-3.487 2.974-3.931s-2.564.41-3.486.222-.513-1.419-1.077-1.829-2.102 0-2.854.085-.718-.154-.684-.393m-12.408-6.87c-1.06 2.427-2.119 4.854-2.051 5.828s1.265.496 2.837.103 3.521-.701 5.469-1.008m7.691-1.641c-.752.786-1.504 1.572-2.957 1.487s-3.606-1.043-5.76-2m9.435-.923h-9.126m-4 1.333c.923-1.06 1.846-2.119 1.196-2.273s-2.871.598-2.786.205 2.478-1.931 4.871-3.469m-1.435 3.076l10.972-2.871m4.717-13.228l-1.453 5.332c-.017.684.667-.273 1.299-1.504s1.213-2.734 1.795-4.238m1.128 4.512l-1.333-2.153m-6.461 7.075c-.684.547-1.367 1.094-.444.513l5.982-3.999m-15.792 9.638c2.666-.923 5.332-1.846 5.418-2.307s-2.41-.461-2.974-.684.803-.667 2.171-1.111"
       id="path176" />
    <path
       d="M163.176 105.028l6.87-9.639m-4.101 6.87l6.717-1.111c.564.188-1.384 1.213-3.333 2.239m-3.384.308l6.888.82c.803.342-.632.786-2.068 1.231"
       id="path177" />
    <path
       d="M165.74 107.796l4.102-10.767m-37.301 28.553c-1.499-.048-2.997-.097-3.154-.314s1.027-.604 2.212-.991m.942-1.378l-2.828.29m-19.795 20.158c.773-.435 1.547-.87 1.656-1.1s-.447-.254-.399-.483.701-.665 1.354-1.1m4.422.363c1.402.097 2.804.193 2.828.713s-1.329 1.462-1.535 1.813.737.109 1.68-.133m-5.221 1.595l6.9.471c.81.23-.616.568-2.042.906"
       id="path178" />
    <path
       d="M113.906 141.825l-3.408.072m1.668-3.045l-1.813 2.538m2.833 9.219l5.734 4.102c1.119.581 1.051-.017.171-.966s-2.572-2.247-4.264-3.546m.512-.411l4.204 3.23"
       id="path179" />
    <path
       d="M116.826 150.25l1.111.496.427.222m-5.537.205l.82 1.641m2 4.05l-.205-4.05m4.204 3.486l-3.384-2.666m1.59-6.563c1.965-.615 3.931-1.231 3.871-1.769s-2.145-1-4.23-1.461m1.64-.821l1.948-1.025m-8.715 7.486l2.769 2.256m-47.633-8.665l-1.948 1.846m-.81-54.648l-1.233.798m7.179-.218l4.423-1.16"
       id="path180" />
  </g>
  <g
     fill="none"
     stroke="#000"
     stroke-width=".5"
     class="C"
     id="g187">
    <path
       d="M32.26 215.349l78.601 1.45"
       id="path181" />
    <path
       d="M35.16 213.319l25.717.242 41.466.389c8.305.34 4.94 1.013-8.257 1.4l-46.938.87c-10.731.387-9.185 1.063.677 1.402s28.037.338 39.639.532 16.629.58 7.444.773-32.581.193-37.995.193 7.154 0 19.723 0m-49.597.58l42.056 2.32m10.441-2.61l26.104 1.74M17.666 120.409c4.102-.752 8.204-1.504 11.365-2.478s5.384-2.171 8.409-2.786 6.853-.649 10.682-.684m15.586-1.025l6.153-2.564m15.621 30.953c-.628-2.852-1.257-5.704-2.949-9.716s-4.447-9.185-7.203-14.357m14.357 19.867l-11.142-18.756c-3.021-4.931-5.003-7.879-6.985-10.828m-9.861 72.8l1.16-11.602m3.48 17.693c.58-5.801 1.16-11.602 2.199-15.348s2.538-5.438 4.036-7.13m-1.739 4.93l5.946-7.686m-10.297 6.671c1.595-3.964 3.19-7.928 5.093-10.246s4.14-2.999 6.363-3.676"
       id="path182" />
    <path
       d="M74.578 200.599c-1.983-4.854-3.965-9.708-5.23-13.809s-1.812-7.452-2.359-10.801m-2.871 29.532l.615-4.102m-14.971-55.784l4.768-6.99 3.487-4.871c.906-1.367 1.555-2.598 3.042-3.555s3.811-1.641 6.238-3.059 4.956-3.572 7.486-5.725m12.149 6.178c1.74-4.399 3.48-8.798 5.801-12.496s5.221-6.695 8.605-8.459 7.251-2.296 12.275-2.972l17.405-2.321M97.664 145.16c1.766-1.193 3.577-2.417 6.212-2.683s6.115.411 8.798.58 4.568-.169 6.453-.508m8.159-41.418c4.307-1.983 8.614-3.965 10.972-5.674s2.769-3.145 3.179-4.58m2.051-.616c4.893-2.786 9.844-5.606 12.75-7.828s3.794-3.862 4.683-5.503m-87.186 2.101c-3.094-4.737-6.188-9.475-9.632-13.885s-7.287-8.545-11.662-11.905-9.305-5.97-14.236-8.58m8.122 33.065c1.692-1.16 3.384-2.32 5.825-3.263s5.632-1.668 9.054-1.045 7.116 2.616 10.79 4.598"
       id="path183" />
    <path
       d="M47.487 75.986c2.852-1.354 5.704-2.707 9.281-2.852s7.879.918 12.182 1.982m4.205 2.9L55.608 56.263m50.177 9.136c-1.837-3.094-3.674-6.188-6.526-10.272s-6.719-9.16-10.586-14.236"
       id="path184" />
    <path
       d="M107.525 63.224L94.957 49.665c-3.48-3.988-5.897-7.178-7.686-9.595l-4.109-5.704"
       id="path185" />
    <path
       d="M86.473 39.604c-.649-3.726-1.299-7.452-1.265-10.613s.752-5.76 1.47-8.357"
       id="path186" />
    <path
       d="M82.679 27.914c2.085 5.503 4.17 11.006 6.443 15.057s4.734 6.648 7.195 9.246m12.803 11.152c2.055-1.911 4.157-3.867 7.416-5.196s7.714-2.055 12.161-2.78m1.886-2.32l2.175-7.251"
       id="path187" />
  </g>
</svg>
